G04 #@! TF.GenerationSoftware,KiCad,Pcbnew,9.0.6*
G04 #@! TF.CreationDate,2025-12-24T13:11:47-08:00*
G04 #@! TF.ProjectId,pifire-relay-module-SSR,70696669-7265-42d7-9265-6c61792d6d6f,v1.0.2*
G04 #@! TF.SameCoordinates,Original*
G04 #@! TF.FileFunction,Copper,L1,Top*
G04 #@! TF.FilePolarity,Positive*
%FSLAX46Y46*%
G04 Gerber Fmt 4.6, Leading zero omitted, Abs format (unit mm)*
G04 Created by KiCad (PCBNEW 9.0.6) date 2025-12-24 13:11:47*
%MOMM*%
%LPD*%
G01*
G04 APERTURE LIST*
G04 Aperture macros list*
%AMRoundRect*
0 Rectangle with rounded corners*
0 $1 Rounding radius*
0 $2 $3 $4 $5 $6 $7 $8 $9 X,Y pos of 4 corners*
0 Add a 4 corners polygon primitive as box body*
4,1,4,$2,$3,$4,$5,$6,$7,$8,$9,$2,$3,0*
0 Add four circle primitives for the rounded corners*
1,1,$1+$1,$2,$3*
1,1,$1+$1,$4,$5*
1,1,$1+$1,$6,$7*
1,1,$1+$1,$8,$9*
0 Add four rect primitives between the rounded corners*
20,1,$1+$1,$2,$3,$4,$5,0*
20,1,$1+$1,$4,$5,$6,$7,0*
20,1,$1+$1,$6,$7,$8,$9,0*
20,1,$1+$1,$8,$9,$2,$3,0*%
G04 Aperture macros list end*
G04 #@! TA.AperFunction,ComponentPad*
%ADD10R,1.508000X1.508000*%
G04 #@! TD*
G04 #@! TA.AperFunction,ComponentPad*
%ADD11C,1.508000*%
G04 #@! TD*
G04 #@! TA.AperFunction,ComponentPad*
%ADD12C,1.600000*%
G04 #@! TD*
G04 #@! TA.AperFunction,ComponentPad*
%ADD13O,1.600000X1.600000*%
G04 #@! TD*
G04 #@! TA.AperFunction,ComponentPad*
%ADD14R,1.500000X1.050000*%
G04 #@! TD*
G04 #@! TA.AperFunction,ComponentPad*
%ADD15O,1.500000X1.050000*%
G04 #@! TD*
G04 #@! TA.AperFunction,ComponentPad*
%ADD16C,2.000000*%
G04 #@! TD*
G04 #@! TA.AperFunction,ComponentPad*
%ADD17RoundRect,0.250000X0.725000X-0.600000X0.725000X0.600000X-0.725000X0.600000X-0.725000X-0.600000X0*%
G04 #@! TD*
G04 #@! TA.AperFunction,ComponentPad*
%ADD18O,1.950000X1.700000*%
G04 #@! TD*
G04 #@! TA.AperFunction,ComponentPad*
%ADD19R,3.000000X3.000000*%
G04 #@! TD*
G04 #@! TA.AperFunction,ComponentPad*
%ADD20C,3.000000*%
G04 #@! TD*
G04 #@! TA.AperFunction,Conductor*
%ADD21C,3.000000*%
G04 #@! TD*
G04 #@! TA.AperFunction,Conductor*
%ADD22C,0.400000*%
G04 #@! TD*
G04 APERTURE END LIST*
D10*
G04 #@! TO.P,K1,1*
G04 #@! TO.N,L*
X68660000Y-68250000D03*
D11*
G04 #@! TO.P,K1,2*
G04 #@! TO.N,PWR*
X61040000Y-68250000D03*
G04 #@! TO.P,K1,3*
G04 #@! TO.N,+5V*
X50880000Y-68250000D03*
G04 #@! TO.P,K1,4*
G04 #@! TO.N,Net-(Q4-C)*
X48340000Y-68250000D03*
G04 #@! TD*
D12*
G04 #@! TO.P,R8,1*
G04 #@! TO.N,Net-(Q4-B)*
X38440000Y-61832500D03*
D13*
G04 #@! TO.P,R8,2*
G04 #@! TO.N,GND*
X46060000Y-61832500D03*
G04 #@! TD*
D10*
G04 #@! TO.P,K4,1*
G04 #@! TO.N,Net-(F3-Pad2)*
X68660000Y-37000000D03*
D11*
G04 #@! TO.P,K4,2*
G04 #@! TO.N,FAN*
X61040000Y-37000000D03*
G04 #@! TO.P,K4,3*
G04 #@! TO.N,+5V*
X50880000Y-37000000D03*
G04 #@! TO.P,K4,4*
G04 #@! TO.N,Net-(Q3-C)*
X48340000Y-37000000D03*
G04 #@! TD*
D14*
G04 #@! TO.P,Q4,1,C*
G04 #@! TO.N,Net-(Q4-C)*
X42332500Y-67852500D03*
D15*
G04 #@! TO.P,Q4,2,B*
G04 #@! TO.N,Net-(Q4-B)*
X42332500Y-66582500D03*
G04 #@! TO.P,Q4,3,E*
G04 #@! TO.N,GND*
X42332500Y-65312500D03*
G04 #@! TD*
D12*
G04 #@! TO.P,R2,1*
G04 #@! TO.N,Net-(Q1-B)*
X38440000Y-41250000D03*
D13*
G04 #@! TO.P,R2,2*
G04 #@! TO.N,GND*
X46060000Y-41250000D03*
G04 #@! TD*
D16*
G04 #@! TO.P,F2,1*
G04 #@! TO.N,PWR*
X75750000Y-56000000D03*
G04 #@! TO.P,F2,2*
G04 #@! TO.N,Net-(F2-Pad2)*
X75760000Y-50920000D03*
G04 #@! TD*
D12*
G04 #@! TO.P,R6,1*
G04 #@! TO.N,Net-(Q3-B)*
X38440000Y-30750000D03*
D13*
G04 #@! TO.P,R6,2*
G04 #@! TO.N,GND*
X46060000Y-30750000D03*
G04 #@! TD*
D10*
G04 #@! TO.P,K2,1*
G04 #@! TO.N,Net-(F1-Pad2)*
X68660000Y-47750000D03*
D11*
G04 #@! TO.P,K2,2*
G04 #@! TO.N,AUG*
X61040000Y-47750000D03*
G04 #@! TO.P,K2,3*
G04 #@! TO.N,+5V*
X50880000Y-47750000D03*
G04 #@! TO.P,K2,4*
G04 #@! TO.N,Net-(Q1-C)*
X48340000Y-47750000D03*
G04 #@! TD*
D12*
G04 #@! TO.P,R4,1*
G04 #@! TO.N,Net-(Q2-B)*
X38440000Y-51750000D03*
D13*
G04 #@! TO.P,R4,2*
G04 #@! TO.N,GND*
X46060000Y-51750000D03*
G04 #@! TD*
D12*
G04 #@! TO.P,R3,1*
G04 #@! TO.N,Net-(Q2-B)*
X35750000Y-51380000D03*
D13*
G04 #@! TO.P,R3,2*
G04 #@! TO.N,R_IGN*
X35750000Y-59000000D03*
G04 #@! TD*
D17*
G04 #@! TO.P,J6,1,Pin_1*
G04 #@! TO.N,+5V*
X28000000Y-53750000D03*
D18*
G04 #@! TO.P,J6,2,Pin_2*
G04 #@! TO.N,GND*
X28000000Y-51250000D03*
G04 #@! TO.P,J6,3,Pin_3*
G04 #@! TO.N,R_PWR*
X28000000Y-48750000D03*
G04 #@! TO.P,J6,4,Pin_4*
G04 #@! TO.N,R_IGN*
X28000000Y-46250000D03*
G04 #@! TO.P,J6,5,Pin_5*
G04 #@! TO.N,R_AUG*
X28000000Y-43750000D03*
G04 #@! TO.P,J6,6,Pin_6*
G04 #@! TO.N,R_FAN*
X28000000Y-41250000D03*
G04 #@! TD*
D16*
G04 #@! TO.P,F3,1*
G04 #@! TO.N,PWR*
X68000000Y-29250000D03*
G04 #@! TO.P,F3,2*
G04 #@! TO.N,Net-(F3-Pad2)*
X62920000Y-29240000D03*
G04 #@! TD*
D10*
G04 #@! TO.P,K3,1*
G04 #@! TO.N,Net-(F2-Pad2)*
X68660000Y-58000000D03*
D11*
G04 #@! TO.P,K3,2*
G04 #@! TO.N,IGN*
X61040000Y-58000000D03*
G04 #@! TO.P,K3,3*
G04 #@! TO.N,+5V*
X50880000Y-58000000D03*
G04 #@! TO.P,K3,4*
G04 #@! TO.N,Net-(Q2-C)*
X48340000Y-58000000D03*
G04 #@! TD*
D12*
G04 #@! TO.P,R5,1*
G04 #@! TO.N,Net-(Q3-B)*
X35750000Y-30190000D03*
D13*
G04 #@! TO.P,R5,2*
G04 #@! TO.N,R_FAN*
X35750000Y-37810000D03*
G04 #@! TD*
D12*
G04 #@! TO.P,R7,1*
G04 #@! TO.N,Net-(Q4-B)*
X35750000Y-61272500D03*
D13*
G04 #@! TO.P,R7,2*
G04 #@! TO.N,R_PWR*
X35750000Y-68892500D03*
G04 #@! TD*
D14*
G04 #@! TO.P,Q2,1,C*
G04 #@! TO.N,Net-(Q2-C)*
X42332500Y-57500000D03*
D15*
G04 #@! TO.P,Q2,2,B*
G04 #@! TO.N,Net-(Q2-B)*
X42332500Y-56230000D03*
G04 #@! TO.P,Q2,3,E*
G04 #@! TO.N,GND*
X42332500Y-54960000D03*
G04 #@! TD*
D14*
G04 #@! TO.P,Q3,1,C*
G04 #@! TO.N,Net-(Q3-C)*
X42332500Y-36500000D03*
D15*
G04 #@! TO.P,Q3,2,B*
G04 #@! TO.N,Net-(Q3-B)*
X42332500Y-35230000D03*
G04 #@! TO.P,Q3,3,E*
G04 #@! TO.N,GND*
X42332500Y-33960000D03*
G04 #@! TD*
D12*
G04 #@! TO.P,R1,1*
G04 #@! TO.N,Net-(Q1-B)*
X35750000Y-40690000D03*
D13*
G04 #@! TO.P,R1,2*
G04 #@! TO.N,R_AUG*
X35750000Y-48310000D03*
G04 #@! TD*
D16*
G04 #@! TO.P,F1,1*
G04 #@! TO.N,PWR*
X75750000Y-46790000D03*
G04 #@! TO.P,F1,2*
G04 #@! TO.N,Net-(F1-Pad2)*
X75760000Y-41710000D03*
G04 #@! TD*
D14*
G04 #@! TO.P,Q1,1,C*
G04 #@! TO.N,Net-(Q1-C)*
X42332500Y-47290000D03*
D15*
G04 #@! TO.P,Q1,2,B*
G04 #@! TO.N,Net-(Q1-B)*
X42332500Y-46020000D03*
G04 #@! TO.P,Q1,3,E*
G04 #@! TO.N,GND*
X42332500Y-44750000D03*
G04 #@! TD*
D19*
G04 #@! TO.P,J1,1,Pin_1*
G04 #@! TO.N,L*
X86000000Y-55500000D03*
D20*
G04 #@! TO.P,J1,2,Pin_2*
G04 #@! TO.N,IGN*
X86000000Y-50420000D03*
G04 #@! TO.P,J1,3,Pin_3*
G04 #@! TO.N,AUG*
X86000000Y-45340000D03*
G04 #@! TO.P,J1,4,Pin_4*
G04 #@! TO.N,FAN*
X86000000Y-40260000D03*
G04 #@! TD*
D21*
G04 #@! TO.N,PWR*
X75750000Y-56000000D02*
X72750000Y-53000000D01*
X75205484Y-46790000D02*
X75750000Y-46790000D01*
X72750000Y-49245484D02*
X75205484Y-46790000D01*
X72750000Y-53000000D02*
X72750000Y-49245484D01*
G04 #@! TO.N,Net-(F1-Pad2)*
X75760000Y-41740000D02*
X75760000Y-41710000D01*
X74500000Y-43000000D02*
X75760000Y-41740000D01*
X69025484Y-47750000D02*
X73775484Y-43000000D01*
X73775484Y-43000000D02*
X74500000Y-43000000D01*
X68660000Y-47750000D02*
X69025484Y-47750000D01*
D22*
G04 #@! TO.N,+5V*
X48427500Y-63500000D02*
X50880000Y-65952500D01*
X50880000Y-65952500D02*
X50880000Y-68250000D01*
X28000000Y-57000000D02*
X34500000Y-63500000D01*
X50880000Y-47750000D02*
X50880000Y-37000000D01*
X50880000Y-61047500D02*
X50880000Y-58000000D01*
X28000000Y-53750000D02*
X28000000Y-57000000D01*
X48427500Y-63500000D02*
X50880000Y-61047500D01*
X34500000Y-63500000D02*
X48427500Y-63500000D01*
X50880000Y-58000000D02*
X50880000Y-47750000D01*
D21*
G04 #@! TO.N,AUG*
X69250000Y-42000000D02*
X73000000Y-38250000D01*
X73000000Y-38250000D02*
X78910000Y-38250000D01*
X65250000Y-42000000D02*
X69250000Y-42000000D01*
X61040000Y-47750000D02*
X61040000Y-46210000D01*
X61040000Y-46210000D02*
X65250000Y-42000000D01*
X78910000Y-38250000D02*
X86000000Y-45340000D01*
G04 #@! TO.N,IGN*
X84830000Y-50420000D02*
X86000000Y-50420000D01*
X80250000Y-56750000D02*
X80250000Y-55000000D01*
X63790000Y-60750000D02*
X76250000Y-60750000D01*
X80250000Y-55000000D02*
X84830000Y-50420000D01*
X76250000Y-60750000D02*
X80250000Y-56750000D01*
X61040000Y-58000000D02*
X63790000Y-60750000D01*
G04 #@! TO.N,FAN*
X65750000Y-33500000D02*
X71670000Y-33500000D01*
X62250000Y-37000000D02*
X65750000Y-33500000D01*
X61040000Y-37000000D02*
X62250000Y-37000000D01*
X86000000Y-40260000D02*
X79240000Y-33500000D01*
X79240000Y-33500000D02*
X71670000Y-33500000D01*
G04 #@! TD*
G04 #@! TA.AperFunction,Conductor*
G04 #@! TO.N,GND*
G36*
X52943039Y-25520185D02*
G01*
X52988794Y-25572989D01*
X53000000Y-25624500D01*
X53000000Y-31922185D01*
X52999500Y-31929815D01*
X52999500Y-38820186D01*
X53000000Y-38827816D01*
X53000000Y-42797185D01*
X52999500Y-42804815D01*
X52999500Y-49695186D01*
X53000000Y-49702816D01*
X53000000Y-53047185D01*
X52999500Y-53054815D01*
X52999500Y-59945186D01*
X53000000Y-59952816D01*
X53000000Y-63422185D01*
X52999500Y-63429815D01*
X52999500Y-70320186D01*
X53000000Y-70327816D01*
X53000000Y-70375500D01*
X52980315Y-70442539D01*
X52927511Y-70488294D01*
X52876000Y-70499500D01*
X29003051Y-70499500D01*
X28996968Y-70499351D01*
X28976900Y-70498365D01*
X28663071Y-70482947D01*
X28650962Y-70481754D01*
X28323305Y-70433151D01*
X28311369Y-70430777D01*
X27990055Y-70350292D01*
X27978411Y-70346759D01*
X27666540Y-70235170D01*
X27655301Y-70230515D01*
X27355844Y-70088883D01*
X27345121Y-70083150D01*
X27061011Y-69912862D01*
X27050893Y-69906102D01*
X26784829Y-69708775D01*
X26775423Y-69701055D01*
X26635364Y-69574113D01*
X26529986Y-69478604D01*
X26521395Y-69470013D01*
X26298944Y-69224576D01*
X26291224Y-69215170D01*
X26093897Y-68949106D01*
X26087137Y-68938988D01*
X26068267Y-68907505D01*
X25916844Y-68654871D01*
X25911120Y-68644163D01*
X25769479Y-68344688D01*
X25764829Y-68333459D01*
X25725212Y-68222738D01*
X25661717Y-68045281D01*
X25653240Y-68021588D01*
X25649707Y-68009944D01*
X25640958Y-67975015D01*
X25569219Y-67688617D01*
X25566848Y-67676694D01*
X25554358Y-67592495D01*
X25530662Y-67432748D01*
X25518245Y-67349037D01*
X25517052Y-67336927D01*
X25514237Y-67279635D01*
X25500649Y-67003032D01*
X25500500Y-66996948D01*
X25500500Y-66878711D01*
X27149500Y-66878711D01*
X27149500Y-67121288D01*
X27181161Y-67361785D01*
X27243947Y-67596104D01*
X27281714Y-67687281D01*
X27336776Y-67820212D01*
X27458064Y-68030289D01*
X27458066Y-68030292D01*
X27458067Y-68030293D01*
X27605733Y-68222736D01*
X27605739Y-68222743D01*
X27777256Y-68394260D01*
X27777263Y-68394266D01*
X27817803Y-68425373D01*
X27969711Y-68541936D01*
X28179788Y-68663224D01*
X28403900Y-68756054D01*
X28638211Y-68818838D01*
X28818586Y-68842584D01*
X28878711Y-68850500D01*
X28878712Y-68850500D01*
X29121289Y-68850500D01*
X29169388Y-68844167D01*
X29361789Y-68818838D01*
X29468861Y-68790148D01*
X34449500Y-68790148D01*
X34449500Y-68994851D01*
X34481522Y-69197034D01*
X34544781Y-69391723D01*
X34637715Y-69574113D01*
X34758028Y-69739713D01*
X34902786Y-69884471D01*
X35057749Y-69997056D01*
X35068390Y-70004787D01*
X35184607Y-70064003D01*
X35250776Y-70097718D01*
X35250778Y-70097718D01*
X35250781Y-70097720D01*
X35355137Y-70131627D01*
X35445465Y-70160977D01*
X35546557Y-70176988D01*
X35647648Y-70193000D01*
X35647649Y-70193000D01*
X35852351Y-70193000D01*
X35852352Y-70193000D01*
X36054534Y-70160977D01*
X36249219Y-70097720D01*
X36431610Y-70004787D01*
X36562449Y-69909728D01*
X36597213Y-69884471D01*
X36597215Y-69884468D01*
X36597219Y-69884466D01*
X36741966Y-69739719D01*
X36741968Y-69739715D01*
X36741971Y-69739713D01*
X36794732Y-69667090D01*
X36862287Y-69574110D01*
X36955220Y-69391719D01*
X37018477Y-69197034D01*
X37050500Y-68994852D01*
X37050500Y-68790148D01*
X37040008Y-68723908D01*
X37018477Y-68587965D01*
X36985015Y-68484982D01*
X36955220Y-68393281D01*
X36955218Y-68393278D01*
X36955218Y-68393276D01*
X36868326Y-68222743D01*
X36862287Y-68210890D01*
X36854556Y-68200249D01*
X36741971Y-68045286D01*
X36597213Y-67900528D01*
X36431613Y-67780215D01*
X36431612Y-67780214D01*
X36431610Y-67780213D01*
X36374653Y-67751191D01*
X36249223Y-67687281D01*
X36054534Y-67624022D01*
X35878238Y-67596100D01*
X35852352Y-67592000D01*
X35647648Y-67592000D01*
X35623329Y-67595851D01*
X35445465Y-67624022D01*
X35250776Y-67687281D01*
X35068386Y-67780215D01*
X34902786Y-67900528D01*
X34758028Y-68045286D01*
X34637715Y-68210886D01*
X34544781Y-68393276D01*
X34481522Y-68587965D01*
X34449500Y-68790148D01*
X29468861Y-68790148D01*
X29596100Y-68756054D01*
X29749432Y-68692542D01*
X29802128Y-68670715D01*
X29820205Y-68663227D01*
X29820205Y-68663226D01*
X29820212Y-68663224D01*
X30030289Y-68541936D01*
X30222738Y-68394265D01*
X30394265Y-68222738D01*
X30541936Y-68030289D01*
X30663224Y-67820212D01*
X30756054Y-67596100D01*
X30818838Y-67361789D01*
X30850500Y-67121288D01*
X30850500Y-66878712D01*
X30818838Y-66638211D01*
X30756054Y-66403900D01*
X30663224Y-66179788D01*
X30541936Y-65969711D01*
X30416809Y-65806642D01*
X30394266Y-65777263D01*
X30394260Y-65777256D01*
X30222743Y-65605739D01*
X30222736Y-65605733D01*
X30030293Y-65458067D01*
X30030292Y-65458066D01*
X30030289Y-65458064D01*
X29820212Y-65336776D01*
X29820205Y-65336773D01*
X29596104Y-65243947D01*
X29361785Y-65181161D01*
X29121289Y-65149500D01*
X29121288Y-65149500D01*
X28878712Y-65149500D01*
X28878711Y-65149500D01*
X28638214Y-65181161D01*
X28403895Y-65243947D01*
X28179794Y-65336773D01*
X28179785Y-65336777D01*
X27969706Y-65458067D01*
X27777263Y-65605733D01*
X27777256Y-65605739D01*
X27605739Y-65777256D01*
X27605733Y-65777263D01*
X27458067Y-65969706D01*
X27336777Y-66179785D01*
X27336773Y-66179794D01*
X27243947Y-66403895D01*
X27181161Y-66638214D01*
X27149500Y-66878711D01*
X25500500Y-66878711D01*
X25500500Y-41143713D01*
X26524500Y-41143713D01*
X26524500Y-41356287D01*
X26557754Y-41566243D01*
X26595356Y-41681971D01*
X26623444Y-41768414D01*
X26719951Y-41957820D01*
X26844890Y-42129786D01*
X26995209Y-42280105D01*
X26995214Y-42280109D01*
X27159793Y-42399682D01*
X27202459Y-42455011D01*
X27208438Y-42524625D01*
X27175833Y-42586420D01*
X27159793Y-42600318D01*
X26995214Y-42719890D01*
X26995209Y-42719894D01*
X26844890Y-42870213D01*
X26719951Y-43042179D01*
X26623444Y-43231585D01*
X26557753Y-43433760D01*
X26524500Y-43643713D01*
X26524500Y-43856287D01*
X26557754Y-44066243D01*
X26622167Y-44264486D01*
X26623444Y-44268414D01*
X26719951Y-44457820D01*
X26844890Y-44629786D01*
X26995209Y-44780105D01*
X26995214Y-44780109D01*
X27159793Y-44899682D01*
X27202459Y-44955011D01*
X27208438Y-45024625D01*
X27175833Y-45086420D01*
X27159793Y-45100318D01*
X26995214Y-45219890D01*
X26995209Y-45219894D01*
X26844890Y-45370213D01*
X26719951Y-45542179D01*
X26623444Y-45731585D01*
X26557753Y-45933760D01*
X26524500Y-46143713D01*
X26524500Y-46356286D01*
X26551441Y-46526389D01*
X26557754Y-46566243D01*
X26615976Y-46745432D01*
X26623444Y-46768414D01*
X26719951Y-46957820D01*
X26844890Y-47129786D01*
X26995209Y-47280105D01*
X26995214Y-47280109D01*
X27159793Y-47399682D01*
X27202459Y-47455011D01*
X27208438Y-47524625D01*
X27175833Y-47586420D01*
X27159793Y-47600318D01*
X26995214Y-47719890D01*
X26995209Y-47719894D01*
X26844890Y-47870213D01*
X26719951Y-48042179D01*
X26623444Y-48231585D01*
X26557753Y-48433760D01*
X26524500Y-48643713D01*
X26524500Y-48856286D01*
X26557753Y-49066239D01*
X26623444Y-49268414D01*
X26719951Y-49457820D01*
X26844890Y-49629786D01*
X26995209Y-49780105D01*
X26995214Y-49780109D01*
X27160218Y-49899991D01*
X27202884Y-49955320D01*
X27208863Y-50024934D01*
X27176258Y-50086729D01*
X27160218Y-50100627D01*
X26995540Y-50220272D01*
X26995535Y-50220276D01*
X26845276Y-50370535D01*
X26845272Y-50370540D01*
X26720379Y-50542442D01*
X26623904Y-50731782D01*
X26558242Y-50933870D01*
X26558242Y-50933873D01*
X26547769Y-51000000D01*
X27595854Y-51000000D01*
X27557370Y-51066657D01*
X27525000Y-51187465D01*
X27525000Y-51312535D01*
X27557370Y-51433343D01*
X27595854Y-51500000D01*
X26547769Y-51500000D01*
X26558242Y-51566126D01*
X26558242Y-51566129D01*
X26623904Y-51768217D01*
X26720379Y-51957557D01*
X26845272Y-52129459D01*
X26845276Y-52129464D01*
X26984143Y-52268331D01*
X27017628Y-52329654D01*
X27012644Y-52399346D01*
X26970772Y-52455279D01*
X26961559Y-52461551D01*
X26806342Y-52557289D01*
X26682289Y-52681342D01*
X26590187Y-52830663D01*
X26590185Y-52830668D01*
X26579709Y-52862284D01*
X26535001Y-52997203D01*
X26535001Y-52997204D01*
X26535000Y-52997204D01*
X26524500Y-53099983D01*
X26524500Y-54400001D01*
X26524501Y-54400018D01*
X26535000Y-54502796D01*
X26535001Y-54502799D01*
X26590185Y-54669331D01*
X26590187Y-54669336D01*
X26595675Y-54678233D01*
X26682288Y-54818656D01*
X26806344Y-54942712D01*
X26955666Y-55034814D01*
X27122203Y-55089999D01*
X27188103Y-55096731D01*
X27252794Y-55123127D01*
X27292945Y-55180307D01*
X27299500Y-55220088D01*
X27299500Y-56931006D01*
X27299500Y-57068994D01*
X27299500Y-57068996D01*
X27299499Y-57068996D01*
X27326418Y-57204322D01*
X27326421Y-57204332D01*
X27379222Y-57331807D01*
X27455887Y-57446545D01*
X34053454Y-64044112D01*
X34168190Y-64120776D01*
X34266790Y-64161617D01*
X34295671Y-64173580D01*
X34295672Y-64173580D01*
X34295677Y-64173582D01*
X34322545Y-64178925D01*
X34322551Y-64178926D01*
X34322591Y-64178934D01*
X34412937Y-64196905D01*
X34431006Y-64200500D01*
X34431007Y-64200500D01*
X41517999Y-64200500D01*
X41585038Y-64220185D01*
X41630793Y-64272989D01*
X41640737Y-64342147D01*
X41611712Y-64405703D01*
X41586890Y-64427602D01*
X41454100Y-64516329D01*
X41454096Y-64516332D01*
X41311332Y-64659096D01*
X41311329Y-64659100D01*
X41199159Y-64826973D01*
X41199152Y-64826986D01*
X41121890Y-65013516D01*
X41121887Y-65013525D01*
X41112147Y-65062500D01*
X42052170Y-65062500D01*
X42032425Y-65082245D01*
X41983056Y-65167755D01*
X41957500Y-65263130D01*
X41957500Y-65361870D01*
X41983056Y-65457245D01*
X42032425Y-65542755D01*
X42046670Y-65557000D01*
X42006497Y-65557000D01*
X42006496Y-65557000D01*
X41990826Y-65560117D01*
X41966634Y-65562500D01*
X41112147Y-65562500D01*
X41121887Y-65611474D01*
X41121890Y-65611483D01*
X41199152Y-65798013D01*
X41199159Y-65798026D01*
X41252703Y-65878159D01*
X41273581Y-65944836D01*
X41255097Y-66012216D01*
X41252704Y-66015939D01*
X41198714Y-66096743D01*
X41121409Y-66283372D01*
X41121407Y-66283380D01*
X41082000Y-66481492D01*
X41082000Y-66683507D01*
X41121407Y-66881619D01*
X41121409Y-66881627D01*
X41154825Y-66962300D01*
X41162294Y-67031770D01*
X41142538Y-67077160D01*
X41142954Y-67077387D01*
X41140419Y-67082028D01*
X41139537Y-67084056D01*
X41138706Y-67085165D01*
X41138702Y-67085172D01*
X41088408Y-67220017D01*
X41085676Y-67245432D01*
X41082001Y-67279623D01*
X41082000Y-67279635D01*
X41082000Y-68425370D01*
X41082001Y-68425376D01*
X41088408Y-68484983D01*
X41138702Y-68619828D01*
X41138706Y-68619835D01*
X41224952Y-68735044D01*
X41224955Y-68735047D01*
X41340164Y-68821293D01*
X41340171Y-68821297D01*
X41475017Y-68871591D01*
X41475016Y-68871591D01*
X41481944Y-68872335D01*
X41534627Y-68878000D01*
X43130372Y-68877999D01*
X43189983Y-68871591D01*
X43324831Y-68821296D01*
X43440046Y-68735046D01*
X43526296Y-68619831D01*
X43576591Y-68484983D01*
X43583000Y-68425373D01*
X43582999Y-67279628D01*
X43576591Y-67220017D01*
X43572219Y-67208296D01*
X43526297Y-67085171D01*
X43526296Y-67085170D01*
X43526296Y-67085169D01*
X43525467Y-67084062D01*
X43524985Y-67082768D01*
X43522046Y-67077386D01*
X43522819Y-67076963D01*
X43501051Y-67018599D01*
X43510175Y-66962298D01*
X43543589Y-66881632D01*
X43543589Y-66881631D01*
X43543591Y-66881627D01*
X43583000Y-66683503D01*
X43583000Y-66481497D01*
X43543591Y-66283373D01*
X43466286Y-66096744D01*
X43412294Y-66015939D01*
X43391417Y-65949264D01*
X43409901Y-65881884D01*
X43412296Y-65878158D01*
X43465844Y-65798018D01*
X43465846Y-65798015D01*
X43543109Y-65611483D01*
X43543112Y-65611474D01*
X43552853Y-65562500D01*
X42698366Y-65562500D01*
X42674174Y-65560117D01*
X42658504Y-65557000D01*
X42658503Y-65557000D01*
X42618330Y-65557000D01*
X42632575Y-65542755D01*
X42681944Y-65457245D01*
X42707500Y-65361870D01*
X42707500Y-65263130D01*
X42681944Y-65167755D01*
X42632575Y-65082245D01*
X42612830Y-65062500D01*
X43552853Y-65062500D01*
X43543112Y-65013525D01*
X43543109Y-65013516D01*
X43465847Y-64826986D01*
X43465840Y-64826973D01*
X43353670Y-64659100D01*
X43353667Y-64659096D01*
X43210903Y-64516332D01*
X43210899Y-64516329D01*
X43078110Y-64427602D01*
X43033305Y-64373990D01*
X43024598Y-64304665D01*
X43054752Y-64241637D01*
X43114195Y-64204918D01*
X43147001Y-64200500D01*
X48085981Y-64200500D01*
X48153020Y-64220185D01*
X48173662Y-64236819D01*
X50143181Y-66206338D01*
X50176666Y-66267661D01*
X50179500Y-66294019D01*
X50179500Y-67145114D01*
X50159815Y-67212153D01*
X50128385Y-67245432D01*
X50062754Y-67293115D01*
X50062749Y-67293119D01*
X49923115Y-67432753D01*
X49807058Y-67592495D01*
X49720485Y-67762403D01*
X49672510Y-67813199D01*
X49604689Y-67829994D01*
X49538554Y-67807456D01*
X49499515Y-67762403D01*
X49412944Y-67592499D01*
X49405486Y-67582234D01*
X49296884Y-67432753D01*
X49157246Y-67293115D01*
X48997504Y-67177058D01*
X48997503Y-67177057D01*
X48997501Y-67177056D01*
X48821561Y-67087409D01*
X48811263Y-67084063D01*
X48633763Y-67026389D01*
X48438736Y-66995500D01*
X48438731Y-66995500D01*
X48241269Y-66995500D01*
X48241264Y-66995500D01*
X48046236Y-67026389D01*
X47858441Y-67087408D01*
X47682495Y-67177058D01*
X47522753Y-67293115D01*
X47383115Y-67432753D01*
X47267058Y-67592495D01*
X47177408Y-67768441D01*
X47116389Y-67956236D01*
X47085500Y-68151263D01*
X47085500Y-68348736D01*
X47116389Y-68543763D01*
X47155206Y-68663227D01*
X47177409Y-68731561D01*
X47267056Y-68907501D01*
X47267058Y-68907504D01*
X47383115Y-69067246D01*
X47522753Y-69206884D01*
X47672234Y-69315486D01*
X47682499Y-69322944D01*
X47858439Y-69412591D01*
X47983637Y-69453270D01*
X48046236Y-69473610D01*
X48241264Y-69504500D01*
X48241269Y-69504500D01*
X48438736Y-69504500D01*
X48633763Y-69473610D01*
X48644855Y-69470006D01*
X48821561Y-69412591D01*
X48997501Y-69322944D01*
X49087192Y-69257779D01*
X49157246Y-69206884D01*
X49157248Y-69206881D01*
X49157252Y-69206879D01*
X49296879Y-69067252D01*
X49296881Y-69067248D01*
X49296884Y-69067246D01*
X49412941Y-68907505D01*
X49412942Y-68907504D01*
X49412944Y-68907501D01*
X49499517Y-68737593D01*
X49547490Y-68686800D01*
X49615311Y-68670005D01*
X49681446Y-68692542D01*
X49720482Y-68737593D01*
X49778012Y-68850500D01*
X49807058Y-68907505D01*
X49923115Y-69067246D01*
X50062753Y-69206884D01*
X50212234Y-69315486D01*
X50222499Y-69322944D01*
X50398439Y-69412591D01*
X50523637Y-69453270D01*
X50586236Y-69473610D01*
X50781264Y-69504500D01*
X50781269Y-69504500D01*
X50978736Y-69504500D01*
X51173763Y-69473610D01*
X51184855Y-69470006D01*
X51361561Y-69412591D01*
X51537501Y-69322944D01*
X51627192Y-69257779D01*
X51697246Y-69206884D01*
X51697248Y-69206881D01*
X51697252Y-69206879D01*
X51836879Y-69067252D01*
X51836881Y-69067248D01*
X51836884Y-69067246D01*
X51922716Y-68949106D01*
X51952944Y-68907501D01*
X52042591Y-68731561D01*
X52103610Y-68543763D01*
X52122361Y-68425376D01*
X52134500Y-68348736D01*
X52134500Y-68151263D01*
X52103610Y-67956236D01*
X52062591Y-67829994D01*
X52042591Y-67768439D01*
X51952944Y-67592499D01*
X51945486Y-67582234D01*
X51836884Y-67432753D01*
X51697250Y-67293119D01*
X51697245Y-67293115D01*
X51631615Y-67245432D01*
X51588949Y-67190102D01*
X51580500Y-67145114D01*
X51580500Y-65883506D01*
X51576677Y-65864290D01*
X51565210Y-65806642D01*
X51553580Y-65748172D01*
X51500775Y-65620689D01*
X51424114Y-65505957D01*
X51424112Y-65505954D01*
X51424111Y-65505953D01*
X49505838Y-63587681D01*
X49472353Y-63526358D01*
X49477337Y-63456666D01*
X49505838Y-63412319D01*
X51424112Y-61494045D01*
X51424114Y-61494043D01*
X51500775Y-61379311D01*
X51502623Y-61374851D01*
X51553578Y-61251832D01*
X51553580Y-61251828D01*
X51562389Y-61207540D01*
X51580500Y-61116496D01*
X51580500Y-59104885D01*
X51600185Y-59037846D01*
X51631615Y-59004567D01*
X51697248Y-58956882D01*
X51697248Y-58956881D01*
X51697252Y-58956879D01*
X51836879Y-58817252D01*
X51836881Y-58817248D01*
X51836884Y-58817246D01*
X51925361Y-58695466D01*
X51952944Y-58657501D01*
X52042591Y-58481561D01*
X52103610Y-58293763D01*
X52107796Y-58267335D01*
X52134500Y-58098736D01*
X52134500Y-57901263D01*
X52103610Y-57706236D01*
X52055268Y-57557456D01*
X52042591Y-57518439D01*
X51952944Y-57342499D01*
X51945176Y-57331807D01*
X51836884Y-57182753D01*
X51697250Y-57043119D01*
X51697245Y-57043115D01*
X51631615Y-56995432D01*
X51588949Y-56940102D01*
X51580500Y-56895114D01*
X51580500Y-48854885D01*
X51600185Y-48787846D01*
X51631615Y-48754567D01*
X51697248Y-48706882D01*
X51697248Y-48706881D01*
X51697252Y-48706879D01*
X51836879Y-48567252D01*
X51836881Y-48567248D01*
X51836884Y-48567246D01*
X51887779Y-48497192D01*
X51952944Y-48407501D01*
X52042591Y-48231561D01*
X52103610Y-48043763D01*
X52131098Y-47870213D01*
X52134500Y-47848736D01*
X52134500Y-47651263D01*
X52103610Y-47456236D01*
X52055268Y-47307456D01*
X52042591Y-47268439D01*
X51952944Y-47092499D01*
X51915908Y-47041523D01*
X51836884Y-46932753D01*
X51697250Y-46793119D01*
X51697245Y-46793115D01*
X51631615Y-46745432D01*
X51588949Y-46690102D01*
X51580500Y-46645114D01*
X51580500Y-38104885D01*
X51600185Y-38037846D01*
X51631615Y-38004567D01*
X51697248Y-37956882D01*
X51697248Y-37956881D01*
X51697252Y-37956879D01*
X51836879Y-37817252D01*
X51836881Y-37817248D01*
X51836884Y-37817246D01*
X51916510Y-37707648D01*
X51952944Y-37657501D01*
X52042591Y-37481561D01*
X52103610Y-37293763D01*
X52107796Y-37267335D01*
X52134500Y-37098736D01*
X52134500Y-36901263D01*
X52103610Y-36706236D01*
X52050091Y-36541522D01*
X52042591Y-36518439D01*
X51952944Y-36342499D01*
X51945486Y-36332234D01*
X51836884Y-36182753D01*
X51697246Y-36043115D01*
X51537504Y-35927058D01*
X51537503Y-35927057D01*
X51537501Y-35927056D01*
X51361561Y-35837409D01*
X51361558Y-35837408D01*
X51173763Y-35776389D01*
X50978736Y-35745500D01*
X50978731Y-35745500D01*
X50781269Y-35745500D01*
X50781264Y-35745500D01*
X50586236Y-35776389D01*
X50398441Y-35837408D01*
X50222495Y-35927058D01*
X50062753Y-36043115D01*
X49923115Y-36182753D01*
X49807058Y-36342495D01*
X49720485Y-36512403D01*
X49672510Y-36563199D01*
X49604689Y-36579994D01*
X49538554Y-36557456D01*
X49499515Y-36512403D01*
X49498036Y-36509500D01*
X49412944Y-36342499D01*
X49405486Y-36332234D01*
X49296884Y-36182753D01*
X49157246Y-36043115D01*
X48997504Y-35927058D01*
X48997503Y-35927057D01*
X48997501Y-35927056D01*
X48821561Y-35837409D01*
X48821558Y-35837408D01*
X48633763Y-35776389D01*
X48438736Y-35745500D01*
X48438731Y-35745500D01*
X48241269Y-35745500D01*
X48241264Y-35745500D01*
X48046236Y-35776389D01*
X47858441Y-35837408D01*
X47682495Y-35927058D01*
X47522753Y-36043115D01*
X47383115Y-36182753D01*
X47267058Y-36342495D01*
X47177408Y-36518441D01*
X47116389Y-36706236D01*
X47085500Y-36901263D01*
X47085500Y-37098736D01*
X47116389Y-37293763D01*
X47157408Y-37420005D01*
X47177409Y-37481561D01*
X47267056Y-37657501D01*
X47267058Y-37657504D01*
X47383115Y-37817246D01*
X47522753Y-37956884D01*
X47634190Y-38037846D01*
X47682499Y-38072944D01*
X47858439Y-38162591D01*
X47983637Y-38203270D01*
X48046236Y-38223610D01*
X48241264Y-38254500D01*
X48241269Y-38254500D01*
X48438736Y-38254500D01*
X48633763Y-38223610D01*
X48821561Y-38162591D01*
X48997501Y-38072944D01*
X49091615Y-38004567D01*
X49157246Y-37956884D01*
X49157248Y-37956881D01*
X49157252Y-37956879D01*
X49296879Y-37817252D01*
X49296881Y-37817248D01*
X49296884Y-37817246D01*
X49412941Y-37657505D01*
X49412942Y-37657504D01*
X49412944Y-37657501D01*
X49499517Y-37487593D01*
X49547490Y-37436800D01*
X49615311Y-37420005D01*
X49681446Y-37442542D01*
X49720482Y-37487593D01*
X49803804Y-37651119D01*
X49807058Y-37657505D01*
X49923115Y-37817246D01*
X50062751Y-37956882D01*
X50128385Y-38004567D01*
X50171051Y-38059896D01*
X50179500Y-38104885D01*
X50179500Y-46645114D01*
X50159815Y-46712153D01*
X50128385Y-46745432D01*
X50062754Y-46793115D01*
X50062749Y-46793119D01*
X49923115Y-46932753D01*
X49807058Y-47092495D01*
X49720485Y-47262403D01*
X49672510Y-47313199D01*
X49604689Y-47329994D01*
X49538554Y-47307456D01*
X49499515Y-47262403D01*
X49412944Y-47092499D01*
X49375908Y-47041523D01*
X49296884Y-46932753D01*
X49157246Y-46793115D01*
X48997504Y-46677058D01*
X48997503Y-46677057D01*
X48997501Y-46677056D01*
X48821561Y-46587409D01*
X48821558Y-46587408D01*
X48633763Y-46526389D01*
X48438736Y-46495500D01*
X48438731Y-46495500D01*
X48241269Y-46495500D01*
X48241264Y-46495500D01*
X48046236Y-46526389D01*
X47858441Y-46587408D01*
X47682495Y-46677058D01*
X47522753Y-46793115D01*
X47383115Y-46932753D01*
X47267058Y-47092495D01*
X47177408Y-47268441D01*
X47116389Y-47456236D01*
X47085500Y-47651263D01*
X47085500Y-47848736D01*
X47116389Y-48043763D01*
X47157408Y-48170005D01*
X47177409Y-48231561D01*
X47220179Y-48315500D01*
X47267058Y-48407504D01*
X47383115Y-48567246D01*
X47522753Y-48706884D01*
X47664540Y-48809896D01*
X47682499Y-48822944D01*
X47858439Y-48912591D01*
X47983637Y-48953270D01*
X48046236Y-48973610D01*
X48241264Y-49004500D01*
X48241269Y-49004500D01*
X48438736Y-49004500D01*
X48633763Y-48973610D01*
X48821561Y-48912591D01*
X48997501Y-48822944D01*
X49091615Y-48754567D01*
X49157246Y-48706884D01*
X49157248Y-48706881D01*
X49157252Y-48706879D01*
X49296879Y-48567252D01*
X49296881Y-48567248D01*
X49296884Y-48567246D01*
X49398114Y-48427912D01*
X49412944Y-48407501D01*
X49499517Y-48237593D01*
X49547490Y-48186800D01*
X49615311Y-48170005D01*
X49681446Y-48192542D01*
X49720482Y-48237593D01*
X49760179Y-48315500D01*
X49807058Y-48407505D01*
X49923115Y-48567246D01*
X50062751Y-48706882D01*
X50128385Y-48754567D01*
X50171051Y-48809896D01*
X50179500Y-48854885D01*
X50179500Y-56895114D01*
X50159815Y-56962153D01*
X50128385Y-56995432D01*
X50062754Y-57043115D01*
X50062749Y-57043119D01*
X49923115Y-57182753D01*
X49807058Y-57342495D01*
X49807056Y-57342499D01*
X49754042Y-57446545D01*
X49720485Y-57512403D01*
X49672510Y-57563199D01*
X49604689Y-57579994D01*
X49538554Y-57557456D01*
X49499515Y-57512403D01*
X49412944Y-57342499D01*
X49405176Y-57331807D01*
X49296884Y-57182753D01*
X49157246Y-57043115D01*
X48997504Y-56927058D01*
X48997503Y-56927057D01*
X48997501Y-56927056D01*
X48821561Y-56837409D01*
X48821558Y-56837408D01*
X48633763Y-56776389D01*
X48438736Y-56745500D01*
X48438731Y-56745500D01*
X48241269Y-56745500D01*
X48241264Y-56745500D01*
X48046236Y-56776389D01*
X47858441Y-56837408D01*
X47682495Y-56927058D01*
X47522753Y-57043115D01*
X47383115Y-57182753D01*
X47267058Y-57342495D01*
X47177408Y-57518441D01*
X47116389Y-57706236D01*
X47085500Y-57901263D01*
X47085500Y-58098736D01*
X47116389Y-58293763D01*
X47157408Y-58420005D01*
X47177409Y-58481561D01*
X47267056Y-58657501D01*
X47267058Y-58657504D01*
X47383115Y-58817246D01*
X47522753Y-58956884D01*
X47634190Y-59037846D01*
X47682499Y-59072944D01*
X47858439Y-59162591D01*
X47983637Y-59203270D01*
X48046236Y-59223610D01*
X48241264Y-59254500D01*
X48241269Y-59254500D01*
X48438736Y-59254500D01*
X48633763Y-59223610D01*
X48821561Y-59162591D01*
X48997501Y-59072944D01*
X49091615Y-59004567D01*
X49157246Y-58956884D01*
X49157248Y-58956881D01*
X49157252Y-58956879D01*
X49296879Y-58817252D01*
X49296881Y-58817248D01*
X49296884Y-58817246D01*
X49412941Y-58657505D01*
X49412942Y-58657504D01*
X49412944Y-58657501D01*
X49499517Y-58487593D01*
X49547490Y-58436800D01*
X49615311Y-58420005D01*
X49681446Y-58442542D01*
X49720482Y-58487593D01*
X49803804Y-58651119D01*
X49807058Y-58657505D01*
X49923115Y-58817246D01*
X50062751Y-58956882D01*
X50128385Y-59004567D01*
X50171051Y-59059896D01*
X50179500Y-59104885D01*
X50179500Y-60705981D01*
X50159815Y-60773020D01*
X50143181Y-60793662D01*
X48173662Y-62763181D01*
X48112339Y-62796666D01*
X48085981Y-62799500D01*
X47207686Y-62799500D01*
X47140647Y-62779815D01*
X47094892Y-62727011D01*
X47084948Y-62657853D01*
X47107368Y-62602614D01*
X47171859Y-62513849D01*
X47264755Y-62331529D01*
X47327990Y-62136913D01*
X47336609Y-62082500D01*
X46375686Y-62082500D01*
X46380080Y-62078106D01*
X46432741Y-61986894D01*
X46460000Y-61885161D01*
X46460000Y-61779839D01*
X46432741Y-61678106D01*
X46380080Y-61586894D01*
X46375686Y-61582500D01*
X47336609Y-61582500D01*
X47327990Y-61528086D01*
X47264755Y-61333470D01*
X47171859Y-61151150D01*
X47051582Y-60985605D01*
X47051582Y-60985604D01*
X46906895Y-60840917D01*
X46741349Y-60720640D01*
X46559029Y-60627744D01*
X46364413Y-60564509D01*
X46310000Y-60555890D01*
X46310000Y-61516814D01*
X46305606Y-61512420D01*
X46214394Y-61459759D01*
X46112661Y-61432500D01*
X46007339Y-61432500D01*
X45905606Y-61459759D01*
X45814394Y-61512420D01*
X45810000Y-61516814D01*
X45810000Y-60555890D01*
X45755586Y-60564509D01*
X45560970Y-60627744D01*
X45378650Y-60720640D01*
X45213105Y-60840917D01*
X45213104Y-60840917D01*
X45068417Y-60985604D01*
X45068417Y-60985605D01*
X44948140Y-61151150D01*
X44855244Y-61333470D01*
X44792009Y-61528086D01*
X44783391Y-61582500D01*
X45744314Y-61582500D01*
X45739920Y-61586894D01*
X45687259Y-61678106D01*
X45660000Y-61779839D01*
X45660000Y-61885161D01*
X45687259Y-61986894D01*
X45739920Y-62078106D01*
X45744314Y-62082500D01*
X44783391Y-62082500D01*
X44792009Y-62136913D01*
X44855244Y-62331529D01*
X44948140Y-62513849D01*
X45012632Y-62602614D01*
X45036112Y-62668421D01*
X45020287Y-62736475D01*
X44970181Y-62785170D01*
X44912314Y-62799500D01*
X39588304Y-62799500D01*
X39521265Y-62779815D01*
X39475510Y-62727011D01*
X39465566Y-62657853D01*
X39487985Y-62602615D01*
X39532767Y-62540977D01*
X39552287Y-62514110D01*
X39645220Y-62331719D01*
X39708477Y-62137034D01*
X39740500Y-61934852D01*
X39740500Y-61730148D01*
X39708477Y-61527966D01*
X39645220Y-61333281D01*
X39645218Y-61333278D01*
X39645218Y-61333276D01*
X39611503Y-61267107D01*
X39552287Y-61150890D01*
X39527297Y-61116494D01*
X39431971Y-60985286D01*
X39287213Y-60840528D01*
X39121613Y-60720215D01*
X39121612Y-60720214D01*
X39121610Y-60720213D01*
X39064653Y-60691191D01*
X38939223Y-60627281D01*
X38744534Y-60564022D01*
X38569995Y-60536378D01*
X38542352Y-60532000D01*
X38337648Y-60532000D01*
X38313329Y-60535851D01*
X38135465Y-60564022D01*
X37940776Y-60627281D01*
X37758386Y-60720215D01*
X37592786Y-60840528D01*
X37448028Y-60985286D01*
X37327715Y-61150886D01*
X37284985Y-61234748D01*
X37237010Y-61285544D01*
X37169189Y-61302339D01*
X37103054Y-61279801D01*
X37059603Y-61225086D01*
X37050500Y-61178453D01*
X37050500Y-61170148D01*
X37018477Y-60967965D01*
X36955218Y-60773276D01*
X36920929Y-60705981D01*
X36862287Y-60590890D01*
X36842767Y-60564023D01*
X36741971Y-60425286D01*
X36597215Y-60280530D01*
X36536706Y-60236569D01*
X36494039Y-60181239D01*
X36488060Y-60111626D01*
X36520665Y-60049831D01*
X36536706Y-60035931D01*
X36597215Y-59991969D01*
X36597215Y-59991968D01*
X36597219Y-59991966D01*
X36741966Y-59847219D01*
X36741968Y-59847215D01*
X36741971Y-59847213D01*
X36794732Y-59774590D01*
X36862287Y-59681610D01*
X36955220Y-59499219D01*
X37018477Y-59304534D01*
X37050500Y-59102352D01*
X37050500Y-58897648D01*
X37018477Y-58695466D01*
X37006142Y-58657504D01*
X36989127Y-58605137D01*
X36955220Y-58500781D01*
X36955218Y-58500778D01*
X36955218Y-58500776D01*
X36921503Y-58434607D01*
X36862287Y-58318390D01*
X36825189Y-58267328D01*
X36741971Y-58152786D01*
X36597213Y-58008028D01*
X36431613Y-57887715D01*
X36431612Y-57887714D01*
X36431610Y-57887713D01*
X36374653Y-57858691D01*
X36249223Y-57794781D01*
X36054534Y-57731522D01*
X35879995Y-57703878D01*
X35852352Y-57699500D01*
X35647648Y-57699500D01*
X35623329Y-57703351D01*
X35445465Y-57731522D01*
X35250776Y-57794781D01*
X35068386Y-57887715D01*
X34902786Y-58008028D01*
X34758028Y-58152786D01*
X34637715Y-58318386D01*
X34544781Y-58500776D01*
X34481522Y-58695465D01*
X34449500Y-58897648D01*
X34449500Y-59102351D01*
X34481522Y-59304534D01*
X34544781Y-59499223D01*
X34637715Y-59681613D01*
X34758028Y-59847213D01*
X34902782Y-59991967D01*
X34902787Y-59991971D01*
X34963294Y-60035932D01*
X35005960Y-60091261D01*
X35011939Y-60160875D01*
X34979334Y-60222670D01*
X34963294Y-60236568D01*
X34902787Y-60280528D01*
X34902782Y-60280532D01*
X34758028Y-60425286D01*
X34637715Y-60590886D01*
X34544781Y-60773276D01*
X34481522Y-60967965D01*
X34449500Y-61170148D01*
X34449500Y-61374851D01*
X34481522Y-61577034D01*
X34544781Y-61771723D01*
X34599907Y-61879912D01*
X34623668Y-61926546D01*
X34637715Y-61954113D01*
X34758028Y-62119713D01*
X34902786Y-62264471D01*
X35057749Y-62377056D01*
X35068390Y-62384787D01*
X35184607Y-62444003D01*
X35250776Y-62477718D01*
X35250778Y-62477718D01*
X35250781Y-62477720D01*
X35355137Y-62511627D01*
X35445465Y-62540977D01*
X35521545Y-62553027D01*
X35584680Y-62582956D01*
X35621611Y-62642268D01*
X35620613Y-62712130D01*
X35582003Y-62770363D01*
X35518039Y-62798477D01*
X35502147Y-62799500D01*
X34841519Y-62799500D01*
X34774480Y-62779815D01*
X34753838Y-62763181D01*
X28736819Y-56746162D01*
X28703334Y-56684839D01*
X28700500Y-56658481D01*
X28700500Y-56128992D01*
X41082000Y-56128992D01*
X41082000Y-56331007D01*
X41121407Y-56529119D01*
X41121409Y-56529127D01*
X41154825Y-56609800D01*
X41162294Y-56679270D01*
X41142538Y-56724660D01*
X41142954Y-56724887D01*
X41140419Y-56729528D01*
X41139537Y-56731556D01*
X41138706Y-56732665D01*
X41138702Y-56732672D01*
X41088408Y-56867517D01*
X41082007Y-56927058D01*
X41082001Y-56927123D01*
X41082000Y-56927135D01*
X41082000Y-58072870D01*
X41082001Y-58072876D01*
X41088408Y-58132483D01*
X41138702Y-58267328D01*
X41138706Y-58267335D01*
X41224952Y-58382544D01*
X41224955Y-58382547D01*
X41340164Y-58468793D01*
X41340171Y-58468797D01*
X41475017Y-58519091D01*
X41475016Y-58519091D01*
X41481944Y-58519835D01*
X41534627Y-58525500D01*
X43130372Y-58525499D01*
X43189983Y-58519091D01*
X43324831Y-58468796D01*
X43440046Y-58382546D01*
X43526296Y-58267331D01*
X43576591Y-58132483D01*
X43583000Y-58072873D01*
X43582999Y-56927128D01*
X43576591Y-56867517D01*
X43565361Y-56837409D01*
X43526297Y-56732671D01*
X43526296Y-56732670D01*
X43526296Y-56732669D01*
X43525467Y-56731562D01*
X43524985Y-56730268D01*
X43522046Y-56724886D01*
X43522819Y-56724463D01*
X43501051Y-56666099D01*
X43510175Y-56609798D01*
X43543589Y-56529132D01*
X43543589Y-56529131D01*
X43543591Y-56529127D01*
X43583000Y-56331003D01*
X43583000Y-56128997D01*
X43543591Y-55930873D01*
X43466286Y-55744244D01*
X43412294Y-55663439D01*
X43391417Y-55596764D01*
X43409901Y-55529384D01*
X43412296Y-55525658D01*
X43465844Y-55445518D01*
X43465846Y-55445515D01*
X43543109Y-55258983D01*
X43543112Y-55258974D01*
X43552853Y-55210000D01*
X42698366Y-55210000D01*
X42674174Y-55207617D01*
X42658504Y-55204500D01*
X42658503Y-55204500D01*
X42618330Y-55204500D01*
X42632575Y-55190255D01*
X42681944Y-55104745D01*
X42707500Y-55009370D01*
X42707500Y-54910630D01*
X42681944Y-54815255D01*
X42632575Y-54729745D01*
X42612830Y-54710000D01*
X43552853Y-54710000D01*
X43543112Y-54661025D01*
X43543109Y-54661016D01*
X43465847Y-54474486D01*
X43465840Y-54474473D01*
X43353670Y-54306600D01*
X43353667Y-54306596D01*
X43210903Y-54163832D01*
X43210899Y-54163829D01*
X43043026Y-54051659D01*
X43043013Y-54051652D01*
X42856483Y-53974390D01*
X42856474Y-53974387D01*
X42658458Y-53935000D01*
X42582500Y-53935000D01*
X42582500Y-54679670D01*
X42562755Y-54659925D01*
X42477245Y-54610556D01*
X42381870Y-54585000D01*
X42283130Y-54585000D01*
X42187755Y-54610556D01*
X42102245Y-54659925D01*
X42082500Y-54679670D01*
X42082500Y-53935000D01*
X42006541Y-53935000D01*
X41808525Y-53974387D01*
X41808516Y-53974390D01*
X41621986Y-54051652D01*
X41621973Y-54051659D01*
X41454100Y-54163829D01*
X41454096Y-54163832D01*
X41311332Y-54306596D01*
X41311329Y-54306600D01*
X41199159Y-54474473D01*
X41199152Y-54474486D01*
X41121890Y-54661016D01*
X41121887Y-54661025D01*
X41112147Y-54710000D01*
X42052170Y-54710000D01*
X42032425Y-54729745D01*
X41983056Y-54815255D01*
X41957500Y-54910630D01*
X41957500Y-55009370D01*
X41983056Y-55104745D01*
X42032425Y-55190255D01*
X42046670Y-55204500D01*
X42006497Y-55204500D01*
X42006496Y-55204500D01*
X41990826Y-55207617D01*
X41966634Y-55210000D01*
X41112147Y-55210000D01*
X41121887Y-55258974D01*
X41121890Y-55258983D01*
X41199152Y-55445513D01*
X41199159Y-55445526D01*
X41252703Y-55525659D01*
X41273581Y-55592336D01*
X41255097Y-55659716D01*
X41252704Y-55663439D01*
X41198714Y-55744243D01*
X41121409Y-55930872D01*
X41121407Y-55930880D01*
X41082000Y-56128992D01*
X28700500Y-56128992D01*
X28700500Y-55220088D01*
X28720185Y-55153049D01*
X28772989Y-55107294D01*
X28811897Y-55096730D01*
X28877797Y-55089999D01*
X29044334Y-55034814D01*
X29193656Y-54942712D01*
X29317712Y-54818656D01*
X29409814Y-54669334D01*
X29464999Y-54502797D01*
X29475500Y-54400009D01*
X29475499Y-53099992D01*
X29464999Y-52997203D01*
X29409814Y-52830666D01*
X29317712Y-52681344D01*
X29193656Y-52557288D01*
X29044334Y-52465186D01*
X29044332Y-52465185D01*
X29038440Y-52461551D01*
X28991716Y-52409603D01*
X28980493Y-52340641D01*
X29008337Y-52276558D01*
X29015856Y-52268330D01*
X29154728Y-52129458D01*
X29279620Y-51957557D01*
X29376095Y-51768217D01*
X29441757Y-51566129D01*
X29441757Y-51566126D01*
X29452231Y-51500000D01*
X28404146Y-51500000D01*
X28442630Y-51433343D01*
X28475000Y-51312535D01*
X28475000Y-51277648D01*
X34449500Y-51277648D01*
X34449500Y-51482351D01*
X34481522Y-51684534D01*
X34544781Y-51879223D01*
X34604082Y-51995606D01*
X34634108Y-52054535D01*
X34637715Y-52061613D01*
X34758028Y-52227213D01*
X34902786Y-52371971D01*
X35017452Y-52455279D01*
X35068390Y-52492287D01*
X35184607Y-52551503D01*
X35250776Y-52585218D01*
X35250778Y-52585218D01*
X35250781Y-52585220D01*
X35355137Y-52619127D01*
X35445465Y-52648477D01*
X35546557Y-52664488D01*
X35647648Y-52680500D01*
X35647649Y-52680500D01*
X35852351Y-52680500D01*
X35852352Y-52680500D01*
X36054534Y-52648477D01*
X36249219Y-52585220D01*
X36431610Y-52492287D01*
X36559320Y-52399501D01*
X36597213Y-52371971D01*
X36597215Y-52371968D01*
X36597219Y-52371966D01*
X36741966Y-52227219D01*
X36741968Y-52227215D01*
X36741971Y-52227213D01*
X36862286Y-52061611D01*
X36865892Y-52054535D01*
X36925789Y-51936979D01*
X36973763Y-51886183D01*
X37041584Y-51869388D01*
X37107719Y-51891925D01*
X37151171Y-51946640D01*
X37158747Y-51973875D01*
X37171523Y-52054535D01*
X37234781Y-52249223D01*
X37327715Y-52431613D01*
X37448028Y-52597213D01*
X37592786Y-52741971D01*
X37747749Y-52854556D01*
X37758390Y-52862287D01*
X37874607Y-52921503D01*
X37940776Y-52955218D01*
X37940778Y-52955218D01*
X37940781Y-52955220D01*
X38045137Y-52989127D01*
X38135465Y-53018477D01*
X38236557Y-53034488D01*
X38337648Y-53050500D01*
X38337649Y-53050500D01*
X38542351Y-53050500D01*
X38542352Y-53050500D01*
X38744534Y-53018477D01*
X38939219Y-52955220D01*
X39121610Y-52862287D01*
X39214590Y-52794732D01*
X39287213Y-52741971D01*
X39287215Y-52741968D01*
X39287219Y-52741966D01*
X39431966Y-52597219D01*
X39431968Y-52597215D01*
X39431971Y-52597213D01*
X39508205Y-52492284D01*
X39552287Y-52431610D01*
X39645220Y-52249219D01*
X39708477Y-52054534D01*
X39740500Y-51852352D01*
X39740500Y-51647648D01*
X39717114Y-51500000D01*
X44783391Y-51500000D01*
X45744314Y-51500000D01*
X45739920Y-51504394D01*
X45687259Y-51595606D01*
X45660000Y-51697339D01*
X45660000Y-51802661D01*
X45687259Y-51904394D01*
X45739920Y-51995606D01*
X45744314Y-52000000D01*
X44783391Y-52000000D01*
X44792009Y-52054413D01*
X44855244Y-52249029D01*
X44948140Y-52431349D01*
X45068417Y-52596894D01*
X45068417Y-52596895D01*
X45213104Y-52741582D01*
X45378650Y-52861859D01*
X45560968Y-52954754D01*
X45755578Y-53017988D01*
X45810000Y-53026607D01*
X45810000Y-52065686D01*
X45814394Y-52070080D01*
X45905606Y-52122741D01*
X46007339Y-52150000D01*
X46112661Y-52150000D01*
X46214394Y-52122741D01*
X46305606Y-52070080D01*
X46310000Y-52065686D01*
X46310000Y-53026606D01*
X46364421Y-53017988D01*
X46559031Y-52954754D01*
X46741349Y-52861859D01*
X46906894Y-52741582D01*
X46906895Y-52741582D01*
X47051582Y-52596895D01*
X47051582Y-52596894D01*
X47171859Y-52431349D01*
X47264755Y-52249029D01*
X47327990Y-52054413D01*
X47336609Y-52000000D01*
X46375686Y-52000000D01*
X46380080Y-51995606D01*
X46432741Y-51904394D01*
X46460000Y-51802661D01*
X46460000Y-51697339D01*
X46432741Y-51595606D01*
X46380080Y-51504394D01*
X46375686Y-51500000D01*
X47336609Y-51500000D01*
X47327990Y-51445586D01*
X47264755Y-51250970D01*
X47171859Y-51068650D01*
X47051582Y-50903105D01*
X47051582Y-50903104D01*
X46906895Y-50758417D01*
X46741349Y-50638140D01*
X46559029Y-50545244D01*
X46364413Y-50482009D01*
X46310000Y-50473390D01*
X46310000Y-51434314D01*
X46305606Y-51429920D01*
X46214394Y-51377259D01*
X46112661Y-51350000D01*
X46007339Y-51350000D01*
X45905606Y-51377259D01*
X45814394Y-51429920D01*
X45810000Y-51434314D01*
X45810000Y-50473390D01*
X45755586Y-50482009D01*
X45560970Y-50545244D01*
X45378650Y-50638140D01*
X45213105Y-50758417D01*
X45213104Y-50758417D01*
X45068417Y-50903104D01*
X45068417Y-50903105D01*
X44948140Y-51068650D01*
X44855244Y-51250970D01*
X44792009Y-51445586D01*
X44783391Y-51500000D01*
X39717114Y-51500000D01*
X39708477Y-51445466D01*
X39645220Y-51250781D01*
X39645218Y-51250778D01*
X39645218Y-51250776D01*
X39555892Y-51075466D01*
X39552287Y-51068390D01*
X39544556Y-51057749D01*
X39431971Y-50902786D01*
X39287213Y-50758028D01*
X39121613Y-50637715D01*
X39121612Y-50637714D01*
X39121610Y-50637713D01*
X39064653Y-50608691D01*
X38939223Y-50544781D01*
X38744534Y-50481522D01*
X38569995Y-50453878D01*
X38542352Y-50449500D01*
X38337648Y-50449500D01*
X38313329Y-50453351D01*
X38135465Y-50481522D01*
X37940776Y-50544781D01*
X37758386Y-50637715D01*
X37592786Y-50758028D01*
X37448028Y-50902786D01*
X37327712Y-51068389D01*
X37327711Y-51068391D01*
X37264209Y-51193020D01*
X37216235Y-51243816D01*
X37148414Y-51260611D01*
X37082279Y-51238073D01*
X37038828Y-51183358D01*
X37031252Y-51156123D01*
X37018477Y-51075465D01*
X36980421Y-50958343D01*
X36955220Y-50880781D01*
X36955218Y-50880778D01*
X36955218Y-50880776D01*
X36917815Y-50807370D01*
X36862287Y-50698390D01*
X36854556Y-50687749D01*
X36741971Y-50532786D01*
X36597213Y-50388028D01*
X36431613Y-50267715D01*
X36431612Y-50267714D01*
X36431610Y-50267713D01*
X36338510Y-50220276D01*
X36249223Y-50174781D01*
X36054534Y-50111522D01*
X35879995Y-50083878D01*
X35852352Y-50079500D01*
X35647648Y-50079500D01*
X35623329Y-50083351D01*
X35445465Y-50111522D01*
X35250776Y-50174781D01*
X35068386Y-50267715D01*
X34902786Y-50388028D01*
X34758028Y-50532786D01*
X34637715Y-50698386D01*
X34544781Y-50880776D01*
X34481522Y-51075465D01*
X34449500Y-51277648D01*
X28475000Y-51277648D01*
X28475000Y-51187465D01*
X28442630Y-51066657D01*
X28404146Y-51000000D01*
X29452231Y-51000000D01*
X29441757Y-50933873D01*
X29441757Y-50933870D01*
X29376095Y-50731782D01*
X29279620Y-50542442D01*
X29154727Y-50370540D01*
X29154723Y-50370535D01*
X29004464Y-50220276D01*
X29004459Y-50220272D01*
X28839781Y-50100627D01*
X28797115Y-50045297D01*
X28791136Y-49975684D01*
X28823741Y-49913889D01*
X28839776Y-49899994D01*
X29004792Y-49780104D01*
X29155104Y-49629792D01*
X29155106Y-49629788D01*
X29155109Y-49629786D01*
X29280048Y-49457820D01*
X29280047Y-49457820D01*
X29280051Y-49457816D01*
X29376557Y-49268412D01*
X29442246Y-49066243D01*
X29475500Y-48856287D01*
X29475500Y-48643713D01*
X29442246Y-48433757D01*
X29376557Y-48231588D01*
X29364359Y-48207648D01*
X34449500Y-48207648D01*
X34449500Y-48412351D01*
X34481522Y-48614534D01*
X34544781Y-48809223D01*
X34637715Y-48991613D01*
X34758028Y-49157213D01*
X34902786Y-49301971D01*
X35057749Y-49414556D01*
X35068390Y-49422287D01*
X35184607Y-49481503D01*
X35250776Y-49515218D01*
X35250778Y-49515218D01*
X35250781Y-49515220D01*
X35355137Y-49549127D01*
X35445465Y-49578477D01*
X35546557Y-49594488D01*
X35647648Y-49610500D01*
X35647649Y-49610500D01*
X35852351Y-49610500D01*
X35852352Y-49610500D01*
X36054534Y-49578477D01*
X36249219Y-49515220D01*
X36431610Y-49422287D01*
X36524590Y-49354732D01*
X36597213Y-49301971D01*
X36597215Y-49301968D01*
X36597219Y-49301966D01*
X36741966Y-49157219D01*
X36741968Y-49157215D01*
X36741971Y-49157213D01*
X36808066Y-49066239D01*
X36862287Y-48991610D01*
X36955220Y-48809219D01*
X37018477Y-48614534D01*
X37050500Y-48412352D01*
X37050500Y-48207648D01*
X37018477Y-48005466D01*
X36955220Y-47810781D01*
X36955218Y-47810778D01*
X36955218Y-47810776D01*
X36908912Y-47719896D01*
X36862287Y-47628390D01*
X36854556Y-47617749D01*
X36741971Y-47462786D01*
X36597213Y-47318028D01*
X36431613Y-47197715D01*
X36431612Y-47197714D01*
X36431610Y-47197713D01*
X36374653Y-47168691D01*
X36249223Y-47104781D01*
X36054534Y-47041522D01*
X35879995Y-47013878D01*
X35852352Y-47009500D01*
X35647648Y-47009500D01*
X35623329Y-47013351D01*
X35445465Y-47041522D01*
X35250776Y-47104781D01*
X35068386Y-47197715D01*
X34902786Y-47318028D01*
X34758028Y-47462786D01*
X34637715Y-47628386D01*
X34544781Y-47810776D01*
X34481522Y-48005465D01*
X34449500Y-48207648D01*
X29364359Y-48207648D01*
X29280051Y-48042184D01*
X29280049Y-48042181D01*
X29280048Y-48042179D01*
X29155109Y-47870213D01*
X29004792Y-47719896D01*
X28910334Y-47651269D01*
X28840204Y-47600316D01*
X28797540Y-47544989D01*
X28791561Y-47475376D01*
X28824166Y-47413580D01*
X28840199Y-47399686D01*
X29004792Y-47280104D01*
X29155104Y-47129792D01*
X29155106Y-47129788D01*
X29155109Y-47129786D01*
X29280048Y-46957820D01*
X29280047Y-46957820D01*
X29280051Y-46957816D01*
X29376557Y-46768412D01*
X29442246Y-46566243D01*
X29475500Y-46356287D01*
X29475500Y-46143713D01*
X29442246Y-45933757D01*
X29437449Y-45918992D01*
X41082000Y-45918992D01*
X41082000Y-46121007D01*
X41121407Y-46319119D01*
X41121409Y-46319127D01*
X41154825Y-46399800D01*
X41162294Y-46469270D01*
X41142538Y-46514660D01*
X41142954Y-46514887D01*
X41140419Y-46519528D01*
X41139537Y-46521556D01*
X41138706Y-46522665D01*
X41138702Y-46522672D01*
X41088408Y-46657517D01*
X41082949Y-46708296D01*
X41082001Y-46717123D01*
X41082000Y-46717135D01*
X41082000Y-47862870D01*
X41082001Y-47862876D01*
X41088408Y-47922483D01*
X41138702Y-48057328D01*
X41138706Y-48057335D01*
X41224952Y-48172544D01*
X41224955Y-48172547D01*
X41340164Y-48258793D01*
X41340171Y-48258797D01*
X41475017Y-48309091D01*
X41475016Y-48309091D01*
X41481944Y-48309835D01*
X41534627Y-48315500D01*
X43130372Y-48315499D01*
X43189983Y-48309091D01*
X43324831Y-48258796D01*
X43440046Y-48172546D01*
X43526296Y-48057331D01*
X43576591Y-47922483D01*
X43583000Y-47862873D01*
X43582999Y-46717128D01*
X43576591Y-46657517D01*
X43550442Y-46587409D01*
X43526297Y-46522671D01*
X43526296Y-46522670D01*
X43526296Y-46522669D01*
X43525467Y-46521562D01*
X43524985Y-46520268D01*
X43522046Y-46514886D01*
X43522819Y-46514463D01*
X43501051Y-46456099D01*
X43510175Y-46399798D01*
X43543589Y-46319132D01*
X43543589Y-46319131D01*
X43543591Y-46319127D01*
X43583000Y-46121003D01*
X43583000Y-45918997D01*
X43543591Y-45720873D01*
X43466286Y-45534244D01*
X43412294Y-45453439D01*
X43391417Y-45386764D01*
X43409901Y-45319384D01*
X43412296Y-45315658D01*
X43465844Y-45235518D01*
X43465846Y-45235515D01*
X43543109Y-45048983D01*
X43543112Y-45048974D01*
X43552853Y-45000000D01*
X42698366Y-45000000D01*
X42674174Y-44997617D01*
X42658504Y-44994500D01*
X42658503Y-44994500D01*
X42618330Y-44994500D01*
X42632575Y-44980255D01*
X42681944Y-44894745D01*
X42707500Y-44799370D01*
X42707500Y-44700630D01*
X42681944Y-44605255D01*
X42632575Y-44519745D01*
X42612830Y-44500000D01*
X43552853Y-44500000D01*
X43543112Y-44451025D01*
X43543109Y-44451016D01*
X43465847Y-44264486D01*
X43465840Y-44264473D01*
X43353670Y-44096600D01*
X43353667Y-44096596D01*
X43210903Y-43953832D01*
X43210899Y-43953829D01*
X43043026Y-43841659D01*
X43043013Y-43841652D01*
X42856483Y-43764390D01*
X42856474Y-43764387D01*
X42658458Y-43725000D01*
X42582500Y-43725000D01*
X42582500Y-44469670D01*
X42562755Y-44449925D01*
X42477245Y-44400556D01*
X42381870Y-44375000D01*
X42283130Y-44375000D01*
X42187755Y-44400556D01*
X42102245Y-44449925D01*
X42082500Y-44469670D01*
X42082500Y-43725000D01*
X42006541Y-43725000D01*
X41808525Y-43764387D01*
X41808516Y-43764390D01*
X41621986Y-43841652D01*
X41621973Y-43841659D01*
X41454100Y-43953829D01*
X41454096Y-43953832D01*
X41311332Y-44096596D01*
X41311329Y-44096600D01*
X41199159Y-44264473D01*
X41199152Y-44264486D01*
X41121890Y-44451016D01*
X41121887Y-44451025D01*
X41112147Y-44500000D01*
X42052170Y-44500000D01*
X42032425Y-44519745D01*
X41983056Y-44605255D01*
X41957500Y-44700630D01*
X41957500Y-44799370D01*
X41983056Y-44894745D01*
X42032425Y-44980255D01*
X42046670Y-44994500D01*
X42006497Y-44994500D01*
X42006496Y-44994500D01*
X41990826Y-44997617D01*
X41966634Y-45000000D01*
X41112147Y-45000000D01*
X41121887Y-45048974D01*
X41121890Y-45048983D01*
X41199152Y-45235513D01*
X41199159Y-45235526D01*
X41252703Y-45315659D01*
X41273581Y-45382336D01*
X41255097Y-45449716D01*
X41252704Y-45453439D01*
X41198714Y-45534243D01*
X41121409Y-45720872D01*
X41121407Y-45720880D01*
X41082000Y-45918992D01*
X29437449Y-45918992D01*
X29376557Y-45731588D01*
X29280051Y-45542184D01*
X29280049Y-45542181D01*
X29280048Y-45542179D01*
X29155109Y-45370213D01*
X29004792Y-45219896D01*
X29004784Y-45219890D01*
X28840204Y-45100316D01*
X28797540Y-45044989D01*
X28791561Y-44975376D01*
X28824166Y-44913580D01*
X28840199Y-44899686D01*
X29004792Y-44780104D01*
X29155104Y-44629792D01*
X29280051Y-44457816D01*
X29376557Y-44268412D01*
X29442246Y-44066243D01*
X29475500Y-43856287D01*
X29475500Y-43643713D01*
X29442246Y-43433757D01*
X29376557Y-43231588D01*
X29280051Y-43042184D01*
X29280049Y-43042181D01*
X29280048Y-43042179D01*
X29155109Y-42870213D01*
X29004792Y-42719896D01*
X28952376Y-42681814D01*
X28840204Y-42600316D01*
X28797540Y-42544989D01*
X28791561Y-42475376D01*
X28824166Y-42413580D01*
X28840199Y-42399686D01*
X29004792Y-42280104D01*
X29155104Y-42129792D01*
X29155106Y-42129788D01*
X29155109Y-42129786D01*
X29280048Y-41957820D01*
X29280047Y-41957820D01*
X29280051Y-41957816D01*
X29376557Y-41768412D01*
X29442246Y-41566243D01*
X29475500Y-41356287D01*
X29475500Y-41143713D01*
X29442246Y-40933757D01*
X29376557Y-40731588D01*
X29303216Y-40587648D01*
X34449500Y-40587648D01*
X34449500Y-40792351D01*
X34481522Y-40994534D01*
X34544781Y-41189223D01*
X34599907Y-41297412D01*
X34623668Y-41344046D01*
X34637715Y-41371613D01*
X34758028Y-41537213D01*
X34902786Y-41681971D01*
X35021767Y-41768414D01*
X35068390Y-41802287D01*
X35184607Y-41861503D01*
X35250776Y-41895218D01*
X35250778Y-41895218D01*
X35250781Y-41895220D01*
X35355137Y-41929127D01*
X35445465Y-41958477D01*
X35546557Y-41974488D01*
X35647648Y-41990500D01*
X35647649Y-41990500D01*
X35852351Y-41990500D01*
X35852352Y-41990500D01*
X36054534Y-41958477D01*
X36249219Y-41895220D01*
X36431610Y-41802287D01*
X36524590Y-41734732D01*
X36597213Y-41681971D01*
X36597215Y-41681968D01*
X36597219Y-41681966D01*
X36741966Y-41537219D01*
X36741968Y-41537215D01*
X36741971Y-41537213D01*
X36862284Y-41371614D01*
X36862285Y-41371613D01*
X36862287Y-41371610D01*
X36905015Y-41287750D01*
X36952989Y-41236955D01*
X37020810Y-41220160D01*
X37086945Y-41242697D01*
X37130397Y-41297412D01*
X37139500Y-41344046D01*
X37139500Y-41352351D01*
X37171522Y-41554534D01*
X37234781Y-41749223D01*
X37298691Y-41874653D01*
X37309171Y-41895220D01*
X37327715Y-41931613D01*
X37448028Y-42097213D01*
X37592786Y-42241971D01*
X37747749Y-42354556D01*
X37758390Y-42362287D01*
X37831780Y-42399681D01*
X37940776Y-42455218D01*
X37940778Y-42455218D01*
X37940781Y-42455220D01*
X38000119Y-42474500D01*
X38135465Y-42518477D01*
X38236557Y-42534488D01*
X38337648Y-42550500D01*
X38337649Y-42550500D01*
X38542351Y-42550500D01*
X38542352Y-42550500D01*
X38744534Y-42518477D01*
X38939219Y-42455220D01*
X39121610Y-42362287D01*
X39234726Y-42280104D01*
X39287213Y-42241971D01*
X39287215Y-42241968D01*
X39287219Y-42241966D01*
X39431966Y-42097219D01*
X39431968Y-42097215D01*
X39431971Y-42097213D01*
X39533247Y-41957816D01*
X39552287Y-41931610D01*
X39645220Y-41749219D01*
X39708477Y-41554534D01*
X39740500Y-41352352D01*
X39740500Y-41147648D01*
X39717114Y-41000000D01*
X44783391Y-41000000D01*
X45744314Y-41000000D01*
X45739920Y-41004394D01*
X45687259Y-41095606D01*
X45660000Y-41197339D01*
X45660000Y-41302661D01*
X45687259Y-41404394D01*
X45739920Y-41495606D01*
X45744314Y-41500000D01*
X44783391Y-41500000D01*
X44792009Y-41554413D01*
X44855244Y-41749029D01*
X44948140Y-41931349D01*
X45068417Y-42096894D01*
X45068417Y-42096895D01*
X45213104Y-42241582D01*
X45378650Y-42361859D01*
X45560968Y-42454754D01*
X45755578Y-42517988D01*
X45810000Y-42526607D01*
X45810000Y-41565686D01*
X45814394Y-41570080D01*
X45905606Y-41622741D01*
X46007339Y-41650000D01*
X46112661Y-41650000D01*
X46214394Y-41622741D01*
X46305606Y-41570080D01*
X46310000Y-41565686D01*
X46310000Y-42526606D01*
X46364421Y-42517988D01*
X46559031Y-42454754D01*
X46741349Y-42361859D01*
X46906894Y-42241582D01*
X46906895Y-42241582D01*
X47051582Y-42096895D01*
X47051582Y-42096894D01*
X47171859Y-41931349D01*
X47264755Y-41749029D01*
X47327990Y-41554413D01*
X47336609Y-41500000D01*
X46375686Y-41500000D01*
X46380080Y-41495606D01*
X46432741Y-41404394D01*
X46460000Y-41302661D01*
X46460000Y-41197339D01*
X46432741Y-41095606D01*
X46380080Y-41004394D01*
X46375686Y-41000000D01*
X47336609Y-41000000D01*
X47327990Y-40945586D01*
X47264755Y-40750970D01*
X47171859Y-40568650D01*
X47051582Y-40403105D01*
X47051582Y-40403104D01*
X46906895Y-40258417D01*
X46741349Y-40138140D01*
X46559029Y-40045244D01*
X46364413Y-39982009D01*
X46310000Y-39973390D01*
X46310000Y-40934314D01*
X46305606Y-40929920D01*
X46214394Y-40877259D01*
X46112661Y-40850000D01*
X46007339Y-40850000D01*
X45905606Y-40877259D01*
X45814394Y-40929920D01*
X45810000Y-40934314D01*
X45810000Y-39973390D01*
X45755586Y-39982009D01*
X45560970Y-40045244D01*
X45378650Y-40138140D01*
X45213105Y-40258417D01*
X45213104Y-40258417D01*
X45068417Y-40403104D01*
X45068417Y-40403105D01*
X44948140Y-40568650D01*
X44855244Y-40750970D01*
X44792009Y-40945586D01*
X44783391Y-41000000D01*
X39717114Y-41000000D01*
X39708477Y-40945466D01*
X39645220Y-40750781D01*
X39645218Y-40750778D01*
X39645218Y-40750776D01*
X39595015Y-40652248D01*
X39552287Y-40568390D01*
X39544556Y-40557749D01*
X39431971Y-40402786D01*
X39287213Y-40258028D01*
X39121613Y-40137715D01*
X39121612Y-40137714D01*
X39121610Y-40137713D01*
X39037681Y-40094949D01*
X38939223Y-40044781D01*
X38744534Y-39981522D01*
X38569995Y-39953878D01*
X38542352Y-39949500D01*
X38337648Y-39949500D01*
X38313329Y-39953351D01*
X38135465Y-39981522D01*
X37940776Y-40044781D01*
X37758386Y-40137715D01*
X37592786Y-40258028D01*
X37448028Y-40402786D01*
X37327715Y-40568386D01*
X37284985Y-40652248D01*
X37237010Y-40703044D01*
X37169189Y-40719839D01*
X37103054Y-40697301D01*
X37059603Y-40642586D01*
X37050500Y-40595953D01*
X37050500Y-40587648D01*
X37018477Y-40385465D01*
X36955218Y-40190776D01*
X36906391Y-40094949D01*
X36862287Y-40008390D01*
X36842767Y-39981523D01*
X36741971Y-39842786D01*
X36597213Y-39698028D01*
X36431613Y-39577715D01*
X36431612Y-39577714D01*
X36431610Y-39577713D01*
X36374653Y-39548691D01*
X36249223Y-39484781D01*
X36054534Y-39421522D01*
X35879995Y-39393878D01*
X35852352Y-39389500D01*
X35647648Y-39389500D01*
X35623329Y-39393351D01*
X35445465Y-39421522D01*
X35250776Y-39484781D01*
X35068386Y-39577715D01*
X34902786Y-39698028D01*
X34758028Y-39842786D01*
X34637715Y-40008386D01*
X34544781Y-40190776D01*
X34481522Y-40385465D01*
X34449500Y-40587648D01*
X29303216Y-40587648D01*
X29280051Y-40542184D01*
X29280049Y-40542181D01*
X29280048Y-40542179D01*
X29155109Y-40370213D01*
X29004786Y-40219890D01*
X28832820Y-40094951D01*
X28643414Y-39998444D01*
X28643413Y-39998443D01*
X28643412Y-39998443D01*
X28441243Y-39932754D01*
X28441241Y-39932753D01*
X28441240Y-39932753D01*
X28279957Y-39907208D01*
X28231287Y-39899500D01*
X27768713Y-39899500D01*
X27720042Y-39907208D01*
X27558760Y-39932753D01*
X27356585Y-39998444D01*
X27167179Y-40094951D01*
X26995213Y-40219890D01*
X26844890Y-40370213D01*
X26719951Y-40542179D01*
X26623444Y-40731585D01*
X26557753Y-40933760D01*
X26547262Y-41000000D01*
X26524500Y-41143713D01*
X25500500Y-41143713D01*
X25500500Y-37707648D01*
X34449500Y-37707648D01*
X34449500Y-37912351D01*
X34481522Y-38114534D01*
X34544781Y-38309223D01*
X34637715Y-38491613D01*
X34758028Y-38657213D01*
X34902786Y-38801971D01*
X35057749Y-38914556D01*
X35068390Y-38922287D01*
X35184607Y-38981503D01*
X35250776Y-39015218D01*
X35250778Y-39015218D01*
X35250781Y-39015220D01*
X35355137Y-39049127D01*
X35445465Y-39078477D01*
X35546557Y-39094488D01*
X35647648Y-39110500D01*
X35647649Y-39110500D01*
X35852351Y-39110500D01*
X35852352Y-39110500D01*
X36054534Y-39078477D01*
X36249219Y-39015220D01*
X36431610Y-38922287D01*
X36524590Y-38854732D01*
X36597213Y-38801971D01*
X36597215Y-38801968D01*
X36597219Y-38801966D01*
X36741966Y-38657219D01*
X36741968Y-38657215D01*
X36741971Y-38657213D01*
X36794732Y-38584590D01*
X36862287Y-38491610D01*
X36955220Y-38309219D01*
X37018477Y-38114534D01*
X37050500Y-37912352D01*
X37050500Y-37707648D01*
X37018477Y-37505466D01*
X36955220Y-37310781D01*
X36955218Y-37310778D01*
X36955218Y-37310776D01*
X36864372Y-37132483D01*
X36862287Y-37128390D01*
X36840739Y-37098731D01*
X36741971Y-36962786D01*
X36597213Y-36818028D01*
X36431613Y-36697715D01*
X36431612Y-36697714D01*
X36431610Y-36697713D01*
X36374653Y-36668691D01*
X36249223Y-36604781D01*
X36054534Y-36541522D01*
X35879995Y-36513878D01*
X35852352Y-36509500D01*
X35647648Y-36509500D01*
X35623329Y-36513351D01*
X35445465Y-36541522D01*
X35250776Y-36604781D01*
X35068386Y-36697715D01*
X34902786Y-36818028D01*
X34758028Y-36962786D01*
X34637715Y-37128386D01*
X34544781Y-37310776D01*
X34481522Y-37505465D01*
X34449500Y-37707648D01*
X25500500Y-37707648D01*
X25500500Y-35128992D01*
X41082000Y-35128992D01*
X41082000Y-35331007D01*
X41121407Y-35529119D01*
X41121409Y-35529127D01*
X41154825Y-35609800D01*
X41162294Y-35679270D01*
X41142538Y-35724660D01*
X41142954Y-35724887D01*
X41140419Y-35729528D01*
X41139537Y-35731556D01*
X41138706Y-35732665D01*
X41138702Y-35732672D01*
X41088408Y-35867517D01*
X41082007Y-35927058D01*
X41082001Y-35927123D01*
X41082000Y-35927135D01*
X41082000Y-37072870D01*
X41082001Y-37072876D01*
X41088408Y-37132483D01*
X41138702Y-37267328D01*
X41138706Y-37267335D01*
X41224952Y-37382544D01*
X41224955Y-37382547D01*
X41340164Y-37468793D01*
X41340171Y-37468797D01*
X41475017Y-37519091D01*
X41475016Y-37519091D01*
X41481944Y-37519835D01*
X41534627Y-37525500D01*
X43130372Y-37525499D01*
X43189983Y-37519091D01*
X43324831Y-37468796D01*
X43440046Y-37382546D01*
X43526296Y-37267331D01*
X43576591Y-37132483D01*
X43583000Y-37072873D01*
X43582999Y-35927128D01*
X43576591Y-35867517D01*
X43565361Y-35837409D01*
X43526297Y-35732671D01*
X43526296Y-35732670D01*
X43526296Y-35732669D01*
X43525467Y-35731562D01*
X43524985Y-35730268D01*
X43522046Y-35724886D01*
X43522819Y-35724463D01*
X43501051Y-35666099D01*
X43510175Y-35609798D01*
X43543589Y-35529132D01*
X43543589Y-35529131D01*
X43543591Y-35529127D01*
X43583000Y-35331003D01*
X43583000Y-35128997D01*
X43543591Y-34930873D01*
X43466286Y-34744244D01*
X43412294Y-34663439D01*
X43391417Y-34596764D01*
X43409901Y-34529384D01*
X43412296Y-34525658D01*
X43465844Y-34445518D01*
X43465846Y-34445515D01*
X43543109Y-34258983D01*
X43543112Y-34258974D01*
X43552853Y-34210000D01*
X42698366Y-34210000D01*
X42674174Y-34207617D01*
X42658504Y-34204500D01*
X42658503Y-34204500D01*
X42618330Y-34204500D01*
X42632575Y-34190255D01*
X42681944Y-34104745D01*
X42707500Y-34009370D01*
X42707500Y-33910630D01*
X42681944Y-33815255D01*
X42632575Y-33729745D01*
X42612830Y-33710000D01*
X43552853Y-33710000D01*
X43543112Y-33661025D01*
X43543109Y-33661016D01*
X43465847Y-33474486D01*
X43465840Y-33474473D01*
X43353670Y-33306600D01*
X43353667Y-33306596D01*
X43210903Y-33163832D01*
X43210899Y-33163829D01*
X43043026Y-33051659D01*
X43043013Y-33051652D01*
X42856483Y-32974390D01*
X42856474Y-32974387D01*
X42658458Y-32935000D01*
X42582500Y-32935000D01*
X42582500Y-33679670D01*
X42562755Y-33659925D01*
X42477245Y-33610556D01*
X42381870Y-33585000D01*
X42283130Y-33585000D01*
X42187755Y-33610556D01*
X42102245Y-33659925D01*
X42082500Y-33679670D01*
X42082500Y-32935000D01*
X42006541Y-32935000D01*
X41808525Y-32974387D01*
X41808516Y-32974390D01*
X41621986Y-33051652D01*
X41621973Y-33051659D01*
X41454100Y-33163829D01*
X41454096Y-33163832D01*
X41311332Y-33306596D01*
X41311329Y-33306600D01*
X41199159Y-33474473D01*
X41199152Y-33474486D01*
X41121890Y-33661016D01*
X41121887Y-33661025D01*
X41112147Y-33710000D01*
X42052170Y-33710000D01*
X42032425Y-33729745D01*
X41983056Y-33815255D01*
X41957500Y-33910630D01*
X41957500Y-34009370D01*
X41983056Y-34104745D01*
X42032425Y-34190255D01*
X42046670Y-34204500D01*
X42006497Y-34204500D01*
X42006496Y-34204500D01*
X41990826Y-34207617D01*
X41966634Y-34210000D01*
X41112147Y-34210000D01*
X41121887Y-34258974D01*
X41121890Y-34258983D01*
X41199152Y-34445513D01*
X41199159Y-34445526D01*
X41252703Y-34525659D01*
X41273581Y-34592336D01*
X41255097Y-34659716D01*
X41252704Y-34663439D01*
X41198714Y-34744243D01*
X41121409Y-34930872D01*
X41121407Y-34930880D01*
X41082000Y-35128992D01*
X25500500Y-35128992D01*
X25500500Y-29003051D01*
X25500649Y-28996966D01*
X25506459Y-28878711D01*
X27149500Y-28878711D01*
X27149500Y-29121288D01*
X27181161Y-29361785D01*
X27243947Y-29596104D01*
X27336773Y-29820205D01*
X27336776Y-29820212D01*
X27458064Y-30030289D01*
X27458066Y-30030292D01*
X27458067Y-30030293D01*
X27605733Y-30222736D01*
X27605739Y-30222743D01*
X27777256Y-30394260D01*
X27777263Y-30394266D01*
X27844145Y-30445586D01*
X27969711Y-30541936D01*
X28179788Y-30663224D01*
X28403900Y-30756054D01*
X28638211Y-30818838D01*
X28818586Y-30842584D01*
X28878711Y-30850500D01*
X28878712Y-30850500D01*
X29121289Y-30850500D01*
X29170312Y-30844046D01*
X29361789Y-30818838D01*
X29596100Y-30756054D01*
X29820212Y-30663224D01*
X30030289Y-30541936D01*
X30222738Y-30394265D01*
X30394265Y-30222738D01*
X30497923Y-30087648D01*
X34449500Y-30087648D01*
X34449500Y-30292351D01*
X34481522Y-30494534D01*
X34544781Y-30689223D01*
X34599907Y-30797412D01*
X34623668Y-30844046D01*
X34637715Y-30871613D01*
X34758028Y-31037213D01*
X34902786Y-31181971D01*
X35057749Y-31294556D01*
X35068390Y-31302287D01*
X35184607Y-31361503D01*
X35250776Y-31395218D01*
X35250778Y-31395218D01*
X35250781Y-31395220D01*
X35355137Y-31429127D01*
X35445465Y-31458477D01*
X35546557Y-31474488D01*
X35647648Y-31490500D01*
X35647649Y-31490500D01*
X35852351Y-31490500D01*
X35852352Y-31490500D01*
X36054534Y-31458477D01*
X36249219Y-31395220D01*
X36431610Y-31302287D01*
X36524590Y-31234732D01*
X36597213Y-31181971D01*
X36597215Y-31181968D01*
X36597219Y-31181966D01*
X36741966Y-31037219D01*
X36741968Y-31037215D01*
X36741971Y-31037213D01*
X36862284Y-30871614D01*
X36862285Y-30871613D01*
X36862287Y-30871610D01*
X36905015Y-30787750D01*
X36952989Y-30736955D01*
X37020810Y-30720160D01*
X37086945Y-30742697D01*
X37130397Y-30797412D01*
X37139500Y-30844046D01*
X37139500Y-30852351D01*
X37171522Y-31054534D01*
X37234781Y-31249223D01*
X37298691Y-31374653D01*
X37309171Y-31395220D01*
X37327715Y-31431613D01*
X37448028Y-31597213D01*
X37592786Y-31741971D01*
X37682037Y-31806814D01*
X37758390Y-31862287D01*
X37874607Y-31921503D01*
X37940776Y-31955218D01*
X37940778Y-31955218D01*
X37940781Y-31955220D01*
X38045137Y-31989127D01*
X38135465Y-32018477D01*
X38236557Y-32034488D01*
X38337648Y-32050500D01*
X38337649Y-32050500D01*
X38542351Y-32050500D01*
X38542352Y-32050500D01*
X38744534Y-32018477D01*
X38939219Y-31955220D01*
X39121610Y-31862287D01*
X39214590Y-31794732D01*
X39287213Y-31741971D01*
X39287215Y-31741968D01*
X39287219Y-31741966D01*
X39431966Y-31597219D01*
X39431968Y-31597215D01*
X39431971Y-31597213D01*
X39532767Y-31458477D01*
X39552287Y-31431610D01*
X39645220Y-31249219D01*
X39708477Y-31054534D01*
X39740500Y-30852352D01*
X39740500Y-30647648D01*
X39717114Y-30500000D01*
X44783391Y-30500000D01*
X45744314Y-30500000D01*
X45739920Y-30504394D01*
X45687259Y-30595606D01*
X45660000Y-30697339D01*
X45660000Y-30802661D01*
X45687259Y-30904394D01*
X45739920Y-30995606D01*
X45744314Y-31000000D01*
X44783391Y-31000000D01*
X44792009Y-31054413D01*
X44855244Y-31249029D01*
X44948140Y-31431349D01*
X45068417Y-31596894D01*
X45068417Y-31596895D01*
X45213104Y-31741582D01*
X45378650Y-31861859D01*
X45560968Y-31954754D01*
X45755578Y-32017988D01*
X45810000Y-32026607D01*
X45810000Y-31065686D01*
X45814394Y-31070080D01*
X45905606Y-31122741D01*
X46007339Y-31150000D01*
X46112661Y-31150000D01*
X46214394Y-31122741D01*
X46305606Y-31070080D01*
X46310000Y-31065686D01*
X46310000Y-32026606D01*
X46364421Y-32017988D01*
X46559031Y-31954754D01*
X46741349Y-31861859D01*
X46906894Y-31741582D01*
X46906895Y-31741582D01*
X47051582Y-31596895D01*
X47051582Y-31596894D01*
X47171859Y-31431349D01*
X47264755Y-31249029D01*
X47327990Y-31054413D01*
X47336609Y-31000000D01*
X46375686Y-31000000D01*
X46380080Y-30995606D01*
X46432741Y-30904394D01*
X46460000Y-30802661D01*
X46460000Y-30697339D01*
X46432741Y-30595606D01*
X46380080Y-30504394D01*
X46375686Y-30500000D01*
X47336609Y-30500000D01*
X47327990Y-30445586D01*
X47264755Y-30250970D01*
X47171859Y-30068650D01*
X47051582Y-29903105D01*
X47051582Y-29903104D01*
X46906895Y-29758417D01*
X46741349Y-29638140D01*
X46559029Y-29545244D01*
X46364413Y-29482009D01*
X46310000Y-29473390D01*
X46310000Y-30434314D01*
X46305606Y-30429920D01*
X46214394Y-30377259D01*
X46112661Y-30350000D01*
X46007339Y-30350000D01*
X45905606Y-30377259D01*
X45814394Y-30429920D01*
X45810000Y-30434314D01*
X45810000Y-29473390D01*
X45755586Y-29482009D01*
X45560970Y-29545244D01*
X45378650Y-29638140D01*
X45213105Y-29758417D01*
X45213104Y-29758417D01*
X45068417Y-29903104D01*
X45068417Y-29903105D01*
X44948140Y-30068650D01*
X44855244Y-30250970D01*
X44792009Y-30445586D01*
X44783391Y-30500000D01*
X39717114Y-30500000D01*
X39708477Y-30445466D01*
X39645220Y-30250781D01*
X39645218Y-30250778D01*
X39645218Y-30250776D01*
X39595015Y-30152248D01*
X39552287Y-30068390D01*
X39524605Y-30030289D01*
X39431971Y-29902786D01*
X39287213Y-29758028D01*
X39121613Y-29637715D01*
X39121612Y-29637714D01*
X39121610Y-29637713D01*
X39039940Y-29596100D01*
X38939223Y-29544781D01*
X38744534Y-29481522D01*
X38569995Y-29453878D01*
X38542352Y-29449500D01*
X38337648Y-29449500D01*
X38313329Y-29453351D01*
X38135465Y-29481522D01*
X37940776Y-29544781D01*
X37758386Y-29637715D01*
X37592786Y-29758028D01*
X37448028Y-29902786D01*
X37327715Y-30068386D01*
X37284985Y-30152248D01*
X37237010Y-30203044D01*
X37169189Y-30219839D01*
X37103054Y-30197301D01*
X37059603Y-30142586D01*
X37050500Y-30095953D01*
X37050500Y-30087648D01*
X37018477Y-29885465D01*
X36955218Y-29690776D01*
X36921503Y-29624607D01*
X36862287Y-29508390D01*
X36842767Y-29481523D01*
X36741971Y-29342786D01*
X36597213Y-29198028D01*
X36431613Y-29077715D01*
X36431612Y-29077714D01*
X36431610Y-29077713D01*
X36374653Y-29048691D01*
X36249223Y-28984781D01*
X36054534Y-28921522D01*
X35879995Y-28893878D01*
X35852352Y-28889500D01*
X35647648Y-28889500D01*
X35623329Y-28893351D01*
X35445465Y-28921522D01*
X35250776Y-28984781D01*
X35068386Y-29077715D01*
X34902786Y-29198028D01*
X34758028Y-29342786D01*
X34637715Y-29508386D01*
X34544781Y-29690776D01*
X34481522Y-29885465D01*
X34449500Y-30087648D01*
X30497923Y-30087648D01*
X30541936Y-30030289D01*
X30663224Y-29820212D01*
X30756054Y-29596100D01*
X30818838Y-29361789D01*
X30850500Y-29121288D01*
X30850500Y-28878712D01*
X30849164Y-28868567D01*
X30821310Y-28656989D01*
X30818838Y-28638211D01*
X30756054Y-28403900D01*
X30663224Y-28179788D01*
X30541936Y-27969711D01*
X30394265Y-27777262D01*
X30394260Y-27777256D01*
X30222743Y-27605739D01*
X30222736Y-27605733D01*
X30030293Y-27458067D01*
X30030292Y-27458066D01*
X30030289Y-27458064D01*
X29820212Y-27336776D01*
X29820205Y-27336773D01*
X29596104Y-27243947D01*
X29361785Y-27181161D01*
X29121289Y-27149500D01*
X29121288Y-27149500D01*
X28878712Y-27149500D01*
X28878711Y-27149500D01*
X28638214Y-27181161D01*
X28403895Y-27243947D01*
X28179794Y-27336773D01*
X28179785Y-27336777D01*
X27969706Y-27458067D01*
X27777263Y-27605733D01*
X27777256Y-27605739D01*
X27605739Y-27777256D01*
X27605733Y-27777263D01*
X27458067Y-27969706D01*
X27336777Y-28179785D01*
X27336773Y-28179794D01*
X27243947Y-28403895D01*
X27181161Y-28638214D01*
X27149500Y-28878711D01*
X25506459Y-28878711D01*
X25506957Y-28868568D01*
X25506957Y-28868567D01*
X25517052Y-28663072D01*
X25518245Y-28650962D01*
X25520136Y-28638211D01*
X25566849Y-28323296D01*
X25569218Y-28311385D01*
X25649710Y-27990043D01*
X25653240Y-27978411D01*
X25725212Y-27777263D01*
X25764835Y-27666525D01*
X25769476Y-27655318D01*
X25911124Y-27355828D01*
X25916840Y-27345136D01*
X26087145Y-27060998D01*
X26093888Y-27050905D01*
X26291232Y-26784818D01*
X26298935Y-26775433D01*
X26521405Y-26529975D01*
X26529975Y-26521405D01*
X26775433Y-26298935D01*
X26784818Y-26291232D01*
X27050905Y-26093888D01*
X27060998Y-26087145D01*
X27345136Y-25916840D01*
X27355828Y-25911124D01*
X27655318Y-25769476D01*
X27666525Y-25764835D01*
X27978412Y-25653239D01*
X27990043Y-25649710D01*
X28311385Y-25569218D01*
X28323296Y-25566849D01*
X28650962Y-25518244D01*
X28663068Y-25517052D01*
X28996967Y-25500648D01*
X29003051Y-25500500D01*
X52876000Y-25500500D01*
X52943039Y-25520185D01*
G37*
G04 #@! TD.AperFunction*
G04 #@! TD*
M02*
