G04 #@! TF.GenerationSoftware,KiCad,Pcbnew,8.0.2-8.0.2-0~ubuntu22.04.1*
G04 #@! TF.CreationDate,2024-05-10T10:39:00-07:00*
G04 #@! TF.ProjectId,pifire-relay-module-SSR,70696669-7265-42d7-9265-6c61792d6d6f,rev?*
G04 #@! TF.SameCoordinates,Original*
G04 #@! TF.FileFunction,Legend,Bot*
G04 #@! TF.FilePolarity,Positive*
%FSLAX46Y46*%
G04 Gerber Fmt 4.6, Leading zero omitted, Abs format (unit mm)*
G04 Created by KiCad (PCBNEW 8.0.2-8.0.2-0~ubuntu22.04.1) date 2024-05-10 10:39:00*
%MOMM*%
%LPD*%
G01*
G04 APERTURE LIST*
G04 Aperture macros list*
%AMRoundRect*
0 Rectangle with rounded corners*
0 $1 Rounding radius*
0 $2 $3 $4 $5 $6 $7 $8 $9 X,Y pos of 4 corners*
0 Add a 4 corners polygon primitive as box body*
4,1,4,$2,$3,$4,$5,$6,$7,$8,$9,$2,$3,0*
0 Add four circle primitives for the rounded corners*
1,1,$1+$1,$2,$3*
1,1,$1+$1,$4,$5*
1,1,$1+$1,$6,$7*
1,1,$1+$1,$8,$9*
0 Add four rect primitives between the rounded corners*
20,1,$1+$1,$2,$3,$4,$5,0*
20,1,$1+$1,$4,$5,$6,$7,0*
20,1,$1+$1,$6,$7,$8,$9,0*
20,1,$1+$1,$8,$9,$2,$3,0*%
G04 Aperture macros list end*
%ADD10C,0.000000*%
%ADD11C,0.100000*%
%ADD12RoundRect,0.102000X0.754000X0.754000X-0.754000X0.754000X-0.754000X-0.754000X0.754000X-0.754000X0*%
%ADD13C,1.712000*%
%ADD14C,1.600000*%
%ADD15O,1.600000X1.600000*%
%ADD16C,3.200000*%
%ADD17R,1.500000X1.050000*%
%ADD18O,1.500000X1.050000*%
%ADD19C,2.000000*%
%ADD20RoundRect,0.250000X0.725000X-0.600000X0.725000X0.600000X-0.725000X0.600000X-0.725000X-0.600000X0*%
%ADD21O,1.950000X1.700000*%
%ADD22R,3.000000X3.000000*%
%ADD23C,3.000000*%
G04 APERTURE END LIST*
D10*
G36*
X32249847Y-59271540D02*
G01*
X32277032Y-59275813D01*
X32303821Y-59282850D01*
X32330182Y-59292581D01*
X32356080Y-59304936D01*
X32381482Y-59319846D01*
X32406354Y-59337243D01*
X32430663Y-59357055D01*
X32454375Y-59379213D01*
X32477456Y-59403649D01*
X32499873Y-59430292D01*
X32521591Y-59459073D01*
X32542579Y-59489923D01*
X32562800Y-59522771D01*
X32582224Y-59557549D01*
X32600814Y-59594187D01*
X32618539Y-59632615D01*
X32635363Y-59672764D01*
X32651255Y-59714564D01*
X32666179Y-59757946D01*
X32680103Y-59802840D01*
X32692992Y-59849177D01*
X32704814Y-59896887D01*
X32715533Y-59945901D01*
X32725118Y-59996149D01*
X32733534Y-60047561D01*
X32740747Y-60100069D01*
X32746725Y-60153602D01*
X32751432Y-60208092D01*
X32754836Y-60263467D01*
X32756903Y-60319660D01*
X32757600Y-60376601D01*
X32754836Y-60489734D01*
X32746725Y-60599599D01*
X32733534Y-60705640D01*
X32715533Y-60807301D01*
X32692992Y-60904025D01*
X32666179Y-60995256D01*
X32635363Y-61080438D01*
X32600814Y-61159015D01*
X32562800Y-61230430D01*
X32521591Y-61294128D01*
X32477456Y-61349552D01*
X32430663Y-61396147D01*
X32406354Y-61415959D01*
X32381482Y-61433355D01*
X32356080Y-61448265D01*
X32330182Y-61460621D01*
X32303821Y-61470352D01*
X32277032Y-61477388D01*
X32249847Y-61481661D01*
X32222300Y-61483101D01*
X32194754Y-61481661D01*
X32167569Y-61477388D01*
X32140780Y-61470352D01*
X32114419Y-61460621D01*
X32088521Y-61448265D01*
X32063119Y-61433355D01*
X32038246Y-61415959D01*
X32013938Y-61396147D01*
X31990226Y-61373988D01*
X31967145Y-61349552D01*
X31944728Y-61322909D01*
X31923009Y-61294128D01*
X31902022Y-61263279D01*
X31881800Y-61230430D01*
X31862377Y-61195652D01*
X31843786Y-61159015D01*
X31826062Y-61120587D01*
X31809237Y-61080438D01*
X31793346Y-61038638D01*
X31778422Y-60995256D01*
X31764498Y-60950362D01*
X31751608Y-60904025D01*
X31739787Y-60856315D01*
X31729067Y-60807301D01*
X31719483Y-60757053D01*
X31711067Y-60705640D01*
X31703853Y-60653133D01*
X31697876Y-60599599D01*
X31693169Y-60545110D01*
X31689764Y-60489734D01*
X31687697Y-60433541D01*
X31687001Y-60376601D01*
X31689764Y-60263467D01*
X31697876Y-60153602D01*
X31711067Y-60047561D01*
X31729067Y-59945901D01*
X31751608Y-59849177D01*
X31778422Y-59757946D01*
X31809237Y-59672764D01*
X31843786Y-59594187D01*
X31881800Y-59522771D01*
X31923009Y-59459073D01*
X31967145Y-59403649D01*
X32013938Y-59357055D01*
X32038246Y-59337243D01*
X32063119Y-59319846D01*
X32088521Y-59304936D01*
X32114419Y-59292581D01*
X32140780Y-59282850D01*
X32167569Y-59275813D01*
X32194754Y-59271540D01*
X32222300Y-59270100D01*
X32249847Y-59271540D01*
G37*
G36*
X30879870Y-58365832D02*
G01*
X30989285Y-58373641D01*
X31097110Y-58386501D01*
X31203208Y-58404286D01*
X31307444Y-58426867D01*
X31409683Y-58454117D01*
X31509790Y-58485910D01*
X31607630Y-58522119D01*
X31703066Y-58562617D01*
X31795964Y-58607275D01*
X31886188Y-58655968D01*
X31973602Y-58708568D01*
X32058073Y-58764949D01*
X32139463Y-58824982D01*
X32217638Y-58888542D01*
X32292462Y-58955500D01*
X32363801Y-59025731D01*
X32431518Y-59099106D01*
X32495478Y-59175499D01*
X32555546Y-59254783D01*
X32611586Y-59336830D01*
X32663464Y-59421513D01*
X32711043Y-59508706D01*
X32754189Y-59598282D01*
X32792766Y-59690112D01*
X32826638Y-59784071D01*
X32855670Y-59880031D01*
X32879728Y-59977865D01*
X32898675Y-60077446D01*
X32912376Y-60178647D01*
X32920696Y-60281341D01*
X32923500Y-60385400D01*
X32920696Y-60489460D01*
X32912376Y-60592154D01*
X32898675Y-60693355D01*
X32879728Y-60792936D01*
X32855670Y-60890770D01*
X32826638Y-60986730D01*
X32792766Y-61080688D01*
X32754189Y-61172519D01*
X32711043Y-61262094D01*
X32663464Y-61349287D01*
X32611586Y-61433971D01*
X32555546Y-61516018D01*
X32495478Y-61595302D01*
X32431518Y-61671695D01*
X32363801Y-61745070D01*
X32292462Y-61815300D01*
X32217638Y-61882259D01*
X32139463Y-61945818D01*
X32058073Y-62005852D01*
X31973602Y-62062232D01*
X31886188Y-62114832D01*
X31795964Y-62163525D01*
X31703066Y-62208184D01*
X31607630Y-62248681D01*
X31509790Y-62284890D01*
X31409683Y-62316683D01*
X31307444Y-62343934D01*
X31203208Y-62366515D01*
X31097110Y-62384299D01*
X30989285Y-62397159D01*
X30879870Y-62404968D01*
X30769000Y-62407600D01*
X30658138Y-62404968D01*
X30548732Y-62397157D01*
X30440915Y-62384294D01*
X30334825Y-62366508D01*
X30230595Y-62343924D01*
X30128362Y-62316670D01*
X30028260Y-62284874D01*
X29930425Y-62248662D01*
X29834993Y-62208163D01*
X29742098Y-62163503D01*
X29651876Y-62114810D01*
X29564463Y-62062211D01*
X29479993Y-62005833D01*
X29398603Y-61945804D01*
X29320427Y-61882250D01*
X29245600Y-61815300D01*
X29065434Y-61651403D01*
X28826538Y-61448806D01*
X28689368Y-61339872D01*
X28542679Y-61229513D01*
X28388191Y-61120480D01*
X28227625Y-61015525D01*
X28062702Y-60917397D01*
X27895143Y-60828847D01*
X27810913Y-60789023D01*
X27726669Y-60752625D01*
X27642626Y-60719996D01*
X27559000Y-60691481D01*
X27476005Y-60667423D01*
X27393858Y-60648166D01*
X27312772Y-60634054D01*
X27232963Y-60625431D01*
X27154646Y-60622640D01*
X27078037Y-60626025D01*
X27003349Y-60635930D01*
X26930799Y-60652699D01*
X26943263Y-60626668D01*
X26956831Y-60600913D01*
X26987116Y-60550168D01*
X27021321Y-60500336D01*
X27059113Y-60451289D01*
X27100157Y-60402899D01*
X27144121Y-60355037D01*
X27190672Y-60307576D01*
X27239475Y-60260388D01*
X27290198Y-60213343D01*
X27342507Y-60166314D01*
X27450550Y-60071792D01*
X27560937Y-59975796D01*
X27671000Y-59877300D01*
X27736203Y-59857947D01*
X27822709Y-59842566D01*
X27927512Y-59831328D01*
X28047610Y-59824408D01*
X28179997Y-59821976D01*
X28321669Y-59824205D01*
X28469621Y-59831268D01*
X28620850Y-59843337D01*
X28772351Y-59860585D01*
X28921119Y-59883184D01*
X29064150Y-59911306D01*
X29198440Y-59945123D01*
X29320985Y-59984809D01*
X29428779Y-60030536D01*
X29476206Y-60055718D01*
X29518818Y-60082476D01*
X29556241Y-60110829D01*
X29588099Y-60140801D01*
X29613542Y-60165520D01*
X29636426Y-60183149D01*
X29656656Y-60194027D01*
X29674136Y-60198495D01*
X29688772Y-60196894D01*
X29700468Y-60189562D01*
X29709129Y-60176842D01*
X29714660Y-60159072D01*
X29716967Y-60136593D01*
X29715952Y-60109746D01*
X29711523Y-60078870D01*
X29703583Y-60044307D01*
X29692037Y-60006395D01*
X29676790Y-59965476D01*
X29657747Y-59921889D01*
X29634812Y-59875975D01*
X29607892Y-59828074D01*
X29576889Y-59778527D01*
X29541710Y-59727673D01*
X29502259Y-59675853D01*
X29458441Y-59623407D01*
X29410161Y-59570675D01*
X29357323Y-59517998D01*
X29299833Y-59465715D01*
X29237595Y-59414168D01*
X29170514Y-59363696D01*
X29098495Y-59314640D01*
X29021443Y-59267339D01*
X28939263Y-59222135D01*
X28851859Y-59179366D01*
X28759136Y-59139374D01*
X28661000Y-59102499D01*
X28934144Y-58944965D01*
X29067062Y-58870577D01*
X29199000Y-58799824D01*
X29331051Y-58733244D01*
X29464306Y-58671371D01*
X29531727Y-58642369D01*
X29599858Y-58614744D01*
X29668837Y-58588566D01*
X29738800Y-58563899D01*
X29878793Y-58518698D01*
X30016530Y-58478794D01*
X30151536Y-58444411D01*
X30283337Y-58415775D01*
X30411459Y-58393111D01*
X30535426Y-58376644D01*
X30595704Y-58370805D01*
X30654765Y-58366599D01*
X30712550Y-58364055D01*
X30769000Y-58363200D01*
X30879870Y-58365832D01*
G37*
G36*
X31564017Y-58940583D02*
G01*
X31634397Y-58946173D01*
X31703754Y-58955379D01*
X31772000Y-58968109D01*
X31839048Y-58984273D01*
X31904811Y-59003780D01*
X31969202Y-59026538D01*
X32032134Y-59052457D01*
X32093521Y-59081446D01*
X32153274Y-59113414D01*
X32211307Y-59148271D01*
X32267533Y-59185924D01*
X32321865Y-59226283D01*
X32374216Y-59269257D01*
X32424498Y-59314755D01*
X32472625Y-59362687D01*
X32518510Y-59412961D01*
X32562065Y-59465487D01*
X32603204Y-59520172D01*
X32641839Y-59576927D01*
X32677883Y-59635661D01*
X32711250Y-59696282D01*
X32741853Y-59758700D01*
X32769603Y-59822824D01*
X32794415Y-59888562D01*
X32816201Y-59955824D01*
X32834874Y-60024518D01*
X32850347Y-60094555D01*
X32862534Y-60165842D01*
X32871346Y-60238290D01*
X32876697Y-60311806D01*
X32878500Y-60386301D01*
X32876697Y-60460786D01*
X32871346Y-60534294D01*
X32862534Y-60606733D01*
X32850347Y-60678013D01*
X32834874Y-60748042D01*
X32816201Y-60816730D01*
X32794415Y-60883986D01*
X32769603Y-60949719D01*
X32741853Y-61013837D01*
X32711250Y-61076250D01*
X32677883Y-61136867D01*
X32641839Y-61195597D01*
X32603204Y-61252348D01*
X32562065Y-61307031D01*
X32518510Y-61359553D01*
X32472625Y-61409825D01*
X32424498Y-61457754D01*
X32374216Y-61503251D01*
X32321865Y-61546223D01*
X32267533Y-61586581D01*
X32211307Y-61624233D01*
X32153274Y-61659088D01*
X32093521Y-61691055D01*
X32032134Y-61720044D01*
X31969202Y-61745962D01*
X31904811Y-61768720D01*
X31839048Y-61788227D01*
X31772000Y-61804390D01*
X31703754Y-61817121D01*
X31634397Y-61826326D01*
X31564017Y-61831916D01*
X31492700Y-61833800D01*
X31456390Y-61833189D01*
X31419222Y-61831370D01*
X31381236Y-61828363D01*
X31342467Y-61824187D01*
X31302955Y-61818863D01*
X31262738Y-61812411D01*
X31221853Y-61804850D01*
X31180338Y-61796200D01*
X31095571Y-61775714D01*
X31008740Y-61751112D01*
X30920148Y-61722554D01*
X30830101Y-61690199D01*
X30785092Y-61672542D01*
X30740719Y-61653800D01*
X30696893Y-61634023D01*
X30653527Y-61613258D01*
X30610531Y-61591554D01*
X30567819Y-61568959D01*
X30482888Y-61521288D01*
X30398027Y-61470631D01*
X30312530Y-61417374D01*
X30136801Y-61304601D01*
X30199924Y-61278213D01*
X30259565Y-61249593D01*
X30315785Y-61218985D01*
X30368645Y-61186632D01*
X30418208Y-61152777D01*
X30464533Y-61117666D01*
X30507682Y-61081540D01*
X30547716Y-61044644D01*
X30584697Y-61007221D01*
X30618685Y-60969515D01*
X30649742Y-60931770D01*
X30677929Y-60894228D01*
X30703307Y-60857134D01*
X30725937Y-60820732D01*
X30745881Y-60785264D01*
X30763200Y-60750975D01*
X30777955Y-60718108D01*
X30790207Y-60686907D01*
X30800017Y-60657614D01*
X30807447Y-60630475D01*
X30812557Y-60605732D01*
X30815409Y-60583630D01*
X30816065Y-60564411D01*
X30814584Y-60548319D01*
X30811030Y-60535598D01*
X30805461Y-60526492D01*
X30797941Y-60521244D01*
X30788530Y-60520097D01*
X30777289Y-60523296D01*
X30764280Y-60531083D01*
X30749563Y-60543704D01*
X30733200Y-60561400D01*
X30712702Y-60582856D01*
X30688625Y-60603153D01*
X30661211Y-60622307D01*
X30630701Y-60640334D01*
X30597336Y-60657248D01*
X30561359Y-60673065D01*
X30482532Y-60701470D01*
X30396152Y-60725674D01*
X30304151Y-60745800D01*
X30208460Y-60761971D01*
X30111012Y-60774312D01*
X30013739Y-60782947D01*
X29918572Y-60787998D01*
X29827443Y-60789591D01*
X29742285Y-60787848D01*
X29665030Y-60782894D01*
X29597610Y-60774852D01*
X29541955Y-60763846D01*
X29500000Y-60750000D01*
X29429232Y-60679481D01*
X29358249Y-60610758D01*
X29288767Y-60543097D01*
X29255124Y-60509435D01*
X29222499Y-60475763D01*
X29191108Y-60441989D01*
X29161164Y-60408021D01*
X29132881Y-60373767D01*
X29106474Y-60339136D01*
X29082159Y-60304035D01*
X29060148Y-60268374D01*
X29040657Y-60232059D01*
X29031923Y-60213628D01*
X29023899Y-60195000D01*
X29070570Y-60207002D01*
X29118616Y-60214091D01*
X29167898Y-60216513D01*
X29218277Y-60214513D01*
X29269616Y-60208340D01*
X29321776Y-60198237D01*
X29374619Y-60184451D01*
X29428006Y-60167229D01*
X29481799Y-60146817D01*
X29535860Y-60123459D01*
X29590051Y-60097404D01*
X29644232Y-60068896D01*
X29752014Y-60005507D01*
X29858100Y-59935262D01*
X29961383Y-59860129D01*
X30060755Y-59782077D01*
X30155111Y-59703074D01*
X30243343Y-59625089D01*
X30324345Y-59550090D01*
X30397010Y-59480047D01*
X30512899Y-59362700D01*
X30561014Y-59314778D01*
X30611286Y-59269287D01*
X30663629Y-59226318D01*
X30717954Y-59185961D01*
X30774175Y-59148308D01*
X30832204Y-59113451D01*
X30891954Y-59081480D01*
X30953337Y-59052487D01*
X31016266Y-59026563D01*
X31080653Y-59003800D01*
X31146410Y-58984288D01*
X31213451Y-58968120D01*
X31281688Y-58955385D01*
X31351033Y-58946176D01*
X31421400Y-58940584D01*
X31492700Y-58938699D01*
X31564017Y-58940583D01*
G37*
D11*
G36*
X57995000Y-34889218D02*
G01*
X56470924Y-34889218D01*
X56470924Y-35074598D01*
X57046116Y-35074598D01*
X56986104Y-35125642D01*
X56938508Y-35181502D01*
X56898672Y-35252761D01*
X56875737Y-35330577D01*
X56869528Y-35402494D01*
X56875243Y-35482307D01*
X56892386Y-35554501D01*
X56917889Y-35613520D01*
X56962990Y-35677984D01*
X57020306Y-35725519D01*
X57050879Y-35741748D01*
X57125394Y-35765412D01*
X57203940Y-35776790D01*
X57277545Y-35780430D01*
X57297442Y-35780582D01*
X57995000Y-35780582D01*
X57995000Y-35594836D01*
X57316859Y-35594836D01*
X57239136Y-35588932D01*
X57164947Y-35566263D01*
X57119023Y-35534385D01*
X57076697Y-35472205D01*
X57058619Y-35397262D01*
X57057107Y-35364026D01*
X57066284Y-35288920D01*
X57093815Y-35218160D01*
X57098872Y-35209054D01*
X57144548Y-35150144D01*
X57207643Y-35107360D01*
X57212079Y-35105373D01*
X57285038Y-35084336D01*
X57364208Y-35075680D01*
X57409549Y-35074598D01*
X57995000Y-35074598D01*
X57995000Y-34889218D01*
G37*
G36*
X57836730Y-36462020D02*
G01*
X58000495Y-36488764D01*
X58013959Y-36414576D01*
X58018447Y-36348813D01*
X58013307Y-36274154D01*
X57992871Y-36202850D01*
X57987306Y-36192009D01*
X57938071Y-36133443D01*
X57905607Y-36113974D01*
X57833656Y-36097670D01*
X57758408Y-36092346D01*
X57692749Y-36091259D01*
X57080554Y-36091259D01*
X57080554Y-35954972D01*
X56892976Y-35954972D01*
X56892976Y-36091259D01*
X56621866Y-36091259D01*
X56510858Y-36275540D01*
X56892976Y-36275540D01*
X56892976Y-36462020D01*
X57080554Y-36462020D01*
X57080554Y-36275540D01*
X57687254Y-36275540D01*
X57762793Y-36279643D01*
X57783974Y-36285066D01*
X57818412Y-36316939D01*
X57830868Y-36380687D01*
X57836020Y-36455777D01*
X57836730Y-36462020D01*
G37*
G36*
X57836730Y-37045272D02*
G01*
X58000495Y-37072016D01*
X58013959Y-36997827D01*
X58018447Y-36932065D01*
X58013307Y-36857405D01*
X57992871Y-36786102D01*
X57987306Y-36775261D01*
X57938071Y-36716695D01*
X57905607Y-36697226D01*
X57833656Y-36680922D01*
X57758408Y-36675598D01*
X57692749Y-36674511D01*
X57080554Y-36674511D01*
X57080554Y-36538224D01*
X56892976Y-36538224D01*
X56892976Y-36674511D01*
X56621866Y-36674511D01*
X56510858Y-36858792D01*
X56892976Y-36858792D01*
X56892976Y-37045272D01*
X57080554Y-37045272D01*
X57080554Y-36858792D01*
X57687254Y-36858792D01*
X57762793Y-36862895D01*
X57783974Y-36868318D01*
X57818412Y-36900191D01*
X57830868Y-36963939D01*
X57836020Y-37039029D01*
X57836730Y-37045272D01*
G37*
G36*
X58417051Y-37409071D02*
G01*
X57848454Y-37409071D01*
X57866469Y-37421299D01*
X57923299Y-37470586D01*
X57970453Y-37529972D01*
X57981702Y-37548765D01*
X58009261Y-37619140D01*
X58018447Y-37696667D01*
X58017816Y-37720329D01*
X58006596Y-37797666D01*
X57981351Y-37872642D01*
X57946639Y-37938101D01*
X57922556Y-37972709D01*
X57871496Y-38028241D01*
X57810525Y-38075079D01*
X57739644Y-38113224D01*
X57669943Y-38139670D01*
X57596029Y-38158561D01*
X57517902Y-38169895D01*
X57435561Y-38173674D01*
X57377511Y-38171754D01*
X57302876Y-38163225D01*
X57222688Y-38145473D01*
X57146500Y-38119085D01*
X57122292Y-38108386D01*
X57055928Y-38070725D01*
X56993202Y-38019091D01*
X56942069Y-37957152D01*
X56929105Y-37936801D01*
X56895102Y-37864730D01*
X56875266Y-37786148D01*
X56869528Y-37709856D01*
X56870353Y-37692271D01*
X57057107Y-37692271D01*
X57068363Y-37770443D01*
X57102130Y-37840736D01*
X57152362Y-37897801D01*
X57205988Y-37935468D01*
X57280660Y-37964979D01*
X57359783Y-37979777D01*
X57438859Y-37983897D01*
X57521663Y-37979672D01*
X57603975Y-37964496D01*
X57673143Y-37938284D01*
X57735247Y-37895603D01*
X57741130Y-37890073D01*
X57789688Y-37830954D01*
X57821530Y-37757906D01*
X57830868Y-37684211D01*
X57819959Y-37604831D01*
X57787231Y-37533936D01*
X57738545Y-37476849D01*
X57686063Y-37439503D01*
X57611913Y-37410242D01*
X57532572Y-37395571D01*
X57452780Y-37391486D01*
X57372711Y-37395851D01*
X57291979Y-37411530D01*
X57222742Y-37438613D01*
X57158590Y-37482711D01*
X57105073Y-37542374D01*
X57069099Y-37614119D01*
X57057107Y-37692271D01*
X56870353Y-37692271D01*
X56871357Y-37670847D01*
X56887869Y-37593927D01*
X56921552Y-37527407D01*
X56954725Y-37486378D01*
X57011757Y-37435459D01*
X57076891Y-37392585D01*
X56892976Y-37392585D01*
X56892976Y-37223691D01*
X58417051Y-37223691D01*
X58417051Y-37409071D01*
G37*
G36*
X57666737Y-38317288D02*
G01*
X57643290Y-38500837D01*
X57714656Y-38524890D01*
X57773067Y-38574161D01*
X57782508Y-38586933D01*
X57813819Y-38653634D01*
X57828554Y-38731627D01*
X57830868Y-38784403D01*
X57826539Y-38857683D01*
X57807967Y-38933798D01*
X57786538Y-38973813D01*
X57731798Y-39023878D01*
X57682491Y-39035729D01*
X57615034Y-39004817D01*
X57598227Y-38980774D01*
X57572730Y-38908341D01*
X57554641Y-38835884D01*
X57544738Y-38791364D01*
X57525332Y-38719244D01*
X57503994Y-38646240D01*
X57478621Y-38569997D01*
X57453147Y-38508531D01*
X57413486Y-38446901D01*
X57358387Y-38397056D01*
X57345802Y-38389096D01*
X57278434Y-38359907D01*
X57204788Y-38348588D01*
X57194494Y-38348429D01*
X57117511Y-38357839D01*
X57054909Y-38381769D01*
X56992603Y-38424301D01*
X56947930Y-38472993D01*
X56911036Y-38539339D01*
X56892609Y-38590963D01*
X56876043Y-38663364D01*
X56869619Y-38740435D01*
X56869528Y-38751064D01*
X56873142Y-38828551D01*
X56885464Y-38906597D01*
X56906531Y-38977110D01*
X56940652Y-39047826D01*
X56987134Y-39105047D01*
X57006182Y-39120725D01*
X57074334Y-39157986D01*
X57148635Y-39179990D01*
X57174344Y-39184839D01*
X57197791Y-39003489D01*
X57129378Y-38972165D01*
X57094476Y-38931681D01*
X57066449Y-38860423D01*
X57057435Y-38784452D01*
X57057107Y-38764619D01*
X57061306Y-38685373D01*
X57078797Y-38609558D01*
X57092644Y-38582170D01*
X57147049Y-38532912D01*
X57175443Y-38527581D01*
X57230031Y-38550296D01*
X57269379Y-38615426D01*
X57271430Y-38621371D01*
X57289750Y-38692537D01*
X57307558Y-38768568D01*
X57311364Y-38785136D01*
X57333996Y-38865511D01*
X57357587Y-38943415D01*
X57381225Y-39013266D01*
X57399658Y-39059542D01*
X57438786Y-39125295D01*
X57491599Y-39176235D01*
X57499675Y-39181908D01*
X57568159Y-39213727D01*
X57644715Y-39225849D01*
X57662707Y-39226238D01*
X57738288Y-39217289D01*
X57810240Y-39190443D01*
X57842226Y-39172016D01*
X57900065Y-39124824D01*
X57947189Y-39064030D01*
X57972651Y-39015945D01*
X57998724Y-38942720D01*
X58013035Y-38870592D01*
X58018402Y-38793169D01*
X58018447Y-38785136D01*
X58015330Y-38708731D01*
X58003814Y-38628579D01*
X57980264Y-38548826D01*
X57945631Y-38481713D01*
X57929787Y-38459804D01*
X57873134Y-38403354D01*
X57802919Y-38359714D01*
X57729119Y-38331675D01*
X57666737Y-38317288D01*
G37*
G36*
X57080554Y-39492219D02*
G01*
X56892976Y-39492219D01*
X56892976Y-39703611D01*
X57080554Y-39703611D01*
X57080554Y-39492219D01*
G37*
G36*
X57995000Y-39492219D02*
G01*
X57807421Y-39492219D01*
X57807421Y-39703611D01*
X57995000Y-39703611D01*
X57995000Y-39492219D01*
G37*
G36*
X57995000Y-39884961D02*
G01*
X56470924Y-40322766D01*
X56470924Y-40471144D01*
X57995000Y-40034438D01*
X57995000Y-39884961D01*
G37*
G36*
X57995000Y-40468213D02*
G01*
X56470924Y-40906018D01*
X56470924Y-41054396D01*
X57995000Y-40617690D01*
X57995000Y-40468213D01*
G37*
G36*
X57466860Y-41120091D02*
G01*
X57548905Y-41127325D01*
X57626365Y-41143241D01*
X57699240Y-41167837D01*
X57767530Y-41201115D01*
X57831235Y-41243073D01*
X57886889Y-41293078D01*
X57937266Y-41360435D01*
X57971970Y-41437504D01*
X57989242Y-41511294D01*
X57995000Y-41592219D01*
X57993763Y-41625697D01*
X57981261Y-41699731D01*
X57950486Y-41777343D01*
X57909133Y-41839130D01*
X57854316Y-41895202D01*
X57921758Y-41894929D01*
X57999066Y-41891924D01*
X58073035Y-41881646D01*
X58083557Y-41878401D01*
X58152980Y-41842745D01*
X58205659Y-41787124D01*
X58230582Y-41737629D01*
X58248305Y-41663029D01*
X58252920Y-41588189D01*
X58251452Y-41545178D01*
X58239705Y-41469821D01*
X58211154Y-41399877D01*
X58182647Y-41366802D01*
X58112236Y-41336863D01*
X58088789Y-41156612D01*
X58151755Y-41159479D01*
X58226012Y-41176928D01*
X58296305Y-41215168D01*
X58352571Y-41273115D01*
X58363218Y-41288475D01*
X58398939Y-41355783D01*
X58423669Y-41432480D01*
X58436291Y-41507290D01*
X58440498Y-41589288D01*
X58438309Y-41649283D01*
X58428577Y-41723586D01*
X58408324Y-41799404D01*
X58378217Y-41866992D01*
X58370255Y-41880859D01*
X58325168Y-41943070D01*
X58271280Y-41993402D01*
X58208590Y-42031856D01*
X58163192Y-42049536D01*
X58086233Y-42067419D01*
X58003491Y-42077732D01*
X57921128Y-42082609D01*
X57844424Y-42083879D01*
X56892976Y-42083879D01*
X56892976Y-41912787D01*
X57033660Y-41912787D01*
X56995191Y-41880307D01*
X56940214Y-41818342D01*
X56900944Y-41749855D01*
X56877382Y-41674847D01*
X56870834Y-41606873D01*
X57057107Y-41606873D01*
X57057476Y-41622438D01*
X57070399Y-41695968D01*
X57101783Y-41762343D01*
X57151629Y-41821563D01*
X57204408Y-41860672D01*
X57277415Y-41891314D01*
X57354426Y-41906678D01*
X57431165Y-41910956D01*
X57489427Y-41908836D01*
X57572117Y-41896625D01*
X57649651Y-41869916D01*
X57716563Y-41824127D01*
X57722153Y-41818683D01*
X57768292Y-41759836D01*
X57798548Y-41685848D01*
X57807421Y-41610170D01*
X57807332Y-41602153D01*
X57796642Y-41526619D01*
X57764303Y-41453284D01*
X57716196Y-41395481D01*
X57663692Y-41358135D01*
X57588585Y-41328875D01*
X57507567Y-41314203D01*
X57425669Y-41310118D01*
X57370740Y-41312229D01*
X57292006Y-41324388D01*
X57216896Y-41350985D01*
X57150163Y-41396580D01*
X57144438Y-41402043D01*
X57097183Y-41460604D01*
X57066195Y-41533285D01*
X57057107Y-41606873D01*
X56870834Y-41606873D01*
X56869528Y-41593318D01*
X56870662Y-41557632D01*
X56881500Y-41481607D01*
X56903815Y-41411495D01*
X56942069Y-41340526D01*
X56961154Y-41314394D01*
X57017182Y-41256026D01*
X57077763Y-41211999D01*
X57147965Y-41176029D01*
X57207323Y-41154045D01*
X57287092Y-41133714D01*
X57361258Y-41123135D01*
X57438492Y-41119609D01*
X57466860Y-41120091D01*
G37*
G36*
X56658503Y-42359752D02*
G01*
X56470924Y-42359752D01*
X56470924Y-42545132D01*
X56658503Y-42545132D01*
X56658503Y-42359752D01*
G37*
G36*
X57995000Y-42359752D02*
G01*
X56892976Y-42359752D01*
X56892976Y-42545132D01*
X57995000Y-42545132D01*
X57995000Y-42359752D01*
G37*
G36*
X57836730Y-43229501D02*
G01*
X58000495Y-43256245D01*
X58013959Y-43182056D01*
X58018447Y-43116294D01*
X58013307Y-43041634D01*
X57992871Y-42970331D01*
X57987306Y-42959490D01*
X57938071Y-42900924D01*
X57905607Y-42881454D01*
X57833656Y-42865151D01*
X57758408Y-42859827D01*
X57692749Y-42858740D01*
X57080554Y-42858740D01*
X57080554Y-42722452D01*
X56892976Y-42722452D01*
X56892976Y-42858740D01*
X56621866Y-42858740D01*
X56510858Y-43043021D01*
X56892976Y-43043021D01*
X56892976Y-43229501D01*
X57080554Y-43229501D01*
X57080554Y-43043021D01*
X57687254Y-43043021D01*
X57762793Y-43047123D01*
X57783974Y-43052547D01*
X57818412Y-43084420D01*
X57830868Y-43148168D01*
X57836020Y-43223258D01*
X57836730Y-43229501D01*
G37*
G36*
X57995000Y-43407920D02*
G01*
X56470924Y-43407920D01*
X56470924Y-43593300D01*
X57046116Y-43593300D01*
X56986104Y-43644344D01*
X56938508Y-43700204D01*
X56898672Y-43771463D01*
X56875737Y-43849279D01*
X56869528Y-43921196D01*
X56875243Y-44001009D01*
X56892386Y-44073203D01*
X56917889Y-44132222D01*
X56962990Y-44196686D01*
X57020306Y-44244221D01*
X57050879Y-44260450D01*
X57125394Y-44284114D01*
X57203940Y-44295492D01*
X57277545Y-44299133D01*
X57297442Y-44299284D01*
X57995000Y-44299284D01*
X57995000Y-44113538D01*
X57316859Y-44113538D01*
X57239136Y-44107634D01*
X57164947Y-44084965D01*
X57119023Y-44053087D01*
X57076697Y-43990907D01*
X57058619Y-43915964D01*
X57057107Y-43882728D01*
X57066284Y-43807622D01*
X57093815Y-43736862D01*
X57098872Y-43727756D01*
X57144548Y-43668846D01*
X57207643Y-43626062D01*
X57212079Y-43624075D01*
X57285038Y-43603038D01*
X57364208Y-43594382D01*
X57409549Y-43593300D01*
X57995000Y-43593300D01*
X57995000Y-43407920D01*
G37*
G36*
X57995000Y-45292864D02*
G01*
X57805589Y-45292864D01*
X57866910Y-45250671D01*
X57926777Y-45194137D01*
X57971676Y-45131162D01*
X58001609Y-45061748D01*
X58016576Y-44985893D01*
X58018447Y-44945551D01*
X58012279Y-44869021D01*
X57993777Y-44796604D01*
X57981078Y-44764567D01*
X57944733Y-44699431D01*
X57894266Y-44645255D01*
X57887288Y-44640003D01*
X57820208Y-44603619D01*
X57749169Y-44582850D01*
X57672582Y-44573988D01*
X57596607Y-44571593D01*
X57574780Y-44571493D01*
X56892976Y-44571493D01*
X56892976Y-44757240D01*
X57486486Y-44757240D01*
X57566084Y-44758349D01*
X57642604Y-44763107D01*
X57677728Y-44768597D01*
X57745052Y-44798242D01*
X57790202Y-44842602D01*
X57821933Y-44910486D01*
X57830868Y-44982920D01*
X57821691Y-45058896D01*
X57794160Y-45130203D01*
X57789103Y-45139357D01*
X57743347Y-45198632D01*
X57679988Y-45241096D01*
X57675530Y-45243039D01*
X57599966Y-45263825D01*
X57523179Y-45271992D01*
X57466336Y-45273447D01*
X56892976Y-45273447D01*
X56892976Y-45458827D01*
X57995000Y-45458827D01*
X57995000Y-45292864D01*
G37*
G36*
X57995000Y-45914951D02*
G01*
X57819511Y-45914951D01*
X57876822Y-45951442D01*
X57932772Y-46000592D01*
X57980369Y-46065325D01*
X58008927Y-46138016D01*
X58018447Y-46218667D01*
X58014681Y-46278206D01*
X57996757Y-46356963D01*
X57964071Y-46430356D01*
X57916625Y-46498384D01*
X57864207Y-46552424D01*
X57812877Y-46592531D01*
X57743016Y-46631687D01*
X57664139Y-46661053D01*
X57591521Y-46678047D01*
X57512642Y-46688244D01*
X57427501Y-46691643D01*
X57354515Y-46688423D01*
X57277535Y-46677443D01*
X57204019Y-46658670D01*
X57159650Y-46643035D01*
X57090442Y-46610603D01*
X57025233Y-46567445D01*
X56998653Y-46544480D01*
X56949105Y-46487035D01*
X56910561Y-46419068D01*
X56892609Y-46373318D01*
X56875299Y-46302118D01*
X56869528Y-46227826D01*
X56870818Y-46211706D01*
X57057107Y-46211706D01*
X57068233Y-46290373D01*
X57101610Y-46360643D01*
X57151263Y-46417236D01*
X57204798Y-46454422D01*
X57280461Y-46483557D01*
X57361439Y-46498165D01*
X57442889Y-46502233D01*
X57511930Y-46499116D01*
X57593526Y-46485262D01*
X57671034Y-46456431D01*
X57733415Y-46413572D01*
X57739411Y-46407999D01*
X57788899Y-46348722D01*
X57821351Y-46276080D01*
X57830868Y-46203279D01*
X57826219Y-46149402D01*
X57801808Y-46076749D01*
X57756473Y-46013892D01*
X57698611Y-45966242D01*
X57658510Y-45945400D01*
X57584435Y-45924505D01*
X57510956Y-45915312D01*
X57436294Y-45912752D01*
X57370241Y-45915869D01*
X57291667Y-45929723D01*
X57216245Y-45958554D01*
X57154560Y-46001413D01*
X57148564Y-46006986D01*
X57099076Y-46066263D01*
X57066624Y-46138905D01*
X57057107Y-46211706D01*
X56870818Y-46211706D01*
X56873956Y-46172499D01*
X56895031Y-46100331D01*
X56933462Y-46034334D01*
X56989248Y-45974508D01*
X57050879Y-45928140D01*
X56470924Y-45928140D01*
X56470924Y-45742759D01*
X57995000Y-45742759D01*
X57995000Y-45914951D01*
G37*
G36*
X57995000Y-46964218D02*
G01*
X57807421Y-46964218D01*
X57807421Y-47175610D01*
X57995000Y-47175610D01*
X57995000Y-46964218D01*
G37*
G36*
X57596395Y-48209124D02*
G01*
X57619842Y-48391573D01*
X57697856Y-48373977D01*
X57768085Y-48347475D01*
X57838817Y-48306282D01*
X57899381Y-48253457D01*
X57912934Y-48238433D01*
X57959096Y-48173380D01*
X57992069Y-48101321D01*
X58011852Y-48022255D01*
X58018344Y-47947325D01*
X58018447Y-47936182D01*
X58013269Y-47854931D01*
X57997736Y-47779888D01*
X57971847Y-47711053D01*
X57928555Y-47638592D01*
X57880229Y-47583208D01*
X57871168Y-47574581D01*
X57811306Y-47528264D01*
X57742454Y-47491531D01*
X57664612Y-47464380D01*
X57592876Y-47449074D01*
X57514896Y-47440423D01*
X57448018Y-47438293D01*
X57372258Y-47441098D01*
X57290914Y-47451173D01*
X57215157Y-47468576D01*
X57144986Y-47493305D01*
X57136608Y-47496912D01*
X57066692Y-47534901D01*
X57007383Y-47582512D01*
X56958681Y-47639744D01*
X56936207Y-47675697D01*
X56903975Y-47744943D01*
X56882291Y-47817493D01*
X56871156Y-47893347D01*
X56869528Y-47936915D01*
X56873911Y-48011853D01*
X56889653Y-48089854D01*
X56916845Y-48159704D01*
X56961120Y-48228541D01*
X57018725Y-48285963D01*
X57080149Y-48326155D01*
X57151189Y-48356133D01*
X57221238Y-48373988D01*
X57244685Y-48193736D01*
X57176458Y-48166309D01*
X57116819Y-48118283D01*
X57104368Y-48102512D01*
X57070445Y-48035074D01*
X57057522Y-47961383D01*
X57057107Y-47944242D01*
X57064439Y-47869487D01*
X57089784Y-47796214D01*
X57133232Y-47733245D01*
X57149797Y-47716364D01*
X57210455Y-47674037D01*
X57288154Y-47645562D01*
X57360367Y-47632993D01*
X57442889Y-47628803D01*
X57526677Y-47632835D01*
X57599807Y-47644931D01*
X57670332Y-47668631D01*
X57733032Y-47707882D01*
X57738911Y-47713066D01*
X57787404Y-47771005D01*
X57817937Y-47839033D01*
X57830509Y-47917150D01*
X57830868Y-47933984D01*
X57822780Y-48010818D01*
X57795761Y-48082659D01*
X57773349Y-48116434D01*
X57716396Y-48167079D01*
X57645685Y-48198052D01*
X57596395Y-48209124D01*
G37*
G36*
X57511559Y-48477320D02*
G01*
X57590291Y-48486319D01*
X57662656Y-48502242D01*
X57741086Y-48530488D01*
X57810346Y-48568703D01*
X57870436Y-48616887D01*
X57888359Y-48634953D01*
X57935191Y-48693274D01*
X57971615Y-48757777D01*
X57997633Y-48828463D01*
X58013243Y-48905330D01*
X58018447Y-48988381D01*
X58016810Y-49032600D01*
X58005614Y-49109445D01*
X57983811Y-49182755D01*
X57951402Y-49252529D01*
X57929012Y-49289012D01*
X57882039Y-49347558D01*
X57826488Y-49396946D01*
X57762358Y-49437177D01*
X57730536Y-49452032D01*
X57658408Y-49475800D01*
X57586017Y-49490097D01*
X57504966Y-49498330D01*
X57428600Y-49500558D01*
X57380483Y-49499299D01*
X57304723Y-49491605D01*
X57221132Y-49473139D01*
X57145527Y-49444601D01*
X57077907Y-49405991D01*
X57018272Y-49357309D01*
X57000260Y-49339081D01*
X56953197Y-49280533D01*
X56916592Y-49216189D01*
X56890446Y-49146049D01*
X56874758Y-49070113D01*
X56869528Y-48988381D01*
X57057107Y-48988381D01*
X57057485Y-49005332D01*
X57070708Y-49084809D01*
X57102822Y-49155484D01*
X57153827Y-49217358D01*
X57207706Y-49257750D01*
X57281949Y-49289396D01*
X57360059Y-49305264D01*
X57437759Y-49309682D01*
X57519920Y-49305299D01*
X57601883Y-49289557D01*
X57671114Y-49262366D01*
X57733782Y-49218091D01*
X57751132Y-49200509D01*
X57796642Y-49135994D01*
X57823189Y-49062392D01*
X57830868Y-48988381D01*
X57830492Y-48971164D01*
X57817319Y-48890664D01*
X57785326Y-48819467D01*
X57734515Y-48757571D01*
X57672401Y-48713296D01*
X57604246Y-48686105D01*
X57523909Y-48670363D01*
X57443621Y-48665980D01*
X57374258Y-48669200D01*
X57292513Y-48683511D01*
X57215220Y-48713296D01*
X57153461Y-48757571D01*
X57136241Y-48775163D01*
X57091075Y-48839849D01*
X57064729Y-48913838D01*
X57057107Y-48988381D01*
X56869528Y-48988381D01*
X56871435Y-48938601D01*
X56883944Y-48856114D01*
X56908130Y-48779519D01*
X56943991Y-48708813D01*
X56991528Y-48643998D01*
X57000887Y-48633607D01*
X57063518Y-48578189D01*
X57137252Y-48534646D01*
X57207178Y-48507432D01*
X57284813Y-48488464D01*
X57370160Y-48477743D01*
X57443988Y-48475104D01*
X57511559Y-48477320D01*
G37*
G36*
X57995000Y-49712316D02*
G01*
X56892976Y-49712316D01*
X56892976Y-49878279D01*
X57074326Y-49878279D01*
X57010184Y-49921762D01*
X56956242Y-49974725D01*
X56925949Y-50015300D01*
X56891568Y-50082671D01*
X56873055Y-50156739D01*
X56869528Y-50209839D01*
X56876325Y-50288267D01*
X56899243Y-50361975D01*
X56927048Y-50409141D01*
X56981103Y-50464927D01*
X57044524Y-50502897D01*
X57087515Y-50519050D01*
X57024716Y-50561503D01*
X56963408Y-50617522D01*
X56917426Y-50679080D01*
X56886772Y-50746176D01*
X56871444Y-50818810D01*
X56869528Y-50857205D01*
X56875207Y-50933843D01*
X56895171Y-51008840D01*
X56934212Y-51078235D01*
X56960387Y-51107431D01*
X57026533Y-51153606D01*
X57102460Y-51180542D01*
X57182992Y-51192855D01*
X57239556Y-51194993D01*
X57995000Y-51194993D01*
X57995000Y-51010345D01*
X57320157Y-51010345D01*
X57241846Y-51007382D01*
X57166755Y-50993498D01*
X57163719Y-50992393D01*
X57102238Y-50948773D01*
X57086416Y-50926814D01*
X57060570Y-50857684D01*
X57057107Y-50815806D01*
X57065982Y-50741097D01*
X57095906Y-50670162D01*
X57132212Y-50624197D01*
X57194539Y-50580811D01*
X57269758Y-50556998D01*
X57342659Y-50548663D01*
X57372913Y-50547993D01*
X57995000Y-50547993D01*
X57995000Y-50362247D01*
X57299274Y-50362247D01*
X57223089Y-50356878D01*
X57151583Y-50336693D01*
X57117557Y-50316817D01*
X57072219Y-50257192D01*
X57057343Y-50181127D01*
X57057107Y-50168440D01*
X57067182Y-50093244D01*
X57097407Y-50023726D01*
X57147049Y-49966482D01*
X57210558Y-49929285D01*
X57215376Y-49927372D01*
X57289789Y-49908158D01*
X57370417Y-49899551D01*
X57439225Y-49897697D01*
X57995000Y-49897697D01*
X57995000Y-49712316D01*
G37*
G36*
X57995000Y-51321388D02*
G01*
X56470924Y-51759193D01*
X56470924Y-51907571D01*
X57995000Y-51470865D01*
X57995000Y-51321388D01*
G37*
G36*
X57995000Y-52043859D02*
G01*
X56892976Y-52043859D01*
X56892976Y-52210554D01*
X57048681Y-52210554D01*
X56987797Y-52259528D01*
X56939510Y-52316050D01*
X56903819Y-52380119D01*
X56880725Y-52451736D01*
X56870228Y-52530901D01*
X56869528Y-52558967D01*
X56875454Y-52636677D01*
X56893231Y-52709067D01*
X56905432Y-52740683D01*
X56940875Y-52805388D01*
X56992029Y-52859587D01*
X56999221Y-52864881D01*
X57066929Y-52901836D01*
X57136974Y-52922766D01*
X57213884Y-52930771D01*
X57294693Y-52932934D01*
X57318325Y-52933025D01*
X57995000Y-52933025D01*
X57995000Y-52747644D01*
X57343604Y-52747644D01*
X57268230Y-52744605D01*
X57192255Y-52731095D01*
X57177641Y-52726029D01*
X57115137Y-52683143D01*
X57090080Y-52649092D01*
X57062549Y-52576988D01*
X57057107Y-52519766D01*
X57065808Y-52442220D01*
X57091913Y-52372293D01*
X57130746Y-52315334D01*
X57189686Y-52269932D01*
X57264819Y-52243448D01*
X57337721Y-52232266D01*
X57410282Y-52229239D01*
X57995000Y-52229239D01*
X57995000Y-52043859D01*
G37*
G36*
X57502381Y-53151149D02*
G01*
X57579771Y-53158705D01*
X57664943Y-53176840D01*
X57741716Y-53204867D01*
X57810091Y-53242786D01*
X57870069Y-53290596D01*
X57888037Y-53308569D01*
X57934984Y-53367143D01*
X57971499Y-53432698D01*
X57997581Y-53505234D01*
X58013230Y-53584751D01*
X58018447Y-53671249D01*
X58018111Y-53694840D01*
X58011637Y-53773197D01*
X57996923Y-53844997D01*
X57970018Y-53919025D01*
X57932351Y-53984490D01*
X57891336Y-54034486D01*
X57828762Y-54087896D01*
X57763847Y-54125105D01*
X57690184Y-54152651D01*
X57666737Y-53960676D01*
X57682402Y-53952513D01*
X57744693Y-53907433D01*
X57791667Y-53846371D01*
X57802961Y-53823092D01*
X57824399Y-53750203D01*
X57830868Y-53672348D01*
X57830538Y-53655396D01*
X57818967Y-53575919D01*
X57790867Y-53505244D01*
X57746238Y-53443370D01*
X57717976Y-53416734D01*
X57650556Y-53375374D01*
X57577459Y-53351733D01*
X57502606Y-53341521D01*
X57502606Y-54157780D01*
X57452048Y-54158513D01*
X57384745Y-54156338D01*
X57306075Y-54147501D01*
X57233470Y-54131866D01*
X57154348Y-54104131D01*
X57083959Y-54066607D01*
X57022302Y-54019295D01*
X56970383Y-53964392D01*
X56923387Y-53893175D01*
X56891012Y-53814245D01*
X56874899Y-53740451D01*
X56869652Y-53662822D01*
X57057107Y-53662822D01*
X57057880Y-53688874D01*
X57069472Y-53761466D01*
X57098666Y-53832334D01*
X57145034Y-53892899D01*
X57168313Y-53912884D01*
X57238057Y-53947195D01*
X57315027Y-53962875D01*
X57315027Y-53351779D01*
X57252643Y-53363104D01*
X57181185Y-53397407D01*
X57127449Y-53448133D01*
X57087401Y-53512841D01*
X57063976Y-53587074D01*
X57057107Y-53662822D01*
X56869652Y-53662822D01*
X56869528Y-53660990D01*
X56870127Y-53632974D01*
X56879100Y-53552890D01*
X56898840Y-53478757D01*
X56929349Y-53410575D01*
X56970625Y-53348343D01*
X57022669Y-53292062D01*
X57073557Y-53251110D01*
X57142628Y-53211131D01*
X57220432Y-53181146D01*
X57291939Y-53163794D01*
X57369511Y-53153383D01*
X57453147Y-53149912D01*
X57502381Y-53151149D01*
G37*
G36*
X57995000Y-54550889D02*
G01*
X57819511Y-54550889D01*
X57876822Y-54587381D01*
X57932772Y-54636531D01*
X57980369Y-54701263D01*
X58008927Y-54773955D01*
X58018447Y-54854605D01*
X58014681Y-54914145D01*
X57996757Y-54992902D01*
X57964071Y-55066295D01*
X57916625Y-55134323D01*
X57864207Y-55188363D01*
X57812877Y-55228470D01*
X57743016Y-55267625D01*
X57664139Y-55296992D01*
X57591521Y-55313986D01*
X57512642Y-55324183D01*
X57427501Y-55327581D01*
X57354515Y-55324361D01*
X57277535Y-55313381D01*
X57204019Y-55294609D01*
X57159650Y-55278973D01*
X57090442Y-55246542D01*
X57025233Y-55203384D01*
X56998653Y-55180419D01*
X56949105Y-55122973D01*
X56910561Y-55055006D01*
X56892609Y-55009257D01*
X56875299Y-54938056D01*
X56869528Y-54863764D01*
X56870818Y-54847644D01*
X57057107Y-54847644D01*
X57068233Y-54926312D01*
X57101610Y-54996581D01*
X57151263Y-55053175D01*
X57204798Y-55090361D01*
X57280461Y-55119495D01*
X57361439Y-55134104D01*
X57442889Y-55138171D01*
X57511930Y-55135054D01*
X57593526Y-55121201D01*
X57671034Y-55092369D01*
X57733415Y-55049511D01*
X57739411Y-55043938D01*
X57788899Y-54984661D01*
X57821351Y-54912019D01*
X57830868Y-54839218D01*
X57826219Y-54785341D01*
X57801808Y-54712688D01*
X57756473Y-54649830D01*
X57698611Y-54602180D01*
X57658510Y-54581338D01*
X57584435Y-54560444D01*
X57510956Y-54551251D01*
X57436294Y-54548691D01*
X57370241Y-54551808D01*
X57291667Y-54565661D01*
X57216245Y-54594493D01*
X57154560Y-54637351D01*
X57148564Y-54642925D01*
X57099076Y-54702201D01*
X57066624Y-54774844D01*
X57057107Y-54847644D01*
X56870818Y-54847644D01*
X56873956Y-54808438D01*
X56895031Y-54736270D01*
X56933462Y-54670272D01*
X56989248Y-54610446D01*
X57050879Y-54564078D01*
X56470924Y-54564078D01*
X56470924Y-54378698D01*
X57995000Y-54378698D01*
X57995000Y-54550889D01*
G37*
G36*
X57995000Y-55547766D02*
G01*
X56470924Y-55547766D01*
X56470924Y-55733147D01*
X57046116Y-55733147D01*
X56986104Y-55784190D01*
X56938508Y-55840051D01*
X56898672Y-55911310D01*
X56875737Y-55989125D01*
X56869528Y-56061043D01*
X56875243Y-56140856D01*
X56892386Y-56213050D01*
X56917889Y-56272069D01*
X56962990Y-56336533D01*
X57020306Y-56384067D01*
X57050879Y-56400296D01*
X57125394Y-56423961D01*
X57203940Y-56435338D01*
X57277545Y-56438979D01*
X57297442Y-56439131D01*
X57995000Y-56439131D01*
X57995000Y-56253384D01*
X57316859Y-56253384D01*
X57239136Y-56247481D01*
X57164947Y-56224812D01*
X57119023Y-56192934D01*
X57076697Y-56130754D01*
X57058619Y-56055810D01*
X57057107Y-56022575D01*
X57066284Y-55947468D01*
X57093815Y-55876709D01*
X57098872Y-55867602D01*
X57144548Y-55808693D01*
X57207643Y-55765908D01*
X57212079Y-55763921D01*
X57285038Y-55742884D01*
X57364208Y-55734229D01*
X57409549Y-55733147D01*
X57995000Y-55733147D01*
X57995000Y-55547766D01*
G37*
G36*
X57502381Y-56655057D02*
G01*
X57579771Y-56662613D01*
X57664943Y-56680748D01*
X57741716Y-56708775D01*
X57810091Y-56746693D01*
X57870069Y-56794504D01*
X57888037Y-56812477D01*
X57934984Y-56871051D01*
X57971499Y-56936606D01*
X57997581Y-57009142D01*
X58013230Y-57088659D01*
X58018447Y-57175157D01*
X58018111Y-57198748D01*
X58011637Y-57277105D01*
X57996923Y-57348905D01*
X57970018Y-57422933D01*
X57932351Y-57488398D01*
X57891336Y-57538394D01*
X57828762Y-57591804D01*
X57763847Y-57629013D01*
X57690184Y-57656559D01*
X57666737Y-57464584D01*
X57682402Y-57456421D01*
X57744693Y-57411341D01*
X57791667Y-57350279D01*
X57802961Y-57327000D01*
X57824399Y-57254111D01*
X57830868Y-57176256D01*
X57830538Y-57159304D01*
X57818967Y-57079827D01*
X57790867Y-57009152D01*
X57746238Y-56947278D01*
X57717976Y-56920641D01*
X57650556Y-56879282D01*
X57577459Y-56855641D01*
X57502606Y-56845429D01*
X57502606Y-57661688D01*
X57452048Y-57662421D01*
X57384745Y-57660246D01*
X57306075Y-57651409D01*
X57233470Y-57635774D01*
X57154348Y-57608039D01*
X57083959Y-57570515D01*
X57022302Y-57523203D01*
X56970383Y-57468299D01*
X56923387Y-57397083D01*
X56891012Y-57318153D01*
X56874899Y-57244359D01*
X56869652Y-57166730D01*
X57057107Y-57166730D01*
X57057880Y-57192782D01*
X57069472Y-57265374D01*
X57098666Y-57336242D01*
X57145034Y-57396807D01*
X57168313Y-57416792D01*
X57238057Y-57451103D01*
X57315027Y-57466782D01*
X57315027Y-56855687D01*
X57252643Y-56867012D01*
X57181185Y-56901315D01*
X57127449Y-56952041D01*
X57087401Y-57016749D01*
X57063976Y-57090981D01*
X57057107Y-57166730D01*
X56869652Y-57166730D01*
X56869528Y-57164898D01*
X56870127Y-57136881D01*
X56879100Y-57056798D01*
X56898840Y-56982665D01*
X56929349Y-56914483D01*
X56970625Y-56852251D01*
X57022669Y-56795969D01*
X57073557Y-56755018D01*
X57142628Y-56715039D01*
X57220432Y-56685054D01*
X57291939Y-56667702D01*
X57369511Y-56657291D01*
X57453147Y-56653820D01*
X57502381Y-56655057D01*
G37*
G36*
X57719026Y-57821068D02*
G01*
X57798817Y-57834292D01*
X57868949Y-57866406D01*
X57929420Y-57917411D01*
X57968369Y-57971152D01*
X57998885Y-58044036D01*
X58014187Y-58119868D01*
X58018447Y-58194748D01*
X58016134Y-58248627D01*
X58003993Y-58326096D01*
X57981444Y-58399546D01*
X57976611Y-58411483D01*
X57942612Y-58478210D01*
X57900809Y-58540449D01*
X57854316Y-58597749D01*
X57925370Y-58609894D01*
X57995000Y-58634752D01*
X57995000Y-58828558D01*
X57985540Y-58824252D01*
X57912950Y-58797703D01*
X57837463Y-58781297D01*
X57826528Y-58779878D01*
X57752919Y-58774153D01*
X57671311Y-58771222D01*
X57596852Y-58769986D01*
X57511032Y-58769574D01*
X57278025Y-58769574D01*
X57263731Y-58769538D01*
X57189267Y-58767821D01*
X57113893Y-58760415D01*
X57051693Y-58741221D01*
X56986765Y-58702529D01*
X56983622Y-58699919D01*
X56935335Y-58641645D01*
X56902868Y-58573935D01*
X56900816Y-58568411D01*
X56881282Y-58494085D01*
X56872166Y-58420812D01*
X56869528Y-58346057D01*
X56869676Y-58328557D01*
X56873987Y-58253067D01*
X56885780Y-58175444D01*
X56907264Y-58097662D01*
X56925298Y-58053260D01*
X56963312Y-57988320D01*
X57014609Y-57933897D01*
X57057241Y-57904505D01*
X57124904Y-57873249D01*
X57197791Y-57852564D01*
X57221238Y-58033914D01*
X57209962Y-58037796D01*
X57143294Y-58072016D01*
X57093377Y-58126238D01*
X57074250Y-58171855D01*
X57060649Y-58244258D01*
X57057107Y-58319312D01*
X57060496Y-58385143D01*
X57076222Y-58461528D01*
X57111329Y-58530704D01*
X57174982Y-58573067D01*
X57249815Y-58583094D01*
X57291580Y-58582362D01*
X57479159Y-58582362D01*
X57532281Y-58582362D01*
X57607295Y-58576611D01*
X57677362Y-58552320D01*
X57689150Y-58544580D01*
X57743166Y-58494192D01*
X57786172Y-58429588D01*
X57803588Y-58391921D01*
X57824583Y-58316015D01*
X57830868Y-58239078D01*
X57830511Y-58219268D01*
X57820702Y-58143915D01*
X57790202Y-58074581D01*
X57759863Y-58042667D01*
X57688719Y-58018527D01*
X57686253Y-58018552D01*
X57616545Y-58044173D01*
X57606740Y-58052820D01*
X57567086Y-58117445D01*
X57562924Y-58130394D01*
X57547308Y-58203026D01*
X57536678Y-58279378D01*
X57525786Y-58362874D01*
X57513947Y-58436728D01*
X57499259Y-58509325D01*
X57479159Y-58582362D01*
X57291580Y-58582362D01*
X57296211Y-58568619D01*
X57316059Y-58495335D01*
X57332340Y-58414477D01*
X57345533Y-58331592D01*
X57356060Y-58251535D01*
X57357759Y-58237968D01*
X57369010Y-58160387D01*
X57384270Y-58086671D01*
X57408195Y-58020248D01*
X57445819Y-57952948D01*
X57493080Y-57899550D01*
X57553531Y-57857327D01*
X57557735Y-57855073D01*
X57628798Y-57828740D01*
X57701908Y-57820690D01*
X57719026Y-57821068D01*
G37*
G36*
X57516977Y-58987505D02*
G01*
X57594629Y-58997832D01*
X57667472Y-59015669D01*
X57743674Y-59044713D01*
X57782807Y-59064803D01*
X57846216Y-59107004D01*
X57900582Y-59156972D01*
X57945907Y-59214706D01*
X57954691Y-59228528D01*
X57990111Y-59300127D01*
X58011363Y-59375875D01*
X58018447Y-59455774D01*
X58013554Y-59516469D01*
X57990265Y-59593418D01*
X57947798Y-59661006D01*
X57886151Y-59719232D01*
X57818046Y-59761688D01*
X57995000Y-59761688D01*
X57995000Y-59933513D01*
X56470924Y-59933513D01*
X56470924Y-59749232D01*
X57053443Y-59749232D01*
X57023888Y-59730079D01*
X56967275Y-59681601D01*
X56920819Y-59623569D01*
X56903389Y-59593820D01*
X56877993Y-59524151D01*
X56871426Y-59464567D01*
X57057107Y-59464567D01*
X57057486Y-59480255D01*
X57070760Y-59553971D01*
X57102996Y-59619817D01*
X57154193Y-59677791D01*
X57166760Y-59688305D01*
X57233971Y-59727225D01*
X57308360Y-59750289D01*
X57384758Y-59761567D01*
X57458642Y-59764619D01*
X57515243Y-59762544D01*
X57595980Y-59750591D01*
X57672359Y-59724445D01*
X57739277Y-59679623D01*
X57787577Y-59622922D01*
X57820046Y-59552287D01*
X57830868Y-59472993D01*
X57819526Y-59393893D01*
X57785499Y-59322324D01*
X57734881Y-59263799D01*
X57680590Y-59225010D01*
X57604898Y-59194620D01*
X57524624Y-59179382D01*
X57444354Y-59175139D01*
X57361672Y-59179101D01*
X57289299Y-59190987D01*
X57219209Y-59214274D01*
X57150530Y-59257937D01*
X57144782Y-59263175D01*
X57097341Y-59319875D01*
X57066230Y-59391337D01*
X57057107Y-59464567D01*
X56871426Y-59464567D01*
X56869528Y-59447348D01*
X56869808Y-59430551D01*
X56879575Y-59349614D01*
X56903296Y-59273758D01*
X56940969Y-59202983D01*
X56959809Y-59176542D01*
X57015472Y-59117902D01*
X57076030Y-59074242D01*
X57146500Y-59039218D01*
X57215445Y-59015336D01*
X57288191Y-58998277D01*
X57364738Y-58988041D01*
X57445087Y-58984630D01*
X57516977Y-58987505D01*
G37*
G36*
X57995000Y-60080425D02*
G01*
X56470924Y-60518230D01*
X56470924Y-60666608D01*
X57995000Y-60229902D01*
X57995000Y-60080425D01*
G37*
G36*
X58417051Y-60988276D02*
G01*
X57848454Y-60988276D01*
X57866469Y-61000503D01*
X57923299Y-61049791D01*
X57970453Y-61109176D01*
X57981702Y-61127969D01*
X58009261Y-61198344D01*
X58018447Y-61275872D01*
X58017816Y-61299533D01*
X58006596Y-61376871D01*
X57981351Y-61451847D01*
X57946639Y-61517306D01*
X57922556Y-61551914D01*
X57871496Y-61607446D01*
X57810525Y-61654284D01*
X57739644Y-61692428D01*
X57669943Y-61718875D01*
X57596029Y-61737766D01*
X57517902Y-61749100D01*
X57435561Y-61752878D01*
X57377511Y-61750959D01*
X57302876Y-61742430D01*
X57222688Y-61724678D01*
X57146500Y-61698290D01*
X57122292Y-61687591D01*
X57055928Y-61649930D01*
X56993202Y-61598295D01*
X56942069Y-61536357D01*
X56929105Y-61516005D01*
X56895102Y-61443935D01*
X56875266Y-61365352D01*
X56869528Y-61289061D01*
X56870353Y-61271475D01*
X57057107Y-61271475D01*
X57068363Y-61349647D01*
X57102130Y-61419940D01*
X57152362Y-61477006D01*
X57205988Y-61514673D01*
X57280660Y-61544184D01*
X57359783Y-61558982D01*
X57438859Y-61563101D01*
X57521663Y-61558876D01*
X57603975Y-61543701D01*
X57673143Y-61517489D01*
X57735247Y-61474808D01*
X57741130Y-61469277D01*
X57789688Y-61410158D01*
X57821530Y-61337110D01*
X57830868Y-61263415D01*
X57819959Y-61184035D01*
X57787231Y-61113140D01*
X57738545Y-61056053D01*
X57686063Y-61018707D01*
X57611913Y-60989447D01*
X57532572Y-60974775D01*
X57452780Y-60970690D01*
X57372711Y-60975056D01*
X57291979Y-60990735D01*
X57222742Y-61017817D01*
X57158590Y-61061915D01*
X57105073Y-61121578D01*
X57069099Y-61193323D01*
X57057107Y-61271475D01*
X56870353Y-61271475D01*
X56871357Y-61250052D01*
X56887869Y-61173132D01*
X56921552Y-61106612D01*
X56954725Y-61065582D01*
X57011757Y-61014663D01*
X57076891Y-60971789D01*
X56892976Y-60971789D01*
X56892976Y-60802896D01*
X58417051Y-60802896D01*
X58417051Y-60988276D01*
G37*
G36*
X56658503Y-61971964D02*
G01*
X56470924Y-61971964D01*
X56470924Y-62157344D01*
X56658503Y-62157344D01*
X56658503Y-61971964D01*
G37*
G36*
X57995000Y-61971964D02*
G01*
X56892976Y-61971964D01*
X56892976Y-62157344D01*
X57995000Y-62157344D01*
X57995000Y-61971964D01*
G37*
G36*
X57995000Y-62481210D02*
G01*
X57080554Y-62481210D01*
X57080554Y-62317079D01*
X56892976Y-62317079D01*
X56892976Y-62481210D01*
X56775739Y-62481210D01*
X56700297Y-62483941D01*
X56624872Y-62496077D01*
X56610509Y-62500628D01*
X56544838Y-62537539D01*
X56492906Y-62594783D01*
X56461851Y-62664397D01*
X56449074Y-62740475D01*
X56447477Y-62784193D01*
X56451985Y-62861055D01*
X56463185Y-62933659D01*
X56467993Y-62957117D01*
X56644947Y-62929274D01*
X56636224Y-62856304D01*
X56635055Y-62820097D01*
X56644775Y-62744136D01*
X56669494Y-62700296D01*
X56739931Y-62669604D01*
X56797355Y-62665491D01*
X56892976Y-62665491D01*
X56892976Y-62878715D01*
X57080554Y-62878715D01*
X57080554Y-62665491D01*
X57995000Y-62665491D01*
X57995000Y-62481210D01*
G37*
G36*
X56658503Y-63021231D02*
G01*
X56470924Y-63021231D01*
X56470924Y-63206612D01*
X56658503Y-63206612D01*
X56658503Y-63021231D01*
G37*
G36*
X57995000Y-63021231D02*
G01*
X56892976Y-63021231D01*
X56892976Y-63206612D01*
X57995000Y-63206612D01*
X57995000Y-63021231D01*
G37*
G36*
X57995000Y-63483949D02*
G01*
X56892976Y-63483949D01*
X56892976Y-63651011D01*
X57056008Y-63651011D01*
X56992381Y-63689923D01*
X56932344Y-63737727D01*
X56905799Y-63768981D01*
X56875514Y-63837115D01*
X56869528Y-63888049D01*
X56879082Y-63964737D01*
X56904859Y-64036384D01*
X56927414Y-64078558D01*
X57098872Y-64014811D01*
X57067548Y-63946759D01*
X57057107Y-63878890D01*
X57073043Y-63804275D01*
X57094110Y-63769347D01*
X57151526Y-63719773D01*
X57196692Y-63700471D01*
X57274384Y-63681494D01*
X57350309Y-63671793D01*
X57415778Y-63669330D01*
X57995000Y-63669330D01*
X57995000Y-63483949D01*
G37*
G36*
X57502381Y-64124491D02*
G01*
X57579771Y-64132048D01*
X57664943Y-64150183D01*
X57741716Y-64178210D01*
X57810091Y-64216128D01*
X57870069Y-64263939D01*
X57888037Y-64281912D01*
X57934984Y-64340486D01*
X57971499Y-64406041D01*
X57997581Y-64478577D01*
X58013230Y-64558094D01*
X58018447Y-64644591D01*
X58018111Y-64668183D01*
X58011637Y-64746540D01*
X57996923Y-64818340D01*
X57970018Y-64892368D01*
X57932351Y-64957833D01*
X57891336Y-65007829D01*
X57828762Y-65061239D01*
X57763847Y-65098448D01*
X57690184Y-65125994D01*
X57666737Y-64934019D01*
X57682402Y-64925855D01*
X57744693Y-64880775D01*
X57791667Y-64819713D01*
X57802961Y-64796435D01*
X57824399Y-64723545D01*
X57830868Y-64645690D01*
X57830538Y-64628739D01*
X57818967Y-64549262D01*
X57790867Y-64478587D01*
X57746238Y-64416713D01*
X57717976Y-64390076D01*
X57650556Y-64348717D01*
X57577459Y-64325076D01*
X57502606Y-64314863D01*
X57502606Y-65131123D01*
X57452048Y-65131856D01*
X57384745Y-65129680D01*
X57306075Y-65120843D01*
X57233470Y-65105208D01*
X57154348Y-65077474D01*
X57083959Y-65039950D01*
X57022302Y-64992637D01*
X56970383Y-64937734D01*
X56923387Y-64866518D01*
X56891012Y-64787588D01*
X56874899Y-64713794D01*
X56869652Y-64636165D01*
X57057107Y-64636165D01*
X57057880Y-64662217D01*
X57069472Y-64734808D01*
X57098666Y-64805677D01*
X57145034Y-64866242D01*
X57168313Y-64886227D01*
X57238057Y-64920538D01*
X57315027Y-64936217D01*
X57315027Y-64325122D01*
X57252643Y-64336446D01*
X57181185Y-64370750D01*
X57127449Y-64421475D01*
X57087401Y-64486184D01*
X57063976Y-64560416D01*
X57057107Y-64636165D01*
X56869652Y-64636165D01*
X56869528Y-64634333D01*
X56870127Y-64606316D01*
X56879100Y-64526233D01*
X56898840Y-64452100D01*
X56929349Y-64383917D01*
X56970625Y-64321686D01*
X57022669Y-64265404D01*
X57073557Y-64224453D01*
X57142628Y-64184474D01*
X57220432Y-64154489D01*
X57291939Y-64137137D01*
X57369511Y-64126725D01*
X57453147Y-64123255D01*
X57502381Y-64124491D01*
G37*
G36*
X64796000Y-36854347D02*
G01*
X63914381Y-36521395D01*
X63914381Y-36678199D01*
X64442531Y-36866071D01*
X64502131Y-36886438D01*
X64563255Y-36905628D01*
X64620145Y-36922051D01*
X64563871Y-36939005D01*
X64505335Y-36958456D01*
X64452496Y-36977152D01*
X63914381Y-37171765D01*
X63914381Y-37324466D01*
X64796000Y-36992979D01*
X64796000Y-36854347D01*
G37*
G36*
X64796000Y-37968387D02*
G01*
X64796000Y-37820083D01*
X63845797Y-37820083D01*
X63884307Y-37775158D01*
X63919679Y-37725721D01*
X63948672Y-37679399D01*
X63978239Y-37626740D01*
X64005010Y-37572848D01*
X64025755Y-37523182D01*
X63881554Y-37523182D01*
X63854602Y-37576178D01*
X63820915Y-37633069D01*
X63784151Y-37686041D01*
X63744308Y-37735093D01*
X63739112Y-37740949D01*
X63697530Y-37784143D01*
X63651538Y-37824591D01*
X63601414Y-37859419D01*
X63576739Y-37872840D01*
X63576739Y-37968387D01*
X64796000Y-37968387D01*
G37*
G36*
X64796000Y-38427076D02*
G01*
X64645937Y-38427076D01*
X64645937Y-38596189D01*
X64796000Y-38596189D01*
X64796000Y-38427076D01*
G37*
G36*
X64258444Y-38811490D02*
G01*
X64317498Y-38814643D01*
X64391027Y-38822117D01*
X64458603Y-38833328D01*
X64520226Y-38848275D01*
X64575895Y-38866960D01*
X64637109Y-38895571D01*
X64689021Y-38930020D01*
X64731752Y-38970027D01*
X64770430Y-39023370D01*
X64797076Y-39083893D01*
X64810337Y-39141486D01*
X64814757Y-39204354D01*
X64812243Y-39252535D01*
X64801069Y-39311777D01*
X64777813Y-39371591D01*
X64743243Y-39424173D01*
X64703767Y-39464986D01*
X64656854Y-39500376D01*
X64602504Y-39530345D01*
X64540717Y-39554891D01*
X64515376Y-39562696D01*
X64450637Y-39577921D01*
X64388896Y-39587644D01*
X64321384Y-39594297D01*
X64260716Y-39597496D01*
X64196041Y-39598562D01*
X64162896Y-39598322D01*
X64100516Y-39596406D01*
X64034328Y-39591748D01*
X63967375Y-39583230D01*
X63909691Y-39571304D01*
X63896519Y-39567817D01*
X63840391Y-39550141D01*
X63784062Y-39526693D01*
X63729440Y-39496273D01*
X63694544Y-39470774D01*
X63650374Y-39426481D01*
X63616013Y-39374933D01*
X63595302Y-39326791D01*
X63581380Y-39268412D01*
X63576739Y-39204354D01*
X63576816Y-39202889D01*
X63726802Y-39202889D01*
X63727621Y-39222044D01*
X63742184Y-39281578D01*
X63774951Y-39334472D01*
X63820005Y-39376399D01*
X63878330Y-39406917D01*
X63937654Y-39424083D01*
X63997291Y-39434642D01*
X64066202Y-39441795D01*
X64128008Y-39445064D01*
X64195748Y-39446154D01*
X64263159Y-39445064D01*
X64324709Y-39441795D01*
X64393402Y-39434642D01*
X64452936Y-39424083D01*
X64512287Y-39406917D01*
X64570905Y-39376399D01*
X64587666Y-39363036D01*
X64628058Y-39319548D01*
X64655535Y-39265246D01*
X64664695Y-39204647D01*
X64663875Y-39185754D01*
X64649312Y-39126907D01*
X64616546Y-39074413D01*
X64571491Y-39032602D01*
X64565464Y-39028311D01*
X64512946Y-39002084D01*
X64453554Y-38984918D01*
X64393923Y-38974359D01*
X64325075Y-38967206D01*
X64263361Y-38963937D01*
X64195748Y-38962847D01*
X64178281Y-38962922D01*
X64111882Y-38964721D01*
X64051034Y-38968921D01*
X63982778Y-38977545D01*
X63923196Y-38989918D01*
X63863144Y-39009716D01*
X63808868Y-39039637D01*
X63803819Y-39043487D01*
X63762145Y-39086432D01*
X63734816Y-39142994D01*
X63726802Y-39202889D01*
X63576816Y-39202889D01*
X63579243Y-39156471D01*
X63590371Y-39097532D01*
X63613532Y-39037926D01*
X63647960Y-38985415D01*
X63687198Y-38944693D01*
X63733983Y-38909284D01*
X63788315Y-38879187D01*
X63850193Y-38854403D01*
X63875495Y-38846546D01*
X63940262Y-38831219D01*
X64002161Y-38821430D01*
X64069955Y-38814732D01*
X64130952Y-38811512D01*
X64196041Y-38810439D01*
X64258444Y-38811490D01*
G37*
G36*
X64796000Y-39828053D02*
G01*
X64645937Y-39828053D01*
X64645937Y-39997166D01*
X64796000Y-39997166D01*
X64796000Y-39828053D01*
G37*
G36*
X64796000Y-40770341D02*
G01*
X64796000Y-40622037D01*
X63845797Y-40622037D01*
X63884307Y-40577112D01*
X63919679Y-40527675D01*
X63948672Y-40481353D01*
X63978239Y-40428694D01*
X64005010Y-40374802D01*
X64025755Y-40325136D01*
X63881554Y-40325136D01*
X63854602Y-40378132D01*
X63820915Y-40435023D01*
X63784151Y-40487995D01*
X63744308Y-40537047D01*
X63739112Y-40542903D01*
X63697530Y-40586097D01*
X63651538Y-40626545D01*
X63601414Y-40661373D01*
X63576739Y-40674794D01*
X63576739Y-40770341D01*
X64796000Y-40770341D01*
G37*
G36*
X65152399Y-41697390D02*
G01*
X63576739Y-41697390D01*
X63576739Y-41826643D01*
X65152399Y-41826643D01*
X65152399Y-41697390D01*
G37*
G36*
X64796000Y-42570509D02*
G01*
X63576739Y-42570509D01*
X63576739Y-42811137D01*
X64432273Y-43097194D01*
X64488308Y-43115641D01*
X64547791Y-43134938D01*
X64607575Y-43153777D01*
X64611352Y-43154933D01*
X64553196Y-43173577D01*
X64491447Y-43194087D01*
X64433350Y-43213752D01*
X64417618Y-43219120D01*
X63576739Y-43508401D01*
X63576739Y-43723531D01*
X64796000Y-43723531D01*
X64796000Y-43569364D01*
X63764318Y-43569364D01*
X64796000Y-43218241D01*
X64796000Y-43074040D01*
X63764318Y-42724382D01*
X64796000Y-42724382D01*
X64796000Y-42570509D01*
G37*
G36*
X64575220Y-43904963D02*
G01*
X64639054Y-43915542D01*
X64695159Y-43941233D01*
X64743536Y-43982037D01*
X64774695Y-44025030D01*
X64799108Y-44083338D01*
X64811349Y-44144003D01*
X64814757Y-44203907D01*
X64812907Y-44247010D01*
X64803194Y-44308985D01*
X64785155Y-44367745D01*
X64781289Y-44377295D01*
X64754089Y-44430677D01*
X64720647Y-44480468D01*
X64683452Y-44526308D01*
X64740296Y-44536024D01*
X64796000Y-44555910D01*
X64796000Y-44710956D01*
X64788432Y-44707511D01*
X64730360Y-44686271D01*
X64669970Y-44673147D01*
X64661222Y-44672011D01*
X64602335Y-44667431D01*
X64537049Y-44665087D01*
X64477481Y-44664098D01*
X64408826Y-44663768D01*
X64222420Y-44663768D01*
X64210984Y-44663739D01*
X64151414Y-44662365D01*
X64091115Y-44656441D01*
X64041354Y-44641085D01*
X63989412Y-44610132D01*
X63986897Y-44608044D01*
X63948268Y-44561425D01*
X63922294Y-44507257D01*
X63920653Y-44502838D01*
X63905025Y-44443377D01*
X63897732Y-44384759D01*
X63895623Y-44324954D01*
X63895741Y-44310954D01*
X63899190Y-44250563D01*
X63908624Y-44188464D01*
X63925811Y-44126238D01*
X63940239Y-44090717D01*
X63970649Y-44038764D01*
X64011687Y-43995226D01*
X64045793Y-43971713D01*
X64099923Y-43946708D01*
X64158233Y-43930160D01*
X64176990Y-44075240D01*
X64167970Y-44078345D01*
X64114635Y-44105722D01*
X64074702Y-44149099D01*
X64059400Y-44185593D01*
X64048519Y-44243515D01*
X64045685Y-44303558D01*
X64048397Y-44356223D01*
X64060978Y-44417331D01*
X64089063Y-44472672D01*
X64139985Y-44506562D01*
X64199852Y-44514584D01*
X64233264Y-44513998D01*
X64383327Y-44513998D01*
X64425825Y-44513998D01*
X64485836Y-44509398D01*
X64541889Y-44489965D01*
X64551320Y-44483773D01*
X64594532Y-44443463D01*
X64628937Y-44391779D01*
X64642870Y-44361646D01*
X64659666Y-44300921D01*
X64664695Y-44239371D01*
X64664409Y-44223523D01*
X64656561Y-44163241D01*
X64632161Y-44107773D01*
X64607890Y-44082243D01*
X64550975Y-44062930D01*
X64549002Y-44062950D01*
X64493236Y-44083447D01*
X64485392Y-44090365D01*
X64453669Y-44142065D01*
X64450339Y-44152424D01*
X64437846Y-44210529D01*
X64429342Y-44271612D01*
X64420629Y-44338408D01*
X64411158Y-44397491D01*
X64399407Y-44455569D01*
X64383327Y-44513998D01*
X64233264Y-44513998D01*
X64236969Y-44503004D01*
X64252847Y-44444377D01*
X64265872Y-44379690D01*
X64276426Y-44313383D01*
X64284848Y-44249337D01*
X64286207Y-44238483D01*
X64295208Y-44176419D01*
X64307416Y-44117445D01*
X64326556Y-44064307D01*
X64356655Y-44010467D01*
X64394464Y-43967749D01*
X64442824Y-43933970D01*
X64446188Y-43932167D01*
X64503038Y-43911101D01*
X64561526Y-43904661D01*
X64575220Y-43904963D01*
G37*
G36*
X65133641Y-44882707D02*
G01*
X64989147Y-44866294D01*
X65000777Y-44924850D01*
X65002336Y-44951290D01*
X64994440Y-45009713D01*
X64985630Y-45030132D01*
X64945049Y-45075170D01*
X64939614Y-45078785D01*
X64886011Y-45103126D01*
X64829119Y-45124214D01*
X64792775Y-45137404D01*
X63914381Y-44805331D01*
X63914381Y-44965066D01*
X64411464Y-45147369D01*
X64471576Y-45168818D01*
X64533577Y-45188837D01*
X64590994Y-45205629D01*
X64610473Y-45210969D01*
X64551918Y-45229678D01*
X64495681Y-45248728D01*
X64436582Y-45269726D01*
X64430515Y-45271933D01*
X63914381Y-45458925D01*
X63914381Y-45607229D01*
X64812999Y-45274277D01*
X64871667Y-45251962D01*
X64928206Y-45229275D01*
X64983115Y-45205140D01*
X65011129Y-45191039D01*
X65063991Y-45156956D01*
X65106531Y-45115923D01*
X65118107Y-45100181D01*
X65143826Y-45044200D01*
X65152365Y-44982668D01*
X65152399Y-44978255D01*
X65144320Y-44917800D01*
X65133641Y-44882707D01*
G37*
G36*
X64645937Y-46934054D02*
G01*
X64796000Y-46934054D01*
X64796000Y-46135087D01*
X64735968Y-46139837D01*
X64691073Y-46152379D01*
X64634325Y-46177664D01*
X64583217Y-46208164D01*
X64532568Y-46245819D01*
X64527528Y-46249979D01*
X64480521Y-46292604D01*
X64435934Y-46338395D01*
X64394757Y-46384562D01*
X64351561Y-46436424D01*
X64345225Y-46444298D01*
X64306725Y-46491541D01*
X64261600Y-46544979D01*
X64219810Y-46592177D01*
X64174064Y-46640578D01*
X64126762Y-46685690D01*
X64096976Y-46710425D01*
X64047010Y-46744003D01*
X63993395Y-46768424D01*
X63931701Y-46779820D01*
X63926690Y-46779888D01*
X63867312Y-46771026D01*
X63811357Y-46741427D01*
X63784834Y-46716873D01*
X63749471Y-46664172D01*
X63731392Y-46606303D01*
X63726802Y-46552156D01*
X63732154Y-46489445D01*
X63750406Y-46430049D01*
X63781610Y-46380697D01*
X63828610Y-46341460D01*
X63887398Y-46320027D01*
X63933138Y-46315631D01*
X63914381Y-46163224D01*
X63855363Y-46172099D01*
X63793463Y-46190163D01*
X63739052Y-46216530D01*
X63686039Y-46256830D01*
X63663201Y-46281046D01*
X63629511Y-46329150D01*
X63604096Y-46383957D01*
X63586956Y-46445468D01*
X63578850Y-46503528D01*
X63576739Y-46555673D01*
X63580181Y-46618304D01*
X63592895Y-46684940D01*
X63614978Y-46744648D01*
X63646430Y-46797428D01*
X63674632Y-46830886D01*
X63719575Y-46870400D01*
X63776435Y-46903675D01*
X63839157Y-46924274D01*
X63898847Y-46931899D01*
X63916725Y-46932295D01*
X63976111Y-46927410D01*
X64034722Y-46912753D01*
X64061512Y-46902693D01*
X64115780Y-46874969D01*
X64167408Y-46839851D01*
X64210989Y-46804214D01*
X64259322Y-46758284D01*
X64302653Y-46712623D01*
X64343790Y-46666565D01*
X64388616Y-46614117D01*
X64420549Y-46575603D01*
X64458863Y-46528844D01*
X64497337Y-46482782D01*
X64536954Y-46436996D01*
X64567974Y-46403852D01*
X64614123Y-46363603D01*
X64645937Y-46341423D01*
X64645937Y-46934054D01*
G37*
G36*
X64258444Y-47089564D02*
G01*
X64317498Y-47092717D01*
X64391027Y-47100191D01*
X64458603Y-47111402D01*
X64520226Y-47126349D01*
X64575895Y-47145034D01*
X64637109Y-47173645D01*
X64689021Y-47208094D01*
X64731752Y-47248101D01*
X64770430Y-47301444D01*
X64797076Y-47361967D01*
X64810337Y-47419560D01*
X64814757Y-47482428D01*
X64812243Y-47530609D01*
X64801069Y-47589851D01*
X64777813Y-47649665D01*
X64743243Y-47702247D01*
X64703767Y-47743060D01*
X64656854Y-47778450D01*
X64602504Y-47808419D01*
X64540717Y-47832965D01*
X64515376Y-47840770D01*
X64450637Y-47855995D01*
X64388896Y-47865718D01*
X64321384Y-47872371D01*
X64260716Y-47875570D01*
X64196041Y-47876636D01*
X64162896Y-47876396D01*
X64100516Y-47874480D01*
X64034328Y-47869822D01*
X63967375Y-47861304D01*
X63909691Y-47849378D01*
X63896519Y-47845891D01*
X63840391Y-47828215D01*
X63784062Y-47804767D01*
X63729440Y-47774347D01*
X63694544Y-47748848D01*
X63650374Y-47704555D01*
X63616013Y-47653007D01*
X63595302Y-47604865D01*
X63581380Y-47546486D01*
X63576739Y-47482428D01*
X63576816Y-47480963D01*
X63726802Y-47480963D01*
X63727621Y-47500118D01*
X63742184Y-47559652D01*
X63774951Y-47612546D01*
X63820005Y-47654473D01*
X63878330Y-47684991D01*
X63937654Y-47702157D01*
X63997291Y-47712716D01*
X64066202Y-47719869D01*
X64128008Y-47723138D01*
X64195748Y-47724228D01*
X64263159Y-47723138D01*
X64324709Y-47719869D01*
X64393402Y-47712716D01*
X64452936Y-47702157D01*
X64512287Y-47684991D01*
X64570905Y-47654473D01*
X64587666Y-47641110D01*
X64628058Y-47597622D01*
X64655535Y-47543320D01*
X64664695Y-47482721D01*
X64663875Y-47463828D01*
X64649312Y-47404981D01*
X64616546Y-47352487D01*
X64571491Y-47310676D01*
X64565464Y-47306385D01*
X64512946Y-47280158D01*
X64453554Y-47262992D01*
X64393923Y-47252433D01*
X64325075Y-47245280D01*
X64263361Y-47242011D01*
X64195748Y-47240921D01*
X64178281Y-47240996D01*
X64111882Y-47242795D01*
X64051034Y-47246995D01*
X63982778Y-47255619D01*
X63923196Y-47267992D01*
X63863144Y-47287790D01*
X63808868Y-47317711D01*
X63803819Y-47321561D01*
X63762145Y-47364506D01*
X63734816Y-47421068D01*
X63726802Y-47480963D01*
X63576816Y-47480963D01*
X63579243Y-47434545D01*
X63590371Y-47375606D01*
X63613532Y-47316000D01*
X63647960Y-47263489D01*
X63687198Y-47222767D01*
X63733983Y-47187358D01*
X63788315Y-47157261D01*
X63850193Y-47132477D01*
X63875495Y-47124620D01*
X63940262Y-47109293D01*
X64002161Y-47099504D01*
X64069955Y-47092806D01*
X64130952Y-47089586D01*
X64196041Y-47088513D01*
X64258444Y-47089564D01*
G37*
G36*
X64645937Y-48802805D02*
G01*
X64796000Y-48802805D01*
X64796000Y-48003838D01*
X64735968Y-48008588D01*
X64691073Y-48021130D01*
X64634325Y-48046415D01*
X64583217Y-48076915D01*
X64532568Y-48114570D01*
X64527528Y-48118729D01*
X64480521Y-48161354D01*
X64435934Y-48207145D01*
X64394757Y-48253313D01*
X64351561Y-48305175D01*
X64345225Y-48313049D01*
X64306725Y-48360292D01*
X64261600Y-48413729D01*
X64219810Y-48460927D01*
X64174064Y-48509329D01*
X64126762Y-48554441D01*
X64096976Y-48579176D01*
X64047010Y-48612754D01*
X63993395Y-48637175D01*
X63931701Y-48648571D01*
X63926690Y-48648639D01*
X63867312Y-48639777D01*
X63811357Y-48610178D01*
X63784834Y-48585624D01*
X63749471Y-48532923D01*
X63731392Y-48475054D01*
X63726802Y-48420907D01*
X63732154Y-48358195D01*
X63750406Y-48298800D01*
X63781610Y-48249448D01*
X63828610Y-48210211D01*
X63887398Y-48188778D01*
X63933138Y-48184382D01*
X63914381Y-48031974D01*
X63855363Y-48040850D01*
X63793463Y-48058914D01*
X63739052Y-48085280D01*
X63686039Y-48125580D01*
X63663201Y-48149797D01*
X63629511Y-48197900D01*
X63604096Y-48252708D01*
X63586956Y-48314219D01*
X63578850Y-48372278D01*
X63576739Y-48424424D01*
X63580181Y-48487055D01*
X63592895Y-48553691D01*
X63614978Y-48613399D01*
X63646430Y-48666179D01*
X63674632Y-48699637D01*
X63719575Y-48739151D01*
X63776435Y-48772426D01*
X63839157Y-48793025D01*
X63898847Y-48800650D01*
X63916725Y-48801046D01*
X63976111Y-48796161D01*
X64034722Y-48781504D01*
X64061512Y-48771444D01*
X64115780Y-48743719D01*
X64167408Y-48708602D01*
X64210989Y-48672965D01*
X64259322Y-48627035D01*
X64302653Y-48581374D01*
X64343790Y-48535315D01*
X64388616Y-48482868D01*
X64420549Y-48444354D01*
X64458863Y-48397594D01*
X64497337Y-48351533D01*
X64536954Y-48305747D01*
X64567974Y-48272602D01*
X64614123Y-48232354D01*
X64645937Y-48210174D01*
X64645937Y-48802805D01*
G37*
G36*
X64514632Y-49432951D02*
G01*
X64796000Y-49432951D01*
X64796000Y-49581256D01*
X64514632Y-49581256D01*
X64514632Y-49744508D01*
X64364569Y-49744508D01*
X64364569Y-49581256D01*
X63595497Y-49581256D01*
X63595497Y-49460209D01*
X63633502Y-49432951D01*
X63837004Y-49432951D01*
X64364569Y-49432951D01*
X64364569Y-49054570D01*
X63837004Y-49432951D01*
X63633502Y-49432951D01*
X64364569Y-48908611D01*
X64514632Y-48908611D01*
X64514632Y-49432951D01*
G37*
G36*
X65152399Y-50443237D02*
G01*
X63576739Y-50443237D01*
X63576739Y-50572491D01*
X65152399Y-50572491D01*
X65152399Y-50443237D01*
G37*
G36*
X64796000Y-51775338D02*
G01*
X64795919Y-51789632D01*
X64793575Y-51850469D01*
X64787164Y-51911377D01*
X64775483Y-51970244D01*
X64768508Y-51994414D01*
X64745952Y-52051161D01*
X64714520Y-52102428D01*
X64698157Y-52121614D01*
X64650681Y-52161733D01*
X64599628Y-52190942D01*
X64561508Y-52206714D01*
X64501511Y-52221922D01*
X64438135Y-52226992D01*
X64424800Y-52226762D01*
X64361459Y-52218707D01*
X64303671Y-52199147D01*
X64251436Y-52168080D01*
X64237005Y-52156589D01*
X64194781Y-52111847D01*
X64161603Y-52057201D01*
X64139475Y-51999553D01*
X64116888Y-52039358D01*
X64076895Y-52088969D01*
X64029565Y-52126461D01*
X64003747Y-52140805D01*
X63945616Y-52161701D01*
X63884485Y-52168667D01*
X63838385Y-52164911D01*
X63778649Y-52148218D01*
X63725630Y-52121186D01*
X63682049Y-52088116D01*
X63643037Y-52043474D01*
X63613376Y-51990174D01*
X63599100Y-51950992D01*
X63585898Y-51892868D01*
X63579029Y-51833883D01*
X63576739Y-51768011D01*
X63576739Y-51716133D01*
X63726802Y-51716133D01*
X63727846Y-51776400D01*
X63732088Y-51838236D01*
X63743508Y-51899609D01*
X63761488Y-51939076D01*
X63804471Y-51981967D01*
X63849392Y-52002794D01*
X63907933Y-52010983D01*
X63954745Y-52005904D01*
X64010808Y-51980209D01*
X64044124Y-51944724D01*
X64069426Y-51888471D01*
X64076085Y-51857693D01*
X64081856Y-51796537D01*
X64082803Y-51753942D01*
X64233264Y-51753942D01*
X64234528Y-51808292D01*
X64240393Y-51871957D01*
X64253487Y-51930676D01*
X64280818Y-51985484D01*
X64322950Y-52026810D01*
X64326063Y-52028938D01*
X64380541Y-52053796D01*
X64439600Y-52061395D01*
X64484002Y-52057429D01*
X64540717Y-52037362D01*
X64566007Y-52021207D01*
X64607542Y-51976399D01*
X64623940Y-51943346D01*
X64640075Y-51884075D01*
X64644815Y-51834379D01*
X64645937Y-51775338D01*
X64645937Y-51474626D01*
X64233264Y-51474626D01*
X64233264Y-51753942D01*
X64082803Y-51753942D01*
X64083201Y-51736064D01*
X64083201Y-51474626D01*
X63726802Y-51474626D01*
X63726802Y-51716133D01*
X63576739Y-51716133D01*
X63576739Y-51314598D01*
X64796000Y-51314598D01*
X64796000Y-51775338D01*
G37*
G36*
X64401904Y-52373354D02*
G01*
X64463817Y-52379399D01*
X64531954Y-52393907D01*
X64593373Y-52416329D01*
X64648073Y-52446664D01*
X64696055Y-52484912D01*
X64710429Y-52499291D01*
X64747987Y-52546150D01*
X64777199Y-52598594D01*
X64798065Y-52656623D01*
X64810584Y-52720236D01*
X64814757Y-52789434D01*
X64814488Y-52808308D01*
X64809309Y-52870993D01*
X64797538Y-52928433D01*
X64776014Y-52987656D01*
X64745881Y-53040027D01*
X64713069Y-53080024D01*
X64663009Y-53122752D01*
X64611077Y-53152520D01*
X64552147Y-53174556D01*
X64533390Y-53020976D01*
X64545922Y-53014445D01*
X64595754Y-52978381D01*
X64633334Y-52929532D01*
X64642368Y-52910909D01*
X64659519Y-52852597D01*
X64664695Y-52790314D01*
X64664430Y-52776752D01*
X64655174Y-52713171D01*
X64632694Y-52656631D01*
X64596990Y-52607131D01*
X64574380Y-52585822D01*
X64520445Y-52552735D01*
X64461967Y-52533822D01*
X64402085Y-52525652D01*
X64402085Y-53178660D01*
X64361638Y-53179246D01*
X64307796Y-53177506D01*
X64244860Y-53170436D01*
X64186776Y-53157928D01*
X64123478Y-53135740D01*
X64067167Y-53105721D01*
X64017842Y-53067871D01*
X63976306Y-53023949D01*
X63938710Y-52966976D01*
X63912810Y-52903831D01*
X63899919Y-52844796D01*
X63895722Y-52782693D01*
X64045685Y-52782693D01*
X64046304Y-52803535D01*
X64055577Y-52861608D01*
X64078933Y-52918303D01*
X64116027Y-52966755D01*
X64134650Y-52982743D01*
X64190445Y-53010192D01*
X64252022Y-53022735D01*
X64252022Y-52533859D01*
X64202114Y-52542918D01*
X64144948Y-52570361D01*
X64101959Y-52610942D01*
X64069920Y-52662708D01*
X64051181Y-52722094D01*
X64045685Y-52782693D01*
X63895722Y-52782693D01*
X63895623Y-52781228D01*
X63896101Y-52758814D01*
X63903280Y-52694747D01*
X63919072Y-52635441D01*
X63943479Y-52580895D01*
X63976500Y-52531110D01*
X64018135Y-52486085D01*
X64058846Y-52453324D01*
X64114103Y-52421340D01*
X64176346Y-52397352D01*
X64233551Y-52383471D01*
X64295609Y-52375142D01*
X64362517Y-52372365D01*
X64401904Y-52373354D01*
G37*
G36*
X64796000Y-53356273D02*
G01*
X63914381Y-53356273D01*
X63914381Y-53489630D01*
X64038944Y-53489630D01*
X63990237Y-53528809D01*
X63951608Y-53574026D01*
X63923055Y-53625282D01*
X63904580Y-53682575D01*
X63896183Y-53745907D01*
X63895623Y-53768360D01*
X63900363Y-53830528D01*
X63914584Y-53888440D01*
X63924346Y-53913733D01*
X63952700Y-53965497D01*
X63993623Y-54008856D01*
X63999377Y-54013091D01*
X64053543Y-54042655D01*
X64109579Y-54059399D01*
X64171107Y-54065803D01*
X64235754Y-54067534D01*
X64254660Y-54067606D01*
X64796000Y-54067606D01*
X64796000Y-53919302D01*
X64274883Y-53919302D01*
X64214584Y-53916870D01*
X64153804Y-53906062D01*
X64142113Y-53902009D01*
X64092110Y-53867700D01*
X64072064Y-53840460D01*
X64050039Y-53782777D01*
X64045685Y-53736999D01*
X64052647Y-53674962D01*
X64073530Y-53619020D01*
X64104597Y-53573454D01*
X64151749Y-53537132D01*
X64211855Y-53515945D01*
X64270176Y-53506999D01*
X64328226Y-53504577D01*
X64796000Y-53504577D01*
X64796000Y-53356273D01*
G37*
G36*
X64796000Y-54936036D02*
G01*
X64308295Y-54936036D01*
X64308295Y-55246127D01*
X64307340Y-55292818D01*
X64301499Y-55364444D01*
X64290350Y-55428327D01*
X64269961Y-55494767D01*
X64241928Y-55550059D01*
X64199558Y-55600474D01*
X64171545Y-55623486D01*
X64118886Y-55656375D01*
X64061598Y-55679866D01*
X63999682Y-55693961D01*
X63933138Y-55698660D01*
X63882883Y-55695762D01*
X63824672Y-55684349D01*
X63765197Y-55662023D01*
X63737706Y-55647450D01*
X63686343Y-55610148D01*
X63646202Y-55565010D01*
X63624453Y-55528918D01*
X63602162Y-55473654D01*
X63588463Y-55415826D01*
X63580872Y-55354815D01*
X63577667Y-55295178D01*
X63576933Y-55245247D01*
X63726802Y-55245247D01*
X63726971Y-55271364D01*
X63729185Y-55332183D01*
X63737646Y-55394431D01*
X63738763Y-55398309D01*
X63766359Y-55453978D01*
X63808868Y-55495254D01*
X63819170Y-55502116D01*
X63876400Y-55526300D01*
X63938414Y-55533649D01*
X63993561Y-55528502D01*
X64050888Y-55508233D01*
X64100787Y-55468583D01*
X64125919Y-55430426D01*
X64145610Y-55374055D01*
X64155484Y-55311998D01*
X64158233Y-55248471D01*
X64158233Y-54936036D01*
X63726802Y-54936036D01*
X63726802Y-55245247D01*
X63576933Y-55245247D01*
X63576739Y-55232058D01*
X63576739Y-54776008D01*
X64796000Y-54776008D01*
X64796000Y-54936036D01*
G37*
G36*
X64575220Y-55826750D02*
G01*
X64639054Y-55837329D01*
X64695159Y-55863020D01*
X64743536Y-55903824D01*
X64774695Y-55946816D01*
X64799108Y-56005124D01*
X64811349Y-56065790D01*
X64814757Y-56125694D01*
X64812907Y-56168797D01*
X64803194Y-56230772D01*
X64785155Y-56289532D01*
X64781289Y-56299081D01*
X64754089Y-56352463D01*
X64720647Y-56402255D01*
X64683452Y-56448094D01*
X64740296Y-56457810D01*
X64796000Y-56477697D01*
X64796000Y-56632742D01*
X64788432Y-56629297D01*
X64730360Y-56608058D01*
X64669970Y-56594933D01*
X64661222Y-56593797D01*
X64602335Y-56589218D01*
X64537049Y-56586873D01*
X64477481Y-56585884D01*
X64408826Y-56585554D01*
X64222420Y-56585554D01*
X64210984Y-56585526D01*
X64151414Y-56584152D01*
X64091115Y-56578227D01*
X64041354Y-56562872D01*
X63989412Y-56531919D01*
X63986897Y-56529831D01*
X63948268Y-56483212D01*
X63922294Y-56429043D01*
X63920653Y-56424624D01*
X63905025Y-56365163D01*
X63897732Y-56306545D01*
X63895623Y-56246741D01*
X63895741Y-56232741D01*
X63899190Y-56172349D01*
X63908624Y-56110250D01*
X63925811Y-56048025D01*
X63940239Y-56012504D01*
X63970649Y-55960551D01*
X64011687Y-55917013D01*
X64045793Y-55893499D01*
X64099923Y-55868495D01*
X64158233Y-55851946D01*
X64176990Y-55997027D01*
X64167970Y-56000132D01*
X64114635Y-56027508D01*
X64074702Y-56070886D01*
X64059400Y-56107379D01*
X64048519Y-56165301D01*
X64045685Y-56225345D01*
X64048397Y-56278010D01*
X64060978Y-56339118D01*
X64089063Y-56394459D01*
X64139985Y-56428349D01*
X64199852Y-56436371D01*
X64233264Y-56435785D01*
X64383327Y-56435785D01*
X64425825Y-56435785D01*
X64485836Y-56431184D01*
X64541889Y-56411751D01*
X64551320Y-56405559D01*
X64594532Y-56365249D01*
X64628937Y-56313565D01*
X64642870Y-56283432D01*
X64659666Y-56222707D01*
X64664695Y-56161158D01*
X64664409Y-56145310D01*
X64656561Y-56085027D01*
X64632161Y-56029560D01*
X64607890Y-56004029D01*
X64550975Y-55984717D01*
X64549002Y-55984737D01*
X64493236Y-56005233D01*
X64485392Y-56012151D01*
X64453669Y-56063852D01*
X64450339Y-56074211D01*
X64437846Y-56132316D01*
X64429342Y-56193398D01*
X64420629Y-56260194D01*
X64411158Y-56319277D01*
X64399407Y-56377355D01*
X64383327Y-56435785D01*
X64233264Y-56435785D01*
X64236969Y-56424790D01*
X64252847Y-56366163D01*
X64265872Y-56301477D01*
X64276426Y-56235169D01*
X64284848Y-56171123D01*
X64286207Y-56160269D01*
X64295208Y-56098205D01*
X64307416Y-56039232D01*
X64326556Y-55986093D01*
X64356655Y-55932254D01*
X64394464Y-55889535D01*
X64442824Y-55855757D01*
X64446188Y-55853953D01*
X64503038Y-55832888D01*
X64561526Y-55826448D01*
X64575220Y-55826750D01*
G37*
G36*
X64796000Y-56809476D02*
G01*
X63914381Y-56809476D01*
X63914381Y-56943126D01*
X64044806Y-56943126D01*
X63993904Y-56974255D01*
X63945875Y-57012499D01*
X63924639Y-57037501D01*
X63900411Y-57092009D01*
X63895623Y-57132756D01*
X63903265Y-57194106D01*
X63923887Y-57251424D01*
X63941931Y-57285163D01*
X64079098Y-57234166D01*
X64054039Y-57179724D01*
X64045685Y-57125429D01*
X64058434Y-57065737D01*
X64075288Y-57037794D01*
X64121221Y-56998135D01*
X64157353Y-56982693D01*
X64219507Y-56967512D01*
X64280247Y-56959751D01*
X64332622Y-56957780D01*
X64796000Y-56957780D01*
X64796000Y-56809476D01*
G37*
G36*
X64796000Y-57370453D02*
G01*
X63914381Y-57370453D01*
X63914381Y-57503224D01*
X64059461Y-57503224D01*
X64008147Y-57538010D01*
X63964994Y-57580380D01*
X63940759Y-57612840D01*
X63913254Y-57666736D01*
X63898444Y-57725991D01*
X63895623Y-57768471D01*
X63901060Y-57831213D01*
X63919394Y-57890180D01*
X63941638Y-57927913D01*
X63984882Y-57972541D01*
X64035619Y-58002917D01*
X64070012Y-58015840D01*
X64019773Y-58049802D01*
X63970726Y-58094618D01*
X63933941Y-58143864D01*
X63909417Y-58197541D01*
X63897155Y-58255648D01*
X63895623Y-58286364D01*
X63900166Y-58347675D01*
X63916137Y-58407672D01*
X63947369Y-58463188D01*
X63968309Y-58486545D01*
X64021226Y-58523485D01*
X64081968Y-58545033D01*
X64146393Y-58554884D01*
X64191645Y-58556594D01*
X64796000Y-58556594D01*
X64796000Y-58408876D01*
X64256125Y-58408876D01*
X64193477Y-58406506D01*
X64133404Y-58395398D01*
X64130975Y-58394515D01*
X64081791Y-58359618D01*
X64069133Y-58342051D01*
X64048456Y-58286747D01*
X64045685Y-58253244D01*
X64052785Y-58193478D01*
X64076725Y-58136730D01*
X64105769Y-58099958D01*
X64155631Y-58065249D01*
X64215806Y-58046198D01*
X64274127Y-58039530D01*
X64298330Y-58038995D01*
X64796000Y-58038995D01*
X64796000Y-57890397D01*
X64239419Y-57890397D01*
X64178471Y-57886103D01*
X64121266Y-57869954D01*
X64094046Y-57854054D01*
X64057775Y-57806353D01*
X64045874Y-57745501D01*
X64045685Y-57735352D01*
X64053745Y-57675195D01*
X64077926Y-57619581D01*
X64117639Y-57573785D01*
X64168447Y-57544028D01*
X64172301Y-57542498D01*
X64231831Y-57527127D01*
X64296334Y-57520241D01*
X64351380Y-57518757D01*
X64796000Y-57518757D01*
X64796000Y-57370453D01*
G37*
G36*
X64401904Y-58720542D02*
G01*
X64463817Y-58726587D01*
X64531954Y-58741095D01*
X64593373Y-58763517D01*
X64648073Y-58793852D01*
X64696055Y-58832100D01*
X64710429Y-58846479D01*
X64747987Y-58893338D01*
X64777199Y-58945782D01*
X64798065Y-59003810D01*
X64810584Y-59067424D01*
X64814757Y-59136622D01*
X64814488Y-59155495D01*
X64809309Y-59218181D01*
X64797538Y-59275621D01*
X64776014Y-59334843D01*
X64745881Y-59387215D01*
X64713069Y-59427212D01*
X64663009Y-59469940D01*
X64611077Y-59499707D01*
X64552147Y-59521744D01*
X64533390Y-59368164D01*
X64545922Y-59361633D01*
X64595754Y-59325569D01*
X64633334Y-59276720D01*
X64642368Y-59258097D01*
X64659519Y-59199785D01*
X64664695Y-59137501D01*
X64664430Y-59123940D01*
X64655174Y-59060359D01*
X64632694Y-59003818D01*
X64596990Y-58954319D01*
X64574380Y-58933010D01*
X64520445Y-58899923D01*
X64461967Y-58881010D01*
X64402085Y-58872840D01*
X64402085Y-59525847D01*
X64361638Y-59526434D01*
X64307796Y-59524693D01*
X64244860Y-59517624D01*
X64186776Y-59505116D01*
X64123478Y-59482928D01*
X64067167Y-59452909D01*
X64017842Y-59415059D01*
X63976306Y-59371136D01*
X63938710Y-59314163D01*
X63912810Y-59251019D01*
X63899919Y-59191984D01*
X63895722Y-59129881D01*
X64045685Y-59129881D01*
X64046304Y-59150722D01*
X64055577Y-59208796D01*
X64078933Y-59265491D01*
X64116027Y-59313942D01*
X64134650Y-59329931D01*
X64190445Y-59357379D01*
X64252022Y-59369923D01*
X64252022Y-58881046D01*
X64202114Y-58890106D01*
X64144948Y-58917549D01*
X64101959Y-58958129D01*
X64069920Y-59009896D01*
X64051181Y-59069282D01*
X64045685Y-59129881D01*
X63895722Y-59129881D01*
X63895623Y-59128415D01*
X63896101Y-59106002D01*
X63903280Y-59041935D01*
X63919072Y-58982629D01*
X63943479Y-58928083D01*
X63976500Y-58878297D01*
X64018135Y-58833272D01*
X64058846Y-58800511D01*
X64114103Y-58768528D01*
X64176346Y-58744540D01*
X64233551Y-58730658D01*
X64295609Y-58722329D01*
X64362517Y-58719553D01*
X64401904Y-58720542D01*
G37*
G36*
X64669384Y-60027327D02*
G01*
X64800396Y-60048722D01*
X64811167Y-59989371D01*
X64814757Y-59936762D01*
X64810646Y-59877034D01*
X64794297Y-59819991D01*
X64789845Y-59811318D01*
X64750457Y-59764465D01*
X64724485Y-59748890D01*
X64666925Y-59735847D01*
X64606726Y-59731588D01*
X64554199Y-59730718D01*
X64064443Y-59730718D01*
X64064443Y-59621688D01*
X63914381Y-59621688D01*
X63914381Y-59730718D01*
X63697493Y-59730718D01*
X63608686Y-59878143D01*
X63914381Y-59878143D01*
X63914381Y-60027327D01*
X64064443Y-60027327D01*
X64064443Y-59878143D01*
X64549803Y-59878143D01*
X64610234Y-59881425D01*
X64627179Y-59885764D01*
X64654729Y-59911263D01*
X64664695Y-59962260D01*
X64668816Y-60022333D01*
X64669384Y-60027327D01*
G37*
G36*
X64401904Y-60121519D02*
G01*
X64463817Y-60127564D01*
X64531954Y-60142072D01*
X64593373Y-60164494D01*
X64648073Y-60194829D01*
X64696055Y-60233077D01*
X64710429Y-60247456D01*
X64747987Y-60294315D01*
X64777199Y-60346759D01*
X64798065Y-60404787D01*
X64810584Y-60468401D01*
X64814757Y-60537599D01*
X64814488Y-60556472D01*
X64809309Y-60619158D01*
X64797538Y-60676598D01*
X64776014Y-60735820D01*
X64745881Y-60788192D01*
X64713069Y-60828189D01*
X64663009Y-60870917D01*
X64611077Y-60900684D01*
X64552147Y-60922721D01*
X64533390Y-60769141D01*
X64545922Y-60762610D01*
X64595754Y-60726546D01*
X64633334Y-60677697D01*
X64642368Y-60659074D01*
X64659519Y-60600762D01*
X64664695Y-60538478D01*
X64664430Y-60524917D01*
X64655174Y-60461336D01*
X64632694Y-60404795D01*
X64596990Y-60355296D01*
X64574380Y-60333987D01*
X64520445Y-60300900D01*
X64461967Y-60281987D01*
X64402085Y-60273817D01*
X64402085Y-60926824D01*
X64361638Y-60927411D01*
X64307796Y-60925670D01*
X64244860Y-60918601D01*
X64186776Y-60906093D01*
X64123478Y-60883905D01*
X64067167Y-60853886D01*
X64017842Y-60816036D01*
X63976306Y-60772113D01*
X63938710Y-60715140D01*
X63912810Y-60651996D01*
X63899919Y-60592961D01*
X63895722Y-60530858D01*
X64045685Y-60530858D01*
X64046304Y-60551699D01*
X64055577Y-60609773D01*
X64078933Y-60666468D01*
X64116027Y-60714919D01*
X64134650Y-60730908D01*
X64190445Y-60758356D01*
X64252022Y-60770900D01*
X64252022Y-60282023D01*
X64202114Y-60291083D01*
X64144948Y-60318526D01*
X64101959Y-60359106D01*
X64069920Y-60410873D01*
X64051181Y-60470259D01*
X64045685Y-60530858D01*
X63895722Y-60530858D01*
X63895623Y-60529392D01*
X63896101Y-60506979D01*
X63903280Y-60442912D01*
X63919072Y-60383606D01*
X63943479Y-60329060D01*
X63976500Y-60279274D01*
X64018135Y-60234249D01*
X64058846Y-60201488D01*
X64114103Y-60169505D01*
X64176346Y-60145517D01*
X64233551Y-60131635D01*
X64295609Y-60123306D01*
X64362517Y-60120530D01*
X64401904Y-60121519D01*
G37*
G36*
X64796000Y-61102679D02*
G01*
X63914381Y-61102679D01*
X63914381Y-61236329D01*
X64044806Y-61236329D01*
X63993904Y-61267458D01*
X63945875Y-61305702D01*
X63924639Y-61330704D01*
X63900411Y-61385212D01*
X63895623Y-61425959D01*
X63903265Y-61487309D01*
X63923887Y-61544627D01*
X63941931Y-61578367D01*
X64079098Y-61527369D01*
X64054039Y-61472927D01*
X64045685Y-61418632D01*
X64058434Y-61358940D01*
X64075288Y-61330997D01*
X64121221Y-61291338D01*
X64157353Y-61275896D01*
X64219507Y-61260715D01*
X64280247Y-61252954D01*
X64332622Y-61250983D01*
X64796000Y-61250983D01*
X64796000Y-61102679D01*
G37*
%LPC*%
D12*
X68660000Y-68250000D03*
D13*
X61040000Y-68250000D03*
X50880000Y-68250000D03*
X48340000Y-68250000D03*
D14*
X38440000Y-61832500D03*
D15*
X46060000Y-61832500D03*
D16*
X86000000Y-29000000D03*
D12*
X68660000Y-37000000D03*
D13*
X61040000Y-37000000D03*
X50880000Y-37000000D03*
X48340000Y-37000000D03*
D17*
X42332500Y-67852500D03*
D18*
X42332500Y-66582500D03*
X42332500Y-65312500D03*
D14*
X38440000Y-41250000D03*
D15*
X46060000Y-41250000D03*
D19*
X75750000Y-56000000D03*
X75760000Y-50920000D03*
D14*
X38440000Y-30750000D03*
D15*
X46060000Y-30750000D03*
D12*
X68660000Y-47750000D03*
D13*
X61040000Y-47750000D03*
X50880000Y-47750000D03*
X48340000Y-47750000D03*
D14*
X38440000Y-51750000D03*
D15*
X46060000Y-51750000D03*
D14*
X35750000Y-51380000D03*
D15*
X35750000Y-59000000D03*
D20*
X28000000Y-53750000D03*
D21*
X28000000Y-51250000D03*
X28000000Y-48750000D03*
X28000000Y-46250000D03*
X28000000Y-43750000D03*
X28000000Y-41250000D03*
D16*
X86000000Y-67000000D03*
D19*
X68000000Y-29250000D03*
X62920000Y-29240000D03*
D12*
X68660000Y-58000000D03*
D13*
X61040000Y-58000000D03*
X50880000Y-58000000D03*
X48340000Y-58000000D03*
D14*
X35750000Y-30190000D03*
D15*
X35750000Y-37810000D03*
D14*
X35750000Y-61272500D03*
D15*
X35750000Y-68892500D03*
D17*
X42332500Y-57500000D03*
D18*
X42332500Y-56230000D03*
X42332500Y-54960000D03*
D17*
X42332500Y-36500000D03*
D18*
X42332500Y-35230000D03*
X42332500Y-33960000D03*
D16*
X29000000Y-29000000D03*
D14*
X35750000Y-40690000D03*
D15*
X35750000Y-48310000D03*
D19*
X75750000Y-46790000D03*
X75760000Y-41710000D03*
D17*
X42332500Y-47290000D03*
D18*
X42332500Y-46020000D03*
X42332500Y-44750000D03*
D16*
X29000000Y-67000000D03*
D22*
X86000000Y-55500000D03*
D23*
X86000000Y-50420000D03*
X86000000Y-45340000D03*
X86000000Y-40260000D03*
%LPD*%
M02*
