M48
; DRILL file {KiCad 9.0.6} date 2025-12-24T13:11:47-0800
; FORMAT={-:-/ absolute / metric / decimal}
; #@! TF.CreationDate,2025-12-24T13:11:47-08:00
; #@! TF.GenerationSoftware,Kicad,Pcbnew,9.0.6
; #@! TF.FileFunction,Plated,1,2,PTH
FMAT,2
METRIC
; #@! TA.AperFunction,Plated,PTH,ComponentDrill
T1C0.750
; #@! TA.AperFunction,Plated,PTH,ComponentDrill
T2C0.800
; #@! TA.AperFunction,Plated,PTH,ComponentDrill
T3C0.950
; #@! TA.AperFunction,Plated,PTH,ComponentDrill
T4C1.000
; #@! TA.AperFunction,Plated,PTH,ComponentDrill
T5C1.520
%
G90
G05
T1
X42.332Y-33.96
X42.332Y-35.23
X42.332Y-36.5
X42.332Y-44.75
X42.332Y-46.02
X42.332Y-47.29
X42.332Y-54.96
X42.332Y-56.23
X42.332Y-57.5
X42.332Y-65.312
X42.332Y-66.582
X42.332Y-67.852
T2
X35.75Y-30.19
X35.75Y-37.81
X35.75Y-40.69
X35.75Y-48.31
X35.75Y-51.38
X35.75Y-59.0
X35.75Y-61.272
X35.75Y-68.892
X38.44Y-30.75
X38.44Y-41.25
X38.44Y-51.75
X38.44Y-61.832
X46.06Y-30.75
X46.06Y-41.25
X46.06Y-51.75
X46.06Y-61.832
T3
X28.0Y-41.25
X28.0Y-43.75
X28.0Y-46.25
X28.0Y-48.75
X28.0Y-51.25
X28.0Y-53.75
T4
X48.34Y-37.0
X48.34Y-47.75
X48.34Y-58.0
X48.34Y-68.25
X50.88Y-37.0
X50.88Y-47.75
X50.88Y-58.0
X50.88Y-68.25
X61.04Y-37.0
X61.04Y-47.75
X61.04Y-58.0
X61.04Y-68.25
X62.92Y-29.24
X68.0Y-29.25
X68.66Y-37.0
X68.66Y-47.75
X68.66Y-58.0
X68.66Y-68.25
X75.75Y-46.79
X75.75Y-56.0
X75.76Y-41.71
X75.76Y-50.92
T5
X86.0Y-40.26
X86.0Y-45.34
X86.0Y-50.42
X86.0Y-55.5
M30
