G04 #@! TF.GenerationSoftware,KiCad,Pcbnew,9.0.6*
G04 #@! TF.CreationDate,2025-12-26T23:06:48-07:00*
G04 #@! TF.ProjectId,pifire-relay-module-SSR,70696669-7265-42d7-9265-6c61792d6d6f,v1.0.2*
G04 #@! TF.SameCoordinates,Original*
G04 #@! TF.FileFunction,Soldermask,Top*
G04 #@! TF.FilePolarity,Negative*
%FSLAX46Y46*%
G04 Gerber Fmt 4.6, Leading zero omitted, Abs format (unit mm)*
G04 Created by KiCad (PCBNEW 9.0.6) date 2025-12-26 23:06:48*
%MOMM*%
%LPD*%
G01*
G04 APERTURE LIST*
G04 Aperture macros list*
%AMRoundRect*
0 Rectangle with rounded corners*
0 $1 Rounding radius*
0 $2 $3 $4 $5 $6 $7 $8 $9 X,Y pos of 4 corners*
0 Add a 4 corners polygon primitive as box body*
4,1,4,$2,$3,$4,$5,$6,$7,$8,$9,$2,$3,0*
0 Add four circle primitives for the rounded corners*
1,1,$1+$1,$2,$3*
1,1,$1+$1,$4,$5*
1,1,$1+$1,$6,$7*
1,1,$1+$1,$8,$9*
0 Add four rect primitives between the rounded corners*
20,1,$1+$1,$2,$3,$4,$5,0*
20,1,$1+$1,$4,$5,$6,$7,0*
20,1,$1+$1,$6,$7,$8,$9,0*
20,1,$1+$1,$8,$9,$2,$3,0*%
G04 Aperture macros list end*
%ADD10RoundRect,0.102000X0.754000X0.754000X-0.754000X0.754000X-0.754000X-0.754000X0.754000X-0.754000X0*%
%ADD11C,1.712000*%
%ADD12C,1.600000*%
%ADD13O,1.600000X1.600000*%
%ADD14C,3.200000*%
%ADD15R,1.500000X1.050000*%
%ADD16O,1.500000X1.050000*%
%ADD17C,2.000000*%
%ADD18RoundRect,0.250000X0.725000X-0.600000X0.725000X0.600000X-0.725000X0.600000X-0.725000X-0.600000X0*%
%ADD19O,1.950000X1.700000*%
%ADD20R,3.000000X3.000000*%
%ADD21C,3.000000*%
G04 APERTURE END LIST*
D10*
X68660000Y-68250000D03*
D11*
X61040000Y-68250000D03*
X50880000Y-68250000D03*
X48340000Y-68250000D03*
D12*
X38440000Y-61832500D03*
D13*
X46060000Y-61832500D03*
D14*
X86000000Y-29000000D03*
D10*
X68660000Y-37000000D03*
D11*
X61040000Y-37000000D03*
X50880000Y-37000000D03*
X48340000Y-37000000D03*
D15*
X42332500Y-67852500D03*
D16*
X42332500Y-66582500D03*
X42332500Y-65312500D03*
D12*
X38440000Y-41250000D03*
D13*
X46060000Y-41250000D03*
D17*
X75750000Y-56000000D03*
X75760000Y-50920000D03*
D12*
X38440000Y-30750000D03*
D13*
X46060000Y-30750000D03*
D10*
X68660000Y-47750000D03*
D11*
X61040000Y-47750000D03*
X50880000Y-47750000D03*
X48340000Y-47750000D03*
D12*
X38440000Y-51750000D03*
D13*
X46060000Y-51750000D03*
D12*
X35750000Y-51380000D03*
D13*
X35750000Y-59000000D03*
D18*
X28000000Y-53750000D03*
D19*
X28000000Y-51250000D03*
X28000000Y-48750000D03*
X28000000Y-46250000D03*
X28000000Y-43750000D03*
X28000000Y-41250000D03*
D14*
X86000000Y-67000000D03*
D17*
X68000000Y-29250000D03*
X62920000Y-29240000D03*
D10*
X68660000Y-58000000D03*
D11*
X61040000Y-58000000D03*
X50880000Y-58000000D03*
X48340000Y-58000000D03*
D12*
X35750000Y-30190000D03*
D13*
X35750000Y-37810000D03*
D12*
X35750000Y-61272500D03*
D13*
X35750000Y-68892500D03*
D15*
X42332500Y-57500000D03*
D16*
X42332500Y-56230000D03*
X42332500Y-54960000D03*
D15*
X42332500Y-36500000D03*
D16*
X42332500Y-35230000D03*
X42332500Y-33960000D03*
D14*
X29000000Y-29000000D03*
D12*
X35750000Y-40690000D03*
D13*
X35750000Y-48310000D03*
D17*
X75750000Y-46790000D03*
X75760000Y-41710000D03*
D15*
X42332500Y-47290000D03*
D16*
X42332500Y-46020000D03*
X42332500Y-44750000D03*
D14*
X29000000Y-67000000D03*
D20*
X86000000Y-55500000D03*
D21*
X86000000Y-50420000D03*
X86000000Y-45340000D03*
X86000000Y-40260000D03*
M02*
