%TF.GenerationSoftware,KiCad,Pcbnew,9.0.6*%
%TF.CreationDate,2025-12-24T13:11:47-08:00*%
%TF.ProjectId,pifire-relay-module-SSR,70696669-7265-42d7-9265-6c61792d6d6f,v1.0.2*%
%TF.SameCoordinates,Original*%
%TF.FileFunction,Drillmap*%
%TF.FilePolarity,Positive*%
%FSLAX45Y45*%
G04 Gerber Fmt 4.5, Leading zero omitted, Abs format (unit mm)*
G04 Created by KiCad (PCBNEW 9.0.6) date 2025-12-24 13:11:47*
%MOMM*%
%LPD*%
G01*
G04 APERTURE LIST*
%ADD10C,0.050000*%
%ADD11C,0.200000*%
%ADD12C,0.100000*%
%ADD13C,0.152000*%
G04 APERTURE END LIST*
D10*
X5350000Y-5312500D02*
X5600000Y-5312500D01*
X5600000Y-5987500D01*
X5350000Y-5987500D01*
X5350000Y-5312500D01*
D11*
X9000000Y-2900000D02*
X9000000Y-6700000D01*
X2900000Y-2500000D02*
X8600000Y-2500000D01*
D10*
X5350000Y-3200000D02*
X5600000Y-3200000D01*
X5600000Y-3875000D01*
X5350000Y-3875000D01*
X5350000Y-3200000D01*
X5350000Y-6350000D02*
X5600000Y-6350000D01*
X5600000Y-7025000D01*
X5350000Y-7025000D01*
X5350000Y-6350000D01*
X5350000Y-4287500D02*
X5600000Y-4287500D01*
X5600000Y-4962500D01*
X5350000Y-4962500D01*
X5350000Y-4287500D01*
D11*
X8600000Y-2500000D02*
G75*
G02*
X9000000Y-2900000I0J-400000D01*
G01*
X8600000Y-7100000D02*
X2900000Y-7100000D01*
X2500000Y-2900000D02*
G75*
G02*
X2900000Y-2500000I400000J0D01*
G01*
X9000000Y-6700000D02*
G75*
G02*
X8600000Y-7100000I-400000J0D01*
G01*
X2900000Y-7100000D02*
G75*
G02*
X2500000Y-6700000I0J400000D01*
G01*
X2500000Y-6700000D02*
X2500000Y-2900000D01*
D12*
X4195750Y-3358500D02*
X4270750Y-3433500D01*
X4270750Y-3358500D02*
X4195750Y-3433500D01*
X4195750Y-3485500D02*
X4270750Y-3560500D01*
X4270750Y-3485500D02*
X4195750Y-3560500D01*
X4195750Y-3612500D02*
X4270750Y-3687500D01*
X4270750Y-3612500D02*
X4195750Y-3687500D01*
X4195750Y-4437500D02*
X4270750Y-4512500D01*
X4270750Y-4437500D02*
X4195750Y-4512500D01*
X4195750Y-4564500D02*
X4270750Y-4639500D01*
X4270750Y-4564500D02*
X4195750Y-4639500D01*
X4195750Y-4691500D02*
X4270750Y-4766500D01*
X4270750Y-4691500D02*
X4195750Y-4766500D01*
X4195750Y-5458500D02*
X4270750Y-5533500D01*
X4270750Y-5458500D02*
X4195750Y-5533500D01*
X4195750Y-5585500D02*
X4270750Y-5660500D01*
X4270750Y-5585500D02*
X4195750Y-5660500D01*
X4195750Y-5712500D02*
X4270750Y-5787500D01*
X4270750Y-5712500D02*
X4195750Y-5787500D01*
X4195750Y-6493750D02*
X4270750Y-6568750D01*
X4270750Y-6493750D02*
X4195750Y-6568750D01*
X4195750Y-6620750D02*
X4270750Y-6695750D01*
X4270750Y-6620750D02*
X4195750Y-6695750D01*
X4195750Y-6747750D02*
X4270750Y-6822750D01*
X4270750Y-6747750D02*
X4195750Y-6822750D01*
X3615000Y-3019000D02*
G75*
G02*
X3535000Y-3019000I-40000J0D01*
G01*
X3535000Y-3019000D02*
G75*
G02*
X3615000Y-3019000I40000J0D01*
G01*
X3615000Y-3781000D02*
G75*
G02*
X3535000Y-3781000I-40000J0D01*
G01*
X3535000Y-3781000D02*
G75*
G02*
X3615000Y-3781000I40000J0D01*
G01*
X3615000Y-4069000D02*
G75*
G02*
X3535000Y-4069000I-40000J0D01*
G01*
X3535000Y-4069000D02*
G75*
G02*
X3615000Y-4069000I40000J0D01*
G01*
X3615000Y-4831000D02*
G75*
G02*
X3535000Y-4831000I-40000J0D01*
G01*
X3535000Y-4831000D02*
G75*
G02*
X3615000Y-4831000I40000J0D01*
G01*
X3615000Y-5138000D02*
G75*
G02*
X3535000Y-5138000I-40000J0D01*
G01*
X3535000Y-5138000D02*
G75*
G02*
X3615000Y-5138000I40000J0D01*
G01*
X3615000Y-5900000D02*
G75*
G02*
X3535000Y-5900000I-40000J0D01*
G01*
X3535000Y-5900000D02*
G75*
G02*
X3615000Y-5900000I40000J0D01*
G01*
X3615000Y-6127250D02*
G75*
G02*
X3535000Y-6127250I-40000J0D01*
G01*
X3535000Y-6127250D02*
G75*
G02*
X3615000Y-6127250I40000J0D01*
G01*
X3615000Y-6889250D02*
G75*
G02*
X3535000Y-6889250I-40000J0D01*
G01*
X3535000Y-6889250D02*
G75*
G02*
X3615000Y-6889250I40000J0D01*
G01*
X3884000Y-3075000D02*
G75*
G02*
X3804000Y-3075000I-40000J0D01*
G01*
X3804000Y-3075000D02*
G75*
G02*
X3884000Y-3075000I40000J0D01*
G01*
X3884000Y-4125000D02*
G75*
G02*
X3804000Y-4125000I-40000J0D01*
G01*
X3804000Y-4125000D02*
G75*
G02*
X3884000Y-4125000I40000J0D01*
G01*
X3884000Y-5175000D02*
G75*
G02*
X3804000Y-5175000I-40000J0D01*
G01*
X3804000Y-5175000D02*
G75*
G02*
X3884000Y-5175000I40000J0D01*
G01*
X3884000Y-6183250D02*
G75*
G02*
X3804000Y-6183250I-40000J0D01*
G01*
X3804000Y-6183250D02*
G75*
G02*
X3884000Y-6183250I40000J0D01*
G01*
X4646000Y-3075000D02*
G75*
G02*
X4566000Y-3075000I-40000J0D01*
G01*
X4566000Y-3075000D02*
G75*
G02*
X4646000Y-3075000I40000J0D01*
G01*
X4646000Y-4125000D02*
G75*
G02*
X4566000Y-4125000I-40000J0D01*
G01*
X4566000Y-4125000D02*
G75*
G02*
X4646000Y-4125000I40000J0D01*
G01*
X4646000Y-5175000D02*
G75*
G02*
X4566000Y-5175000I-40000J0D01*
G01*
X4566000Y-5175000D02*
G75*
G02*
X4646000Y-5175000I40000J0D01*
G01*
X4646000Y-6183250D02*
G75*
G02*
X4566000Y-6183250I-40000J0D01*
G01*
X4566000Y-6183250D02*
G75*
G02*
X4646000Y-6183250I40000J0D01*
G01*
X2800000Y-4077500D02*
X2800000Y-4172500D01*
X2752500Y-4125000D02*
X2847500Y-4125000D01*
X2800000Y-4327500D02*
X2800000Y-4422500D01*
X2752500Y-4375000D02*
X2847500Y-4375000D01*
X2800000Y-4577500D02*
X2800000Y-4672500D01*
X2752500Y-4625000D02*
X2847500Y-4625000D01*
X2800000Y-4827500D02*
X2800000Y-4922500D01*
X2752500Y-4875000D02*
X2847500Y-4875000D01*
X2800000Y-5077500D02*
X2800000Y-5172500D01*
X2752500Y-5125000D02*
X2847500Y-5125000D01*
X2800000Y-5327500D02*
X2800000Y-5422500D01*
X2752500Y-5375000D02*
X2847500Y-5375000D01*
X4869356Y-3735356D02*
X4869356Y-3664644D01*
X4798644Y-3664644D01*
X4798644Y-3735356D01*
X4869356Y-3735356D01*
X4869356Y-4810356D02*
X4869356Y-4739644D01*
X4798644Y-4739644D01*
X4798644Y-4810356D01*
X4869356Y-4810356D01*
X4869356Y-5835356D02*
X4869356Y-5764644D01*
X4798644Y-5764644D01*
X4798644Y-5835356D01*
X4869356Y-5835356D01*
X4869356Y-6860356D02*
X4869356Y-6789644D01*
X4798644Y-6789644D01*
X4798644Y-6860356D01*
X4869356Y-6860356D01*
X5123356Y-3735356D02*
X5123356Y-3664644D01*
X5052644Y-3664644D01*
X5052644Y-3735356D01*
X5123356Y-3735356D01*
X5123356Y-4810356D02*
X5123356Y-4739644D01*
X5052644Y-4739644D01*
X5052644Y-4810356D01*
X5123356Y-4810356D01*
X5123356Y-5835356D02*
X5123356Y-5764644D01*
X5052644Y-5764644D01*
X5052644Y-5835356D01*
X5123356Y-5835356D01*
X5123356Y-6860356D02*
X5123356Y-6789644D01*
X5052644Y-6789644D01*
X5052644Y-6860356D01*
X5123356Y-6860356D01*
X6139356Y-3735356D02*
X6139356Y-3664644D01*
X6068644Y-3664644D01*
X6068644Y-3735356D01*
X6139356Y-3735356D01*
X6139356Y-4810356D02*
X6139356Y-4739644D01*
X6068644Y-4739644D01*
X6068644Y-4810356D01*
X6139356Y-4810356D01*
X6139356Y-5835356D02*
X6139356Y-5764644D01*
X6068644Y-5764644D01*
X6068644Y-5835356D01*
X6139356Y-5835356D01*
X6139356Y-6860356D02*
X6139356Y-6789644D01*
X6068644Y-6789644D01*
X6068644Y-6860356D01*
X6139356Y-6860356D01*
X6327356Y-2959356D02*
X6327356Y-2888644D01*
X6256644Y-2888644D01*
X6256644Y-2959356D01*
X6327356Y-2959356D01*
X6835356Y-2960356D02*
X6835356Y-2889644D01*
X6764644Y-2889644D01*
X6764644Y-2960356D01*
X6835356Y-2960356D01*
X6901356Y-3735356D02*
X6901356Y-3664644D01*
X6830644Y-3664644D01*
X6830644Y-3735356D01*
X6901356Y-3735356D01*
X6901356Y-4810356D02*
X6901356Y-4739644D01*
X6830644Y-4739644D01*
X6830644Y-4810356D01*
X6901356Y-4810356D01*
X6901356Y-5835356D02*
X6901356Y-5764644D01*
X6830644Y-5764644D01*
X6830644Y-5835356D01*
X6901356Y-5835356D01*
X6901356Y-6860356D02*
X6901356Y-6789644D01*
X6830644Y-6789644D01*
X6830644Y-6860356D01*
X6901356Y-6860356D01*
X7610356Y-4714356D02*
X7610356Y-4643644D01*
X7539644Y-4643644D01*
X7539644Y-4714356D01*
X7610356Y-4714356D01*
X7610356Y-5635356D02*
X7610356Y-5564644D01*
X7539644Y-5564644D01*
X7539644Y-5635356D01*
X7610356Y-5635356D01*
X7611356Y-4206356D02*
X7611356Y-4135644D01*
X7540644Y-4135644D01*
X7540644Y-4206356D01*
X7611356Y-4206356D01*
X7611356Y-5127356D02*
X7611356Y-5056644D01*
X7540644Y-5056644D01*
X7540644Y-5127356D01*
X7611356Y-5127356D01*
D13*
X8600000Y-4102000D02*
X8676000Y-4026000D01*
X8600000Y-3950000D01*
X8524000Y-4026000D01*
X8600000Y-4102000D01*
X8600000Y-4610000D02*
X8676000Y-4534000D01*
X8600000Y-4458000D01*
X8524000Y-4534000D01*
X8600000Y-4610000D01*
X8600000Y-5118000D02*
X8676000Y-5042000D01*
X8600000Y-4966000D01*
X8524000Y-5042000D01*
X8600000Y-5118000D01*
X8600000Y-5626000D02*
X8676000Y-5550000D01*
X8600000Y-5474000D01*
X8524000Y-5550000D01*
X8600000Y-5626000D01*
D11*
X2750777Y-7421484D02*
X2750777Y-7221484D01*
X2750777Y-7221484D02*
X2798396Y-7221484D01*
X2798396Y-7221484D02*
X2826967Y-7231008D01*
X2826967Y-7231008D02*
X2846015Y-7250055D01*
X2846015Y-7250055D02*
X2855539Y-7269103D01*
X2855539Y-7269103D02*
X2865062Y-7307198D01*
X2865062Y-7307198D02*
X2865062Y-7335769D01*
X2865062Y-7335769D02*
X2855539Y-7373865D01*
X2855539Y-7373865D02*
X2846015Y-7392912D01*
X2846015Y-7392912D02*
X2826967Y-7411960D01*
X2826967Y-7411960D02*
X2798396Y-7421484D01*
X2798396Y-7421484D02*
X2750777Y-7421484D01*
X2950777Y-7421484D02*
X2950777Y-7288150D01*
X2950777Y-7326246D02*
X2960301Y-7307198D01*
X2960301Y-7307198D02*
X2969824Y-7297674D01*
X2969824Y-7297674D02*
X2988872Y-7288150D01*
X2988872Y-7288150D02*
X3007920Y-7288150D01*
X3074586Y-7421484D02*
X3074586Y-7288150D01*
X3074586Y-7221484D02*
X3065062Y-7231008D01*
X3065062Y-7231008D02*
X3074586Y-7240531D01*
X3074586Y-7240531D02*
X3084110Y-7231008D01*
X3084110Y-7231008D02*
X3074586Y-7221484D01*
X3074586Y-7221484D02*
X3074586Y-7240531D01*
X3198396Y-7421484D02*
X3179348Y-7411960D01*
X3179348Y-7411960D02*
X3169824Y-7392912D01*
X3169824Y-7392912D02*
X3169824Y-7221484D01*
X3303158Y-7421484D02*
X3284110Y-7411960D01*
X3284110Y-7411960D02*
X3274586Y-7392912D01*
X3274586Y-7392912D02*
X3274586Y-7221484D01*
X3531729Y-7421484D02*
X3531729Y-7221484D01*
X3531729Y-7221484D02*
X3598396Y-7364341D01*
X3598396Y-7364341D02*
X3665062Y-7221484D01*
X3665062Y-7221484D02*
X3665062Y-7421484D01*
X3846015Y-7421484D02*
X3846015Y-7316722D01*
X3846015Y-7316722D02*
X3836491Y-7297674D01*
X3836491Y-7297674D02*
X3817443Y-7288150D01*
X3817443Y-7288150D02*
X3779348Y-7288150D01*
X3779348Y-7288150D02*
X3760301Y-7297674D01*
X3846015Y-7411960D02*
X3826967Y-7421484D01*
X3826967Y-7421484D02*
X3779348Y-7421484D01*
X3779348Y-7421484D02*
X3760301Y-7411960D01*
X3760301Y-7411960D02*
X3750777Y-7392912D01*
X3750777Y-7392912D02*
X3750777Y-7373865D01*
X3750777Y-7373865D02*
X3760301Y-7354817D01*
X3760301Y-7354817D02*
X3779348Y-7345293D01*
X3779348Y-7345293D02*
X3826967Y-7345293D01*
X3826967Y-7345293D02*
X3846015Y-7335769D01*
X3941253Y-7288150D02*
X3941253Y-7488150D01*
X3941253Y-7297674D02*
X3960301Y-7288150D01*
X3960301Y-7288150D02*
X3998396Y-7288150D01*
X3998396Y-7288150D02*
X4017443Y-7297674D01*
X4017443Y-7297674D02*
X4026967Y-7307198D01*
X4026967Y-7307198D02*
X4036491Y-7326246D01*
X4036491Y-7326246D02*
X4036491Y-7383388D01*
X4036491Y-7383388D02*
X4026967Y-7402436D01*
X4026967Y-7402436D02*
X4017443Y-7411960D01*
X4017443Y-7411960D02*
X3998396Y-7421484D01*
X3998396Y-7421484D02*
X3960301Y-7421484D01*
X3960301Y-7421484D02*
X3941253Y-7411960D01*
X4122205Y-7402436D02*
X4131729Y-7411960D01*
X4131729Y-7411960D02*
X4122205Y-7421484D01*
X4122205Y-7421484D02*
X4112682Y-7411960D01*
X4112682Y-7411960D02*
X4122205Y-7402436D01*
X4122205Y-7402436D02*
X4122205Y-7421484D01*
X4122205Y-7297674D02*
X4131729Y-7307198D01*
X4131729Y-7307198D02*
X4122205Y-7316722D01*
X4122205Y-7316722D02*
X4112682Y-7307198D01*
X4112682Y-7307198D02*
X4122205Y-7297674D01*
X4122205Y-7297674D02*
X4122205Y-7316722D01*
D12*
X2415000Y-7712500D02*
X2490000Y-7787500D01*
X2490000Y-7712500D02*
X2415000Y-7787500D01*
D11*
X2788872Y-7641484D02*
X2807920Y-7641484D01*
X2807920Y-7641484D02*
X2826967Y-7651008D01*
X2826967Y-7651008D02*
X2836491Y-7660531D01*
X2836491Y-7660531D02*
X2846015Y-7679579D01*
X2846015Y-7679579D02*
X2855539Y-7717674D01*
X2855539Y-7717674D02*
X2855539Y-7765293D01*
X2855539Y-7765293D02*
X2846015Y-7803388D01*
X2846015Y-7803388D02*
X2836491Y-7822436D01*
X2836491Y-7822436D02*
X2826967Y-7831960D01*
X2826967Y-7831960D02*
X2807920Y-7841484D01*
X2807920Y-7841484D02*
X2788872Y-7841484D01*
X2788872Y-7841484D02*
X2769824Y-7831960D01*
X2769824Y-7831960D02*
X2760301Y-7822436D01*
X2760301Y-7822436D02*
X2750777Y-7803388D01*
X2750777Y-7803388D02*
X2741253Y-7765293D01*
X2741253Y-7765293D02*
X2741253Y-7717674D01*
X2741253Y-7717674D02*
X2750777Y-7679579D01*
X2750777Y-7679579D02*
X2760301Y-7660531D01*
X2760301Y-7660531D02*
X2769824Y-7651008D01*
X2769824Y-7651008D02*
X2788872Y-7641484D01*
X2941253Y-7822436D02*
X2950777Y-7831960D01*
X2950777Y-7831960D02*
X2941253Y-7841484D01*
X2941253Y-7841484D02*
X2931729Y-7831960D01*
X2931729Y-7831960D02*
X2941253Y-7822436D01*
X2941253Y-7822436D02*
X2941253Y-7841484D01*
X3017443Y-7641484D02*
X3150777Y-7641484D01*
X3150777Y-7641484D02*
X3065062Y-7841484D01*
X3322205Y-7641484D02*
X3226967Y-7641484D01*
X3226967Y-7641484D02*
X3217443Y-7736722D01*
X3217443Y-7736722D02*
X3226967Y-7727198D01*
X3226967Y-7727198D02*
X3246015Y-7717674D01*
X3246015Y-7717674D02*
X3293634Y-7717674D01*
X3293634Y-7717674D02*
X3312682Y-7727198D01*
X3312682Y-7727198D02*
X3322205Y-7736722D01*
X3322205Y-7736722D02*
X3331729Y-7755769D01*
X3331729Y-7755769D02*
X3331729Y-7803388D01*
X3331729Y-7803388D02*
X3322205Y-7822436D01*
X3322205Y-7822436D02*
X3312682Y-7831960D01*
X3312682Y-7831960D02*
X3293634Y-7841484D01*
X3293634Y-7841484D02*
X3246015Y-7841484D01*
X3246015Y-7841484D02*
X3226967Y-7831960D01*
X3226967Y-7831960D02*
X3217443Y-7822436D01*
X3455539Y-7641484D02*
X3474586Y-7641484D01*
X3474586Y-7641484D02*
X3493634Y-7651008D01*
X3493634Y-7651008D02*
X3503158Y-7660531D01*
X3503158Y-7660531D02*
X3512682Y-7679579D01*
X3512682Y-7679579D02*
X3522205Y-7717674D01*
X3522205Y-7717674D02*
X3522205Y-7765293D01*
X3522205Y-7765293D02*
X3512682Y-7803388D01*
X3512682Y-7803388D02*
X3503158Y-7822436D01*
X3503158Y-7822436D02*
X3493634Y-7831960D01*
X3493634Y-7831960D02*
X3474586Y-7841484D01*
X3474586Y-7841484D02*
X3455539Y-7841484D01*
X3455539Y-7841484D02*
X3436491Y-7831960D01*
X3436491Y-7831960D02*
X3426967Y-7822436D01*
X3426967Y-7822436D02*
X3417443Y-7803388D01*
X3417443Y-7803388D02*
X3407920Y-7765293D01*
X3407920Y-7765293D02*
X3407920Y-7717674D01*
X3407920Y-7717674D02*
X3417443Y-7679579D01*
X3417443Y-7679579D02*
X3426967Y-7660531D01*
X3426967Y-7660531D02*
X3436491Y-7651008D01*
X3436491Y-7651008D02*
X3455539Y-7641484D01*
X3607920Y-7841484D02*
X3607920Y-7708150D01*
X3607920Y-7727198D02*
X3617443Y-7717674D01*
X3617443Y-7717674D02*
X3636491Y-7708150D01*
X3636491Y-7708150D02*
X3665063Y-7708150D01*
X3665063Y-7708150D02*
X3684110Y-7717674D01*
X3684110Y-7717674D02*
X3693634Y-7736722D01*
X3693634Y-7736722D02*
X3693634Y-7841484D01*
X3693634Y-7736722D02*
X3703158Y-7717674D01*
X3703158Y-7717674D02*
X3722205Y-7708150D01*
X3722205Y-7708150D02*
X3750777Y-7708150D01*
X3750777Y-7708150D02*
X3769824Y-7717674D01*
X3769824Y-7717674D02*
X3779348Y-7736722D01*
X3779348Y-7736722D02*
X3779348Y-7841484D01*
X3874586Y-7841484D02*
X3874586Y-7708150D01*
X3874586Y-7727198D02*
X3884110Y-7717674D01*
X3884110Y-7717674D02*
X3903158Y-7708150D01*
X3903158Y-7708150D02*
X3931729Y-7708150D01*
X3931729Y-7708150D02*
X3950777Y-7717674D01*
X3950777Y-7717674D02*
X3960301Y-7736722D01*
X3960301Y-7736722D02*
X3960301Y-7841484D01*
X3960301Y-7736722D02*
X3969824Y-7717674D01*
X3969824Y-7717674D02*
X3988872Y-7708150D01*
X3988872Y-7708150D02*
X4017443Y-7708150D01*
X4017443Y-7708150D02*
X4036491Y-7717674D01*
X4036491Y-7717674D02*
X4046015Y-7736722D01*
X4046015Y-7736722D02*
X4046015Y-7841484D01*
X4436491Y-7631960D02*
X4265063Y-7889103D01*
X4693634Y-7641484D02*
X4712682Y-7641484D01*
X4712682Y-7641484D02*
X4731729Y-7651008D01*
X4731729Y-7651008D02*
X4741253Y-7660531D01*
X4741253Y-7660531D02*
X4750777Y-7679579D01*
X4750777Y-7679579D02*
X4760301Y-7717674D01*
X4760301Y-7717674D02*
X4760301Y-7765293D01*
X4760301Y-7765293D02*
X4750777Y-7803388D01*
X4750777Y-7803388D02*
X4741253Y-7822436D01*
X4741253Y-7822436D02*
X4731729Y-7831960D01*
X4731729Y-7831960D02*
X4712682Y-7841484D01*
X4712682Y-7841484D02*
X4693634Y-7841484D01*
X4693634Y-7841484D02*
X4674587Y-7831960D01*
X4674587Y-7831960D02*
X4665063Y-7822436D01*
X4665063Y-7822436D02*
X4655539Y-7803388D01*
X4655539Y-7803388D02*
X4646015Y-7765293D01*
X4646015Y-7765293D02*
X4646015Y-7717674D01*
X4646015Y-7717674D02*
X4655539Y-7679579D01*
X4655539Y-7679579D02*
X4665063Y-7660531D01*
X4665063Y-7660531D02*
X4674587Y-7651008D01*
X4674587Y-7651008D02*
X4693634Y-7641484D01*
X4846015Y-7822436D02*
X4855539Y-7831960D01*
X4855539Y-7831960D02*
X4846015Y-7841484D01*
X4846015Y-7841484D02*
X4836491Y-7831960D01*
X4836491Y-7831960D02*
X4846015Y-7822436D01*
X4846015Y-7822436D02*
X4846015Y-7841484D01*
X4979348Y-7641484D02*
X4998396Y-7641484D01*
X4998396Y-7641484D02*
X5017444Y-7651008D01*
X5017444Y-7651008D02*
X5026968Y-7660531D01*
X5026968Y-7660531D02*
X5036491Y-7679579D01*
X5036491Y-7679579D02*
X5046015Y-7717674D01*
X5046015Y-7717674D02*
X5046015Y-7765293D01*
X5046015Y-7765293D02*
X5036491Y-7803388D01*
X5036491Y-7803388D02*
X5026968Y-7822436D01*
X5026968Y-7822436D02*
X5017444Y-7831960D01*
X5017444Y-7831960D02*
X4998396Y-7841484D01*
X4998396Y-7841484D02*
X4979348Y-7841484D01*
X4979348Y-7841484D02*
X4960301Y-7831960D01*
X4960301Y-7831960D02*
X4950777Y-7822436D01*
X4950777Y-7822436D02*
X4941253Y-7803388D01*
X4941253Y-7803388D02*
X4931729Y-7765293D01*
X4931729Y-7765293D02*
X4931729Y-7717674D01*
X4931729Y-7717674D02*
X4941253Y-7679579D01*
X4941253Y-7679579D02*
X4950777Y-7660531D01*
X4950777Y-7660531D02*
X4960301Y-7651008D01*
X4960301Y-7651008D02*
X4979348Y-7641484D01*
X5122206Y-7660531D02*
X5131729Y-7651008D01*
X5131729Y-7651008D02*
X5150777Y-7641484D01*
X5150777Y-7641484D02*
X5198396Y-7641484D01*
X5198396Y-7641484D02*
X5217444Y-7651008D01*
X5217444Y-7651008D02*
X5226968Y-7660531D01*
X5226968Y-7660531D02*
X5236491Y-7679579D01*
X5236491Y-7679579D02*
X5236491Y-7698627D01*
X5236491Y-7698627D02*
X5226968Y-7727198D01*
X5226968Y-7727198D02*
X5112682Y-7841484D01*
X5112682Y-7841484D02*
X5236491Y-7841484D01*
X5331729Y-7841484D02*
X5369825Y-7841484D01*
X5369825Y-7841484D02*
X5388872Y-7831960D01*
X5388872Y-7831960D02*
X5398396Y-7822436D01*
X5398396Y-7822436D02*
X5417444Y-7793865D01*
X5417444Y-7793865D02*
X5426968Y-7755769D01*
X5426968Y-7755769D02*
X5426968Y-7679579D01*
X5426968Y-7679579D02*
X5417444Y-7660531D01*
X5417444Y-7660531D02*
X5407920Y-7651008D01*
X5407920Y-7651008D02*
X5388872Y-7641484D01*
X5388872Y-7641484D02*
X5350777Y-7641484D01*
X5350777Y-7641484D02*
X5331729Y-7651008D01*
X5331729Y-7651008D02*
X5322206Y-7660531D01*
X5322206Y-7660531D02*
X5312682Y-7679579D01*
X5312682Y-7679579D02*
X5312682Y-7727198D01*
X5312682Y-7727198D02*
X5322206Y-7746246D01*
X5322206Y-7746246D02*
X5331729Y-7755769D01*
X5331729Y-7755769D02*
X5350777Y-7765293D01*
X5350777Y-7765293D02*
X5388872Y-7765293D01*
X5388872Y-7765293D02*
X5407920Y-7755769D01*
X5407920Y-7755769D02*
X5417444Y-7746246D01*
X5417444Y-7746246D02*
X5426968Y-7727198D01*
X5607920Y-7641484D02*
X5512682Y-7641484D01*
X5512682Y-7641484D02*
X5503158Y-7736722D01*
X5503158Y-7736722D02*
X5512682Y-7727198D01*
X5512682Y-7727198D02*
X5531729Y-7717674D01*
X5531729Y-7717674D02*
X5579349Y-7717674D01*
X5579349Y-7717674D02*
X5598396Y-7727198D01*
X5598396Y-7727198D02*
X5607920Y-7736722D01*
X5607920Y-7736722D02*
X5617444Y-7755769D01*
X5617444Y-7755769D02*
X5617444Y-7803388D01*
X5617444Y-7803388D02*
X5607920Y-7822436D01*
X5607920Y-7822436D02*
X5598396Y-7831960D01*
X5598396Y-7831960D02*
X5579349Y-7841484D01*
X5579349Y-7841484D02*
X5531729Y-7841484D01*
X5531729Y-7841484D02*
X5512682Y-7831960D01*
X5512682Y-7831960D02*
X5503158Y-7822436D01*
X5693634Y-7641484D02*
X5693634Y-7679579D01*
X5769825Y-7641484D02*
X5769825Y-7679579D01*
X6065063Y-7917674D02*
X6055539Y-7908150D01*
X6055539Y-7908150D02*
X6036491Y-7879579D01*
X6036491Y-7879579D02*
X6026968Y-7860531D01*
X6026968Y-7860531D02*
X6017444Y-7831960D01*
X6017444Y-7831960D02*
X6007920Y-7784341D01*
X6007920Y-7784341D02*
X6007920Y-7746246D01*
X6007920Y-7746246D02*
X6017444Y-7698627D01*
X6017444Y-7698627D02*
X6026968Y-7670055D01*
X6026968Y-7670055D02*
X6036491Y-7651008D01*
X6036491Y-7651008D02*
X6055539Y-7622436D01*
X6055539Y-7622436D02*
X6065063Y-7612912D01*
X6246015Y-7841484D02*
X6131729Y-7841484D01*
X6188872Y-7841484D02*
X6188872Y-7641484D01*
X6188872Y-7641484D02*
X6169825Y-7670055D01*
X6169825Y-7670055D02*
X6150777Y-7689103D01*
X6150777Y-7689103D02*
X6131729Y-7698627D01*
X6322206Y-7660531D02*
X6331729Y-7651008D01*
X6331729Y-7651008D02*
X6350777Y-7641484D01*
X6350777Y-7641484D02*
X6398396Y-7641484D01*
X6398396Y-7641484D02*
X6417444Y-7651008D01*
X6417444Y-7651008D02*
X6426968Y-7660531D01*
X6426968Y-7660531D02*
X6436491Y-7679579D01*
X6436491Y-7679579D02*
X6436491Y-7698627D01*
X6436491Y-7698627D02*
X6426968Y-7727198D01*
X6426968Y-7727198D02*
X6312682Y-7841484D01*
X6312682Y-7841484D02*
X6436491Y-7841484D01*
X6674587Y-7841484D02*
X6674587Y-7641484D01*
X6760301Y-7841484D02*
X6760301Y-7736722D01*
X6760301Y-7736722D02*
X6750777Y-7717674D01*
X6750777Y-7717674D02*
X6731730Y-7708150D01*
X6731730Y-7708150D02*
X6703158Y-7708150D01*
X6703158Y-7708150D02*
X6684110Y-7717674D01*
X6684110Y-7717674D02*
X6674587Y-7727198D01*
X6884110Y-7841484D02*
X6865063Y-7831960D01*
X6865063Y-7831960D02*
X6855539Y-7822436D01*
X6855539Y-7822436D02*
X6846015Y-7803388D01*
X6846015Y-7803388D02*
X6846015Y-7746246D01*
X6846015Y-7746246D02*
X6855539Y-7727198D01*
X6855539Y-7727198D02*
X6865063Y-7717674D01*
X6865063Y-7717674D02*
X6884110Y-7708150D01*
X6884110Y-7708150D02*
X6912682Y-7708150D01*
X6912682Y-7708150D02*
X6931730Y-7717674D01*
X6931730Y-7717674D02*
X6941253Y-7727198D01*
X6941253Y-7727198D02*
X6950777Y-7746246D01*
X6950777Y-7746246D02*
X6950777Y-7803388D01*
X6950777Y-7803388D02*
X6941253Y-7822436D01*
X6941253Y-7822436D02*
X6931730Y-7831960D01*
X6931730Y-7831960D02*
X6912682Y-7841484D01*
X6912682Y-7841484D02*
X6884110Y-7841484D01*
X7065063Y-7841484D02*
X7046015Y-7831960D01*
X7046015Y-7831960D02*
X7036491Y-7812912D01*
X7036491Y-7812912D02*
X7036491Y-7641484D01*
X7217444Y-7831960D02*
X7198396Y-7841484D01*
X7198396Y-7841484D02*
X7160301Y-7841484D01*
X7160301Y-7841484D02*
X7141253Y-7831960D01*
X7141253Y-7831960D02*
X7131730Y-7812912D01*
X7131730Y-7812912D02*
X7131730Y-7736722D01*
X7131730Y-7736722D02*
X7141253Y-7717674D01*
X7141253Y-7717674D02*
X7160301Y-7708150D01*
X7160301Y-7708150D02*
X7198396Y-7708150D01*
X7198396Y-7708150D02*
X7217444Y-7717674D01*
X7217444Y-7717674D02*
X7226968Y-7736722D01*
X7226968Y-7736722D02*
X7226968Y-7755769D01*
X7226968Y-7755769D02*
X7131730Y-7774817D01*
X7303158Y-7831960D02*
X7322206Y-7841484D01*
X7322206Y-7841484D02*
X7360301Y-7841484D01*
X7360301Y-7841484D02*
X7379349Y-7831960D01*
X7379349Y-7831960D02*
X7388872Y-7812912D01*
X7388872Y-7812912D02*
X7388872Y-7803388D01*
X7388872Y-7803388D02*
X7379349Y-7784341D01*
X7379349Y-7784341D02*
X7360301Y-7774817D01*
X7360301Y-7774817D02*
X7331730Y-7774817D01*
X7331730Y-7774817D02*
X7312682Y-7765293D01*
X7312682Y-7765293D02*
X7303158Y-7746246D01*
X7303158Y-7746246D02*
X7303158Y-7736722D01*
X7303158Y-7736722D02*
X7312682Y-7717674D01*
X7312682Y-7717674D02*
X7331730Y-7708150D01*
X7331730Y-7708150D02*
X7360301Y-7708150D01*
X7360301Y-7708150D02*
X7379349Y-7717674D01*
X7455539Y-7917674D02*
X7465063Y-7908150D01*
X7465063Y-7908150D02*
X7484111Y-7879579D01*
X7484111Y-7879579D02*
X7493634Y-7860531D01*
X7493634Y-7860531D02*
X7503158Y-7831960D01*
X7503158Y-7831960D02*
X7512682Y-7784341D01*
X7512682Y-7784341D02*
X7512682Y-7746246D01*
X7512682Y-7746246D02*
X7503158Y-7698627D01*
X7503158Y-7698627D02*
X7493634Y-7670055D01*
X7493634Y-7670055D02*
X7484111Y-7651008D01*
X7484111Y-7651008D02*
X7465063Y-7622436D01*
X7465063Y-7622436D02*
X7455539Y-7612912D01*
D12*
X2490000Y-8014000D02*
G75*
G02*
X2410000Y-8014000I-40000J0D01*
G01*
X2410000Y-8014000D02*
G75*
G02*
X2490000Y-8014000I40000J0D01*
G01*
D11*
X2788872Y-7905484D02*
X2807920Y-7905484D01*
X2807920Y-7905484D02*
X2826967Y-7915008D01*
X2826967Y-7915008D02*
X2836491Y-7924531D01*
X2836491Y-7924531D02*
X2846015Y-7943579D01*
X2846015Y-7943579D02*
X2855539Y-7981674D01*
X2855539Y-7981674D02*
X2855539Y-8029293D01*
X2855539Y-8029293D02*
X2846015Y-8067388D01*
X2846015Y-8067388D02*
X2836491Y-8086436D01*
X2836491Y-8086436D02*
X2826967Y-8095960D01*
X2826967Y-8095960D02*
X2807920Y-8105484D01*
X2807920Y-8105484D02*
X2788872Y-8105484D01*
X2788872Y-8105484D02*
X2769824Y-8095960D01*
X2769824Y-8095960D02*
X2760301Y-8086436D01*
X2760301Y-8086436D02*
X2750777Y-8067388D01*
X2750777Y-8067388D02*
X2741253Y-8029293D01*
X2741253Y-8029293D02*
X2741253Y-7981674D01*
X2741253Y-7981674D02*
X2750777Y-7943579D01*
X2750777Y-7943579D02*
X2760301Y-7924531D01*
X2760301Y-7924531D02*
X2769824Y-7915008D01*
X2769824Y-7915008D02*
X2788872Y-7905484D01*
X2941253Y-8086436D02*
X2950777Y-8095960D01*
X2950777Y-8095960D02*
X2941253Y-8105484D01*
X2941253Y-8105484D02*
X2931729Y-8095960D01*
X2931729Y-8095960D02*
X2941253Y-8086436D01*
X2941253Y-8086436D02*
X2941253Y-8105484D01*
X3065062Y-7991198D02*
X3046015Y-7981674D01*
X3046015Y-7981674D02*
X3036491Y-7972150D01*
X3036491Y-7972150D02*
X3026967Y-7953103D01*
X3026967Y-7953103D02*
X3026967Y-7943579D01*
X3026967Y-7943579D02*
X3036491Y-7924531D01*
X3036491Y-7924531D02*
X3046015Y-7915008D01*
X3046015Y-7915008D02*
X3065062Y-7905484D01*
X3065062Y-7905484D02*
X3103158Y-7905484D01*
X3103158Y-7905484D02*
X3122205Y-7915008D01*
X3122205Y-7915008D02*
X3131729Y-7924531D01*
X3131729Y-7924531D02*
X3141253Y-7943579D01*
X3141253Y-7943579D02*
X3141253Y-7953103D01*
X3141253Y-7953103D02*
X3131729Y-7972150D01*
X3131729Y-7972150D02*
X3122205Y-7981674D01*
X3122205Y-7981674D02*
X3103158Y-7991198D01*
X3103158Y-7991198D02*
X3065062Y-7991198D01*
X3065062Y-7991198D02*
X3046015Y-8000722D01*
X3046015Y-8000722D02*
X3036491Y-8010246D01*
X3036491Y-8010246D02*
X3026967Y-8029293D01*
X3026967Y-8029293D02*
X3026967Y-8067388D01*
X3026967Y-8067388D02*
X3036491Y-8086436D01*
X3036491Y-8086436D02*
X3046015Y-8095960D01*
X3046015Y-8095960D02*
X3065062Y-8105484D01*
X3065062Y-8105484D02*
X3103158Y-8105484D01*
X3103158Y-8105484D02*
X3122205Y-8095960D01*
X3122205Y-8095960D02*
X3131729Y-8086436D01*
X3131729Y-8086436D02*
X3141253Y-8067388D01*
X3141253Y-8067388D02*
X3141253Y-8029293D01*
X3141253Y-8029293D02*
X3131729Y-8010246D01*
X3131729Y-8010246D02*
X3122205Y-8000722D01*
X3122205Y-8000722D02*
X3103158Y-7991198D01*
X3265062Y-7905484D02*
X3284110Y-7905484D01*
X3284110Y-7905484D02*
X3303158Y-7915008D01*
X3303158Y-7915008D02*
X3312682Y-7924531D01*
X3312682Y-7924531D02*
X3322205Y-7943579D01*
X3322205Y-7943579D02*
X3331729Y-7981674D01*
X3331729Y-7981674D02*
X3331729Y-8029293D01*
X3331729Y-8029293D02*
X3322205Y-8067388D01*
X3322205Y-8067388D02*
X3312682Y-8086436D01*
X3312682Y-8086436D02*
X3303158Y-8095960D01*
X3303158Y-8095960D02*
X3284110Y-8105484D01*
X3284110Y-8105484D02*
X3265062Y-8105484D01*
X3265062Y-8105484D02*
X3246015Y-8095960D01*
X3246015Y-8095960D02*
X3236491Y-8086436D01*
X3236491Y-8086436D02*
X3226967Y-8067388D01*
X3226967Y-8067388D02*
X3217443Y-8029293D01*
X3217443Y-8029293D02*
X3217443Y-7981674D01*
X3217443Y-7981674D02*
X3226967Y-7943579D01*
X3226967Y-7943579D02*
X3236491Y-7924531D01*
X3236491Y-7924531D02*
X3246015Y-7915008D01*
X3246015Y-7915008D02*
X3265062Y-7905484D01*
X3455539Y-7905484D02*
X3474586Y-7905484D01*
X3474586Y-7905484D02*
X3493634Y-7915008D01*
X3493634Y-7915008D02*
X3503158Y-7924531D01*
X3503158Y-7924531D02*
X3512682Y-7943579D01*
X3512682Y-7943579D02*
X3522205Y-7981674D01*
X3522205Y-7981674D02*
X3522205Y-8029293D01*
X3522205Y-8029293D02*
X3512682Y-8067388D01*
X3512682Y-8067388D02*
X3503158Y-8086436D01*
X3503158Y-8086436D02*
X3493634Y-8095960D01*
X3493634Y-8095960D02*
X3474586Y-8105484D01*
X3474586Y-8105484D02*
X3455539Y-8105484D01*
X3455539Y-8105484D02*
X3436491Y-8095960D01*
X3436491Y-8095960D02*
X3426967Y-8086436D01*
X3426967Y-8086436D02*
X3417443Y-8067388D01*
X3417443Y-8067388D02*
X3407920Y-8029293D01*
X3407920Y-8029293D02*
X3407920Y-7981674D01*
X3407920Y-7981674D02*
X3417443Y-7943579D01*
X3417443Y-7943579D02*
X3426967Y-7924531D01*
X3426967Y-7924531D02*
X3436491Y-7915008D01*
X3436491Y-7915008D02*
X3455539Y-7905484D01*
X3607920Y-8105484D02*
X3607920Y-7972150D01*
X3607920Y-7991198D02*
X3617443Y-7981674D01*
X3617443Y-7981674D02*
X3636491Y-7972150D01*
X3636491Y-7972150D02*
X3665063Y-7972150D01*
X3665063Y-7972150D02*
X3684110Y-7981674D01*
X3684110Y-7981674D02*
X3693634Y-8000722D01*
X3693634Y-8000722D02*
X3693634Y-8105484D01*
X3693634Y-8000722D02*
X3703158Y-7981674D01*
X3703158Y-7981674D02*
X3722205Y-7972150D01*
X3722205Y-7972150D02*
X3750777Y-7972150D01*
X3750777Y-7972150D02*
X3769824Y-7981674D01*
X3769824Y-7981674D02*
X3779348Y-8000722D01*
X3779348Y-8000722D02*
X3779348Y-8105484D01*
X3874586Y-8105484D02*
X3874586Y-7972150D01*
X3874586Y-7991198D02*
X3884110Y-7981674D01*
X3884110Y-7981674D02*
X3903158Y-7972150D01*
X3903158Y-7972150D02*
X3931729Y-7972150D01*
X3931729Y-7972150D02*
X3950777Y-7981674D01*
X3950777Y-7981674D02*
X3960301Y-8000722D01*
X3960301Y-8000722D02*
X3960301Y-8105484D01*
X3960301Y-8000722D02*
X3969824Y-7981674D01*
X3969824Y-7981674D02*
X3988872Y-7972150D01*
X3988872Y-7972150D02*
X4017443Y-7972150D01*
X4017443Y-7972150D02*
X4036491Y-7981674D01*
X4036491Y-7981674D02*
X4046015Y-8000722D01*
X4046015Y-8000722D02*
X4046015Y-8105484D01*
X4436491Y-7895960D02*
X4265063Y-8153103D01*
X4693634Y-7905484D02*
X4712682Y-7905484D01*
X4712682Y-7905484D02*
X4731729Y-7915008D01*
X4731729Y-7915008D02*
X4741253Y-7924531D01*
X4741253Y-7924531D02*
X4750777Y-7943579D01*
X4750777Y-7943579D02*
X4760301Y-7981674D01*
X4760301Y-7981674D02*
X4760301Y-8029293D01*
X4760301Y-8029293D02*
X4750777Y-8067388D01*
X4750777Y-8067388D02*
X4741253Y-8086436D01*
X4741253Y-8086436D02*
X4731729Y-8095960D01*
X4731729Y-8095960D02*
X4712682Y-8105484D01*
X4712682Y-8105484D02*
X4693634Y-8105484D01*
X4693634Y-8105484D02*
X4674587Y-8095960D01*
X4674587Y-8095960D02*
X4665063Y-8086436D01*
X4665063Y-8086436D02*
X4655539Y-8067388D01*
X4655539Y-8067388D02*
X4646015Y-8029293D01*
X4646015Y-8029293D02*
X4646015Y-7981674D01*
X4646015Y-7981674D02*
X4655539Y-7943579D01*
X4655539Y-7943579D02*
X4665063Y-7924531D01*
X4665063Y-7924531D02*
X4674587Y-7915008D01*
X4674587Y-7915008D02*
X4693634Y-7905484D01*
X4846015Y-8086436D02*
X4855539Y-8095960D01*
X4855539Y-8095960D02*
X4846015Y-8105484D01*
X4846015Y-8105484D02*
X4836491Y-8095960D01*
X4836491Y-8095960D02*
X4846015Y-8086436D01*
X4846015Y-8086436D02*
X4846015Y-8105484D01*
X4979348Y-7905484D02*
X4998396Y-7905484D01*
X4998396Y-7905484D02*
X5017444Y-7915008D01*
X5017444Y-7915008D02*
X5026968Y-7924531D01*
X5026968Y-7924531D02*
X5036491Y-7943579D01*
X5036491Y-7943579D02*
X5046015Y-7981674D01*
X5046015Y-7981674D02*
X5046015Y-8029293D01*
X5046015Y-8029293D02*
X5036491Y-8067388D01*
X5036491Y-8067388D02*
X5026968Y-8086436D01*
X5026968Y-8086436D02*
X5017444Y-8095960D01*
X5017444Y-8095960D02*
X4998396Y-8105484D01*
X4998396Y-8105484D02*
X4979348Y-8105484D01*
X4979348Y-8105484D02*
X4960301Y-8095960D01*
X4960301Y-8095960D02*
X4950777Y-8086436D01*
X4950777Y-8086436D02*
X4941253Y-8067388D01*
X4941253Y-8067388D02*
X4931729Y-8029293D01*
X4931729Y-8029293D02*
X4931729Y-7981674D01*
X4931729Y-7981674D02*
X4941253Y-7943579D01*
X4941253Y-7943579D02*
X4950777Y-7924531D01*
X4950777Y-7924531D02*
X4960301Y-7915008D01*
X4960301Y-7915008D02*
X4979348Y-7905484D01*
X5112682Y-7905484D02*
X5236491Y-7905484D01*
X5236491Y-7905484D02*
X5169825Y-7981674D01*
X5169825Y-7981674D02*
X5198396Y-7981674D01*
X5198396Y-7981674D02*
X5217444Y-7991198D01*
X5217444Y-7991198D02*
X5226968Y-8000722D01*
X5226968Y-8000722D02*
X5236491Y-8019769D01*
X5236491Y-8019769D02*
X5236491Y-8067388D01*
X5236491Y-8067388D02*
X5226968Y-8086436D01*
X5226968Y-8086436D02*
X5217444Y-8095960D01*
X5217444Y-8095960D02*
X5198396Y-8105484D01*
X5198396Y-8105484D02*
X5141253Y-8105484D01*
X5141253Y-8105484D02*
X5122206Y-8095960D01*
X5122206Y-8095960D02*
X5112682Y-8086436D01*
X5426968Y-8105484D02*
X5312682Y-8105484D01*
X5369825Y-8105484D02*
X5369825Y-7905484D01*
X5369825Y-7905484D02*
X5350777Y-7934055D01*
X5350777Y-7934055D02*
X5331729Y-7953103D01*
X5331729Y-7953103D02*
X5312682Y-7962627D01*
X5607920Y-7905484D02*
X5512682Y-7905484D01*
X5512682Y-7905484D02*
X5503158Y-8000722D01*
X5503158Y-8000722D02*
X5512682Y-7991198D01*
X5512682Y-7991198D02*
X5531729Y-7981674D01*
X5531729Y-7981674D02*
X5579349Y-7981674D01*
X5579349Y-7981674D02*
X5598396Y-7991198D01*
X5598396Y-7991198D02*
X5607920Y-8000722D01*
X5607920Y-8000722D02*
X5617444Y-8019769D01*
X5617444Y-8019769D02*
X5617444Y-8067388D01*
X5617444Y-8067388D02*
X5607920Y-8086436D01*
X5607920Y-8086436D02*
X5598396Y-8095960D01*
X5598396Y-8095960D02*
X5579349Y-8105484D01*
X5579349Y-8105484D02*
X5531729Y-8105484D01*
X5531729Y-8105484D02*
X5512682Y-8095960D01*
X5512682Y-8095960D02*
X5503158Y-8086436D01*
X5693634Y-7905484D02*
X5693634Y-7943579D01*
X5769825Y-7905484D02*
X5769825Y-7943579D01*
X6065063Y-8181674D02*
X6055539Y-8172150D01*
X6055539Y-8172150D02*
X6036491Y-8143579D01*
X6036491Y-8143579D02*
X6026968Y-8124531D01*
X6026968Y-8124531D02*
X6017444Y-8095960D01*
X6017444Y-8095960D02*
X6007920Y-8048341D01*
X6007920Y-8048341D02*
X6007920Y-8010246D01*
X6007920Y-8010246D02*
X6017444Y-7962627D01*
X6017444Y-7962627D02*
X6026968Y-7934055D01*
X6026968Y-7934055D02*
X6036491Y-7915008D01*
X6036491Y-7915008D02*
X6055539Y-7886436D01*
X6055539Y-7886436D02*
X6065063Y-7876912D01*
X6246015Y-8105484D02*
X6131729Y-8105484D01*
X6188872Y-8105484D02*
X6188872Y-7905484D01*
X6188872Y-7905484D02*
X6169825Y-7934055D01*
X6169825Y-7934055D02*
X6150777Y-7953103D01*
X6150777Y-7953103D02*
X6131729Y-7962627D01*
X6417444Y-7905484D02*
X6379348Y-7905484D01*
X6379348Y-7905484D02*
X6360301Y-7915008D01*
X6360301Y-7915008D02*
X6350777Y-7924531D01*
X6350777Y-7924531D02*
X6331729Y-7953103D01*
X6331729Y-7953103D02*
X6322206Y-7991198D01*
X6322206Y-7991198D02*
X6322206Y-8067388D01*
X6322206Y-8067388D02*
X6331729Y-8086436D01*
X6331729Y-8086436D02*
X6341253Y-8095960D01*
X6341253Y-8095960D02*
X6360301Y-8105484D01*
X6360301Y-8105484D02*
X6398396Y-8105484D01*
X6398396Y-8105484D02*
X6417444Y-8095960D01*
X6417444Y-8095960D02*
X6426968Y-8086436D01*
X6426968Y-8086436D02*
X6436491Y-8067388D01*
X6436491Y-8067388D02*
X6436491Y-8019769D01*
X6436491Y-8019769D02*
X6426968Y-8000722D01*
X6426968Y-8000722D02*
X6417444Y-7991198D01*
X6417444Y-7991198D02*
X6398396Y-7981674D01*
X6398396Y-7981674D02*
X6360301Y-7981674D01*
X6360301Y-7981674D02*
X6341253Y-7991198D01*
X6341253Y-7991198D02*
X6331729Y-8000722D01*
X6331729Y-8000722D02*
X6322206Y-8019769D01*
X6674587Y-8105484D02*
X6674587Y-7905484D01*
X6760301Y-8105484D02*
X6760301Y-8000722D01*
X6760301Y-8000722D02*
X6750777Y-7981674D01*
X6750777Y-7981674D02*
X6731730Y-7972150D01*
X6731730Y-7972150D02*
X6703158Y-7972150D01*
X6703158Y-7972150D02*
X6684110Y-7981674D01*
X6684110Y-7981674D02*
X6674587Y-7991198D01*
X6884110Y-8105484D02*
X6865063Y-8095960D01*
X6865063Y-8095960D02*
X6855539Y-8086436D01*
X6855539Y-8086436D02*
X6846015Y-8067388D01*
X6846015Y-8067388D02*
X6846015Y-8010246D01*
X6846015Y-8010246D02*
X6855539Y-7991198D01*
X6855539Y-7991198D02*
X6865063Y-7981674D01*
X6865063Y-7981674D02*
X6884110Y-7972150D01*
X6884110Y-7972150D02*
X6912682Y-7972150D01*
X6912682Y-7972150D02*
X6931730Y-7981674D01*
X6931730Y-7981674D02*
X6941253Y-7991198D01*
X6941253Y-7991198D02*
X6950777Y-8010246D01*
X6950777Y-8010246D02*
X6950777Y-8067388D01*
X6950777Y-8067388D02*
X6941253Y-8086436D01*
X6941253Y-8086436D02*
X6931730Y-8095960D01*
X6931730Y-8095960D02*
X6912682Y-8105484D01*
X6912682Y-8105484D02*
X6884110Y-8105484D01*
X7065063Y-8105484D02*
X7046015Y-8095960D01*
X7046015Y-8095960D02*
X7036491Y-8076912D01*
X7036491Y-8076912D02*
X7036491Y-7905484D01*
X7217444Y-8095960D02*
X7198396Y-8105484D01*
X7198396Y-8105484D02*
X7160301Y-8105484D01*
X7160301Y-8105484D02*
X7141253Y-8095960D01*
X7141253Y-8095960D02*
X7131730Y-8076912D01*
X7131730Y-8076912D02*
X7131730Y-8000722D01*
X7131730Y-8000722D02*
X7141253Y-7981674D01*
X7141253Y-7981674D02*
X7160301Y-7972150D01*
X7160301Y-7972150D02*
X7198396Y-7972150D01*
X7198396Y-7972150D02*
X7217444Y-7981674D01*
X7217444Y-7981674D02*
X7226968Y-8000722D01*
X7226968Y-8000722D02*
X7226968Y-8019769D01*
X7226968Y-8019769D02*
X7131730Y-8038817D01*
X7303158Y-8095960D02*
X7322206Y-8105484D01*
X7322206Y-8105484D02*
X7360301Y-8105484D01*
X7360301Y-8105484D02*
X7379349Y-8095960D01*
X7379349Y-8095960D02*
X7388872Y-8076912D01*
X7388872Y-8076912D02*
X7388872Y-8067388D01*
X7388872Y-8067388D02*
X7379349Y-8048341D01*
X7379349Y-8048341D02*
X7360301Y-8038817D01*
X7360301Y-8038817D02*
X7331730Y-8038817D01*
X7331730Y-8038817D02*
X7312682Y-8029293D01*
X7312682Y-8029293D02*
X7303158Y-8010246D01*
X7303158Y-8010246D02*
X7303158Y-8000722D01*
X7303158Y-8000722D02*
X7312682Y-7981674D01*
X7312682Y-7981674D02*
X7331730Y-7972150D01*
X7331730Y-7972150D02*
X7360301Y-7972150D01*
X7360301Y-7972150D02*
X7379349Y-7981674D01*
X7455539Y-8181674D02*
X7465063Y-8172150D01*
X7465063Y-8172150D02*
X7484111Y-8143579D01*
X7484111Y-8143579D02*
X7493634Y-8124531D01*
X7493634Y-8124531D02*
X7503158Y-8095960D01*
X7503158Y-8095960D02*
X7512682Y-8048341D01*
X7512682Y-8048341D02*
X7512682Y-8010246D01*
X7512682Y-8010246D02*
X7503158Y-7962627D01*
X7503158Y-7962627D02*
X7493634Y-7934055D01*
X7493634Y-7934055D02*
X7484111Y-7915008D01*
X7484111Y-7915008D02*
X7465063Y-7886436D01*
X7465063Y-7886436D02*
X7455539Y-7876912D01*
D12*
X2442500Y-8230500D02*
X2442500Y-8325500D01*
X2395000Y-8278000D02*
X2490000Y-8278000D01*
D11*
X2788872Y-8169484D02*
X2807920Y-8169484D01*
X2807920Y-8169484D02*
X2826967Y-8179008D01*
X2826967Y-8179008D02*
X2836491Y-8188531D01*
X2836491Y-8188531D02*
X2846015Y-8207579D01*
X2846015Y-8207579D02*
X2855539Y-8245674D01*
X2855539Y-8245674D02*
X2855539Y-8293293D01*
X2855539Y-8293293D02*
X2846015Y-8331388D01*
X2846015Y-8331388D02*
X2836491Y-8350436D01*
X2836491Y-8350436D02*
X2826967Y-8359960D01*
X2826967Y-8359960D02*
X2807920Y-8369484D01*
X2807920Y-8369484D02*
X2788872Y-8369484D01*
X2788872Y-8369484D02*
X2769824Y-8359960D01*
X2769824Y-8359960D02*
X2760301Y-8350436D01*
X2760301Y-8350436D02*
X2750777Y-8331388D01*
X2750777Y-8331388D02*
X2741253Y-8293293D01*
X2741253Y-8293293D02*
X2741253Y-8245674D01*
X2741253Y-8245674D02*
X2750777Y-8207579D01*
X2750777Y-8207579D02*
X2760301Y-8188531D01*
X2760301Y-8188531D02*
X2769824Y-8179008D01*
X2769824Y-8179008D02*
X2788872Y-8169484D01*
X2941253Y-8350436D02*
X2950777Y-8359960D01*
X2950777Y-8359960D02*
X2941253Y-8369484D01*
X2941253Y-8369484D02*
X2931729Y-8359960D01*
X2931729Y-8359960D02*
X2941253Y-8350436D01*
X2941253Y-8350436D02*
X2941253Y-8369484D01*
X3046015Y-8369484D02*
X3084110Y-8369484D01*
X3084110Y-8369484D02*
X3103158Y-8359960D01*
X3103158Y-8359960D02*
X3112682Y-8350436D01*
X3112682Y-8350436D02*
X3131729Y-8321865D01*
X3131729Y-8321865D02*
X3141253Y-8283769D01*
X3141253Y-8283769D02*
X3141253Y-8207579D01*
X3141253Y-8207579D02*
X3131729Y-8188531D01*
X3131729Y-8188531D02*
X3122205Y-8179008D01*
X3122205Y-8179008D02*
X3103158Y-8169484D01*
X3103158Y-8169484D02*
X3065062Y-8169484D01*
X3065062Y-8169484D02*
X3046015Y-8179008D01*
X3046015Y-8179008D02*
X3036491Y-8188531D01*
X3036491Y-8188531D02*
X3026967Y-8207579D01*
X3026967Y-8207579D02*
X3026967Y-8255198D01*
X3026967Y-8255198D02*
X3036491Y-8274246D01*
X3036491Y-8274246D02*
X3046015Y-8283769D01*
X3046015Y-8283769D02*
X3065062Y-8293293D01*
X3065062Y-8293293D02*
X3103158Y-8293293D01*
X3103158Y-8293293D02*
X3122205Y-8283769D01*
X3122205Y-8283769D02*
X3131729Y-8274246D01*
X3131729Y-8274246D02*
X3141253Y-8255198D01*
X3322205Y-8169484D02*
X3226967Y-8169484D01*
X3226967Y-8169484D02*
X3217443Y-8264722D01*
X3217443Y-8264722D02*
X3226967Y-8255198D01*
X3226967Y-8255198D02*
X3246015Y-8245674D01*
X3246015Y-8245674D02*
X3293634Y-8245674D01*
X3293634Y-8245674D02*
X3312682Y-8255198D01*
X3312682Y-8255198D02*
X3322205Y-8264722D01*
X3322205Y-8264722D02*
X3331729Y-8283769D01*
X3331729Y-8283769D02*
X3331729Y-8331388D01*
X3331729Y-8331388D02*
X3322205Y-8350436D01*
X3322205Y-8350436D02*
X3312682Y-8359960D01*
X3312682Y-8359960D02*
X3293634Y-8369484D01*
X3293634Y-8369484D02*
X3246015Y-8369484D01*
X3246015Y-8369484D02*
X3226967Y-8359960D01*
X3226967Y-8359960D02*
X3217443Y-8350436D01*
X3455539Y-8169484D02*
X3474586Y-8169484D01*
X3474586Y-8169484D02*
X3493634Y-8179008D01*
X3493634Y-8179008D02*
X3503158Y-8188531D01*
X3503158Y-8188531D02*
X3512682Y-8207579D01*
X3512682Y-8207579D02*
X3522205Y-8245674D01*
X3522205Y-8245674D02*
X3522205Y-8293293D01*
X3522205Y-8293293D02*
X3512682Y-8331388D01*
X3512682Y-8331388D02*
X3503158Y-8350436D01*
X3503158Y-8350436D02*
X3493634Y-8359960D01*
X3493634Y-8359960D02*
X3474586Y-8369484D01*
X3474586Y-8369484D02*
X3455539Y-8369484D01*
X3455539Y-8369484D02*
X3436491Y-8359960D01*
X3436491Y-8359960D02*
X3426967Y-8350436D01*
X3426967Y-8350436D02*
X3417443Y-8331388D01*
X3417443Y-8331388D02*
X3407920Y-8293293D01*
X3407920Y-8293293D02*
X3407920Y-8245674D01*
X3407920Y-8245674D02*
X3417443Y-8207579D01*
X3417443Y-8207579D02*
X3426967Y-8188531D01*
X3426967Y-8188531D02*
X3436491Y-8179008D01*
X3436491Y-8179008D02*
X3455539Y-8169484D01*
X3607920Y-8369484D02*
X3607920Y-8236150D01*
X3607920Y-8255198D02*
X3617443Y-8245674D01*
X3617443Y-8245674D02*
X3636491Y-8236150D01*
X3636491Y-8236150D02*
X3665063Y-8236150D01*
X3665063Y-8236150D02*
X3684110Y-8245674D01*
X3684110Y-8245674D02*
X3693634Y-8264722D01*
X3693634Y-8264722D02*
X3693634Y-8369484D01*
X3693634Y-8264722D02*
X3703158Y-8245674D01*
X3703158Y-8245674D02*
X3722205Y-8236150D01*
X3722205Y-8236150D02*
X3750777Y-8236150D01*
X3750777Y-8236150D02*
X3769824Y-8245674D01*
X3769824Y-8245674D02*
X3779348Y-8264722D01*
X3779348Y-8264722D02*
X3779348Y-8369484D01*
X3874586Y-8369484D02*
X3874586Y-8236150D01*
X3874586Y-8255198D02*
X3884110Y-8245674D01*
X3884110Y-8245674D02*
X3903158Y-8236150D01*
X3903158Y-8236150D02*
X3931729Y-8236150D01*
X3931729Y-8236150D02*
X3950777Y-8245674D01*
X3950777Y-8245674D02*
X3960301Y-8264722D01*
X3960301Y-8264722D02*
X3960301Y-8369484D01*
X3960301Y-8264722D02*
X3969824Y-8245674D01*
X3969824Y-8245674D02*
X3988872Y-8236150D01*
X3988872Y-8236150D02*
X4017443Y-8236150D01*
X4017443Y-8236150D02*
X4036491Y-8245674D01*
X4036491Y-8245674D02*
X4046015Y-8264722D01*
X4046015Y-8264722D02*
X4046015Y-8369484D01*
X4436491Y-8159960D02*
X4265063Y-8417103D01*
X4693634Y-8169484D02*
X4712682Y-8169484D01*
X4712682Y-8169484D02*
X4731729Y-8179008D01*
X4731729Y-8179008D02*
X4741253Y-8188531D01*
X4741253Y-8188531D02*
X4750777Y-8207579D01*
X4750777Y-8207579D02*
X4760301Y-8245674D01*
X4760301Y-8245674D02*
X4760301Y-8293293D01*
X4760301Y-8293293D02*
X4750777Y-8331388D01*
X4750777Y-8331388D02*
X4741253Y-8350436D01*
X4741253Y-8350436D02*
X4731729Y-8359960D01*
X4731729Y-8359960D02*
X4712682Y-8369484D01*
X4712682Y-8369484D02*
X4693634Y-8369484D01*
X4693634Y-8369484D02*
X4674587Y-8359960D01*
X4674587Y-8359960D02*
X4665063Y-8350436D01*
X4665063Y-8350436D02*
X4655539Y-8331388D01*
X4655539Y-8331388D02*
X4646015Y-8293293D01*
X4646015Y-8293293D02*
X4646015Y-8245674D01*
X4646015Y-8245674D02*
X4655539Y-8207579D01*
X4655539Y-8207579D02*
X4665063Y-8188531D01*
X4665063Y-8188531D02*
X4674587Y-8179008D01*
X4674587Y-8179008D02*
X4693634Y-8169484D01*
X4846015Y-8350436D02*
X4855539Y-8359960D01*
X4855539Y-8359960D02*
X4846015Y-8369484D01*
X4846015Y-8369484D02*
X4836491Y-8359960D01*
X4836491Y-8359960D02*
X4846015Y-8350436D01*
X4846015Y-8350436D02*
X4846015Y-8369484D01*
X4979348Y-8169484D02*
X4998396Y-8169484D01*
X4998396Y-8169484D02*
X5017444Y-8179008D01*
X5017444Y-8179008D02*
X5026968Y-8188531D01*
X5026968Y-8188531D02*
X5036491Y-8207579D01*
X5036491Y-8207579D02*
X5046015Y-8245674D01*
X5046015Y-8245674D02*
X5046015Y-8293293D01*
X5046015Y-8293293D02*
X5036491Y-8331388D01*
X5036491Y-8331388D02*
X5026968Y-8350436D01*
X5026968Y-8350436D02*
X5017444Y-8359960D01*
X5017444Y-8359960D02*
X4998396Y-8369484D01*
X4998396Y-8369484D02*
X4979348Y-8369484D01*
X4979348Y-8369484D02*
X4960301Y-8359960D01*
X4960301Y-8359960D02*
X4950777Y-8350436D01*
X4950777Y-8350436D02*
X4941253Y-8331388D01*
X4941253Y-8331388D02*
X4931729Y-8293293D01*
X4931729Y-8293293D02*
X4931729Y-8245674D01*
X4931729Y-8245674D02*
X4941253Y-8207579D01*
X4941253Y-8207579D02*
X4950777Y-8188531D01*
X4950777Y-8188531D02*
X4960301Y-8179008D01*
X4960301Y-8179008D02*
X4979348Y-8169484D01*
X5112682Y-8169484D02*
X5236491Y-8169484D01*
X5236491Y-8169484D02*
X5169825Y-8245674D01*
X5169825Y-8245674D02*
X5198396Y-8245674D01*
X5198396Y-8245674D02*
X5217444Y-8255198D01*
X5217444Y-8255198D02*
X5226968Y-8264722D01*
X5226968Y-8264722D02*
X5236491Y-8283769D01*
X5236491Y-8283769D02*
X5236491Y-8331388D01*
X5236491Y-8331388D02*
X5226968Y-8350436D01*
X5226968Y-8350436D02*
X5217444Y-8359960D01*
X5217444Y-8359960D02*
X5198396Y-8369484D01*
X5198396Y-8369484D02*
X5141253Y-8369484D01*
X5141253Y-8369484D02*
X5122206Y-8359960D01*
X5122206Y-8359960D02*
X5112682Y-8350436D01*
X5303158Y-8169484D02*
X5436491Y-8169484D01*
X5436491Y-8169484D02*
X5350777Y-8369484D01*
X5598396Y-8236150D02*
X5598396Y-8369484D01*
X5550777Y-8159960D02*
X5503158Y-8302817D01*
X5503158Y-8302817D02*
X5626967Y-8302817D01*
X5693634Y-8169484D02*
X5693634Y-8207579D01*
X5769825Y-8169484D02*
X5769825Y-8207579D01*
X6065063Y-8445674D02*
X6055539Y-8436150D01*
X6055539Y-8436150D02*
X6036491Y-8407579D01*
X6036491Y-8407579D02*
X6026968Y-8388531D01*
X6026968Y-8388531D02*
X6017444Y-8359960D01*
X6017444Y-8359960D02*
X6007920Y-8312341D01*
X6007920Y-8312341D02*
X6007920Y-8274246D01*
X6007920Y-8274246D02*
X6017444Y-8226627D01*
X6017444Y-8226627D02*
X6026968Y-8198055D01*
X6026968Y-8198055D02*
X6036491Y-8179008D01*
X6036491Y-8179008D02*
X6055539Y-8150436D01*
X6055539Y-8150436D02*
X6065063Y-8140912D01*
X6226968Y-8169484D02*
X6188872Y-8169484D01*
X6188872Y-8169484D02*
X6169825Y-8179008D01*
X6169825Y-8179008D02*
X6160301Y-8188531D01*
X6160301Y-8188531D02*
X6141253Y-8217103D01*
X6141253Y-8217103D02*
X6131729Y-8255198D01*
X6131729Y-8255198D02*
X6131729Y-8331388D01*
X6131729Y-8331388D02*
X6141253Y-8350436D01*
X6141253Y-8350436D02*
X6150777Y-8359960D01*
X6150777Y-8359960D02*
X6169825Y-8369484D01*
X6169825Y-8369484D02*
X6207920Y-8369484D01*
X6207920Y-8369484D02*
X6226968Y-8359960D01*
X6226968Y-8359960D02*
X6236491Y-8350436D01*
X6236491Y-8350436D02*
X6246015Y-8331388D01*
X6246015Y-8331388D02*
X6246015Y-8283769D01*
X6246015Y-8283769D02*
X6236491Y-8264722D01*
X6236491Y-8264722D02*
X6226968Y-8255198D01*
X6226968Y-8255198D02*
X6207920Y-8245674D01*
X6207920Y-8245674D02*
X6169825Y-8245674D01*
X6169825Y-8245674D02*
X6150777Y-8255198D01*
X6150777Y-8255198D02*
X6141253Y-8264722D01*
X6141253Y-8264722D02*
X6131729Y-8283769D01*
X6484110Y-8369484D02*
X6484110Y-8169484D01*
X6569825Y-8369484D02*
X6569825Y-8264722D01*
X6569825Y-8264722D02*
X6560301Y-8245674D01*
X6560301Y-8245674D02*
X6541253Y-8236150D01*
X6541253Y-8236150D02*
X6512682Y-8236150D01*
X6512682Y-8236150D02*
X6493634Y-8245674D01*
X6493634Y-8245674D02*
X6484110Y-8255198D01*
X6693634Y-8369484D02*
X6674587Y-8359960D01*
X6674587Y-8359960D02*
X6665063Y-8350436D01*
X6665063Y-8350436D02*
X6655539Y-8331388D01*
X6655539Y-8331388D02*
X6655539Y-8274246D01*
X6655539Y-8274246D02*
X6665063Y-8255198D01*
X6665063Y-8255198D02*
X6674587Y-8245674D01*
X6674587Y-8245674D02*
X6693634Y-8236150D01*
X6693634Y-8236150D02*
X6722206Y-8236150D01*
X6722206Y-8236150D02*
X6741253Y-8245674D01*
X6741253Y-8245674D02*
X6750777Y-8255198D01*
X6750777Y-8255198D02*
X6760301Y-8274246D01*
X6760301Y-8274246D02*
X6760301Y-8331388D01*
X6760301Y-8331388D02*
X6750777Y-8350436D01*
X6750777Y-8350436D02*
X6741253Y-8359960D01*
X6741253Y-8359960D02*
X6722206Y-8369484D01*
X6722206Y-8369484D02*
X6693634Y-8369484D01*
X6874587Y-8369484D02*
X6855539Y-8359960D01*
X6855539Y-8359960D02*
X6846015Y-8340912D01*
X6846015Y-8340912D02*
X6846015Y-8169484D01*
X7026968Y-8359960D02*
X7007920Y-8369484D01*
X7007920Y-8369484D02*
X6969825Y-8369484D01*
X6969825Y-8369484D02*
X6950777Y-8359960D01*
X6950777Y-8359960D02*
X6941253Y-8340912D01*
X6941253Y-8340912D02*
X6941253Y-8264722D01*
X6941253Y-8264722D02*
X6950777Y-8245674D01*
X6950777Y-8245674D02*
X6969825Y-8236150D01*
X6969825Y-8236150D02*
X7007920Y-8236150D01*
X7007920Y-8236150D02*
X7026968Y-8245674D01*
X7026968Y-8245674D02*
X7036491Y-8264722D01*
X7036491Y-8264722D02*
X7036491Y-8283769D01*
X7036491Y-8283769D02*
X6941253Y-8302817D01*
X7112682Y-8359960D02*
X7131730Y-8369484D01*
X7131730Y-8369484D02*
X7169825Y-8369484D01*
X7169825Y-8369484D02*
X7188872Y-8359960D01*
X7188872Y-8359960D02*
X7198396Y-8340912D01*
X7198396Y-8340912D02*
X7198396Y-8331388D01*
X7198396Y-8331388D02*
X7188872Y-8312341D01*
X7188872Y-8312341D02*
X7169825Y-8302817D01*
X7169825Y-8302817D02*
X7141253Y-8302817D01*
X7141253Y-8302817D02*
X7122206Y-8293293D01*
X7122206Y-8293293D02*
X7112682Y-8274246D01*
X7112682Y-8274246D02*
X7112682Y-8264722D01*
X7112682Y-8264722D02*
X7122206Y-8245674D01*
X7122206Y-8245674D02*
X7141253Y-8236150D01*
X7141253Y-8236150D02*
X7169825Y-8236150D01*
X7169825Y-8236150D02*
X7188872Y-8245674D01*
X7265063Y-8445674D02*
X7274587Y-8436150D01*
X7274587Y-8436150D02*
X7293634Y-8407579D01*
X7293634Y-8407579D02*
X7303158Y-8388531D01*
X7303158Y-8388531D02*
X7312682Y-8359960D01*
X7312682Y-8359960D02*
X7322206Y-8312341D01*
X7322206Y-8312341D02*
X7322206Y-8274246D01*
X7322206Y-8274246D02*
X7312682Y-8226627D01*
X7312682Y-8226627D02*
X7303158Y-8198055D01*
X7303158Y-8198055D02*
X7293634Y-8179008D01*
X7293634Y-8179008D02*
X7274587Y-8150436D01*
X7274587Y-8150436D02*
X7265063Y-8140912D01*
D12*
X2475356Y-8577356D02*
X2475356Y-8506644D01*
X2404644Y-8506644D01*
X2404644Y-8577356D01*
X2475356Y-8577356D01*
D11*
X2855539Y-8633484D02*
X2741253Y-8633484D01*
X2798396Y-8633484D02*
X2798396Y-8433484D01*
X2798396Y-8433484D02*
X2779348Y-8462055D01*
X2779348Y-8462055D02*
X2760301Y-8481103D01*
X2760301Y-8481103D02*
X2741253Y-8490627D01*
X2941253Y-8614436D02*
X2950777Y-8623960D01*
X2950777Y-8623960D02*
X2941253Y-8633484D01*
X2941253Y-8633484D02*
X2931729Y-8623960D01*
X2931729Y-8623960D02*
X2941253Y-8614436D01*
X2941253Y-8614436D02*
X2941253Y-8633484D01*
X3074586Y-8433484D02*
X3093634Y-8433484D01*
X3093634Y-8433484D02*
X3112682Y-8443008D01*
X3112682Y-8443008D02*
X3122205Y-8452531D01*
X3122205Y-8452531D02*
X3131729Y-8471579D01*
X3131729Y-8471579D02*
X3141253Y-8509674D01*
X3141253Y-8509674D02*
X3141253Y-8557293D01*
X3141253Y-8557293D02*
X3131729Y-8595389D01*
X3131729Y-8595389D02*
X3122205Y-8614436D01*
X3122205Y-8614436D02*
X3112682Y-8623960D01*
X3112682Y-8623960D02*
X3093634Y-8633484D01*
X3093634Y-8633484D02*
X3074586Y-8633484D01*
X3074586Y-8633484D02*
X3055539Y-8623960D01*
X3055539Y-8623960D02*
X3046015Y-8614436D01*
X3046015Y-8614436D02*
X3036491Y-8595389D01*
X3036491Y-8595389D02*
X3026967Y-8557293D01*
X3026967Y-8557293D02*
X3026967Y-8509674D01*
X3026967Y-8509674D02*
X3036491Y-8471579D01*
X3036491Y-8471579D02*
X3046015Y-8452531D01*
X3046015Y-8452531D02*
X3055539Y-8443008D01*
X3055539Y-8443008D02*
X3074586Y-8433484D01*
X3265062Y-8433484D02*
X3284110Y-8433484D01*
X3284110Y-8433484D02*
X3303158Y-8443008D01*
X3303158Y-8443008D02*
X3312682Y-8452531D01*
X3312682Y-8452531D02*
X3322205Y-8471579D01*
X3322205Y-8471579D02*
X3331729Y-8509674D01*
X3331729Y-8509674D02*
X3331729Y-8557293D01*
X3331729Y-8557293D02*
X3322205Y-8595389D01*
X3322205Y-8595389D02*
X3312682Y-8614436D01*
X3312682Y-8614436D02*
X3303158Y-8623960D01*
X3303158Y-8623960D02*
X3284110Y-8633484D01*
X3284110Y-8633484D02*
X3265062Y-8633484D01*
X3265062Y-8633484D02*
X3246015Y-8623960D01*
X3246015Y-8623960D02*
X3236491Y-8614436D01*
X3236491Y-8614436D02*
X3226967Y-8595389D01*
X3226967Y-8595389D02*
X3217443Y-8557293D01*
X3217443Y-8557293D02*
X3217443Y-8509674D01*
X3217443Y-8509674D02*
X3226967Y-8471579D01*
X3226967Y-8471579D02*
X3236491Y-8452531D01*
X3236491Y-8452531D02*
X3246015Y-8443008D01*
X3246015Y-8443008D02*
X3265062Y-8433484D01*
X3455539Y-8433484D02*
X3474586Y-8433484D01*
X3474586Y-8433484D02*
X3493634Y-8443008D01*
X3493634Y-8443008D02*
X3503158Y-8452531D01*
X3503158Y-8452531D02*
X3512682Y-8471579D01*
X3512682Y-8471579D02*
X3522205Y-8509674D01*
X3522205Y-8509674D02*
X3522205Y-8557293D01*
X3522205Y-8557293D02*
X3512682Y-8595389D01*
X3512682Y-8595389D02*
X3503158Y-8614436D01*
X3503158Y-8614436D02*
X3493634Y-8623960D01*
X3493634Y-8623960D02*
X3474586Y-8633484D01*
X3474586Y-8633484D02*
X3455539Y-8633484D01*
X3455539Y-8633484D02*
X3436491Y-8623960D01*
X3436491Y-8623960D02*
X3426967Y-8614436D01*
X3426967Y-8614436D02*
X3417443Y-8595389D01*
X3417443Y-8595389D02*
X3407920Y-8557293D01*
X3407920Y-8557293D02*
X3407920Y-8509674D01*
X3407920Y-8509674D02*
X3417443Y-8471579D01*
X3417443Y-8471579D02*
X3426967Y-8452531D01*
X3426967Y-8452531D02*
X3436491Y-8443008D01*
X3436491Y-8443008D02*
X3455539Y-8433484D01*
X3607920Y-8633484D02*
X3607920Y-8500150D01*
X3607920Y-8519198D02*
X3617443Y-8509674D01*
X3617443Y-8509674D02*
X3636491Y-8500150D01*
X3636491Y-8500150D02*
X3665063Y-8500150D01*
X3665063Y-8500150D02*
X3684110Y-8509674D01*
X3684110Y-8509674D02*
X3693634Y-8528722D01*
X3693634Y-8528722D02*
X3693634Y-8633484D01*
X3693634Y-8528722D02*
X3703158Y-8509674D01*
X3703158Y-8509674D02*
X3722205Y-8500150D01*
X3722205Y-8500150D02*
X3750777Y-8500150D01*
X3750777Y-8500150D02*
X3769824Y-8509674D01*
X3769824Y-8509674D02*
X3779348Y-8528722D01*
X3779348Y-8528722D02*
X3779348Y-8633484D01*
X3874586Y-8633484D02*
X3874586Y-8500150D01*
X3874586Y-8519198D02*
X3884110Y-8509674D01*
X3884110Y-8509674D02*
X3903158Y-8500150D01*
X3903158Y-8500150D02*
X3931729Y-8500150D01*
X3931729Y-8500150D02*
X3950777Y-8509674D01*
X3950777Y-8509674D02*
X3960301Y-8528722D01*
X3960301Y-8528722D02*
X3960301Y-8633484D01*
X3960301Y-8528722D02*
X3969824Y-8509674D01*
X3969824Y-8509674D02*
X3988872Y-8500150D01*
X3988872Y-8500150D02*
X4017443Y-8500150D01*
X4017443Y-8500150D02*
X4036491Y-8509674D01*
X4036491Y-8509674D02*
X4046015Y-8528722D01*
X4046015Y-8528722D02*
X4046015Y-8633484D01*
X4436491Y-8423960D02*
X4265063Y-8681103D01*
X4693634Y-8433484D02*
X4712682Y-8433484D01*
X4712682Y-8433484D02*
X4731729Y-8443008D01*
X4731729Y-8443008D02*
X4741253Y-8452531D01*
X4741253Y-8452531D02*
X4750777Y-8471579D01*
X4750777Y-8471579D02*
X4760301Y-8509674D01*
X4760301Y-8509674D02*
X4760301Y-8557293D01*
X4760301Y-8557293D02*
X4750777Y-8595389D01*
X4750777Y-8595389D02*
X4741253Y-8614436D01*
X4741253Y-8614436D02*
X4731729Y-8623960D01*
X4731729Y-8623960D02*
X4712682Y-8633484D01*
X4712682Y-8633484D02*
X4693634Y-8633484D01*
X4693634Y-8633484D02*
X4674587Y-8623960D01*
X4674587Y-8623960D02*
X4665063Y-8614436D01*
X4665063Y-8614436D02*
X4655539Y-8595389D01*
X4655539Y-8595389D02*
X4646015Y-8557293D01*
X4646015Y-8557293D02*
X4646015Y-8509674D01*
X4646015Y-8509674D02*
X4655539Y-8471579D01*
X4655539Y-8471579D02*
X4665063Y-8452531D01*
X4665063Y-8452531D02*
X4674587Y-8443008D01*
X4674587Y-8443008D02*
X4693634Y-8433484D01*
X4846015Y-8614436D02*
X4855539Y-8623960D01*
X4855539Y-8623960D02*
X4846015Y-8633484D01*
X4846015Y-8633484D02*
X4836491Y-8623960D01*
X4836491Y-8623960D02*
X4846015Y-8614436D01*
X4846015Y-8614436D02*
X4846015Y-8633484D01*
X4979348Y-8433484D02*
X4998396Y-8433484D01*
X4998396Y-8433484D02*
X5017444Y-8443008D01*
X5017444Y-8443008D02*
X5026968Y-8452531D01*
X5026968Y-8452531D02*
X5036491Y-8471579D01*
X5036491Y-8471579D02*
X5046015Y-8509674D01*
X5046015Y-8509674D02*
X5046015Y-8557293D01*
X5046015Y-8557293D02*
X5036491Y-8595389D01*
X5036491Y-8595389D02*
X5026968Y-8614436D01*
X5026968Y-8614436D02*
X5017444Y-8623960D01*
X5017444Y-8623960D02*
X4998396Y-8633484D01*
X4998396Y-8633484D02*
X4979348Y-8633484D01*
X4979348Y-8633484D02*
X4960301Y-8623960D01*
X4960301Y-8623960D02*
X4950777Y-8614436D01*
X4950777Y-8614436D02*
X4941253Y-8595389D01*
X4941253Y-8595389D02*
X4931729Y-8557293D01*
X4931729Y-8557293D02*
X4931729Y-8509674D01*
X4931729Y-8509674D02*
X4941253Y-8471579D01*
X4941253Y-8471579D02*
X4950777Y-8452531D01*
X4950777Y-8452531D02*
X4960301Y-8443008D01*
X4960301Y-8443008D02*
X4979348Y-8433484D01*
X5112682Y-8433484D02*
X5236491Y-8433484D01*
X5236491Y-8433484D02*
X5169825Y-8509674D01*
X5169825Y-8509674D02*
X5198396Y-8509674D01*
X5198396Y-8509674D02*
X5217444Y-8519198D01*
X5217444Y-8519198D02*
X5226968Y-8528722D01*
X5226968Y-8528722D02*
X5236491Y-8547770D01*
X5236491Y-8547770D02*
X5236491Y-8595389D01*
X5236491Y-8595389D02*
X5226968Y-8614436D01*
X5226968Y-8614436D02*
X5217444Y-8623960D01*
X5217444Y-8623960D02*
X5198396Y-8633484D01*
X5198396Y-8633484D02*
X5141253Y-8633484D01*
X5141253Y-8633484D02*
X5122206Y-8623960D01*
X5122206Y-8623960D02*
X5112682Y-8614436D01*
X5331729Y-8633484D02*
X5369825Y-8633484D01*
X5369825Y-8633484D02*
X5388872Y-8623960D01*
X5388872Y-8623960D02*
X5398396Y-8614436D01*
X5398396Y-8614436D02*
X5417444Y-8585865D01*
X5417444Y-8585865D02*
X5426968Y-8547770D01*
X5426968Y-8547770D02*
X5426968Y-8471579D01*
X5426968Y-8471579D02*
X5417444Y-8452531D01*
X5417444Y-8452531D02*
X5407920Y-8443008D01*
X5407920Y-8443008D02*
X5388872Y-8433484D01*
X5388872Y-8433484D02*
X5350777Y-8433484D01*
X5350777Y-8433484D02*
X5331729Y-8443008D01*
X5331729Y-8443008D02*
X5322206Y-8452531D01*
X5322206Y-8452531D02*
X5312682Y-8471579D01*
X5312682Y-8471579D02*
X5312682Y-8519198D01*
X5312682Y-8519198D02*
X5322206Y-8538246D01*
X5322206Y-8538246D02*
X5331729Y-8547770D01*
X5331729Y-8547770D02*
X5350777Y-8557293D01*
X5350777Y-8557293D02*
X5388872Y-8557293D01*
X5388872Y-8557293D02*
X5407920Y-8547770D01*
X5407920Y-8547770D02*
X5417444Y-8538246D01*
X5417444Y-8538246D02*
X5426968Y-8519198D01*
X5598396Y-8500150D02*
X5598396Y-8633484D01*
X5550777Y-8423960D02*
X5503158Y-8566817D01*
X5503158Y-8566817D02*
X5626967Y-8566817D01*
X5693634Y-8433484D02*
X5693634Y-8471579D01*
X5769825Y-8433484D02*
X5769825Y-8471579D01*
X6065063Y-8709674D02*
X6055539Y-8700150D01*
X6055539Y-8700150D02*
X6036491Y-8671579D01*
X6036491Y-8671579D02*
X6026968Y-8652531D01*
X6026968Y-8652531D02*
X6017444Y-8623960D01*
X6017444Y-8623960D02*
X6007920Y-8576341D01*
X6007920Y-8576341D02*
X6007920Y-8538246D01*
X6007920Y-8538246D02*
X6017444Y-8490627D01*
X6017444Y-8490627D02*
X6026968Y-8462055D01*
X6026968Y-8462055D02*
X6036491Y-8443008D01*
X6036491Y-8443008D02*
X6055539Y-8414436D01*
X6055539Y-8414436D02*
X6065063Y-8404912D01*
X6131729Y-8452531D02*
X6141253Y-8443008D01*
X6141253Y-8443008D02*
X6160301Y-8433484D01*
X6160301Y-8433484D02*
X6207920Y-8433484D01*
X6207920Y-8433484D02*
X6226968Y-8443008D01*
X6226968Y-8443008D02*
X6236491Y-8452531D01*
X6236491Y-8452531D02*
X6246015Y-8471579D01*
X6246015Y-8471579D02*
X6246015Y-8490627D01*
X6246015Y-8490627D02*
X6236491Y-8519198D01*
X6236491Y-8519198D02*
X6122206Y-8633484D01*
X6122206Y-8633484D02*
X6246015Y-8633484D01*
X6322206Y-8452531D02*
X6331729Y-8443008D01*
X6331729Y-8443008D02*
X6350777Y-8433484D01*
X6350777Y-8433484D02*
X6398396Y-8433484D01*
X6398396Y-8433484D02*
X6417444Y-8443008D01*
X6417444Y-8443008D02*
X6426968Y-8452531D01*
X6426968Y-8452531D02*
X6436491Y-8471579D01*
X6436491Y-8471579D02*
X6436491Y-8490627D01*
X6436491Y-8490627D02*
X6426968Y-8519198D01*
X6426968Y-8519198D02*
X6312682Y-8633484D01*
X6312682Y-8633484D02*
X6436491Y-8633484D01*
X6674587Y-8633484D02*
X6674587Y-8433484D01*
X6760301Y-8633484D02*
X6760301Y-8528722D01*
X6760301Y-8528722D02*
X6750777Y-8509674D01*
X6750777Y-8509674D02*
X6731730Y-8500150D01*
X6731730Y-8500150D02*
X6703158Y-8500150D01*
X6703158Y-8500150D02*
X6684110Y-8509674D01*
X6684110Y-8509674D02*
X6674587Y-8519198D01*
X6884110Y-8633484D02*
X6865063Y-8623960D01*
X6865063Y-8623960D02*
X6855539Y-8614436D01*
X6855539Y-8614436D02*
X6846015Y-8595389D01*
X6846015Y-8595389D02*
X6846015Y-8538246D01*
X6846015Y-8538246D02*
X6855539Y-8519198D01*
X6855539Y-8519198D02*
X6865063Y-8509674D01*
X6865063Y-8509674D02*
X6884110Y-8500150D01*
X6884110Y-8500150D02*
X6912682Y-8500150D01*
X6912682Y-8500150D02*
X6931730Y-8509674D01*
X6931730Y-8509674D02*
X6941253Y-8519198D01*
X6941253Y-8519198D02*
X6950777Y-8538246D01*
X6950777Y-8538246D02*
X6950777Y-8595389D01*
X6950777Y-8595389D02*
X6941253Y-8614436D01*
X6941253Y-8614436D02*
X6931730Y-8623960D01*
X6931730Y-8623960D02*
X6912682Y-8633484D01*
X6912682Y-8633484D02*
X6884110Y-8633484D01*
X7065063Y-8633484D02*
X7046015Y-8623960D01*
X7046015Y-8623960D02*
X7036491Y-8604912D01*
X7036491Y-8604912D02*
X7036491Y-8433484D01*
X7217444Y-8623960D02*
X7198396Y-8633484D01*
X7198396Y-8633484D02*
X7160301Y-8633484D01*
X7160301Y-8633484D02*
X7141253Y-8623960D01*
X7141253Y-8623960D02*
X7131730Y-8604912D01*
X7131730Y-8604912D02*
X7131730Y-8528722D01*
X7131730Y-8528722D02*
X7141253Y-8509674D01*
X7141253Y-8509674D02*
X7160301Y-8500150D01*
X7160301Y-8500150D02*
X7198396Y-8500150D01*
X7198396Y-8500150D02*
X7217444Y-8509674D01*
X7217444Y-8509674D02*
X7226968Y-8528722D01*
X7226968Y-8528722D02*
X7226968Y-8547770D01*
X7226968Y-8547770D02*
X7131730Y-8566817D01*
X7303158Y-8623960D02*
X7322206Y-8633484D01*
X7322206Y-8633484D02*
X7360301Y-8633484D01*
X7360301Y-8633484D02*
X7379349Y-8623960D01*
X7379349Y-8623960D02*
X7388872Y-8604912D01*
X7388872Y-8604912D02*
X7388872Y-8595389D01*
X7388872Y-8595389D02*
X7379349Y-8576341D01*
X7379349Y-8576341D02*
X7360301Y-8566817D01*
X7360301Y-8566817D02*
X7331730Y-8566817D01*
X7331730Y-8566817D02*
X7312682Y-8557293D01*
X7312682Y-8557293D02*
X7303158Y-8538246D01*
X7303158Y-8538246D02*
X7303158Y-8528722D01*
X7303158Y-8528722D02*
X7312682Y-8509674D01*
X7312682Y-8509674D02*
X7331730Y-8500150D01*
X7331730Y-8500150D02*
X7360301Y-8500150D01*
X7360301Y-8500150D02*
X7379349Y-8509674D01*
X7455539Y-8709674D02*
X7465063Y-8700150D01*
X7465063Y-8700150D02*
X7484111Y-8671579D01*
X7484111Y-8671579D02*
X7493634Y-8652531D01*
X7493634Y-8652531D02*
X7503158Y-8623960D01*
X7503158Y-8623960D02*
X7512682Y-8576341D01*
X7512682Y-8576341D02*
X7512682Y-8538246D01*
X7512682Y-8538246D02*
X7503158Y-8490627D01*
X7503158Y-8490627D02*
X7493634Y-8462055D01*
X7493634Y-8462055D02*
X7484111Y-8443008D01*
X7484111Y-8443008D02*
X7465063Y-8414436D01*
X7465063Y-8414436D02*
X7455539Y-8404912D01*
D13*
X2414000Y-8882000D02*
X2490000Y-8806000D01*
X2414000Y-8730000D01*
X2338000Y-8806000D01*
X2414000Y-8882000D01*
D11*
X2855539Y-8897484D02*
X2741253Y-8897484D01*
X2798396Y-8897484D02*
X2798396Y-8697484D01*
X2798396Y-8697484D02*
X2779348Y-8726055D01*
X2779348Y-8726055D02*
X2760301Y-8745103D01*
X2760301Y-8745103D02*
X2741253Y-8754627D01*
X2941253Y-8878436D02*
X2950777Y-8887960D01*
X2950777Y-8887960D02*
X2941253Y-8897484D01*
X2941253Y-8897484D02*
X2931729Y-8887960D01*
X2931729Y-8887960D02*
X2941253Y-8878436D01*
X2941253Y-8878436D02*
X2941253Y-8897484D01*
X3131729Y-8697484D02*
X3036491Y-8697484D01*
X3036491Y-8697484D02*
X3026967Y-8792722D01*
X3026967Y-8792722D02*
X3036491Y-8783198D01*
X3036491Y-8783198D02*
X3055539Y-8773674D01*
X3055539Y-8773674D02*
X3103158Y-8773674D01*
X3103158Y-8773674D02*
X3122205Y-8783198D01*
X3122205Y-8783198D02*
X3131729Y-8792722D01*
X3131729Y-8792722D02*
X3141253Y-8811770D01*
X3141253Y-8811770D02*
X3141253Y-8859389D01*
X3141253Y-8859389D02*
X3131729Y-8878436D01*
X3131729Y-8878436D02*
X3122205Y-8887960D01*
X3122205Y-8887960D02*
X3103158Y-8897484D01*
X3103158Y-8897484D02*
X3055539Y-8897484D01*
X3055539Y-8897484D02*
X3036491Y-8887960D01*
X3036491Y-8887960D02*
X3026967Y-8878436D01*
X3217443Y-8716531D02*
X3226967Y-8707008D01*
X3226967Y-8707008D02*
X3246015Y-8697484D01*
X3246015Y-8697484D02*
X3293634Y-8697484D01*
X3293634Y-8697484D02*
X3312682Y-8707008D01*
X3312682Y-8707008D02*
X3322205Y-8716531D01*
X3322205Y-8716531D02*
X3331729Y-8735579D01*
X3331729Y-8735579D02*
X3331729Y-8754627D01*
X3331729Y-8754627D02*
X3322205Y-8783198D01*
X3322205Y-8783198D02*
X3207920Y-8897484D01*
X3207920Y-8897484D02*
X3331729Y-8897484D01*
X3455539Y-8697484D02*
X3474586Y-8697484D01*
X3474586Y-8697484D02*
X3493634Y-8707008D01*
X3493634Y-8707008D02*
X3503158Y-8716531D01*
X3503158Y-8716531D02*
X3512682Y-8735579D01*
X3512682Y-8735579D02*
X3522205Y-8773674D01*
X3522205Y-8773674D02*
X3522205Y-8821293D01*
X3522205Y-8821293D02*
X3512682Y-8859389D01*
X3512682Y-8859389D02*
X3503158Y-8878436D01*
X3503158Y-8878436D02*
X3493634Y-8887960D01*
X3493634Y-8887960D02*
X3474586Y-8897484D01*
X3474586Y-8897484D02*
X3455539Y-8897484D01*
X3455539Y-8897484D02*
X3436491Y-8887960D01*
X3436491Y-8887960D02*
X3426967Y-8878436D01*
X3426967Y-8878436D02*
X3417443Y-8859389D01*
X3417443Y-8859389D02*
X3407920Y-8821293D01*
X3407920Y-8821293D02*
X3407920Y-8773674D01*
X3407920Y-8773674D02*
X3417443Y-8735579D01*
X3417443Y-8735579D02*
X3426967Y-8716531D01*
X3426967Y-8716531D02*
X3436491Y-8707008D01*
X3436491Y-8707008D02*
X3455539Y-8697484D01*
X3607920Y-8897484D02*
X3607920Y-8764150D01*
X3607920Y-8783198D02*
X3617443Y-8773674D01*
X3617443Y-8773674D02*
X3636491Y-8764150D01*
X3636491Y-8764150D02*
X3665063Y-8764150D01*
X3665063Y-8764150D02*
X3684110Y-8773674D01*
X3684110Y-8773674D02*
X3693634Y-8792722D01*
X3693634Y-8792722D02*
X3693634Y-8897484D01*
X3693634Y-8792722D02*
X3703158Y-8773674D01*
X3703158Y-8773674D02*
X3722205Y-8764150D01*
X3722205Y-8764150D02*
X3750777Y-8764150D01*
X3750777Y-8764150D02*
X3769824Y-8773674D01*
X3769824Y-8773674D02*
X3779348Y-8792722D01*
X3779348Y-8792722D02*
X3779348Y-8897484D01*
X3874586Y-8897484D02*
X3874586Y-8764150D01*
X3874586Y-8783198D02*
X3884110Y-8773674D01*
X3884110Y-8773674D02*
X3903158Y-8764150D01*
X3903158Y-8764150D02*
X3931729Y-8764150D01*
X3931729Y-8764150D02*
X3950777Y-8773674D01*
X3950777Y-8773674D02*
X3960301Y-8792722D01*
X3960301Y-8792722D02*
X3960301Y-8897484D01*
X3960301Y-8792722D02*
X3969824Y-8773674D01*
X3969824Y-8773674D02*
X3988872Y-8764150D01*
X3988872Y-8764150D02*
X4017443Y-8764150D01*
X4017443Y-8764150D02*
X4036491Y-8773674D01*
X4036491Y-8773674D02*
X4046015Y-8792722D01*
X4046015Y-8792722D02*
X4046015Y-8897484D01*
X4436491Y-8687960D02*
X4265063Y-8945103D01*
X4693634Y-8697484D02*
X4712682Y-8697484D01*
X4712682Y-8697484D02*
X4731729Y-8707008D01*
X4731729Y-8707008D02*
X4741253Y-8716531D01*
X4741253Y-8716531D02*
X4750777Y-8735579D01*
X4750777Y-8735579D02*
X4760301Y-8773674D01*
X4760301Y-8773674D02*
X4760301Y-8821293D01*
X4760301Y-8821293D02*
X4750777Y-8859389D01*
X4750777Y-8859389D02*
X4741253Y-8878436D01*
X4741253Y-8878436D02*
X4731729Y-8887960D01*
X4731729Y-8887960D02*
X4712682Y-8897484D01*
X4712682Y-8897484D02*
X4693634Y-8897484D01*
X4693634Y-8897484D02*
X4674587Y-8887960D01*
X4674587Y-8887960D02*
X4665063Y-8878436D01*
X4665063Y-8878436D02*
X4655539Y-8859389D01*
X4655539Y-8859389D02*
X4646015Y-8821293D01*
X4646015Y-8821293D02*
X4646015Y-8773674D01*
X4646015Y-8773674D02*
X4655539Y-8735579D01*
X4655539Y-8735579D02*
X4665063Y-8716531D01*
X4665063Y-8716531D02*
X4674587Y-8707008D01*
X4674587Y-8707008D02*
X4693634Y-8697484D01*
X4846015Y-8878436D02*
X4855539Y-8887960D01*
X4855539Y-8887960D02*
X4846015Y-8897484D01*
X4846015Y-8897484D02*
X4836491Y-8887960D01*
X4836491Y-8887960D02*
X4846015Y-8878436D01*
X4846015Y-8878436D02*
X4846015Y-8897484D01*
X4979348Y-8697484D02*
X4998396Y-8697484D01*
X4998396Y-8697484D02*
X5017444Y-8707008D01*
X5017444Y-8707008D02*
X5026968Y-8716531D01*
X5026968Y-8716531D02*
X5036491Y-8735579D01*
X5036491Y-8735579D02*
X5046015Y-8773674D01*
X5046015Y-8773674D02*
X5046015Y-8821293D01*
X5046015Y-8821293D02*
X5036491Y-8859389D01*
X5036491Y-8859389D02*
X5026968Y-8878436D01*
X5026968Y-8878436D02*
X5017444Y-8887960D01*
X5017444Y-8887960D02*
X4998396Y-8897484D01*
X4998396Y-8897484D02*
X4979348Y-8897484D01*
X4979348Y-8897484D02*
X4960301Y-8887960D01*
X4960301Y-8887960D02*
X4950777Y-8878436D01*
X4950777Y-8878436D02*
X4941253Y-8859389D01*
X4941253Y-8859389D02*
X4931729Y-8821293D01*
X4931729Y-8821293D02*
X4931729Y-8773674D01*
X4931729Y-8773674D02*
X4941253Y-8735579D01*
X4941253Y-8735579D02*
X4950777Y-8716531D01*
X4950777Y-8716531D02*
X4960301Y-8707008D01*
X4960301Y-8707008D02*
X4979348Y-8697484D01*
X5226968Y-8697484D02*
X5131729Y-8697484D01*
X5131729Y-8697484D02*
X5122206Y-8792722D01*
X5122206Y-8792722D02*
X5131729Y-8783198D01*
X5131729Y-8783198D02*
X5150777Y-8773674D01*
X5150777Y-8773674D02*
X5198396Y-8773674D01*
X5198396Y-8773674D02*
X5217444Y-8783198D01*
X5217444Y-8783198D02*
X5226968Y-8792722D01*
X5226968Y-8792722D02*
X5236491Y-8811770D01*
X5236491Y-8811770D02*
X5236491Y-8859389D01*
X5236491Y-8859389D02*
X5226968Y-8878436D01*
X5226968Y-8878436D02*
X5217444Y-8887960D01*
X5217444Y-8887960D02*
X5198396Y-8897484D01*
X5198396Y-8897484D02*
X5150777Y-8897484D01*
X5150777Y-8897484D02*
X5131729Y-8887960D01*
X5131729Y-8887960D02*
X5122206Y-8878436D01*
X5331729Y-8897484D02*
X5369825Y-8897484D01*
X5369825Y-8897484D02*
X5388872Y-8887960D01*
X5388872Y-8887960D02*
X5398396Y-8878436D01*
X5398396Y-8878436D02*
X5417444Y-8849865D01*
X5417444Y-8849865D02*
X5426968Y-8811770D01*
X5426968Y-8811770D02*
X5426968Y-8735579D01*
X5426968Y-8735579D02*
X5417444Y-8716531D01*
X5417444Y-8716531D02*
X5407920Y-8707008D01*
X5407920Y-8707008D02*
X5388872Y-8697484D01*
X5388872Y-8697484D02*
X5350777Y-8697484D01*
X5350777Y-8697484D02*
X5331729Y-8707008D01*
X5331729Y-8707008D02*
X5322206Y-8716531D01*
X5322206Y-8716531D02*
X5312682Y-8735579D01*
X5312682Y-8735579D02*
X5312682Y-8783198D01*
X5312682Y-8783198D02*
X5322206Y-8802246D01*
X5322206Y-8802246D02*
X5331729Y-8811770D01*
X5331729Y-8811770D02*
X5350777Y-8821293D01*
X5350777Y-8821293D02*
X5388872Y-8821293D01*
X5388872Y-8821293D02*
X5407920Y-8811770D01*
X5407920Y-8811770D02*
X5417444Y-8802246D01*
X5417444Y-8802246D02*
X5426968Y-8783198D01*
X5541253Y-8783198D02*
X5522206Y-8773674D01*
X5522206Y-8773674D02*
X5512682Y-8764150D01*
X5512682Y-8764150D02*
X5503158Y-8745103D01*
X5503158Y-8745103D02*
X5503158Y-8735579D01*
X5503158Y-8735579D02*
X5512682Y-8716531D01*
X5512682Y-8716531D02*
X5522206Y-8707008D01*
X5522206Y-8707008D02*
X5541253Y-8697484D01*
X5541253Y-8697484D02*
X5579349Y-8697484D01*
X5579349Y-8697484D02*
X5598396Y-8707008D01*
X5598396Y-8707008D02*
X5607920Y-8716531D01*
X5607920Y-8716531D02*
X5617444Y-8735579D01*
X5617444Y-8735579D02*
X5617444Y-8745103D01*
X5617444Y-8745103D02*
X5607920Y-8764150D01*
X5607920Y-8764150D02*
X5598396Y-8773674D01*
X5598396Y-8773674D02*
X5579349Y-8783198D01*
X5579349Y-8783198D02*
X5541253Y-8783198D01*
X5541253Y-8783198D02*
X5522206Y-8792722D01*
X5522206Y-8792722D02*
X5512682Y-8802246D01*
X5512682Y-8802246D02*
X5503158Y-8821293D01*
X5503158Y-8821293D02*
X5503158Y-8859389D01*
X5503158Y-8859389D02*
X5512682Y-8878436D01*
X5512682Y-8878436D02*
X5522206Y-8887960D01*
X5522206Y-8887960D02*
X5541253Y-8897484D01*
X5541253Y-8897484D02*
X5579349Y-8897484D01*
X5579349Y-8897484D02*
X5598396Y-8887960D01*
X5598396Y-8887960D02*
X5607920Y-8878436D01*
X5607920Y-8878436D02*
X5617444Y-8859389D01*
X5617444Y-8859389D02*
X5617444Y-8821293D01*
X5617444Y-8821293D02*
X5607920Y-8802246D01*
X5607920Y-8802246D02*
X5598396Y-8792722D01*
X5598396Y-8792722D02*
X5579349Y-8783198D01*
X5693634Y-8697484D02*
X5693634Y-8735579D01*
X5769825Y-8697484D02*
X5769825Y-8735579D01*
X6065063Y-8973674D02*
X6055539Y-8964150D01*
X6055539Y-8964150D02*
X6036491Y-8935579D01*
X6036491Y-8935579D02*
X6026968Y-8916531D01*
X6026968Y-8916531D02*
X6017444Y-8887960D01*
X6017444Y-8887960D02*
X6007920Y-8840341D01*
X6007920Y-8840341D02*
X6007920Y-8802246D01*
X6007920Y-8802246D02*
X6017444Y-8754627D01*
X6017444Y-8754627D02*
X6026968Y-8726055D01*
X6026968Y-8726055D02*
X6036491Y-8707008D01*
X6036491Y-8707008D02*
X6055539Y-8678436D01*
X6055539Y-8678436D02*
X6065063Y-8668912D01*
X6226968Y-8764150D02*
X6226968Y-8897484D01*
X6179348Y-8687960D02*
X6131729Y-8830817D01*
X6131729Y-8830817D02*
X6255539Y-8830817D01*
X6484110Y-8897484D02*
X6484110Y-8697484D01*
X6569825Y-8897484D02*
X6569825Y-8792722D01*
X6569825Y-8792722D02*
X6560301Y-8773674D01*
X6560301Y-8773674D02*
X6541253Y-8764150D01*
X6541253Y-8764150D02*
X6512682Y-8764150D01*
X6512682Y-8764150D02*
X6493634Y-8773674D01*
X6493634Y-8773674D02*
X6484110Y-8783198D01*
X6693634Y-8897484D02*
X6674587Y-8887960D01*
X6674587Y-8887960D02*
X6665063Y-8878436D01*
X6665063Y-8878436D02*
X6655539Y-8859389D01*
X6655539Y-8859389D02*
X6655539Y-8802246D01*
X6655539Y-8802246D02*
X6665063Y-8783198D01*
X6665063Y-8783198D02*
X6674587Y-8773674D01*
X6674587Y-8773674D02*
X6693634Y-8764150D01*
X6693634Y-8764150D02*
X6722206Y-8764150D01*
X6722206Y-8764150D02*
X6741253Y-8773674D01*
X6741253Y-8773674D02*
X6750777Y-8783198D01*
X6750777Y-8783198D02*
X6760301Y-8802246D01*
X6760301Y-8802246D02*
X6760301Y-8859389D01*
X6760301Y-8859389D02*
X6750777Y-8878436D01*
X6750777Y-8878436D02*
X6741253Y-8887960D01*
X6741253Y-8887960D02*
X6722206Y-8897484D01*
X6722206Y-8897484D02*
X6693634Y-8897484D01*
X6874587Y-8897484D02*
X6855539Y-8887960D01*
X6855539Y-8887960D02*
X6846015Y-8868912D01*
X6846015Y-8868912D02*
X6846015Y-8697484D01*
X7026968Y-8887960D02*
X7007920Y-8897484D01*
X7007920Y-8897484D02*
X6969825Y-8897484D01*
X6969825Y-8897484D02*
X6950777Y-8887960D01*
X6950777Y-8887960D02*
X6941253Y-8868912D01*
X6941253Y-8868912D02*
X6941253Y-8792722D01*
X6941253Y-8792722D02*
X6950777Y-8773674D01*
X6950777Y-8773674D02*
X6969825Y-8764150D01*
X6969825Y-8764150D02*
X7007920Y-8764150D01*
X7007920Y-8764150D02*
X7026968Y-8773674D01*
X7026968Y-8773674D02*
X7036491Y-8792722D01*
X7036491Y-8792722D02*
X7036491Y-8811770D01*
X7036491Y-8811770D02*
X6941253Y-8830817D01*
X7112682Y-8887960D02*
X7131730Y-8897484D01*
X7131730Y-8897484D02*
X7169825Y-8897484D01*
X7169825Y-8897484D02*
X7188872Y-8887960D01*
X7188872Y-8887960D02*
X7198396Y-8868912D01*
X7198396Y-8868912D02*
X7198396Y-8859389D01*
X7198396Y-8859389D02*
X7188872Y-8840341D01*
X7188872Y-8840341D02*
X7169825Y-8830817D01*
X7169825Y-8830817D02*
X7141253Y-8830817D01*
X7141253Y-8830817D02*
X7122206Y-8821293D01*
X7122206Y-8821293D02*
X7112682Y-8802246D01*
X7112682Y-8802246D02*
X7112682Y-8792722D01*
X7112682Y-8792722D02*
X7122206Y-8773674D01*
X7122206Y-8773674D02*
X7141253Y-8764150D01*
X7141253Y-8764150D02*
X7169825Y-8764150D01*
X7169825Y-8764150D02*
X7188872Y-8773674D01*
X7265063Y-8973674D02*
X7274587Y-8964150D01*
X7274587Y-8964150D02*
X7293634Y-8935579D01*
X7293634Y-8935579D02*
X7303158Y-8916531D01*
X7303158Y-8916531D02*
X7312682Y-8887960D01*
X7312682Y-8887960D02*
X7322206Y-8840341D01*
X7322206Y-8840341D02*
X7322206Y-8802246D01*
X7322206Y-8802246D02*
X7312682Y-8754627D01*
X7312682Y-8754627D02*
X7303158Y-8726055D01*
X7303158Y-8726055D02*
X7293634Y-8707008D01*
X7293634Y-8707008D02*
X7274587Y-8678436D01*
X7274587Y-8678436D02*
X7265063Y-8668912D01*
M02*
