G04 #@! TF.GenerationSoftware,KiCad,Pcbnew,9.0.6*
G04 #@! TF.CreationDate,2025-12-24T13:11:47-08:00*
G04 #@! TF.ProjectId,pifire-relay-module-SSR,70696669-7265-42d7-9265-6c61792d6d6f,v1.0.2*
G04 #@! TF.SameCoordinates,Original*
G04 #@! TF.FileFunction,Legend,Bot*
G04 #@! TF.FilePolarity,Positive*
%FSLAX46Y46*%
G04 Gerber Fmt 4.6, Leading zero omitted, Abs format (unit mm)*
G04 Created by KiCad (PCBNEW 9.0.6) date 2025-12-24 13:11:47*
%MOMM*%
%LPD*%
G01*
G04 APERTURE LIST*
G04 Aperture macros list*
%AMRoundRect*
0 Rectangle with rounded corners*
0 $1 Rounding radius*
0 $2 $3 $4 $5 $6 $7 $8 $9 X,Y pos of 4 corners*
0 Add a 4 corners polygon primitive as box body*
4,1,4,$2,$3,$4,$5,$6,$7,$8,$9,$2,$3,0*
0 Add four circle primitives for the rounded corners*
1,1,$1+$1,$2,$3*
1,1,$1+$1,$4,$5*
1,1,$1+$1,$6,$7*
1,1,$1+$1,$8,$9*
0 Add four rect primitives between the rounded corners*
20,1,$1+$1,$2,$3,$4,$5,0*
20,1,$1+$1,$4,$5,$6,$7,0*
20,1,$1+$1,$6,$7,$8,$9,0*
20,1,$1+$1,$8,$9,$2,$3,0*%
G04 Aperture macros list end*
%ADD10C,0.000000*%
%ADD11C,0.100000*%
%ADD12RoundRect,0.102000X0.754000X0.754000X-0.754000X0.754000X-0.754000X-0.754000X0.754000X-0.754000X0*%
%ADD13C,1.712000*%
%ADD14C,1.600000*%
%ADD15O,1.600000X1.600000*%
%ADD16C,3.200000*%
%ADD17R,1.500000X1.050000*%
%ADD18O,1.500000X1.050000*%
%ADD19C,2.000000*%
%ADD20RoundRect,0.250000X0.725000X-0.600000X0.725000X0.600000X-0.725000X0.600000X-0.725000X-0.600000X0*%
%ADD21O,1.950000X1.700000*%
%ADD22R,3.000000X3.000000*%
%ADD23C,3.000000*%
G04 APERTURE END LIST*
D10*
G36*
X32249847Y-59271540D02*
G01*
X32277032Y-59275813D01*
X32303821Y-59282850D01*
X32330182Y-59292581D01*
X32356080Y-59304936D01*
X32381482Y-59319846D01*
X32406354Y-59337243D01*
X32430663Y-59357055D01*
X32454375Y-59379213D01*
X32477456Y-59403649D01*
X32499873Y-59430292D01*
X32521591Y-59459073D01*
X32542579Y-59489923D01*
X32562800Y-59522771D01*
X32582224Y-59557549D01*
X32600814Y-59594187D01*
X32618539Y-59632615D01*
X32635363Y-59672764D01*
X32651255Y-59714564D01*
X32666179Y-59757946D01*
X32680103Y-59802840D01*
X32692992Y-59849177D01*
X32704814Y-59896887D01*
X32715533Y-59945901D01*
X32725118Y-59996149D01*
X32733534Y-60047561D01*
X32740747Y-60100069D01*
X32746725Y-60153602D01*
X32751432Y-60208092D01*
X32754836Y-60263467D01*
X32756903Y-60319660D01*
X32757600Y-60376601D01*
X32754836Y-60489734D01*
X32746725Y-60599599D01*
X32733534Y-60705640D01*
X32715533Y-60807301D01*
X32692992Y-60904025D01*
X32666179Y-60995256D01*
X32635363Y-61080438D01*
X32600814Y-61159015D01*
X32562800Y-61230430D01*
X32521591Y-61294128D01*
X32477456Y-61349552D01*
X32430663Y-61396147D01*
X32406354Y-61415959D01*
X32381482Y-61433355D01*
X32356080Y-61448265D01*
X32330182Y-61460621D01*
X32303821Y-61470352D01*
X32277032Y-61477388D01*
X32249847Y-61481661D01*
X32222300Y-61483101D01*
X32194754Y-61481661D01*
X32167569Y-61477388D01*
X32140780Y-61470352D01*
X32114419Y-61460621D01*
X32088521Y-61448265D01*
X32063119Y-61433355D01*
X32038246Y-61415959D01*
X32013938Y-61396147D01*
X31990226Y-61373988D01*
X31967145Y-61349552D01*
X31944728Y-61322909D01*
X31923009Y-61294128D01*
X31902022Y-61263279D01*
X31881800Y-61230430D01*
X31862377Y-61195652D01*
X31843786Y-61159015D01*
X31826062Y-61120587D01*
X31809237Y-61080438D01*
X31793346Y-61038638D01*
X31778422Y-60995256D01*
X31764498Y-60950362D01*
X31751608Y-60904025D01*
X31739787Y-60856315D01*
X31729067Y-60807301D01*
X31719483Y-60757053D01*
X31711067Y-60705640D01*
X31703853Y-60653133D01*
X31697876Y-60599599D01*
X31693169Y-60545110D01*
X31689764Y-60489734D01*
X31687697Y-60433541D01*
X31687001Y-60376601D01*
X31689764Y-60263467D01*
X31697876Y-60153602D01*
X31711067Y-60047561D01*
X31729067Y-59945901D01*
X31751608Y-59849177D01*
X31778422Y-59757946D01*
X31809237Y-59672764D01*
X31843786Y-59594187D01*
X31881800Y-59522771D01*
X31923009Y-59459073D01*
X31967145Y-59403649D01*
X32013938Y-59357055D01*
X32038246Y-59337243D01*
X32063119Y-59319846D01*
X32088521Y-59304936D01*
X32114419Y-59292581D01*
X32140780Y-59282850D01*
X32167569Y-59275813D01*
X32194754Y-59271540D01*
X32222300Y-59270100D01*
X32249847Y-59271540D01*
G37*
G36*
X30879870Y-58365832D02*
G01*
X30989285Y-58373641D01*
X31097110Y-58386501D01*
X31203208Y-58404286D01*
X31307444Y-58426867D01*
X31409683Y-58454117D01*
X31509790Y-58485910D01*
X31607630Y-58522119D01*
X31703066Y-58562617D01*
X31795964Y-58607275D01*
X31886188Y-58655968D01*
X31973602Y-58708568D01*
X32058073Y-58764949D01*
X32139463Y-58824982D01*
X32217638Y-58888542D01*
X32292462Y-58955500D01*
X32363801Y-59025731D01*
X32431518Y-59099106D01*
X32495478Y-59175499D01*
X32555546Y-59254783D01*
X32611586Y-59336830D01*
X32663464Y-59421513D01*
X32711043Y-59508706D01*
X32754189Y-59598282D01*
X32792766Y-59690112D01*
X32826638Y-59784071D01*
X32855670Y-59880031D01*
X32879728Y-59977865D01*
X32898675Y-60077446D01*
X32912376Y-60178647D01*
X32920696Y-60281341D01*
X32923500Y-60385400D01*
X32920696Y-60489460D01*
X32912376Y-60592154D01*
X32898675Y-60693355D01*
X32879728Y-60792936D01*
X32855670Y-60890770D01*
X32826638Y-60986730D01*
X32792766Y-61080688D01*
X32754189Y-61172519D01*
X32711043Y-61262094D01*
X32663464Y-61349287D01*
X32611586Y-61433971D01*
X32555546Y-61516018D01*
X32495478Y-61595302D01*
X32431518Y-61671695D01*
X32363801Y-61745070D01*
X32292462Y-61815300D01*
X32217638Y-61882259D01*
X32139463Y-61945818D01*
X32058073Y-62005852D01*
X31973602Y-62062232D01*
X31886188Y-62114832D01*
X31795964Y-62163525D01*
X31703066Y-62208184D01*
X31607630Y-62248681D01*
X31509790Y-62284890D01*
X31409683Y-62316683D01*
X31307444Y-62343934D01*
X31203208Y-62366515D01*
X31097110Y-62384299D01*
X30989285Y-62397159D01*
X30879870Y-62404968D01*
X30769000Y-62407600D01*
X30658138Y-62404968D01*
X30548732Y-62397157D01*
X30440915Y-62384294D01*
X30334825Y-62366508D01*
X30230595Y-62343924D01*
X30128362Y-62316670D01*
X30028260Y-62284874D01*
X29930425Y-62248662D01*
X29834993Y-62208163D01*
X29742098Y-62163503D01*
X29651876Y-62114810D01*
X29564463Y-62062211D01*
X29479993Y-62005833D01*
X29398603Y-61945804D01*
X29320427Y-61882250D01*
X29245600Y-61815300D01*
X29065434Y-61651403D01*
X28826538Y-61448806D01*
X28689368Y-61339872D01*
X28542679Y-61229513D01*
X28388191Y-61120480D01*
X28227625Y-61015525D01*
X28062702Y-60917397D01*
X27895143Y-60828847D01*
X27810913Y-60789023D01*
X27726669Y-60752625D01*
X27642626Y-60719996D01*
X27559000Y-60691481D01*
X27476005Y-60667423D01*
X27393858Y-60648166D01*
X27312772Y-60634054D01*
X27232963Y-60625431D01*
X27154646Y-60622640D01*
X27078037Y-60626025D01*
X27003349Y-60635930D01*
X26930799Y-60652699D01*
X26943263Y-60626668D01*
X26956831Y-60600913D01*
X26987116Y-60550168D01*
X27021321Y-60500336D01*
X27059113Y-60451289D01*
X27100157Y-60402899D01*
X27144121Y-60355037D01*
X27190672Y-60307576D01*
X27239475Y-60260388D01*
X27290198Y-60213343D01*
X27342507Y-60166314D01*
X27450550Y-60071792D01*
X27560937Y-59975796D01*
X27671000Y-59877300D01*
X27736203Y-59857947D01*
X27822709Y-59842566D01*
X27927512Y-59831328D01*
X28047610Y-59824408D01*
X28179997Y-59821976D01*
X28321669Y-59824205D01*
X28469621Y-59831268D01*
X28620850Y-59843337D01*
X28772351Y-59860585D01*
X28921119Y-59883184D01*
X29064150Y-59911306D01*
X29198440Y-59945123D01*
X29320985Y-59984809D01*
X29428779Y-60030536D01*
X29476206Y-60055718D01*
X29518818Y-60082476D01*
X29556241Y-60110829D01*
X29588099Y-60140801D01*
X29613542Y-60165520D01*
X29636426Y-60183149D01*
X29656656Y-60194027D01*
X29674136Y-60198495D01*
X29688772Y-60196894D01*
X29700468Y-60189562D01*
X29709129Y-60176842D01*
X29714660Y-60159072D01*
X29716967Y-60136593D01*
X29715952Y-60109746D01*
X29711523Y-60078870D01*
X29703583Y-60044307D01*
X29692037Y-60006395D01*
X29676790Y-59965476D01*
X29657747Y-59921889D01*
X29634812Y-59875975D01*
X29607892Y-59828074D01*
X29576889Y-59778527D01*
X29541710Y-59727673D01*
X29502259Y-59675853D01*
X29458441Y-59623407D01*
X29410161Y-59570675D01*
X29357323Y-59517998D01*
X29299833Y-59465715D01*
X29237595Y-59414168D01*
X29170514Y-59363696D01*
X29098495Y-59314640D01*
X29021443Y-59267339D01*
X28939263Y-59222135D01*
X28851859Y-59179366D01*
X28759136Y-59139374D01*
X28661000Y-59102499D01*
X28934144Y-58944965D01*
X29067062Y-58870577D01*
X29199000Y-58799824D01*
X29331051Y-58733244D01*
X29464306Y-58671371D01*
X29531727Y-58642369D01*
X29599858Y-58614744D01*
X29668837Y-58588566D01*
X29738800Y-58563899D01*
X29878793Y-58518698D01*
X30016530Y-58478794D01*
X30151536Y-58444411D01*
X30283337Y-58415775D01*
X30411459Y-58393111D01*
X30535426Y-58376644D01*
X30595704Y-58370805D01*
X30654765Y-58366599D01*
X30712550Y-58364055D01*
X30769000Y-58363200D01*
X30879870Y-58365832D01*
G37*
G36*
X31564017Y-58940583D02*
G01*
X31634397Y-58946173D01*
X31703754Y-58955379D01*
X31772000Y-58968109D01*
X31839048Y-58984273D01*
X31904811Y-59003780D01*
X31969202Y-59026538D01*
X32032134Y-59052457D01*
X32093521Y-59081446D01*
X32153274Y-59113414D01*
X32211307Y-59148271D01*
X32267533Y-59185924D01*
X32321865Y-59226283D01*
X32374216Y-59269257D01*
X32424498Y-59314755D01*
X32472625Y-59362687D01*
X32518510Y-59412961D01*
X32562065Y-59465487D01*
X32603204Y-59520172D01*
X32641839Y-59576927D01*
X32677883Y-59635661D01*
X32711250Y-59696282D01*
X32741853Y-59758700D01*
X32769603Y-59822824D01*
X32794415Y-59888562D01*
X32816201Y-59955824D01*
X32834874Y-60024518D01*
X32850347Y-60094555D01*
X32862534Y-60165842D01*
X32871346Y-60238290D01*
X32876697Y-60311806D01*
X32878500Y-60386301D01*
X32876697Y-60460786D01*
X32871346Y-60534294D01*
X32862534Y-60606733D01*
X32850347Y-60678013D01*
X32834874Y-60748042D01*
X32816201Y-60816730D01*
X32794415Y-60883986D01*
X32769603Y-60949719D01*
X32741853Y-61013837D01*
X32711250Y-61076250D01*
X32677883Y-61136867D01*
X32641839Y-61195597D01*
X32603204Y-61252348D01*
X32562065Y-61307031D01*
X32518510Y-61359553D01*
X32472625Y-61409825D01*
X32424498Y-61457754D01*
X32374216Y-61503251D01*
X32321865Y-61546223D01*
X32267533Y-61586581D01*
X32211307Y-61624233D01*
X32153274Y-61659088D01*
X32093521Y-61691055D01*
X32032134Y-61720044D01*
X31969202Y-61745962D01*
X31904811Y-61768720D01*
X31839048Y-61788227D01*
X31772000Y-61804390D01*
X31703754Y-61817121D01*
X31634397Y-61826326D01*
X31564017Y-61831916D01*
X31492700Y-61833800D01*
X31456390Y-61833189D01*
X31419222Y-61831370D01*
X31381236Y-61828363D01*
X31342467Y-61824187D01*
X31302955Y-61818863D01*
X31262738Y-61812411D01*
X31221853Y-61804850D01*
X31180338Y-61796200D01*
X31095571Y-61775714D01*
X31008740Y-61751112D01*
X30920148Y-61722554D01*
X30830101Y-61690199D01*
X30785092Y-61672542D01*
X30740719Y-61653800D01*
X30696893Y-61634023D01*
X30653527Y-61613258D01*
X30610531Y-61591554D01*
X30567819Y-61568959D01*
X30482888Y-61521288D01*
X30398027Y-61470631D01*
X30312530Y-61417374D01*
X30136801Y-61304601D01*
X30199924Y-61278213D01*
X30259565Y-61249593D01*
X30315785Y-61218985D01*
X30368645Y-61186632D01*
X30418208Y-61152777D01*
X30464533Y-61117666D01*
X30507682Y-61081540D01*
X30547716Y-61044644D01*
X30584697Y-61007221D01*
X30618685Y-60969515D01*
X30649742Y-60931770D01*
X30677929Y-60894228D01*
X30703307Y-60857134D01*
X30725937Y-60820732D01*
X30745881Y-60785264D01*
X30763200Y-60750975D01*
X30777955Y-60718108D01*
X30790207Y-60686907D01*
X30800017Y-60657614D01*
X30807447Y-60630475D01*
X30812557Y-60605732D01*
X30815409Y-60583630D01*
X30816065Y-60564411D01*
X30814584Y-60548319D01*
X30811030Y-60535598D01*
X30805461Y-60526492D01*
X30797941Y-60521244D01*
X30788530Y-60520097D01*
X30777289Y-60523296D01*
X30764280Y-60531083D01*
X30749563Y-60543704D01*
X30733200Y-60561400D01*
X30712702Y-60582856D01*
X30688625Y-60603153D01*
X30661211Y-60622307D01*
X30630701Y-60640334D01*
X30597336Y-60657248D01*
X30561359Y-60673065D01*
X30482532Y-60701470D01*
X30396152Y-60725674D01*
X30304151Y-60745800D01*
X30208460Y-60761971D01*
X30111012Y-60774312D01*
X30013739Y-60782947D01*
X29918572Y-60787998D01*
X29827443Y-60789591D01*
X29742285Y-60787848D01*
X29665030Y-60782894D01*
X29597610Y-60774852D01*
X29541955Y-60763846D01*
X29500000Y-60750000D01*
X29429232Y-60679481D01*
X29358249Y-60610758D01*
X29288767Y-60543097D01*
X29255124Y-60509435D01*
X29222499Y-60475763D01*
X29191108Y-60441989D01*
X29161164Y-60408021D01*
X29132881Y-60373767D01*
X29106474Y-60339136D01*
X29082159Y-60304035D01*
X29060148Y-60268374D01*
X29040657Y-60232059D01*
X29031923Y-60213628D01*
X29023899Y-60195000D01*
X29070570Y-60207002D01*
X29118616Y-60214091D01*
X29167898Y-60216513D01*
X29218277Y-60214513D01*
X29269616Y-60208340D01*
X29321776Y-60198237D01*
X29374619Y-60184451D01*
X29428006Y-60167229D01*
X29481799Y-60146817D01*
X29535860Y-60123459D01*
X29590051Y-60097404D01*
X29644232Y-60068896D01*
X29752014Y-60005507D01*
X29858100Y-59935262D01*
X29961383Y-59860129D01*
X30060755Y-59782077D01*
X30155111Y-59703074D01*
X30243343Y-59625089D01*
X30324345Y-59550090D01*
X30397010Y-59480047D01*
X30512899Y-59362700D01*
X30561014Y-59314778D01*
X30611286Y-59269287D01*
X30663629Y-59226318D01*
X30717954Y-59185961D01*
X30774175Y-59148308D01*
X30832204Y-59113451D01*
X30891954Y-59081480D01*
X30953337Y-59052487D01*
X31016266Y-59026563D01*
X31080653Y-59003800D01*
X31146410Y-58984288D01*
X31213451Y-58968120D01*
X31281688Y-58955385D01*
X31351033Y-58946176D01*
X31421400Y-58940584D01*
X31492700Y-58938699D01*
X31564017Y-58940583D01*
G37*
D11*
G36*
X57995000Y-34888302D02*
G01*
X56488510Y-34888302D01*
X56488510Y-35072766D01*
X57030362Y-35072766D01*
X56964448Y-35142451D01*
X56918504Y-35218865D01*
X56890780Y-35303504D01*
X56881252Y-35398647D01*
X56886901Y-35478079D01*
X56903051Y-35547557D01*
X56928971Y-35608666D01*
X56965537Y-35663398D01*
X57009246Y-35705426D01*
X57060771Y-35736252D01*
X57118387Y-35755957D01*
X57197789Y-35769559D01*
X57304769Y-35774720D01*
X57995000Y-35774720D01*
X57995000Y-35590256D01*
X57304311Y-35590256D01*
X57213700Y-35582361D01*
X57148608Y-35561503D01*
X57102628Y-35530264D01*
X57068532Y-35486534D01*
X57047202Y-35431173D01*
X57039521Y-35360729D01*
X57050109Y-35281401D01*
X57082111Y-35206489D01*
X57114347Y-35162399D01*
X57152623Y-35128398D01*
X57197608Y-35103449D01*
X57277879Y-35081457D01*
X57398742Y-35072766D01*
X57995000Y-35072766D01*
X57995000Y-34888302D01*
G37*
G36*
X57827021Y-36457532D02*
G01*
X57989962Y-36484185D01*
X58002815Y-36408050D01*
X58006723Y-36344875D01*
X57997794Y-36251048D01*
X57974941Y-36189078D01*
X57937431Y-36141358D01*
X57891227Y-36111226D01*
X57825065Y-36095971D01*
X57672965Y-36088695D01*
X57045383Y-36088695D01*
X57045383Y-35953415D01*
X56904699Y-35953415D01*
X56904699Y-36088695D01*
X56635239Y-36088695D01*
X56524505Y-36272060D01*
X56904699Y-36272060D01*
X56904699Y-36457532D01*
X57045383Y-36457532D01*
X57045383Y-36272060D01*
X57680476Y-36272060D01*
X57752296Y-36275249D01*
X57781775Y-36281769D01*
X57801895Y-36294526D01*
X57817588Y-36313551D01*
X57827128Y-36338426D01*
X57830868Y-36376565D01*
X57827021Y-36457532D01*
G37*
G36*
X57827021Y-37040784D02*
G01*
X57989962Y-37067437D01*
X58002815Y-36991302D01*
X58006723Y-36928127D01*
X57997794Y-36834300D01*
X57974941Y-36772330D01*
X57937431Y-36724610D01*
X57891227Y-36694478D01*
X57825065Y-36679223D01*
X57672965Y-36671946D01*
X57045383Y-36671946D01*
X57045383Y-36536666D01*
X56904699Y-36536666D01*
X56904699Y-36671946D01*
X56635239Y-36671946D01*
X56524505Y-36855312D01*
X56904699Y-36855312D01*
X56904699Y-37040784D01*
X57045383Y-37040784D01*
X57045383Y-36855312D01*
X57680476Y-36855312D01*
X57752296Y-36858501D01*
X57781775Y-36865020D01*
X57801895Y-36877778D01*
X57817588Y-36896803D01*
X57827128Y-36921678D01*
X57830868Y-36959817D01*
X57827021Y-37040784D01*
G37*
G36*
X58411189Y-37405774D02*
G01*
X57880419Y-37405774D01*
X57934480Y-37458806D01*
X57979337Y-37526125D01*
X58008414Y-37603066D01*
X58018447Y-37691630D01*
X58010666Y-37773685D01*
X57987248Y-37853342D01*
X57947281Y-37931873D01*
X57893500Y-38001346D01*
X57825833Y-38059209D01*
X57742391Y-38106079D01*
X57651463Y-38138877D01*
X57551719Y-38159094D01*
X57441698Y-38166072D01*
X57338944Y-38159827D01*
X57243834Y-38141584D01*
X57155293Y-38111758D01*
X57073352Y-38068822D01*
X57006541Y-38015331D01*
X56952968Y-37950833D01*
X56913456Y-37876984D01*
X56889490Y-37795664D01*
X56881252Y-37705002D01*
X56882505Y-37687600D01*
X57027798Y-37687600D01*
X57038946Y-37762170D01*
X57072346Y-37829469D01*
X57130929Y-37892031D01*
X57183990Y-37926914D01*
X57251205Y-37953645D01*
X57335722Y-37971175D01*
X57441331Y-37977577D01*
X57552483Y-37970927D01*
X57640290Y-37952828D01*
X57709081Y-37925430D01*
X57762450Y-37889924D01*
X57808975Y-37842424D01*
X57840804Y-37792145D01*
X57859657Y-37738239D01*
X57866039Y-37679357D01*
X57855089Y-37603270D01*
X57822538Y-37535467D01*
X57766022Y-37473368D01*
X57714460Y-37438904D01*
X57648113Y-37412340D01*
X57563548Y-37394809D01*
X57456627Y-37388372D01*
X57350541Y-37395026D01*
X57264196Y-37413401D01*
X57194164Y-37441709D01*
X57137616Y-37479047D01*
X57087537Y-37528515D01*
X57053892Y-37579143D01*
X57034325Y-37631741D01*
X57027798Y-37687600D01*
X56882505Y-37687600D01*
X56886295Y-37634964D01*
X56900579Y-37575042D01*
X56923292Y-37523560D01*
X56974312Y-37454187D01*
X57049230Y-37389379D01*
X56904699Y-37389379D01*
X56904699Y-37221310D01*
X58411189Y-37221310D01*
X58411189Y-37405774D01*
G37*
G36*
X57666737Y-38314083D02*
G01*
X57643290Y-38496441D01*
X57711781Y-38513612D01*
X57765970Y-38542209D01*
X57808612Y-38581987D01*
X57839157Y-38631923D01*
X57858848Y-38696053D01*
X57866039Y-38778266D01*
X57859280Y-38861655D01*
X57841335Y-38922707D01*
X57814474Y-38966761D01*
X57776853Y-39001844D01*
X57737007Y-39021719D01*
X57693482Y-39028310D01*
X57654850Y-39022254D01*
X57622754Y-39004582D01*
X57595479Y-38973996D01*
X57572276Y-38921524D01*
X57533197Y-38785410D01*
X57480643Y-38598840D01*
X57444537Y-38504134D01*
X57399187Y-38434360D01*
X57341039Y-38385249D01*
X57271731Y-38354964D01*
X57194952Y-38344766D01*
X57124555Y-38353148D01*
X57060129Y-38378013D01*
X57003382Y-38417360D01*
X56957090Y-38468780D01*
X56929077Y-38516788D01*
X56903326Y-38586108D01*
X56886898Y-38662178D01*
X56881252Y-38745477D01*
X56890960Y-38868738D01*
X56918072Y-38970333D01*
X56947104Y-39032042D01*
X56980419Y-39078847D01*
X57017814Y-39113306D01*
X57087942Y-39150977D01*
X57186067Y-39176871D01*
X57209515Y-38996528D01*
X57157168Y-38982704D01*
X57114671Y-38959012D01*
X57080188Y-38925270D01*
X57055565Y-38883503D01*
X57039548Y-38829159D01*
X57033660Y-38758757D01*
X57039436Y-38674411D01*
X57054284Y-38616244D01*
X57075517Y-38577407D01*
X57106365Y-38546193D01*
X57138619Y-38528801D01*
X57173519Y-38523094D01*
X57207378Y-38528700D01*
X57237816Y-38545625D01*
X57263772Y-38573049D01*
X57286726Y-38616333D01*
X57333712Y-38779274D01*
X57385776Y-38959598D01*
X57419350Y-39052307D01*
X57460691Y-39122010D01*
X57516161Y-39173756D01*
X57560477Y-39197637D01*
X57612519Y-39212547D01*
X57674064Y-39217812D01*
X57733981Y-39211905D01*
X57791560Y-39194178D01*
X57847813Y-39163956D01*
X57897162Y-39123657D01*
X57939091Y-39072445D01*
X57973842Y-39008709D01*
X57998176Y-38939797D01*
X58013234Y-38863705D01*
X58018447Y-38779274D01*
X58011910Y-38671516D01*
X57993883Y-38583931D01*
X57966184Y-38513043D01*
X57929787Y-38455957D01*
X57881923Y-38406975D01*
X57823353Y-38366962D01*
X57752387Y-38335787D01*
X57666737Y-38314083D01*
G37*
G36*
X57109863Y-39488372D02*
G01*
X56904699Y-39488372D01*
X56904699Y-39698390D01*
X57109863Y-39698390D01*
X57109863Y-39488372D01*
G37*
G36*
X57995000Y-39488372D02*
G01*
X57789836Y-39488372D01*
X57789836Y-39698390D01*
X57995000Y-39698390D01*
X57995000Y-39488372D01*
G37*
G36*
X58018447Y-39882030D02*
G01*
X56465062Y-40317546D01*
X56465062Y-40465099D01*
X58018447Y-40030591D01*
X58018447Y-39882030D01*
G37*
G36*
X58018447Y-40465282D02*
G01*
X56465062Y-40900798D01*
X56465062Y-41048351D01*
X58018447Y-40613843D01*
X58018447Y-40465282D01*
G37*
G36*
X57556405Y-41124231D02*
G01*
X57657445Y-41147705D01*
X57749160Y-41185911D01*
X57832975Y-41239043D01*
X57903503Y-41306454D01*
X57953422Y-41385143D01*
X57984191Y-41477345D01*
X57995000Y-41586540D01*
X57986398Y-41673851D01*
X57961330Y-41751941D01*
X57919765Y-41822806D01*
X57860177Y-41887783D01*
X58021648Y-41883979D01*
X58091720Y-41874502D01*
X58148365Y-41852573D01*
X58194609Y-41821252D01*
X58232037Y-41780163D01*
X58258425Y-41731108D01*
X58275800Y-41666599D01*
X58282229Y-41582418D01*
X58275514Y-41504841D01*
X58257023Y-41443440D01*
X58228190Y-41394840D01*
X58197990Y-41366366D01*
X58156492Y-41345316D01*
X58100512Y-41332375D01*
X58077065Y-41153039D01*
X58165110Y-41159441D01*
X58237145Y-41181369D01*
X58296538Y-41217590D01*
X58345519Y-41268811D01*
X58383014Y-41330367D01*
X58410810Y-41402061D01*
X58428407Y-41485690D01*
X58434637Y-41583426D01*
X58427176Y-41691315D01*
X58406186Y-41782436D01*
X58373087Y-41859573D01*
X58326297Y-41928692D01*
X58270712Y-41982783D01*
X58205567Y-42023521D01*
X58131875Y-42049116D01*
X58016702Y-42067842D01*
X57845431Y-42075270D01*
X56904699Y-42075270D01*
X56904699Y-41905185D01*
X57039521Y-41905185D01*
X56968974Y-41836882D01*
X56920338Y-41762295D01*
X56891222Y-41679976D01*
X56882685Y-41600828D01*
X57033660Y-41600828D01*
X57044814Y-41679653D01*
X57077944Y-41749975D01*
X57135326Y-41814419D01*
X57187927Y-41850873D01*
X57253740Y-41878536D01*
X57335633Y-41896538D01*
X57437118Y-41903079D01*
X57544095Y-41896536D01*
X57628257Y-41878755D01*
X57693906Y-41851857D01*
X57744590Y-41816983D01*
X57799522Y-41754332D01*
X57831650Y-41684215D01*
X57842592Y-41603851D01*
X57831553Y-41522955D01*
X57799222Y-41452870D01*
X57744040Y-41390718D01*
X57693264Y-41356479D01*
X57626826Y-41329905D01*
X57540925Y-41312244D01*
X57430982Y-41305722D01*
X57330985Y-41312078D01*
X57250314Y-41329564D01*
X57185519Y-41356406D01*
X57133769Y-41391726D01*
X57077296Y-41454495D01*
X57044664Y-41523321D01*
X57033660Y-41600828D01*
X56882685Y-41600828D01*
X56881252Y-41587547D01*
X56889590Y-41493398D01*
X56913674Y-41410227D01*
X56953060Y-41335947D01*
X57006703Y-41271075D01*
X57073926Y-41216712D01*
X57156666Y-41172457D01*
X57246013Y-41141472D01*
X57341520Y-41122580D01*
X57444262Y-41116128D01*
X57556405Y-41124231D01*
G37*
G36*
X56693674Y-42354439D02*
G01*
X56488510Y-42354439D01*
X56488510Y-42538812D01*
X56693674Y-42538812D01*
X56693674Y-42354439D01*
G37*
G36*
X57995000Y-42354439D02*
G01*
X56904699Y-42354439D01*
X56904699Y-42538812D01*
X57995000Y-42538812D01*
X57995000Y-42354439D01*
G37*
G36*
X57827021Y-43222082D02*
G01*
X57989962Y-43248735D01*
X58002815Y-43172600D01*
X58006723Y-43109425D01*
X57997794Y-43015598D01*
X57974941Y-42953628D01*
X57937431Y-42905908D01*
X57891227Y-42875776D01*
X57825065Y-42860521D01*
X57672965Y-42853244D01*
X57045383Y-42853244D01*
X57045383Y-42717964D01*
X56904699Y-42717964D01*
X56904699Y-42853244D01*
X56635239Y-42853244D01*
X56524505Y-43036610D01*
X56904699Y-43036610D01*
X56904699Y-43222082D01*
X57045383Y-43222082D01*
X57045383Y-43036610D01*
X57680476Y-43036610D01*
X57752296Y-43039799D01*
X57781775Y-43046318D01*
X57801895Y-43059076D01*
X57817588Y-43078101D01*
X57827128Y-43102976D01*
X57830868Y-43141115D01*
X57827021Y-43222082D01*
G37*
G36*
X57995000Y-43402608D02*
G01*
X56488510Y-43402608D01*
X56488510Y-43587072D01*
X57030362Y-43587072D01*
X56964448Y-43656757D01*
X56918504Y-43733171D01*
X56890780Y-43817810D01*
X56881252Y-43912953D01*
X56886901Y-43992385D01*
X56903051Y-44061863D01*
X56928971Y-44122971D01*
X56965537Y-44177703D01*
X57009246Y-44219731D01*
X57060771Y-44250558D01*
X57118387Y-44270263D01*
X57197789Y-44283864D01*
X57304769Y-44289026D01*
X57995000Y-44289026D01*
X57995000Y-44104562D01*
X57304311Y-44104562D01*
X57213700Y-44096666D01*
X57148608Y-44075808D01*
X57102628Y-44044569D01*
X57068532Y-44000840D01*
X57047202Y-43945479D01*
X57039521Y-43875034D01*
X57050109Y-43795706D01*
X57082111Y-43720795D01*
X57114347Y-43676704D01*
X57152623Y-43642703D01*
X57197608Y-43617755D01*
X57277879Y-43595763D01*
X57398742Y-43587072D01*
X57995000Y-43587072D01*
X57995000Y-43402608D01*
G37*
G36*
X57995000Y-45282331D02*
G01*
X57834532Y-45282331D01*
X57902166Y-45226454D01*
X57953002Y-45164968D01*
X57988961Y-45097192D01*
X58010880Y-45021822D01*
X58018447Y-44937033D01*
X58009098Y-44843297D01*
X57981536Y-44757148D01*
X57938213Y-44682237D01*
X57888754Y-44633225D01*
X57828074Y-44599405D01*
X57751825Y-44576347D01*
X57689481Y-44568450D01*
X57579542Y-44565081D01*
X56904699Y-44565081D01*
X56904699Y-44749454D01*
X57509200Y-44749454D01*
X57642202Y-44753024D01*
X57704198Y-44760720D01*
X57749929Y-44776969D01*
X57787639Y-44801420D01*
X57818595Y-44834451D01*
X57841236Y-44873940D01*
X57855254Y-44919891D01*
X57860177Y-44973852D01*
X57849571Y-45054121D01*
X57817588Y-45129557D01*
X57785276Y-45173920D01*
X57746855Y-45207903D01*
X57701633Y-45232597D01*
X57619602Y-45254091D01*
X57488684Y-45262822D01*
X56904699Y-45262822D01*
X56904699Y-45447287D01*
X57995000Y-45447287D01*
X57995000Y-45282331D01*
G37*
G36*
X57995000Y-45905700D02*
G01*
X57856789Y-45905700D01*
X57928606Y-45966889D01*
X57978179Y-46036378D01*
X58008086Y-46115793D01*
X58018447Y-46208042D01*
X58008928Y-46301309D01*
X57980911Y-46386499D01*
X57933925Y-46465609D01*
X57865856Y-46539968D01*
X57786242Y-46597855D01*
X57690015Y-46640939D01*
X57573823Y-46668488D01*
X57433455Y-46678362D01*
X57318142Y-46670001D01*
X57212171Y-46645573D01*
X57114588Y-46605651D01*
X57035491Y-46554897D01*
X56970780Y-46489538D01*
X56921735Y-46407344D01*
X56891423Y-46315230D01*
X56881252Y-46217293D01*
X56883014Y-46200806D01*
X57033660Y-46200806D01*
X57044702Y-46276121D01*
X57077606Y-46343405D01*
X57134959Y-46405238D01*
X57186979Y-46439431D01*
X57254153Y-46465864D01*
X57340023Y-46483347D01*
X57448842Y-46489776D01*
X57554340Y-46483232D01*
X57639232Y-46465259D01*
X57707193Y-46437743D01*
X57761259Y-46401666D01*
X57808526Y-46353800D01*
X57840696Y-46303642D01*
X57859650Y-46250365D01*
X57866039Y-46192655D01*
X57857267Y-46122638D01*
X57831614Y-46061320D01*
X57788219Y-46006460D01*
X57723890Y-45956991D01*
X57662987Y-45930119D01*
X57572255Y-45911096D01*
X57441698Y-45903685D01*
X57341321Y-45910118D01*
X57259370Y-45927915D01*
X57192649Y-45955409D01*
X57138531Y-45991796D01*
X57091218Y-46039667D01*
X57059021Y-46089827D01*
X57040053Y-46143102D01*
X57033660Y-46200806D01*
X56883014Y-46200806D01*
X56890568Y-46130118D01*
X56917728Y-46052714D01*
X56963002Y-45982826D01*
X57028531Y-45919072D01*
X56488510Y-45919072D01*
X56488510Y-45734608D01*
X57995000Y-45734608D01*
X57995000Y-45905700D01*
G37*
G36*
X57995000Y-46954418D02*
G01*
X57789836Y-46954418D01*
X57789836Y-47164436D01*
X57995000Y-47164436D01*
X57995000Y-46954418D01*
G37*
G36*
X57596395Y-48195477D02*
G01*
X57619842Y-48376827D01*
X57711418Y-48355185D01*
X57789497Y-48322417D01*
X57856089Y-48279016D01*
X57912659Y-48224694D01*
X57958522Y-48160693D01*
X57991341Y-48090130D01*
X58011481Y-48011748D01*
X58018447Y-47923909D01*
X58008716Y-47814443D01*
X57980863Y-47719833D01*
X57935706Y-47637274D01*
X57872451Y-47564781D01*
X57796144Y-47508065D01*
X57703364Y-47465819D01*
X57590730Y-47438760D01*
X57453971Y-47429043D01*
X57337619Y-47435987D01*
X57235490Y-47455802D01*
X57145584Y-47487386D01*
X57063829Y-47533822D01*
X56998412Y-47592754D01*
X56947381Y-47665164D01*
X56910710Y-47746925D01*
X56888701Y-47833119D01*
X56881252Y-47925008D01*
X56887422Y-48013331D01*
X56904988Y-48089906D01*
X56933039Y-48156594D01*
X56971378Y-48214894D01*
X57019928Y-48265188D01*
X57077772Y-48305946D01*
X57146221Y-48337484D01*
X57227100Y-48359425D01*
X57250547Y-48180089D01*
X57181571Y-48157317D01*
X57128406Y-48126930D01*
X57088156Y-48089414D01*
X57058114Y-48043513D01*
X57039942Y-47991648D01*
X57033660Y-47932152D01*
X57040163Y-47864410D01*
X57058928Y-47805143D01*
X57089703Y-47752636D01*
X57133402Y-47705739D01*
X57184837Y-47670571D01*
X57251911Y-47643349D01*
X57338393Y-47625295D01*
X57448842Y-47618636D01*
X57561276Y-47625130D01*
X57648688Y-47642663D01*
X57715877Y-47668939D01*
X57766846Y-47702625D01*
X57810405Y-47748071D01*
X57840987Y-47798923D01*
X57859595Y-47856299D01*
X57866039Y-47921894D01*
X57858363Y-47991745D01*
X57836296Y-48051448D01*
X57799911Y-48103244D01*
X57751204Y-48143764D01*
X57684940Y-48174926D01*
X57596395Y-48195477D01*
G37*
G36*
X57587954Y-48476100D02*
G01*
X57701577Y-48504128D01*
X57795111Y-48547942D01*
X57871993Y-48606904D01*
X57935379Y-48681801D01*
X57980707Y-48766870D01*
X58008680Y-48864109D01*
X58018447Y-48976290D01*
X58010929Y-49069508D01*
X57988752Y-49156669D01*
X57951860Y-49239065D01*
X57901200Y-49313332D01*
X57839247Y-49374080D01*
X57764923Y-49422522D01*
X57682052Y-49455415D01*
X57573935Y-49477387D01*
X57434462Y-49485537D01*
X57305491Y-49475622D01*
X57197078Y-49447703D01*
X57105593Y-49403467D01*
X57028256Y-49343113D01*
X56964363Y-49267399D01*
X56918885Y-49182380D01*
X56890959Y-49086205D01*
X56881252Y-48976290D01*
X57033660Y-48976290D01*
X57040262Y-49042153D01*
X57059534Y-49101175D01*
X57091564Y-49154877D01*
X57137616Y-49204261D01*
X57191508Y-49242146D01*
X57258433Y-49270764D01*
X57341175Y-49289315D01*
X57443163Y-49296035D01*
X57552097Y-49289204D01*
X57638896Y-49270522D01*
X57707626Y-49242039D01*
X57761625Y-49204810D01*
X57807831Y-49155628D01*
X57840003Y-49101921D01*
X57859388Y-49042662D01*
X57866039Y-48976290D01*
X57859397Y-48909353D01*
X57840070Y-48849750D01*
X57808057Y-48795903D01*
X57762175Y-48746763D01*
X57708345Y-48709375D01*
X57640451Y-48680906D01*
X57555373Y-48662313D01*
X57449300Y-48655539D01*
X57343256Y-48662321D01*
X57258317Y-48680924D01*
X57190635Y-48709392D01*
X57137066Y-48746763D01*
X57091408Y-48795874D01*
X57059531Y-48849713D01*
X57040278Y-48909326D01*
X57033660Y-48976290D01*
X56881252Y-48976290D01*
X56889179Y-48876946D01*
X56912144Y-48787937D01*
X56949643Y-48707453D01*
X57002152Y-48634106D01*
X57063119Y-48576279D01*
X57136107Y-48530251D01*
X57223056Y-48495853D01*
X57326582Y-48473880D01*
X57449849Y-48466037D01*
X57587954Y-48476100D01*
G37*
G36*
X57995000Y-49701142D02*
G01*
X56904699Y-49701142D01*
X56904699Y-49866189D01*
X57057015Y-49866189D01*
X56985806Y-49925541D01*
X56929521Y-50002385D01*
X56903025Y-50060806D01*
X56886829Y-50124974D01*
X56881252Y-50196100D01*
X56887355Y-50275385D01*
X56904373Y-50340584D01*
X56931078Y-50394303D01*
X56968648Y-50440779D01*
X57014672Y-50476936D01*
X57070388Y-50503480D01*
X56999829Y-50560631D01*
X56947424Y-50621984D01*
X56910826Y-50688089D01*
X56888787Y-50760087D01*
X56881252Y-50839619D01*
X56887565Y-50920201D01*
X56905238Y-50986971D01*
X56933101Y-51042455D01*
X56971011Y-51088564D01*
X57017972Y-51124371D01*
X57077628Y-51151507D01*
X57152875Y-51169208D01*
X57247342Y-51175667D01*
X57995000Y-51175667D01*
X57995000Y-50992301D01*
X57307700Y-50992301D01*
X57204542Y-50986885D01*
X57147965Y-50974350D01*
X57104256Y-50949379D01*
X57069380Y-50909228D01*
X57047233Y-50858936D01*
X57039521Y-50798586D01*
X57048315Y-50725275D01*
X57073722Y-50662574D01*
X57116092Y-50607985D01*
X57172101Y-50568380D01*
X57251180Y-50542079D01*
X57361098Y-50532148D01*
X57995000Y-50532148D01*
X57995000Y-50347775D01*
X57286085Y-50347775D01*
X57204737Y-50341831D01*
X57144737Y-50326058D01*
X57101162Y-50302621D01*
X57068140Y-50268085D01*
X57047236Y-50220435D01*
X57039521Y-50155159D01*
X57049805Y-50080161D01*
X57080646Y-50011086D01*
X57111872Y-49971456D01*
X57151494Y-49939661D01*
X57200813Y-49915282D01*
X57288946Y-49894179D01*
X57428875Y-49885607D01*
X57995000Y-49885607D01*
X57995000Y-49701142D01*
G37*
G36*
X58018447Y-51311130D02*
G01*
X56465062Y-51746646D01*
X56465062Y-51894199D01*
X58018447Y-51459691D01*
X58018447Y-51311130D01*
G37*
G36*
X57995000Y-52032684D02*
G01*
X56904699Y-52032684D01*
X56904699Y-52198739D01*
X57059397Y-52198739D01*
X56994781Y-52251437D01*
X56945691Y-52311230D01*
X56910533Y-52378968D01*
X56888827Y-52456198D01*
X56881252Y-52545045D01*
X56890314Y-52640447D01*
X56916698Y-52725846D01*
X56959003Y-52799863D01*
X57009480Y-52849310D01*
X57071165Y-52883709D01*
X57145859Y-52906738D01*
X57206742Y-52913838D01*
X57325286Y-52916996D01*
X57995000Y-52916996D01*
X57995000Y-52732532D01*
X57331331Y-52732532D01*
X57225614Y-52726214D01*
X57162345Y-52711008D01*
X57112347Y-52681471D01*
X57072952Y-52634621D01*
X57048172Y-52576224D01*
X57039521Y-52506119D01*
X57048037Y-52430357D01*
X57072901Y-52363240D01*
X57114535Y-52302695D01*
X57154479Y-52268924D01*
X57211554Y-52242251D01*
X57290929Y-52224049D01*
X57399108Y-52217149D01*
X57995000Y-52217149D01*
X57995000Y-52032684D01*
G37*
G36*
X57591607Y-53147582D02*
G01*
X57702052Y-53175192D01*
X57794323Y-53218670D01*
X57871443Y-53277590D01*
X57934585Y-53351961D01*
X57980117Y-53438168D01*
X58008470Y-53538528D01*
X58018447Y-53656228D01*
X58012118Y-53750911D01*
X57994101Y-53833177D01*
X57965368Y-53904931D01*
X57926215Y-53967729D01*
X57857662Y-54039432D01*
X57772210Y-54095024D01*
X57666737Y-54134791D01*
X57643290Y-53944190D01*
X57717706Y-53910777D01*
X57773075Y-53872743D01*
X57812916Y-53830434D01*
X57842006Y-53780285D01*
X57859834Y-53723128D01*
X57866039Y-53657235D01*
X57855223Y-53570423D01*
X57823796Y-53495564D01*
X57770968Y-53429723D01*
X57721143Y-53391065D01*
X57660316Y-53360882D01*
X57586393Y-53339577D01*
X57496744Y-53328332D01*
X57496744Y-54139829D01*
X57447560Y-54140928D01*
X57312827Y-54131132D01*
X57200801Y-54103723D01*
X57107504Y-54060675D01*
X57029813Y-54002534D01*
X56965008Y-53928656D01*
X56919098Y-53845925D01*
X56891002Y-53752550D01*
X56881445Y-53648076D01*
X57033660Y-53648076D01*
X57040493Y-53715973D01*
X57060278Y-53775612D01*
X57092923Y-53828745D01*
X57139631Y-53876504D01*
X57188393Y-53907721D01*
X57254988Y-53931533D01*
X57344337Y-53946205D01*
X57344337Y-53338590D01*
X57253645Y-53354109D01*
X57179364Y-53386187D01*
X57118198Y-53434394D01*
X57071342Y-53496411D01*
X57043318Y-53566770D01*
X57033660Y-53648076D01*
X56881445Y-53648076D01*
X56881252Y-53645969D01*
X56891247Y-53535781D01*
X56919998Y-53439573D01*
X56966884Y-53354656D01*
X57032927Y-53279147D01*
X57112259Y-53219718D01*
X57207470Y-53175732D01*
X57321735Y-53147735D01*
X57459100Y-53137731D01*
X57591607Y-53147582D01*
G37*
G36*
X57995000Y-54535777D02*
G01*
X57856789Y-54535777D01*
X57928606Y-54596965D01*
X57978179Y-54666455D01*
X58008086Y-54745870D01*
X58018447Y-54838119D01*
X58008928Y-54931386D01*
X57980911Y-55016576D01*
X57933925Y-55095686D01*
X57865856Y-55170045D01*
X57786242Y-55227932D01*
X57690015Y-55271016D01*
X57573823Y-55298565D01*
X57433455Y-55308439D01*
X57318142Y-55300078D01*
X57212171Y-55275649D01*
X57114588Y-55235728D01*
X57035491Y-55184974D01*
X56970780Y-55119615D01*
X56921735Y-55037421D01*
X56891423Y-54945307D01*
X56881252Y-54847370D01*
X56883014Y-54830883D01*
X57033660Y-54830883D01*
X57044702Y-54906197D01*
X57077606Y-54973482D01*
X57134959Y-55035314D01*
X57186979Y-55069508D01*
X57254153Y-55095941D01*
X57340023Y-55113424D01*
X57448842Y-55119853D01*
X57554340Y-55113309D01*
X57639232Y-55095336D01*
X57707193Y-55067820D01*
X57761259Y-55031742D01*
X57808526Y-54983877D01*
X57840696Y-54933719D01*
X57859650Y-54880441D01*
X57866039Y-54822732D01*
X57857267Y-54752715D01*
X57831614Y-54691397D01*
X57788219Y-54636537D01*
X57723890Y-54587068D01*
X57662987Y-54560196D01*
X57572255Y-54541173D01*
X57441698Y-54533762D01*
X57341321Y-54540195D01*
X57259370Y-54557992D01*
X57192649Y-54585485D01*
X57138531Y-54621872D01*
X57091218Y-54669744D01*
X57059021Y-54719903D01*
X57040053Y-54773178D01*
X57033660Y-54830883D01*
X56883014Y-54830883D01*
X56890568Y-54760195D01*
X56917728Y-54682790D01*
X56963002Y-54612903D01*
X57028531Y-54549149D01*
X56488510Y-54549149D01*
X56488510Y-54364685D01*
X57995000Y-54364685D01*
X57995000Y-54535777D01*
G37*
G36*
X57995000Y-55532196D02*
G01*
X56488510Y-55532196D01*
X56488510Y-55716660D01*
X57030362Y-55716660D01*
X56964448Y-55786345D01*
X56918504Y-55862759D01*
X56890780Y-55947398D01*
X56881252Y-56042541D01*
X56886901Y-56121973D01*
X56903051Y-56191451D01*
X56928971Y-56252560D01*
X56965537Y-56307292D01*
X57009246Y-56349320D01*
X57060771Y-56380146D01*
X57118387Y-56399851D01*
X57197789Y-56413453D01*
X57304769Y-56418614D01*
X57995000Y-56418614D01*
X57995000Y-56234150D01*
X57304311Y-56234150D01*
X57213700Y-56226255D01*
X57148608Y-56205397D01*
X57102628Y-56174158D01*
X57068532Y-56130428D01*
X57047202Y-56075067D01*
X57039521Y-56004623D01*
X57050109Y-55925295D01*
X57082111Y-55850383D01*
X57114347Y-55806293D01*
X57152623Y-55772292D01*
X57197608Y-55747343D01*
X57277879Y-55725351D01*
X57398742Y-55716660D01*
X57995000Y-55716660D01*
X57995000Y-55532196D01*
G37*
G36*
X57591607Y-56647093D02*
G01*
X57702052Y-56674703D01*
X57794323Y-56718181D01*
X57871443Y-56777102D01*
X57934585Y-56851473D01*
X57980117Y-56937679D01*
X58008470Y-57038040D01*
X58018447Y-57155739D01*
X58012118Y-57250423D01*
X57994101Y-57332689D01*
X57965368Y-57404442D01*
X57926215Y-57467240D01*
X57857662Y-57538943D01*
X57772210Y-57594535D01*
X57666737Y-57634303D01*
X57643290Y-57443702D01*
X57717706Y-57410289D01*
X57773075Y-57372255D01*
X57812916Y-57329945D01*
X57842006Y-57279797D01*
X57859834Y-57222640D01*
X57866039Y-57156747D01*
X57855223Y-57069935D01*
X57823796Y-56995076D01*
X57770968Y-56929234D01*
X57721143Y-56890577D01*
X57660316Y-56860394D01*
X57586393Y-56839089D01*
X57496744Y-56827843D01*
X57496744Y-57639340D01*
X57447560Y-57640439D01*
X57312827Y-57630643D01*
X57200801Y-57603234D01*
X57107504Y-57560187D01*
X57029813Y-57502045D01*
X56965008Y-57428167D01*
X56919098Y-57345436D01*
X56891002Y-57252062D01*
X56881445Y-57147588D01*
X57033660Y-57147588D01*
X57040493Y-57215485D01*
X57060278Y-57275124D01*
X57092923Y-57328257D01*
X57139631Y-57376016D01*
X57188393Y-57407232D01*
X57254988Y-57431045D01*
X57344337Y-57445717D01*
X57344337Y-56838101D01*
X57253645Y-56853620D01*
X57179364Y-56885698D01*
X57118198Y-56933906D01*
X57071342Y-56995923D01*
X57043318Y-57066281D01*
X57033660Y-57147588D01*
X56881445Y-57147588D01*
X56881252Y-57145481D01*
X56891247Y-57035293D01*
X56919998Y-56939084D01*
X56966884Y-56854168D01*
X57032927Y-56778659D01*
X57112259Y-56719229D01*
X57207470Y-56675244D01*
X57321735Y-56647246D01*
X57459100Y-56637242D01*
X57591607Y-56647093D01*
G37*
G36*
X57773279Y-57808996D02*
G01*
X57831742Y-57827092D01*
X57883917Y-57856812D01*
X57930886Y-57899001D01*
X57967413Y-57949232D01*
X57994678Y-58010345D01*
X58012164Y-58084567D01*
X58018447Y-58174690D01*
X58009364Y-58280723D01*
X57982726Y-58378114D01*
X57936457Y-58471201D01*
X57860177Y-58575309D01*
X57934084Y-58589099D01*
X57995000Y-58612220D01*
X57995000Y-58804836D01*
X57929844Y-58775695D01*
X57862284Y-58758217D01*
X57770175Y-58750396D01*
X57536403Y-58746493D01*
X57291031Y-58746493D01*
X57177821Y-58743619D01*
X57121404Y-58737242D01*
X57050824Y-58714017D01*
X56996199Y-58679815D01*
X56952859Y-58630401D01*
X56913950Y-58551770D01*
X56890324Y-58457629D01*
X56881252Y-58325357D01*
X56891378Y-58190027D01*
X56919629Y-58078336D01*
X56950121Y-58010481D01*
X56986602Y-57956933D01*
X57028897Y-57915487D01*
X57078707Y-57882778D01*
X57140163Y-57855584D01*
X57215376Y-57834521D01*
X57238824Y-58014863D01*
X57165131Y-58040459D01*
X57113500Y-58071279D01*
X57078906Y-58106546D01*
X57055614Y-58150448D01*
X57039717Y-58212583D01*
X57033660Y-58298704D01*
X57041670Y-58389621D01*
X57063249Y-58457876D01*
X57096216Y-58508722D01*
X57130826Y-58535900D01*
X57181788Y-58554074D01*
X57255127Y-58561021D01*
X57303304Y-58559922D01*
X57449849Y-58559922D01*
X57516619Y-58559922D01*
X57629132Y-58551344D01*
X57698702Y-58530246D01*
X57747939Y-58499684D01*
X57789932Y-58459431D01*
X57825281Y-58408339D01*
X57850841Y-58351381D01*
X57866500Y-58288585D01*
X57871901Y-58218745D01*
X57865709Y-58148531D01*
X57848959Y-58095326D01*
X57823266Y-58055255D01*
X57787728Y-58024041D01*
X57747666Y-58005730D01*
X57701450Y-57999476D01*
X57655783Y-58005901D01*
X57614713Y-58025030D01*
X57580715Y-58055609D01*
X57555362Y-58097753D01*
X57537926Y-58153568D01*
X57518818Y-58258679D01*
X57484583Y-58446383D01*
X57449849Y-58559922D01*
X57303304Y-58559922D01*
X57334832Y-58439191D01*
X57366868Y-58231018D01*
X57394528Y-58067070D01*
X57420113Y-57996456D01*
X57454979Y-57934355D01*
X57501079Y-57881439D01*
X57561041Y-57839100D01*
X57630017Y-57811959D01*
X57706946Y-57802739D01*
X57773279Y-57808996D01*
G37*
G36*
X57560871Y-58972166D02*
G01*
X57658811Y-58992421D01*
X57746421Y-59025021D01*
X57827040Y-59071316D01*
X57893265Y-59127511D01*
X57946731Y-59194098D01*
X57986690Y-59269497D01*
X58010439Y-59348787D01*
X58018447Y-59433426D01*
X58007773Y-59529942D01*
X57977326Y-59610791D01*
X57927443Y-59679429D01*
X57855781Y-59737783D01*
X57995000Y-59737783D01*
X57995000Y-59908875D01*
X56488510Y-59908875D01*
X56488510Y-59725418D01*
X57030546Y-59725418D01*
X56970728Y-59670541D01*
X56922651Y-59600396D01*
X56891911Y-59519468D01*
X56883230Y-59442677D01*
X57033660Y-59442677D01*
X57040166Y-59503103D01*
X57059278Y-59557709D01*
X57091368Y-59607943D01*
X57138073Y-59654710D01*
X57191625Y-59689374D01*
X57261377Y-59716310D01*
X57351194Y-59734205D01*
X57465695Y-59740806D01*
X57569044Y-59734455D01*
X57651299Y-59717102D01*
X57716322Y-59690695D01*
X57767304Y-59656267D01*
X57823016Y-59594599D01*
X57855192Y-59526981D01*
X57866039Y-59450828D01*
X57854887Y-59375508D01*
X57821402Y-59307005D01*
X57762633Y-59242825D01*
X57709280Y-59206844D01*
X57641688Y-59179326D01*
X57556679Y-59161297D01*
X57450399Y-59154714D01*
X57339453Y-59161055D01*
X57252649Y-59178222D01*
X57185447Y-59204017D01*
X57134043Y-59237146D01*
X57089256Y-59282013D01*
X57058393Y-59330535D01*
X57039954Y-59383611D01*
X57033660Y-59442677D01*
X56883230Y-59442677D01*
X56881252Y-59425183D01*
X56889247Y-59337835D01*
X56912763Y-59257421D01*
X56951960Y-59182375D01*
X57005168Y-59116807D01*
X57072289Y-59062657D01*
X57155384Y-59019434D01*
X57245292Y-58989736D01*
X57343366Y-58971429D01*
X57450857Y-58965121D01*
X57560871Y-58972166D01*
G37*
G36*
X58018447Y-60059909D02*
G01*
X56465062Y-60495424D01*
X56465062Y-60642978D01*
X58018447Y-60208469D01*
X58018447Y-60059909D01*
G37*
G36*
X58411189Y-60965928D02*
G01*
X57880419Y-60965928D01*
X57934480Y-61018959D01*
X57979337Y-61086278D01*
X58008414Y-61163220D01*
X58018447Y-61251783D01*
X58010666Y-61333838D01*
X57987248Y-61413495D01*
X57947281Y-61492027D01*
X57893500Y-61561499D01*
X57825833Y-61619363D01*
X57742391Y-61666233D01*
X57651463Y-61699030D01*
X57551719Y-61719247D01*
X57441698Y-61726225D01*
X57338944Y-61719981D01*
X57243834Y-61701738D01*
X57155293Y-61671912D01*
X57073352Y-61628975D01*
X57006541Y-61575485D01*
X56952968Y-61510986D01*
X56913456Y-61437138D01*
X56889490Y-61355818D01*
X56881252Y-61265156D01*
X56882505Y-61247753D01*
X57027798Y-61247753D01*
X57038946Y-61322323D01*
X57072346Y-61389622D01*
X57130929Y-61452185D01*
X57183990Y-61487068D01*
X57251205Y-61513798D01*
X57335722Y-61531329D01*
X57441331Y-61537731D01*
X57552483Y-61531081D01*
X57640290Y-61512982D01*
X57709081Y-61485583D01*
X57762450Y-61450078D01*
X57808975Y-61402577D01*
X57840804Y-61352299D01*
X57859657Y-61298392D01*
X57866039Y-61239510D01*
X57855089Y-61163423D01*
X57822538Y-61095620D01*
X57766022Y-61033522D01*
X57714460Y-60999058D01*
X57648113Y-60972493D01*
X57563548Y-60954962D01*
X57456627Y-60948525D01*
X57350541Y-60955180D01*
X57264196Y-60973555D01*
X57194164Y-61001863D01*
X57137616Y-61039200D01*
X57087537Y-61088668D01*
X57053892Y-61139297D01*
X57034325Y-61191895D01*
X57027798Y-61247753D01*
X56882505Y-61247753D01*
X56886295Y-61195117D01*
X56900579Y-61135195D01*
X56923292Y-61083714D01*
X56974312Y-61014340D01*
X57049230Y-60949533D01*
X56904699Y-60949533D01*
X56904699Y-60781463D01*
X58411189Y-60781463D01*
X58411189Y-60965928D01*
G37*
G36*
X56693674Y-61949066D02*
G01*
X56488510Y-61949066D01*
X56488510Y-62133439D01*
X56693674Y-62133439D01*
X56693674Y-61949066D01*
G37*
G36*
X57995000Y-61949066D02*
G01*
X56904699Y-61949066D01*
X56904699Y-62133439D01*
X57995000Y-62133439D01*
X57995000Y-61949066D01*
G37*
G36*
X57995000Y-62458038D02*
G01*
X57045383Y-62458038D01*
X57045383Y-62295189D01*
X56904699Y-62295189D01*
X56904699Y-62458038D01*
X56788928Y-62458038D01*
X56686380Y-62463796D01*
X56625988Y-62477547D01*
X56581342Y-62499680D01*
X56542800Y-62530613D01*
X56509667Y-62571244D01*
X56486250Y-62618176D01*
X56470784Y-62679611D01*
X56465062Y-62759372D01*
X56469436Y-62838950D01*
X56483564Y-62931472D01*
X56645314Y-62903811D01*
X56635055Y-62795184D01*
X56639864Y-62740225D01*
X56652381Y-62702097D01*
X56670867Y-62676299D01*
X56697328Y-62658809D01*
X56739712Y-62646413D01*
X56804590Y-62641495D01*
X56904699Y-62641495D01*
X56904699Y-62853620D01*
X57045383Y-62853620D01*
X57045383Y-62641495D01*
X57995000Y-62641495D01*
X57995000Y-62458038D01*
G37*
G36*
X56693674Y-62998333D02*
G01*
X56488510Y-62998333D01*
X56488510Y-63182706D01*
X56693674Y-63182706D01*
X56693674Y-62998333D01*
G37*
G36*
X57995000Y-62998333D02*
G01*
X56904699Y-62998333D01*
X56904699Y-63182706D01*
X57995000Y-63182706D01*
X57995000Y-62998333D01*
G37*
G36*
X57995000Y-63461235D02*
G01*
X56904699Y-63461235D01*
X56904699Y-63627198D01*
X57073685Y-63627198D01*
X56969047Y-63693831D01*
X56918713Y-63744526D01*
X56890583Y-63801100D01*
X56881252Y-63862862D01*
X56887443Y-63923509D01*
X56906630Y-63986324D01*
X56940420Y-64052455D01*
X57110688Y-63988982D01*
X57083412Y-63920263D01*
X57074692Y-63853702D01*
X57083786Y-63796310D01*
X57111054Y-63745075D01*
X57153635Y-63704307D01*
X57211713Y-63676382D01*
X57312836Y-63653610D01*
X57426494Y-63645699D01*
X57995000Y-63645699D01*
X57995000Y-63461235D01*
G37*
G36*
X57591607Y-64110666D02*
G01*
X57702052Y-64138276D01*
X57794323Y-64181754D01*
X57871443Y-64240675D01*
X57934585Y-64315045D01*
X57980117Y-64401252D01*
X58008470Y-64501613D01*
X58018447Y-64619312D01*
X58012118Y-64713996D01*
X57994101Y-64796262D01*
X57965368Y-64868015D01*
X57926215Y-64930813D01*
X57857662Y-65002516D01*
X57772210Y-65058108D01*
X57666737Y-65097875D01*
X57643290Y-64907274D01*
X57717706Y-64873862D01*
X57773075Y-64835828D01*
X57812916Y-64793518D01*
X57842006Y-64743370D01*
X57859834Y-64686213D01*
X57866039Y-64620320D01*
X57855223Y-64533508D01*
X57823796Y-64458649D01*
X57770968Y-64392807D01*
X57721143Y-64354150D01*
X57660316Y-64323967D01*
X57586393Y-64302662D01*
X57496744Y-64291416D01*
X57496744Y-65102913D01*
X57447560Y-65104012D01*
X57312827Y-65094216D01*
X57200801Y-65066807D01*
X57107504Y-65023760D01*
X57029813Y-64965618D01*
X56965008Y-64891740D01*
X56919098Y-64809009D01*
X56891002Y-64715635D01*
X56881445Y-64611161D01*
X57033660Y-64611161D01*
X57040493Y-64679058D01*
X57060278Y-64738697D01*
X57092923Y-64791830D01*
X57139631Y-64839589D01*
X57188393Y-64870805D01*
X57254988Y-64894618D01*
X57344337Y-64909289D01*
X57344337Y-64301674D01*
X57253645Y-64317193D01*
X57179364Y-64349271D01*
X57118198Y-64397479D01*
X57071342Y-64459496D01*
X57043318Y-64529854D01*
X57033660Y-64611161D01*
X56881445Y-64611161D01*
X56881252Y-64609054D01*
X56891247Y-64498866D01*
X56919998Y-64402657D01*
X56966884Y-64317741D01*
X57032927Y-64242232D01*
X57112259Y-64182802D01*
X57207470Y-64138816D01*
X57321735Y-64110819D01*
X57459100Y-64100815D01*
X57591607Y-64110666D01*
G37*
G36*
X64796000Y-36852515D02*
G01*
X63923759Y-36521322D01*
X63923759Y-36677100D01*
X64446122Y-36863946D01*
X64621903Y-36919706D01*
X64456013Y-36974661D01*
X63923759Y-37168101D01*
X63923759Y-37319776D01*
X64796000Y-36990195D01*
X64796000Y-36852515D01*
G37*
G36*
X64796000Y-37964870D02*
G01*
X64796000Y-37817299D01*
X63853271Y-37817299D01*
X63902128Y-37758577D01*
X63955193Y-37677568D01*
X64001323Y-37592314D01*
X64031617Y-37522229D01*
X63888588Y-37522229D01*
X63846236Y-37602508D01*
X63799109Y-37674413D01*
X63747245Y-37738604D01*
X63688981Y-37797493D01*
X63635501Y-37840334D01*
X63586118Y-37869762D01*
X63586118Y-37964870D01*
X64796000Y-37964870D01*
G37*
G36*
X64796000Y-38425097D02*
G01*
X64631868Y-38425097D01*
X64631868Y-38593112D01*
X64796000Y-38593112D01*
X64796000Y-38425097D01*
G37*
G36*
X64344583Y-38814983D02*
G01*
X64461420Y-38831668D01*
X64555548Y-38856937D01*
X64630674Y-38889274D01*
X64689974Y-38927749D01*
X64744375Y-38981775D01*
X64782843Y-39044048D01*
X64806484Y-39116205D01*
X64814757Y-39200764D01*
X64806347Y-39286208D01*
X64782451Y-39358092D01*
X64743756Y-39419190D01*
X64691748Y-39470541D01*
X64625573Y-39513914D01*
X64542695Y-39549103D01*
X64454755Y-39571755D01*
X64342444Y-39586946D01*
X64200877Y-39592554D01*
X64031145Y-39584886D01*
X63916505Y-39565516D01*
X63816509Y-39532297D01*
X63737573Y-39490924D01*
X63691936Y-39455964D01*
X63654688Y-39415920D01*
X63625099Y-39370390D01*
X63603859Y-39320424D01*
X63590698Y-39264273D01*
X63586118Y-39200764D01*
X63586277Y-39199152D01*
X63708044Y-39199152D01*
X63713968Y-39247942D01*
X63731498Y-39292170D01*
X63761373Y-39333162D01*
X63805717Y-39371636D01*
X63854526Y-39397295D01*
X63930105Y-39419180D01*
X64041769Y-39434854D01*
X64200438Y-39440952D01*
X64358106Y-39434877D01*
X64469461Y-39419235D01*
X64545170Y-39397352D01*
X64594353Y-39371636D01*
X64639224Y-39333099D01*
X64669324Y-39292340D01*
X64686908Y-39248664D01*
X64692831Y-39200764D01*
X64686929Y-39152837D01*
X64669411Y-39109138D01*
X64639440Y-39068364D01*
X64594792Y-39029818D01*
X64545784Y-39004158D01*
X64470128Y-38982297D01*
X64358608Y-38966655D01*
X64200438Y-38960575D01*
X64043717Y-38967036D01*
X63929693Y-38983892D01*
X63849163Y-39007915D01*
X63794213Y-39036779D01*
X63755810Y-39070455D01*
X63729381Y-39108095D01*
X63713513Y-39150514D01*
X63708044Y-39199152D01*
X63586277Y-39199152D01*
X63594471Y-39115835D01*
X63618234Y-39044174D01*
X63656753Y-38983070D01*
X63708487Y-38931703D01*
X63774504Y-38888182D01*
X63857374Y-38852718D01*
X63945299Y-38829903D01*
X64058110Y-38814570D01*
X64200877Y-38808900D01*
X64344583Y-38814983D01*
G37*
G36*
X64796000Y-39824902D02*
G01*
X64631868Y-39824902D01*
X64631868Y-39992916D01*
X64796000Y-39992916D01*
X64796000Y-39824902D01*
G37*
G36*
X64796000Y-40764480D02*
G01*
X64796000Y-40616908D01*
X63853271Y-40616908D01*
X63902128Y-40558186D01*
X63955193Y-40477177D01*
X64001323Y-40391923D01*
X64031617Y-40321838D01*
X63888588Y-40321838D01*
X63846236Y-40402117D01*
X63799109Y-40474022D01*
X63747245Y-40538213D01*
X63688981Y-40597102D01*
X63635501Y-40639943D01*
X63586118Y-40669371D01*
X63586118Y-40764480D01*
X64796000Y-40764480D01*
G37*
G36*
X65147709Y-41692920D02*
G01*
X63572050Y-41692920D01*
X63572050Y-41821660D01*
X65147709Y-41821660D01*
X65147709Y-41692920D01*
G37*
G36*
X64796000Y-42566186D02*
G01*
X63590808Y-42566186D01*
X63590808Y-42805495D01*
X64441725Y-43089940D01*
X64619558Y-43147313D01*
X64426924Y-43211280D01*
X63590808Y-43499023D01*
X63590808Y-43712979D01*
X64796000Y-43712979D01*
X64796000Y-43559692D01*
X63787765Y-43559692D01*
X64796000Y-43210474D01*
X64796000Y-43067006D01*
X63773697Y-42719473D01*
X64796000Y-42719473D01*
X64796000Y-42566186D01*
G37*
G36*
X64618623Y-43905857D02*
G01*
X64665394Y-43920334D01*
X64707134Y-43944109D01*
X64744709Y-43977861D01*
X64773930Y-44018045D01*
X64795743Y-44066936D01*
X64809731Y-44126313D01*
X64814757Y-44198412D01*
X64807491Y-44283238D01*
X64786181Y-44361151D01*
X64749165Y-44435621D01*
X64688142Y-44518907D01*
X64747267Y-44529939D01*
X64796000Y-44548436D01*
X64796000Y-44702529D01*
X64743875Y-44679216D01*
X64689827Y-44665233D01*
X64616140Y-44658977D01*
X64429122Y-44655854D01*
X64232824Y-44655854D01*
X64142256Y-44653555D01*
X64097123Y-44648454D01*
X64040659Y-44629874D01*
X63996959Y-44602512D01*
X63962287Y-44562981D01*
X63931160Y-44500076D01*
X63912259Y-44424763D01*
X63905002Y-44318946D01*
X63913102Y-44210682D01*
X63935703Y-44121329D01*
X63960097Y-44067045D01*
X63989282Y-44024206D01*
X64023117Y-43991050D01*
X64062966Y-43964883D01*
X64112131Y-43943128D01*
X64172301Y-43926277D01*
X64191059Y-44070551D01*
X64132105Y-44091027D01*
X64090800Y-44115684D01*
X64063124Y-44143897D01*
X64044491Y-44179019D01*
X64031774Y-44228727D01*
X64026928Y-44297623D01*
X64033336Y-44370357D01*
X64050599Y-44424961D01*
X64076973Y-44465638D01*
X64104661Y-44487380D01*
X64145430Y-44501919D01*
X64204101Y-44507477D01*
X64242643Y-44506598D01*
X64359879Y-44506598D01*
X64413295Y-44506598D01*
X64503305Y-44499735D01*
X64558962Y-44482857D01*
X64598351Y-44458407D01*
X64631946Y-44426205D01*
X64660225Y-44385331D01*
X64680673Y-44339765D01*
X64693200Y-44289528D01*
X64697521Y-44233656D01*
X64692567Y-44177485D01*
X64679167Y-44134921D01*
X64658613Y-44102864D01*
X64630182Y-44077892D01*
X64598133Y-44063244D01*
X64561160Y-44058241D01*
X64524627Y-44063381D01*
X64491771Y-44078684D01*
X64464572Y-44103147D01*
X64444290Y-44136863D01*
X64430341Y-44181515D01*
X64415054Y-44265603D01*
X64387666Y-44415766D01*
X64359879Y-44506598D01*
X64242643Y-44506598D01*
X64267866Y-44410013D01*
X64293494Y-44243475D01*
X64315623Y-44112316D01*
X64336091Y-44055825D01*
X64363983Y-44006144D01*
X64400863Y-43963811D01*
X64448833Y-43929940D01*
X64504014Y-43908227D01*
X64565556Y-43900851D01*
X64618623Y-43905857D01*
G37*
G36*
X65130050Y-44877505D02*
G01*
X64993909Y-44861092D01*
X65004026Y-44908208D01*
X65007025Y-44945502D01*
X65002486Y-44991728D01*
X64990539Y-45024197D01*
X64970951Y-45050959D01*
X64944597Y-45072630D01*
X64913950Y-45087528D01*
X64834394Y-45117693D01*
X64798271Y-45130809D01*
X63923759Y-44800422D01*
X63923759Y-44959497D01*
X64425385Y-45140628D01*
X64522439Y-45173752D01*
X64626080Y-45203715D01*
X64529825Y-45231484D01*
X64432786Y-45264385D01*
X63923759Y-45450498D01*
X63923759Y-45598070D01*
X64811314Y-45266877D01*
X64942163Y-45215065D01*
X65007612Y-45184078D01*
X65072454Y-45140100D01*
X65113857Y-45093879D01*
X65132348Y-45058636D01*
X65143740Y-45018578D01*
X65147709Y-44972613D01*
X65143588Y-44929120D01*
X65130050Y-44877505D01*
G37*
G36*
X64655316Y-46924528D02*
G01*
X64796000Y-46924528D01*
X64796000Y-46130251D01*
X64743747Y-46133724D01*
X64693637Y-46147470D01*
X64614976Y-46185845D01*
X64534049Y-46244556D01*
X64454428Y-46320570D01*
X64351233Y-46437630D01*
X64238699Y-46567322D01*
X64155363Y-46651791D01*
X64095071Y-46702365D01*
X64029709Y-46742470D01*
X63970925Y-46764383D01*
X63916945Y-46771242D01*
X63860930Y-46764164D01*
X63812054Y-46743485D01*
X63768494Y-46708520D01*
X63735437Y-46663458D01*
X63715177Y-46609778D01*
X63708044Y-46545048D01*
X63715720Y-46476667D01*
X63737421Y-46420734D01*
X63772744Y-46374469D01*
X63819557Y-46339869D01*
X63878161Y-46317994D01*
X63951896Y-46309769D01*
X63933138Y-46158094D01*
X63849443Y-46172296D01*
X63780007Y-46196994D01*
X63722430Y-46231328D01*
X63674925Y-46275331D01*
X63637338Y-46328258D01*
X63609712Y-46390183D01*
X63592288Y-46462805D01*
X63586118Y-46548272D01*
X63592766Y-46634208D01*
X63611558Y-46707055D01*
X63641457Y-46769100D01*
X63682399Y-46822093D01*
X63733720Y-46866436D01*
X63789816Y-46897571D01*
X63851733Y-46916432D01*
X63920975Y-46922916D01*
X63992349Y-46915620D01*
X64063344Y-46893387D01*
X64132138Y-46856098D01*
X64210623Y-46795422D01*
X64293320Y-46713974D01*
X64423041Y-46567909D01*
X64527147Y-46447636D01*
X64575009Y-46397404D01*
X64615822Y-46362425D01*
X64655316Y-46335195D01*
X64655316Y-46924528D01*
G37*
G36*
X64344583Y-47088368D02*
G01*
X64461420Y-47105052D01*
X64555548Y-47130321D01*
X64630674Y-47162659D01*
X64689974Y-47201133D01*
X64744375Y-47255160D01*
X64782843Y-47317432D01*
X64806484Y-47389590D01*
X64814757Y-47474148D01*
X64806347Y-47559592D01*
X64782451Y-47631477D01*
X64743756Y-47692575D01*
X64691748Y-47743925D01*
X64625573Y-47787299D01*
X64542695Y-47822487D01*
X64454755Y-47845139D01*
X64342444Y-47860331D01*
X64200877Y-47865938D01*
X64031145Y-47858271D01*
X63916505Y-47838900D01*
X63816509Y-47805682D01*
X63737573Y-47764309D01*
X63691936Y-47729349D01*
X63654688Y-47689305D01*
X63625099Y-47643775D01*
X63603859Y-47593809D01*
X63590698Y-47537658D01*
X63586118Y-47474148D01*
X63586277Y-47472536D01*
X63708044Y-47472536D01*
X63713968Y-47521327D01*
X63731498Y-47565554D01*
X63761373Y-47606546D01*
X63805717Y-47645020D01*
X63854526Y-47670680D01*
X63930105Y-47692565D01*
X64041769Y-47708239D01*
X64200438Y-47714337D01*
X64358106Y-47708261D01*
X64469461Y-47692620D01*
X64545170Y-47670736D01*
X64594353Y-47645020D01*
X64639224Y-47606483D01*
X64669324Y-47565725D01*
X64686908Y-47522048D01*
X64692831Y-47474148D01*
X64686929Y-47426222D01*
X64669411Y-47382522D01*
X64639440Y-47341748D01*
X64594792Y-47303203D01*
X64545784Y-47277543D01*
X64470128Y-47255681D01*
X64358608Y-47240040D01*
X64200438Y-47233960D01*
X64043717Y-47240420D01*
X63929693Y-47257277D01*
X63849163Y-47281299D01*
X63794213Y-47310163D01*
X63755810Y-47343839D01*
X63729381Y-47381480D01*
X63713513Y-47423898D01*
X63708044Y-47472536D01*
X63586277Y-47472536D01*
X63594471Y-47389220D01*
X63618234Y-47317558D01*
X63656753Y-47256454D01*
X63708487Y-47205088D01*
X63774504Y-47161566D01*
X63857374Y-47126102D01*
X63945299Y-47103287D01*
X64058110Y-47087955D01*
X64200877Y-47082285D01*
X64344583Y-47088368D01*
G37*
G36*
X64655316Y-48790935D02*
G01*
X64796000Y-48790935D01*
X64796000Y-47996657D01*
X64743747Y-48000130D01*
X64693637Y-48013876D01*
X64614976Y-48052251D01*
X64534049Y-48110963D01*
X64454428Y-48186976D01*
X64351233Y-48304036D01*
X64238699Y-48433728D01*
X64155363Y-48518197D01*
X64095071Y-48568771D01*
X64029709Y-48608876D01*
X63970925Y-48630789D01*
X63916945Y-48637648D01*
X63860930Y-48630570D01*
X63812054Y-48609891D01*
X63768494Y-48574926D01*
X63735437Y-48529864D01*
X63715177Y-48476184D01*
X63708044Y-48411454D01*
X63715720Y-48343073D01*
X63737421Y-48287140D01*
X63772744Y-48240875D01*
X63819557Y-48206275D01*
X63878161Y-48184400D01*
X63951896Y-48176175D01*
X63933138Y-48024501D01*
X63849443Y-48038702D01*
X63780007Y-48063400D01*
X63722430Y-48097734D01*
X63674925Y-48141737D01*
X63637338Y-48194664D01*
X63609712Y-48256589D01*
X63592288Y-48329211D01*
X63586118Y-48414678D01*
X63592766Y-48500614D01*
X63611558Y-48573461D01*
X63641457Y-48635506D01*
X63682399Y-48688499D01*
X63733720Y-48732842D01*
X63789816Y-48763977D01*
X63851733Y-48782838D01*
X63920975Y-48789323D01*
X63992349Y-48782026D01*
X64063344Y-48759794D01*
X64132138Y-48722504D01*
X64210623Y-48661828D01*
X64293320Y-48580380D01*
X64423041Y-48434316D01*
X64527147Y-48314042D01*
X64575009Y-48263810D01*
X64615822Y-48228831D01*
X64655316Y-48201601D01*
X64655316Y-48790935D01*
G37*
G36*
X64509942Y-49421667D02*
G01*
X64796000Y-49421667D01*
X64796000Y-49569239D01*
X64509942Y-49569239D01*
X64509942Y-49731538D01*
X64373948Y-49731538D01*
X64373948Y-49569239D01*
X63595497Y-49569239D01*
X63595497Y-49448705D01*
X63633879Y-49421667D01*
X63839789Y-49421667D01*
X64373948Y-49421667D01*
X64373948Y-49045411D01*
X63839789Y-49421667D01*
X63633879Y-49421667D01*
X64373948Y-48900331D01*
X64509942Y-48900331D01*
X64509942Y-49421667D01*
G37*
G36*
X65147709Y-50432906D02*
G01*
X63572050Y-50432906D01*
X63572050Y-50561646D01*
X65147709Y-50561646D01*
X65147709Y-50432906D01*
G37*
G36*
X64796000Y-51762735D02*
G01*
X64790498Y-51872928D01*
X64775849Y-51956615D01*
X64749977Y-52030900D01*
X64716132Y-52088213D01*
X64669723Y-52135286D01*
X64603658Y-52176287D01*
X64528203Y-52202955D01*
X64445975Y-52211971D01*
X64377665Y-52205226D01*
X64317257Y-52185660D01*
X64263086Y-52153353D01*
X64217439Y-52109812D01*
X64180935Y-52054645D01*
X64153543Y-51985704D01*
X64121702Y-52038666D01*
X64085119Y-52080218D01*
X64043634Y-52111880D01*
X63996841Y-52135282D01*
X63948686Y-52149098D01*
X63898407Y-52153719D01*
X63844501Y-52148578D01*
X63791877Y-52133070D01*
X63739698Y-52106531D01*
X63693452Y-52071090D01*
X63656207Y-52027948D01*
X63627297Y-51976179D01*
X63608206Y-51919479D01*
X63595493Y-51847006D01*
X63590808Y-51755334D01*
X63590808Y-51703750D01*
X63731491Y-51703750D01*
X63736675Y-51823776D01*
X63748418Y-51886566D01*
X63772711Y-51933852D01*
X63811212Y-51968485D01*
X63859912Y-51989830D01*
X63917311Y-51997208D01*
X63976811Y-51989124D01*
X64022971Y-51966434D01*
X64058360Y-51929370D01*
X64083274Y-51875062D01*
X64093029Y-51821706D01*
X64096492Y-51741413D01*
X64237953Y-51741413D01*
X64243829Y-51849343D01*
X64258250Y-51917194D01*
X64275366Y-51955437D01*
X64298720Y-51986985D01*
X64328665Y-52012742D01*
X64363445Y-52031639D01*
X64402432Y-52043184D01*
X64446635Y-52047180D01*
X64502085Y-52041016D01*
X64548923Y-52023367D01*
X64588514Y-51995795D01*
X64616408Y-51962697D01*
X64635734Y-51922789D01*
X64649527Y-51870959D01*
X64655316Y-51762735D01*
X64655316Y-51463562D01*
X64237953Y-51463562D01*
X64237953Y-51741413D01*
X64096492Y-51741413D01*
X64097270Y-51723387D01*
X64097270Y-51463562D01*
X63731491Y-51463562D01*
X63731491Y-51703750D01*
X63590808Y-51703750D01*
X63590808Y-51304487D01*
X64796000Y-51304487D01*
X64796000Y-51762735D01*
G37*
G36*
X64473285Y-52370501D02*
G01*
X64561642Y-52392589D01*
X64635458Y-52427371D01*
X64697154Y-52474508D01*
X64747668Y-52534004D01*
X64784094Y-52602969D01*
X64806776Y-52683258D01*
X64814757Y-52777418D01*
X64809694Y-52853164D01*
X64795281Y-52918977D01*
X64772294Y-52976380D01*
X64740972Y-53026618D01*
X64686129Y-53083981D01*
X64617768Y-53128454D01*
X64533390Y-53160268D01*
X64514632Y-53007787D01*
X64574164Y-52981057D01*
X64618460Y-52950630D01*
X64650333Y-52916782D01*
X64673605Y-52876664D01*
X64687867Y-52830938D01*
X64692831Y-52778224D01*
X64684178Y-52708774D01*
X64659037Y-52648887D01*
X64616774Y-52596214D01*
X64576914Y-52565288D01*
X64528253Y-52541141D01*
X64469114Y-52524097D01*
X64397395Y-52515101D01*
X64397395Y-53164298D01*
X64358048Y-53165177D01*
X64250262Y-53157341D01*
X64160641Y-53135414D01*
X64086003Y-53100976D01*
X64023850Y-53054462D01*
X63972007Y-52995360D01*
X63935278Y-52929175D01*
X63912801Y-52854476D01*
X63905156Y-52770896D01*
X64026928Y-52770896D01*
X64032394Y-52825214D01*
X64048222Y-52872925D01*
X64074338Y-52915432D01*
X64111704Y-52953639D01*
X64150714Y-52978612D01*
X64203990Y-52997662D01*
X64275469Y-53009399D01*
X64275469Y-52523307D01*
X64202916Y-52535723D01*
X64143491Y-52561385D01*
X64094558Y-52599951D01*
X64057073Y-52649564D01*
X64034655Y-52705851D01*
X64026928Y-52770896D01*
X63905156Y-52770896D01*
X63905002Y-52769211D01*
X63912997Y-52681060D01*
X63935999Y-52604094D01*
X63973507Y-52536160D01*
X64026341Y-52475753D01*
X64089807Y-52428210D01*
X64165976Y-52393021D01*
X64257388Y-52370623D01*
X64367280Y-52362620D01*
X64473285Y-52370501D01*
G37*
G36*
X64796000Y-53344989D02*
G01*
X63923759Y-53344989D01*
X63923759Y-53477833D01*
X64047517Y-53477833D01*
X63995824Y-53519991D01*
X63956553Y-53567826D01*
X63928426Y-53622016D01*
X63911062Y-53683800D01*
X63905002Y-53754877D01*
X63912251Y-53831199D01*
X63933358Y-53899518D01*
X63967202Y-53958732D01*
X64007584Y-53998290D01*
X64056932Y-54025808D01*
X64116687Y-54044232D01*
X64165393Y-54049912D01*
X64260228Y-54052438D01*
X64796000Y-54052438D01*
X64796000Y-53904867D01*
X64265064Y-53904867D01*
X64180491Y-53899813D01*
X64129876Y-53887648D01*
X64089878Y-53864018D01*
X64058362Y-53826538D01*
X64038538Y-53779821D01*
X64031617Y-53723736D01*
X64038429Y-53663127D01*
X64058321Y-53609434D01*
X64091628Y-53560997D01*
X64123583Y-53533981D01*
X64169243Y-53512642D01*
X64232743Y-53498080D01*
X64319286Y-53492561D01*
X64796000Y-53492561D01*
X64796000Y-53344989D01*
G37*
G36*
X64796000Y-54922700D02*
G01*
X64303606Y-54922700D01*
X64303606Y-55230886D01*
X64298119Y-55338690D01*
X64283195Y-55424222D01*
X64260733Y-55491376D01*
X64231993Y-55543511D01*
X64197507Y-55583328D01*
X64141689Y-55625919D01*
X64080639Y-55656146D01*
X64013288Y-55674578D01*
X63938194Y-55680928D01*
X63879510Y-55676760D01*
X63825141Y-55664545D01*
X63774356Y-55644438D01*
X63727296Y-55616793D01*
X63689004Y-55584717D01*
X63658438Y-55548084D01*
X63624457Y-55483077D01*
X63602311Y-55399780D01*
X63594151Y-55329601D01*
X63591197Y-55230080D01*
X63731491Y-55230080D01*
X63734838Y-55329846D01*
X63742189Y-55378457D01*
X63757806Y-55417365D01*
X63781314Y-55450581D01*
X63813411Y-55478914D01*
X63850992Y-55499749D01*
X63893809Y-55512555D01*
X63943103Y-55517016D01*
X64009932Y-55509240D01*
X64062940Y-55487476D01*
X64105330Y-55452243D01*
X64128185Y-55418850D01*
X64146207Y-55373482D01*
X64158372Y-55312941D01*
X64162922Y-55233377D01*
X64162922Y-54922700D01*
X63731491Y-54922700D01*
X63731491Y-55230080D01*
X63591197Y-55230080D01*
X63590808Y-55216964D01*
X63590808Y-54763698D01*
X64796000Y-54763698D01*
X64796000Y-54922700D01*
G37*
G36*
X64618623Y-55819437D02*
G01*
X64665394Y-55833914D01*
X64707134Y-55857689D01*
X64744709Y-55891441D01*
X64773930Y-55931625D01*
X64795743Y-55980516D01*
X64809731Y-56039893D01*
X64814757Y-56111992D01*
X64807491Y-56196818D01*
X64786181Y-56274731D01*
X64749165Y-56349201D01*
X64688142Y-56432487D01*
X64747267Y-56443519D01*
X64796000Y-56462016D01*
X64796000Y-56616109D01*
X64743875Y-56592796D01*
X64689827Y-56578813D01*
X64616140Y-56572557D01*
X64429122Y-56569434D01*
X64232824Y-56569434D01*
X64142256Y-56567135D01*
X64097123Y-56562034D01*
X64040659Y-56543454D01*
X63996959Y-56516092D01*
X63962287Y-56476561D01*
X63931160Y-56413656D01*
X63912259Y-56338343D01*
X63905002Y-56232526D01*
X63913102Y-56124261D01*
X63935703Y-56034909D01*
X63960097Y-55980625D01*
X63989282Y-55937786D01*
X64023117Y-55904630D01*
X64062966Y-55878462D01*
X64112131Y-55856707D01*
X64172301Y-55839856D01*
X64191059Y-55984131D01*
X64132105Y-56004607D01*
X64090800Y-56029263D01*
X64063124Y-56057477D01*
X64044491Y-56092599D01*
X64031774Y-56142306D01*
X64026928Y-56211203D01*
X64033336Y-56283936D01*
X64050599Y-56338541D01*
X64076973Y-56379218D01*
X64104661Y-56400960D01*
X64145430Y-56415499D01*
X64204101Y-56421057D01*
X64242643Y-56420177D01*
X64359879Y-56420177D01*
X64413295Y-56420177D01*
X64503305Y-56413315D01*
X64558962Y-56396437D01*
X64598351Y-56371987D01*
X64631946Y-56339784D01*
X64660225Y-56298911D01*
X64680673Y-56253345D01*
X64693200Y-56203108D01*
X64697521Y-56147236D01*
X64692567Y-56091064D01*
X64679167Y-56048500D01*
X64658613Y-56016444D01*
X64630182Y-55991472D01*
X64598133Y-55976824D01*
X64561160Y-55971821D01*
X64524627Y-55976961D01*
X64491771Y-55992264D01*
X64464572Y-56016727D01*
X64444290Y-56050443D01*
X64430341Y-56095095D01*
X64415054Y-56179183D01*
X64387666Y-56329346D01*
X64359879Y-56420177D01*
X64242643Y-56420177D01*
X64267866Y-56323593D01*
X64293494Y-56157055D01*
X64315623Y-56025896D01*
X64336091Y-55969405D01*
X64363983Y-55919724D01*
X64400863Y-55877391D01*
X64448833Y-55843520D01*
X64504014Y-55821807D01*
X64565556Y-55814431D01*
X64618623Y-55819437D01*
G37*
G36*
X64796000Y-56795994D02*
G01*
X63923759Y-56795994D01*
X63923759Y-56928764D01*
X64058948Y-56928764D01*
X63975237Y-56982071D01*
X63934970Y-57022627D01*
X63912466Y-57067886D01*
X63905002Y-57117295D01*
X63909955Y-57165813D01*
X63925304Y-57216066D01*
X63952336Y-57268970D01*
X64088550Y-57218192D01*
X64066730Y-57163217D01*
X64059754Y-57109968D01*
X64067029Y-57064054D01*
X64088843Y-57023066D01*
X64122908Y-56990452D01*
X64169370Y-56968112D01*
X64250268Y-56949894D01*
X64341195Y-56943565D01*
X64796000Y-56943565D01*
X64796000Y-56795994D01*
G37*
G36*
X64796000Y-57356824D02*
G01*
X63923759Y-57356824D01*
X63923759Y-57488862D01*
X64045612Y-57488862D01*
X63988645Y-57536344D01*
X63943616Y-57597819D01*
X63922420Y-57644556D01*
X63909463Y-57695889D01*
X63905002Y-57752791D01*
X63909884Y-57816218D01*
X63923498Y-57868378D01*
X63944862Y-57911353D01*
X63974918Y-57948534D01*
X64011737Y-57977459D01*
X64056310Y-57998695D01*
X63999863Y-58044415D01*
X63957939Y-58093498D01*
X63928661Y-58146382D01*
X63911030Y-58203980D01*
X63905002Y-58267606D01*
X63910052Y-58332071D01*
X63924190Y-58385487D01*
X63946480Y-58429874D01*
X63976809Y-58466762D01*
X64014378Y-58495408D01*
X64062103Y-58517116D01*
X64122300Y-58531277D01*
X64197873Y-58536444D01*
X64796000Y-58536444D01*
X64796000Y-58389752D01*
X64246160Y-58389752D01*
X64163633Y-58385419D01*
X64118372Y-58375390D01*
X64083405Y-58355414D01*
X64055504Y-58323293D01*
X64037787Y-58283060D01*
X64031617Y-58234780D01*
X64038652Y-58176131D01*
X64058978Y-58125970D01*
X64092873Y-58082299D01*
X64137681Y-58050615D01*
X64200944Y-58029574D01*
X64288878Y-58021629D01*
X64796000Y-58021629D01*
X64796000Y-57874131D01*
X64228868Y-57874131D01*
X64163790Y-57869375D01*
X64115790Y-57856757D01*
X64080930Y-57838007D01*
X64054512Y-57810378D01*
X64037789Y-57772258D01*
X64031617Y-57720038D01*
X64039844Y-57660039D01*
X64064517Y-57604780D01*
X64089498Y-57573076D01*
X64121195Y-57547639D01*
X64160651Y-57528136D01*
X64231157Y-57511254D01*
X64343100Y-57504396D01*
X64796000Y-57504396D01*
X64796000Y-57356824D01*
G37*
G36*
X64473285Y-58714172D02*
G01*
X64561642Y-58736259D01*
X64635458Y-58771042D01*
X64697154Y-58818178D01*
X64747668Y-58877675D01*
X64784094Y-58946640D01*
X64806776Y-59026929D01*
X64814757Y-59121088D01*
X64809694Y-59196835D01*
X64795281Y-59262648D01*
X64772294Y-59320051D01*
X64740972Y-59370289D01*
X64686129Y-59427651D01*
X64617768Y-59472125D01*
X64533390Y-59503939D01*
X64514632Y-59351458D01*
X64574164Y-59324728D01*
X64618460Y-59294300D01*
X64650333Y-59260453D01*
X64673605Y-59220334D01*
X64687867Y-59174609D01*
X64692831Y-59121894D01*
X64684178Y-59052445D01*
X64659037Y-58992557D01*
X64616774Y-58939884D01*
X64576914Y-58908958D01*
X64528253Y-58884812D01*
X64469114Y-58867768D01*
X64397395Y-58858771D01*
X64397395Y-59507969D01*
X64358048Y-59508848D01*
X64250262Y-59501011D01*
X64160641Y-59479084D01*
X64086003Y-59444646D01*
X64023850Y-59398133D01*
X63972007Y-59339031D01*
X63935278Y-59272846D01*
X63912801Y-59198146D01*
X63905156Y-59114567D01*
X64026928Y-59114567D01*
X64032394Y-59168885D01*
X64048222Y-59216596D01*
X64074338Y-59259102D01*
X64111704Y-59297309D01*
X64150714Y-59322283D01*
X64203990Y-59341333D01*
X64275469Y-59353070D01*
X64275469Y-58866978D01*
X64202916Y-58879393D01*
X64143491Y-58905055D01*
X64094558Y-58943621D01*
X64057073Y-58993235D01*
X64034655Y-59049522D01*
X64026928Y-59114567D01*
X63905156Y-59114567D01*
X63905002Y-59112882D01*
X63912997Y-59024731D01*
X63935999Y-58947764D01*
X63973507Y-58879831D01*
X64026341Y-58819424D01*
X64089807Y-58771880D01*
X64165976Y-58736692D01*
X64257388Y-58714294D01*
X64367280Y-58706290D01*
X64473285Y-58714172D01*
G37*
G36*
X64661617Y-60010840D02*
G01*
X64791969Y-60032163D01*
X64802252Y-59971255D01*
X64805378Y-59920715D01*
X64798235Y-59845654D01*
X64779953Y-59796078D01*
X64749945Y-59757902D01*
X64712981Y-59733796D01*
X64660052Y-59721592D01*
X64538372Y-59715771D01*
X64036307Y-59715771D01*
X64036307Y-59607547D01*
X63923759Y-59607547D01*
X63923759Y-59715771D01*
X63708191Y-59715771D01*
X63619604Y-59862463D01*
X63923759Y-59862463D01*
X63923759Y-60010840D01*
X64036307Y-60010840D01*
X64036307Y-59862463D01*
X64544381Y-59862463D01*
X64601837Y-59865014D01*
X64625420Y-59870230D01*
X64641516Y-59880436D01*
X64654070Y-59895655D01*
X64661703Y-59915556D01*
X64664695Y-59946067D01*
X64661617Y-60010840D01*
G37*
G36*
X64473285Y-60113976D02*
G01*
X64561642Y-60136064D01*
X64635458Y-60170847D01*
X64697154Y-60217983D01*
X64747668Y-60277479D01*
X64784094Y-60346445D01*
X64806776Y-60426733D01*
X64814757Y-60520893D01*
X64809694Y-60596640D01*
X64795281Y-60662453D01*
X64772294Y-60719855D01*
X64740972Y-60770094D01*
X64686129Y-60827456D01*
X64617768Y-60871930D01*
X64533390Y-60903743D01*
X64514632Y-60751263D01*
X64574164Y-60724532D01*
X64618460Y-60694105D01*
X64650333Y-60660258D01*
X64673605Y-60620139D01*
X64687867Y-60574413D01*
X64692831Y-60521699D01*
X64684178Y-60452249D01*
X64659037Y-60392362D01*
X64616774Y-60339689D01*
X64576914Y-60308763D01*
X64528253Y-60284616D01*
X64469114Y-60267572D01*
X64397395Y-60258576D01*
X64397395Y-60907773D01*
X64358048Y-60908653D01*
X64250262Y-60900816D01*
X64160641Y-60878889D01*
X64086003Y-60844451D01*
X64023850Y-60797937D01*
X63972007Y-60738835D01*
X63935278Y-60672650D01*
X63912801Y-60597951D01*
X63905156Y-60514371D01*
X64026928Y-60514371D01*
X64032394Y-60568689D01*
X64048222Y-60616400D01*
X64074338Y-60658907D01*
X64111704Y-60697114D01*
X64150714Y-60722087D01*
X64203990Y-60741137D01*
X64275469Y-60752875D01*
X64275469Y-60266782D01*
X64202916Y-60279198D01*
X64143491Y-60304860D01*
X64094558Y-60343426D01*
X64057073Y-60393039D01*
X64034655Y-60449326D01*
X64026928Y-60514371D01*
X63905156Y-60514371D01*
X63905002Y-60512686D01*
X63912997Y-60424536D01*
X63935999Y-60347569D01*
X63973507Y-60279636D01*
X64026341Y-60219228D01*
X64089807Y-60171685D01*
X64165976Y-60136496D01*
X64257388Y-60114098D01*
X64367280Y-60106095D01*
X64473285Y-60113976D01*
G37*
G36*
X64796000Y-61086852D02*
G01*
X63923759Y-61086852D01*
X63923759Y-61219623D01*
X64058948Y-61219623D01*
X63975237Y-61272929D01*
X63934970Y-61313485D01*
X63912466Y-61358745D01*
X63905002Y-61408154D01*
X63909955Y-61456672D01*
X63925304Y-61506924D01*
X63952336Y-61559829D01*
X64088550Y-61509050D01*
X64066730Y-61454075D01*
X64059754Y-61400826D01*
X64067029Y-61354913D01*
X64088843Y-61313925D01*
X64122908Y-61281310D01*
X64169370Y-61258970D01*
X64250268Y-61240752D01*
X64341195Y-61234424D01*
X64796000Y-61234424D01*
X64796000Y-61086852D01*
G37*
%LPC*%
D12*
G04 #@! TO.C,K1*
X68660000Y-68250000D03*
D13*
X61040000Y-68250000D03*
X50880000Y-68250000D03*
X48340000Y-68250000D03*
G04 #@! TD*
D14*
G04 #@! TO.C,R8*
X38440000Y-61832500D03*
D15*
X46060000Y-61832500D03*
G04 #@! TD*
D16*
G04 #@! TO.C,H2*
X86000000Y-29000000D03*
G04 #@! TD*
D12*
G04 #@! TO.C,K4*
X68660000Y-37000000D03*
D13*
X61040000Y-37000000D03*
X50880000Y-37000000D03*
X48340000Y-37000000D03*
G04 #@! TD*
D17*
G04 #@! TO.C,Q4*
X42332500Y-67852500D03*
D18*
X42332500Y-66582500D03*
X42332500Y-65312500D03*
G04 #@! TD*
D14*
G04 #@! TO.C,R2*
X38440000Y-41250000D03*
D15*
X46060000Y-41250000D03*
G04 #@! TD*
D19*
G04 #@! TO.C,F2*
X75750000Y-56000000D03*
X75760000Y-50920000D03*
G04 #@! TD*
D14*
G04 #@! TO.C,R6*
X38440000Y-30750000D03*
D15*
X46060000Y-30750000D03*
G04 #@! TD*
D12*
G04 #@! TO.C,K2*
X68660000Y-47750000D03*
D13*
X61040000Y-47750000D03*
X50880000Y-47750000D03*
X48340000Y-47750000D03*
G04 #@! TD*
D14*
G04 #@! TO.C,R4*
X38440000Y-51750000D03*
D15*
X46060000Y-51750000D03*
G04 #@! TD*
D14*
G04 #@! TO.C,R3*
X35750000Y-51380000D03*
D15*
X35750000Y-59000000D03*
G04 #@! TD*
D20*
G04 #@! TO.C,J6*
X28000000Y-53750000D03*
D21*
X28000000Y-51250000D03*
X28000000Y-48750000D03*
X28000000Y-46250000D03*
X28000000Y-43750000D03*
X28000000Y-41250000D03*
G04 #@! TD*
D16*
G04 #@! TO.C,H4*
X86000000Y-67000000D03*
G04 #@! TD*
D19*
G04 #@! TO.C,F3*
X68000000Y-29250000D03*
X62920000Y-29240000D03*
G04 #@! TD*
D12*
G04 #@! TO.C,K3*
X68660000Y-58000000D03*
D13*
X61040000Y-58000000D03*
X50880000Y-58000000D03*
X48340000Y-58000000D03*
G04 #@! TD*
D14*
G04 #@! TO.C,R5*
X35750000Y-30190000D03*
D15*
X35750000Y-37810000D03*
G04 #@! TD*
D14*
G04 #@! TO.C,R7*
X35750000Y-61272500D03*
D15*
X35750000Y-68892500D03*
G04 #@! TD*
D17*
G04 #@! TO.C,Q2*
X42332500Y-57500000D03*
D18*
X42332500Y-56230000D03*
X42332500Y-54960000D03*
G04 #@! TD*
D17*
G04 #@! TO.C,Q3*
X42332500Y-36500000D03*
D18*
X42332500Y-35230000D03*
X42332500Y-33960000D03*
G04 #@! TD*
D16*
G04 #@! TO.C,H1*
X29000000Y-29000000D03*
G04 #@! TD*
D14*
G04 #@! TO.C,R1*
X35750000Y-40690000D03*
D15*
X35750000Y-48310000D03*
G04 #@! TD*
D19*
G04 #@! TO.C,F1*
X75750000Y-46790000D03*
X75760000Y-41710000D03*
G04 #@! TD*
D17*
G04 #@! TO.C,Q1*
X42332500Y-47290000D03*
D18*
X42332500Y-46020000D03*
X42332500Y-44750000D03*
G04 #@! TD*
D16*
G04 #@! TO.C,H3*
X29000000Y-67000000D03*
G04 #@! TD*
D22*
G04 #@! TO.C,J1*
X86000000Y-55500000D03*
D23*
X86000000Y-50420000D03*
X86000000Y-45340000D03*
X86000000Y-40260000D03*
G04 #@! TD*
%LPD*%
M02*
